<svg xmlns="http://www.w3.org/2000/svg" viewBox="0 0 583.45 402.71"><defs><style>.cls-1{fill:#f7931e;}.cls-2{fill:#fff;}.cls-3{fill:#52a4ef;}.cls-4{fill:#40789b;}</style></defs><title>calendar_2</title><g id="Calque_2" data-name="Calque 2"><g id="Voyage"><path class="cls-1" d="M123.75,391.66a10.87,10.87,0,0,1-.86,4.33,11.23,11.23,0,0,1-2.37,3.49,11.12,11.12,0,0,1-3.49,2.37,11,11,0,0,1-8.52,0,11.14,11.14,0,0,1-5.86-5.86,10.7,10.7,0,0,1-.86-4.33V354.91h6.79V391a5.07,5.07,0,0,0,1.19,3.72,4.34,4.34,0,0,0,6,0A5.07,5.07,0,0,0,117,391V354.91h6.79Z"/><path class="cls-1" d="M129.74,368.56h6.79v3.26h.14a9.72,9.72,0,0,1,2.56-2.63,6.66,6.66,0,0,1,3.83-1,7.79,7.79,0,0,1,2.53.44,5.75,5.75,0,0,1,2.26,1.43,7.13,7.13,0,0,1,1.6,2.56,10.73,10.73,0,0,1,.6,3.83v25.89h-6.79V379a4.49,4.49,0,0,0-.87-2.93,3,3,0,0,0-2.46-1.07,2.85,2.85,0,0,0-2.66,1.2,6.67,6.67,0,0,0-.74,3.46v22.7h-6.79Z"/><path class="cls-1" d="M161.83,388v4.59a3.27,3.27,0,0,0,.9,2.47,3.39,3.39,0,0,0,2.43.86,2.68,2.68,0,0,0,2.56-1.13,6.14,6.14,0,0,0,.77-2.26h6.79a11.38,11.38,0,0,1-.7,4,9.07,9.07,0,0,1-2,3.2,9.59,9.59,0,0,1-3.2,2.19,10.58,10.58,0,0,1-4.19.8,10.38,10.38,0,0,1-5.39-1.33,9.12,9.12,0,0,1-3.47-3.53,9.25,9.25,0,0,1-1-3.06A24.65,24.65,0,0,1,155,391V379.88a24.79,24.79,0,0,1,.27-3.8,8.89,8.89,0,0,1,4.46-6.59,10.48,10.48,0,0,1,5.39-1.33,10.88,10.88,0,0,1,4.23.8,8.91,8.91,0,0,1,3.19,2.23,10.14,10.14,0,0,1,2,3.36,12.22,12.22,0,0,1,.7,4.13V388Zm0-5.33h6.66v-3.86a4.1,4.1,0,0,0-.9-2.89,3.53,3.53,0,0,0-4.86,0,4.1,4.1,0,0,0-.9,2.89Z"/><path class="cls-1" d="M205,378a3.42,3.42,0,0,0-1.1-2.59,3.58,3.58,0,0,0-2.37-.87,3.06,3.06,0,0,0-2.46,1,3.57,3.57,0,0,0-.86,2.37,3.94,3.94,0,0,0,.46,1.83,4.34,4.34,0,0,0,2.4,1.63l4,1.6a9.67,9.67,0,0,1,5.23,4,11.09,11.09,0,0,1,1.43,5.53,10.17,10.17,0,0,1-.77,4,10.75,10.75,0,0,1-2.09,3.23,9.59,9.59,0,0,1-3.2,2.19,10.21,10.21,0,0,1-4.06.8,10.87,10.87,0,0,1-3.79-.66,9.44,9.44,0,0,1-3.17-1.94,9.72,9.72,0,0,1-2.23-3.16,11.51,11.51,0,0,1-.93-4.42h6.39a6.58,6.58,0,0,0,1,2.59,2.94,2.94,0,0,0,2.69,1.2,4,4,0,0,0,2.63-1,3.32,3.32,0,0,0,1.17-2.7,4,4,0,0,0-.73-2.4,5.84,5.84,0,0,0-2.67-1.73l-3.26-1.2a11.06,11.06,0,0,1-5-3.56,9,9,0,0,1-1.83-5.76,9.83,9.83,0,0,1,.79-4,9.7,9.7,0,0,1,2.17-3.13,10.13,10.13,0,0,1,3.16-2,10.28,10.28,0,0,1,3.86-.73,9.56,9.56,0,0,1,6.86,2.83,9.42,9.42,0,0,1,2,3.13,10.35,10.35,0,0,1,.74,3.89Z"/><path class="cls-1" d="M222.27,388v4.59a3.27,3.27,0,0,0,.9,2.47,3.39,3.39,0,0,0,2.43.86,2.67,2.67,0,0,0,2.56-1.13,6,6,0,0,0,.77-2.26h6.79a11.16,11.16,0,0,1-.7,4,8.8,8.8,0,0,1-2,3.2,9.55,9.55,0,0,1-3.19,2.19,10.66,10.66,0,0,1-4.2.8,10.43,10.43,0,0,1-5.39-1.33,9.09,9.09,0,0,1-3.46-3.53,9.26,9.26,0,0,1-1-3.06,24.65,24.65,0,0,1-.27-3.79V379.88a24.79,24.79,0,0,1,.27-3.8,9.26,9.26,0,0,1,1-3.06,9.16,9.16,0,0,1,3.46-3.53,10.53,10.53,0,0,1,5.39-1.33,10.88,10.88,0,0,1,4.23.8,8.91,8.91,0,0,1,3.19,2.23,10,10,0,0,1,2,3.36,12,12,0,0,1,.7,4.13V388Zm0-5.33h6.66v-3.86a4.1,4.1,0,0,0-.9-2.89,3.53,3.53,0,0,0-4.86,0,4.1,4.1,0,0,0-.9,2.89Z"/><path class="cls-1" d="M240.71,368.56h6.79v3.26h.14a9.72,9.72,0,0,1,2.56-2.63,6.66,6.66,0,0,1,3.83-1,6.08,6.08,0,0,1,3.66,1.07,10.83,10.83,0,0,1,2.39,2.33,14.77,14.77,0,0,1,2.8-2.4,7.72,7.72,0,0,1,4.26-1,8.4,8.4,0,0,1,2.6.44,6.21,6.21,0,0,1,2.39,1.43,7.36,7.36,0,0,1,1.73,2.56,9.66,9.66,0,0,1,.67,3.83v25.89h-6.79V379a4.49,4.49,0,0,0-.87-2.93,3,3,0,0,0-2.46-1.07,2.86,2.86,0,0,0-2.66,1.2,6.67,6.67,0,0,0-.73,3.46v22.7h-6.79V379a4.49,4.49,0,0,0-.87-2.93A3,3,0,0,0,250.9,375a2.87,2.87,0,0,0-2.67,1.2,6.78,6.78,0,0,0-.73,3.46v22.7h-6.79Z"/><path class="cls-1" d="M293,398.85h-.13a12.5,12.5,0,0,1-2.7,2.86,6.37,6.37,0,0,1-3.83,1,8.93,8.93,0,0,1-2.46-.36,6.18,6.18,0,0,1-2.36-1.34,6.78,6.78,0,0,1-1.8-2.73,12.41,12.41,0,0,1-.7-4.56,23.41,23.41,0,0,1,.47-5,8,8,0,0,1,1.69-3.6,7.39,7.39,0,0,1,3.3-2.13,16.82,16.82,0,0,1,5.26-.7c.48,0,1,0,1.46.07s1.09.09,1.8.13V379a5.27,5.27,0,0,0-.73-2.87,3,3,0,0,0-2.67-1.13,3.85,3.85,0,0,0-2.43.87,4.09,4.09,0,0,0-1.43,2.53h-6.59a11.1,11.1,0,0,1,3.06-7.33,9.81,9.81,0,0,1,3.2-2.09,10.94,10.94,0,0,1,4.19-.77,11.66,11.66,0,0,1,4,.67,8.86,8.86,0,0,1,3.23,2,9.5,9.5,0,0,1,2.16,3.33,12.56,12.56,0,0,1,.8,4.66v23.5H293Zm0-11.05a11.6,11.6,0,0,0-1.87-.2,6.68,6.68,0,0,0-3.76,1c-1,.69-1.56,1.94-1.56,3.76a5,5,0,0,0,.93,3.13,3.11,3.11,0,0,0,2.6,1.2,3.35,3.35,0,0,0,2.69-1.13,4.76,4.76,0,0,0,1-3.2Z"/><path class="cls-1" d="M304.75,354.91h6.79v6.79h-6.79Zm0,13.65h6.79v33.75h-6.79Z"/><path class="cls-1" d="M317.13,368.56h6.79v3.26h.14a9.72,9.72,0,0,1,2.56-2.63,6.66,6.66,0,0,1,3.83-1,7.79,7.79,0,0,1,2.53.44,5.75,5.75,0,0,1,2.26,1.43,7.13,7.13,0,0,1,1.6,2.56,10.73,10.73,0,0,1,.6,3.83v25.89h-6.79V379a4.49,4.49,0,0,0-.87-2.93,3,3,0,0,0-2.46-1.07,2.85,2.85,0,0,0-2.66,1.2,6.67,6.67,0,0,0-.74,3.46v22.7h-6.79Z"/><path class="cls-1" d="M349.22,388v4.59a3.27,3.27,0,0,0,.9,2.47,3.39,3.39,0,0,0,2.43.86,2.68,2.68,0,0,0,2.56-1.13,6.14,6.14,0,0,0,.77-2.26h6.79a11.38,11.38,0,0,1-.7,4,9.07,9.07,0,0,1-2,3.2,9.59,9.59,0,0,1-3.2,2.19,10.58,10.58,0,0,1-4.19.8,10.38,10.38,0,0,1-5.39-1.33,9.12,9.12,0,0,1-3.47-3.53,9.26,9.26,0,0,1-1-3.06,26,26,0,0,1-.26-3.79V379.88a26.18,26.18,0,0,1,.26-3.8,9,9,0,0,1,4.47-6.59,10.48,10.48,0,0,1,5.39-1.33,10.8,10.8,0,0,1,4.22.8,9,9,0,0,1,3.2,2.23,10.31,10.31,0,0,1,2,3.36,12.22,12.22,0,0,1,.7,4.13V388Zm0-5.33h6.66v-3.86a4.1,4.1,0,0,0-.9-2.89,3.53,3.53,0,0,0-4.86,0,4.1,4.1,0,0,0-.9,2.89Z"/><path class="cls-1" d="M393.55,399.25c-.44.49-.86.94-1.26,1.36a7,7,0,0,1-1.33,1.1,6.17,6.17,0,0,1-1.67.73,7.9,7.9,0,0,1-2.19.27q-4.2,0-5.93-3.19a8.88,8.88,0,0,1-.86-2.8,29.17,29.17,0,0,1-.27-4.46V379.41a52.85,52.85,0,0,1,.2-5.39,6.75,6.75,0,0,1,.86-2.8,7.28,7.28,0,0,1,2.23-2.19,7.12,7.12,0,0,1,3.83-.87,7,7,0,0,1,3.56.9,8.21,8.21,0,0,1,2.7,2.56h.13V354.91h6.79v47.4h-6.79Zm-6.72-7.92a6.22,6.22,0,0,0,.8,3.33,2.77,2.77,0,0,0,2.53,1.26,3,3,0,0,0,2.46-1.16,4.72,4.72,0,0,0,.93-3V378.61a3.72,3.72,0,0,0-1-2.63,3.23,3.23,0,0,0-2.43-1,2.77,2.77,0,0,0-2.63,1.2,5.42,5.42,0,0,0-.7,2.8Z"/><path class="cls-1" d="M412.13,388v4.59a3.3,3.3,0,0,0,.89,2.47,3.39,3.39,0,0,0,2.43.86,2.7,2.7,0,0,0,2.57-1.13,6.11,6.11,0,0,0,.76-2.26h6.79a11.16,11.16,0,0,1-.7,4,8.8,8.8,0,0,1-2,3.2,9.45,9.45,0,0,1-3.19,2.19,10.63,10.63,0,0,1-4.2.8,10.43,10.43,0,0,1-5.39-1.33,9.09,9.09,0,0,1-3.46-3.53,9.26,9.26,0,0,1-1-3.06,24.71,24.71,0,0,1-.26-3.79V379.88a24.85,24.85,0,0,1,.26-3.8,9.26,9.26,0,0,1,1-3.06,9.16,9.16,0,0,1,3.46-3.53,10.53,10.53,0,0,1,5.39-1.33,10.81,10.81,0,0,1,4.23.8,9,9,0,0,1,3.2,2.23,10.11,10.11,0,0,1,2,3.36,12,12,0,0,1,.7,4.13V388Zm0-5.33h6.65v-3.86a4.1,4.1,0,0,0-.9-2.89,3.53,3.53,0,0,0-4.86,0,4.15,4.15,0,0,0-.89,2.89Z"/><path class="cls-1" d="M430.56,395.52h6.79v6.79h-6.79Z"/><path class="cls-1" d="M443,395.52h6.79v6.79H443Z"/><path class="cls-1" d="M455.33,395.52h6.79v6.79h-6.79Z"/><path d="M195.83,187.6V21.13a4.37,4.37,0,0,1,4.32-2.2c3.7.1,7.41,0,11.12,0h3.6c.23-1.56.34-2.85.62-4.11C216.89,8.47,219,2.53,225.86,0h3.33c8.47,3.49,9.61,11.26,10.92,18.85h6.34C247.76,11.13,249,3.48,257.37,0h3.34c8.59,3.36,9.66,11.16,11.06,18.83h6.37c.26-1.64.41-3.18.76-4.67C280.37,8,282.49,2.29,289.26,0h3c2.59.85,4.95,2.15,6.29,4.55a55.69,55.69,0,0,1,3.68,8.19,42,42,0,0,1,1.22,6.12h6.38c.21-1.41.33-2.76.62-4.06,1.4-6.36,3.47-12.27,10.36-14.8h3.34c8.46,3.49,9.61,11.26,10.93,19h14.55c3,0,4,.8,4.58,3.69L358.7,44.4l26.64,127.91c.71,3.42-.47,4.88-4,4.88H354c0,2.89,0,5.53,0,8.18,0,3.45-1,4.46-4.37,4.46q-74.79,0-149.57,0C198.17,189.86,196.75,189.31,195.83,187.6Zm6.46-124.21v120H347.58v-120Zm-.08-6.52c.69,0,1.23.1,1.77.1q70.91,0,141.81,0c1.57,0,2-.48,1.95-2-.06-9.27,0-18.54,0-27.81,0-.6-.07-1.19-.1-1.8H316.26c.34,3.95,1.14,7.62,3.5,10.7a6.61,6.61,0,0,0,3,1.86c1.85.63,3,2,2.73,3.61a3.18,3.18,0,0,1-3.66,2.64c-3.17-.18-5.41-1.95-7.21-4.35a25,25,0,0,1-4.56-12.75c-.16-1.57-.7-1.88-2.14-1.87-7.17.06-14.34,0-21.51,0-.54,0-1.08.06-1.6.09-.24,3.35,1.36,8.69,3.45,11A6.5,6.5,0,0,0,291.05,38c2,.63,3.06,1.89,2.75,3.73s-1.64,2.66-3.71,2.53a9,9,0,0,1-6.22-3.29,20.59,20.59,0,0,1-4.62-9.36c-.49-2-.79-4.1-1.18-6.16h-25A21.43,21.43,0,0,0,256,35.52a5.24,5.24,0,0,0,3.65,2.57,3,3,0,0,1,2.56,3.47,3.09,3.09,0,0,1-3.43,2.67,8,8,0,0,1-6.63-3.53,45.56,45.56,0,0,1-4.31-8.5c-.83-2.13-1-4.53-1.44-6.83H221.13a62.47,62.47,0,0,0,1.56,6.56c1,2.92,2.18,5.77,5.93,6.36,1.46.22,2.15,1.67,2,3.17a2.9,2.9,0,0,1-2.79,2.75,7.33,7.33,0,0,1-5.93-2.13,15.49,15.49,0,0,1-3.67-4.8c-1.32-3.35-2.07-6.93-3.11-10.4-.16-.56-.53-1.51-.83-1.52-4-.1-8-.06-12-.06ZM378.59,170.78q-12.1-58.08-24.14-115.86l-.28.06v115.8Zm-145-151.94c-.14-1-.22-1.95-.41-2.85-.64-3-1.43-6-3.57-8.39-1.49-1.65-2.82-1.74-4.23-.14-2.85,3.23-3.65,7.2-4.07,11.38Zm94.91,0c-.5-4-1.22-7.9-3.82-11.07-1.57-1.92-3.08-2-4.6-.11-2.64,3.21-3.45,7.07-3.87,11.18Zm-63.28,0c-.46-4-1.2-7.66-3.59-10.8-1.72-2.27-3.35-2.3-5.08-.07-2.45,3.17-3.2,6.92-3.62,10.87Zm31.6,0c-.34-3.82-1.15-7.39-3.32-10.5-1.83-2.63-3.7-2.67-5.53-.1-2.23,3.14-3.06,6.74-3.37,10.6Z"/><path class="cls-2" d="M202.29,63.39H347.58v120H202.29Zm88.48,18.89c-2,0-4.07,0-6.11,0s-3.34,1.09-3.39,3.13c-.1,4.19-.09,8.39,0,12.59a3,3,0,0,0,3.32,3.2c4.07.05,8.15,0,12.22,0,2.06,0,3.34-1.11,3.39-3.13q.15-6.28,0-12.59c0-2.13-1.31-3.17-3.51-3.2C294.72,82.26,292.75,82.28,290.77,82.28Zm.07,31.59c-2,0-4,0-5.93,0-2.37,0-3.62,1.16-3.66,3.48q-.11,6,0,12c0,2.29,1.19,3.42,3.46,3.44,4,.06,8,0,12,0,2.27,0,3.44-1.15,3.48-3.44q.11-6,0-12c0-2.32-1.29-3.44-3.66-3.49C294.66,113.84,292.75,113.87,290.84,113.87Zm0,31.68h0c-2.1,0-4.2-.06-6.29,0s-3.28,1.17-3.33,3.21q-.12,6.19,0,12.4a3.11,3.11,0,0,0,3.41,3.34c4,.07,8,.06,12,0,2.25,0,3.48-1.21,3.52-3.43q.12-6,0-12c0-2.37-1.2-3.44-3.61-3.5C294.71,145.51,292.79,145.55,290.88,145.55ZM237,91.72c0-1.91,0-3.82,0-5.74,0-2.5-1.16-3.67-3.6-3.69q-5.93,0-11.85,0c-2.36,0-3.48,1.15-3.5,3.56q0,5.93,0,11.85c0,2.37,1.17,3.5,3.54,3.52q5.92,0,11.85,0c2.33,0,3.5-1.22,3.55-3.57C237,95.67,237,93.7,237,91.72Zm22.16,9.51c2,0,3.95,0,5.93,0,2.27,0,3.46-1.16,3.48-3.39q.07-6.12,0-12.22a3,3,0,0,0-3.36-3.32q-6.12-.06-12.23,0a3.09,3.09,0,0,0-3.34,3.37c0,4.07-.05,8.15,0,12.22a3.13,3.13,0,0,0,3.4,3.33C255.06,101.26,257.09,101.23,259.13,101.23Zm53.79-9.65c0,2.1,0,4.19,0,6.29a3.05,3.05,0,0,0,3.35,3.34q6.11.08,12.22,0a3.11,3.11,0,0,0,3.36-3.36q.08-6.12,0-12.23a3.11,3.11,0,0,0-3.39-3.33q-6.11-.06-12.22,0c-2.15,0-3.27,1.18-3.32,3.35C312.88,87.63,312.92,89.6,312.92,91.58Zm-44.37,63.58c0-2.1,0-4.2,0-6.29s-1.12-3.25-3.2-3.28q-6.21-.12-12.41,0a3.07,3.07,0,0,0-3.32,3.39q-.06,6,0,12c0,2.23,1.21,3.49,3.43,3.52q6,.1,12,0c2.33,0,3.44-1.25,3.48-3.63C268.58,159,268.56,157.07,268.55,155.16Zm53.88-22.32c2,0,4.08.06,6.11,0a3.08,3.08,0,0,0,3.32-3.39q.08-6,0-12a3.17,3.17,0,0,0-3.42-3.51q-6-.09-12,0c-2.26,0-3.44,1.21-3.47,3.43q-.06,6,0,12c0,2.3,1.11,3.41,3.39,3.48C318.36,132.89,320.4,132.85,322.43,132.84Zm-53.88-9.32c0-2.1,0-4.2,0-6.3a3.06,3.06,0,0,0-3.2-3.32c-4.13-.08-8.27-.07-12.4,0a3.15,3.15,0,0,0-3.33,3.43c0,4.07-.05,8.15,0,12.22a3,3,0,0,0,3.23,3.28q6.2.1,12.4,0c2.17,0,3.25-1.19,3.3-3.39C268.59,127.47,268.56,125.49,268.55,123.52Zm-41,9.33h6.11c2.13-.13,3.29-1.25,3.32-3.4.05-4,0-8,0-12,0-2.23-1.22-3.49-3.42-3.52q-6-.09-12,0c-2.26,0-3.45,1.22-3.47,3.44q-.06,6,0,12c0,2.3,1.1,3.41,3.39,3.48C223.44,132.89,225.48,132.85,227.52,132.85ZM218,154.92c0,2,0,4.07,0,6.11s1.15,3.44,3.24,3.48c4.13.09,8.27.08,12.4,0a3.1,3.1,0,0,0,3.29-3.27q.09-6.21,0-12.41a3,3,0,0,0-3.07-3.24q-6.39-.12-12.77,0c-2,0-3,1.22-3.08,3.21S218,152.88,218,154.92Zm94.91,0c0,2.1,0,4.2,0,6.3a3.06,3.06,0,0,0,3.21,3.31q6.19.12,12.4,0a3.13,3.13,0,0,0,3.31-3.44q.08-6.12,0-12.22a3,3,0,0,0-3.06-3.26q-6.39-.12-12.77,0a2.92,2.92,0,0,0-3.09,3.2C312.88,150.83,312.93,152.87,312.92,154.9Z"/><path class="cls-3" d="M202.21,56.87V25.3c4.06,0,8,0,12,.06.3,0,.67,1,.83,1.52,1,3.47,1.79,7.05,3.11,10.4a15.49,15.49,0,0,0,3.67,4.8,7.33,7.33,0,0,0,5.93,2.13,2.9,2.9,0,0,0,2.79-2.75c.19-1.5-.5-3-2-3.17-3.75-.59-4.91-3.44-5.93-6.36a62.47,62.47,0,0,1-1.56-6.56h25.26c.46,2.3.61,4.7,1.44,6.83a45.56,45.56,0,0,0,4.31,8.5,8,8,0,0,0,6.63,3.53,3.09,3.09,0,0,0,3.43-2.67,3,3,0,0,0-2.56-3.47A5.24,5.24,0,0,1,256,35.52a21.43,21.43,0,0,1-2.93-10.12h25c.39,2.06.69,4.13,1.18,6.16a20.59,20.59,0,0,0,4.62,9.36,9,9,0,0,0,6.22,3.29c2.07.13,3.42-.79,3.71-2.53s-.73-3.1-2.75-3.73a6.5,6.5,0,0,1-2.77-1.62c-2.09-2.27-3.69-7.61-3.45-11,.52,0,1.06-.09,1.6-.09,7.17,0,14.34,0,21.51,0,1.44,0,2,.3,2.14,1.87a25,25,0,0,0,4.56,12.75c1.8,2.4,4,4.17,7.21,4.35a3.18,3.18,0,0,0,3.66-2.64c.27-1.66-.88-3-2.73-3.61a6.61,6.61,0,0,1-3-1.86c-2.36-3.08-3.16-6.75-3.5-10.7h31.35c0,.61.1,1.2.1,1.8,0,9.27,0,18.54,0,27.81,0,1.51-.38,2-1.95,2Q274.89,57,204,57C203.44,57,202.9,56.91,202.21,56.87Z"/><path class="cls-4" d="M378.59,170.78H354.17V55l.28-.06Q366.5,112.78,378.59,170.78Z"/><path d="M290.77,82.28c2,0,4,0,5.93,0,2.2,0,3.46,1.07,3.51,3.2q.14,6.3,0,12.59c-.05,2-1.33,3.12-3.39,3.13-4.07,0-8.15.05-12.22,0a3,3,0,0,1-3.32-3.2c-.09-4.2-.1-8.4,0-12.59.05-2,1.31-3.09,3.39-3.13S288.74,82.28,290.77,82.28Zm-3,6.38v6.15h6.06V88.66Z"/><path d="M290.84,113.87c1.91,0,3.82,0,5.73,0,2.37.05,3.62,1.17,3.66,3.49q.11,6,0,12c0,2.29-1.21,3.41-3.48,3.44-4,0-8,0-12,0-2.27,0-3.42-1.15-3.46-3.44q-.11-6,0-12c0-2.32,1.29-3.44,3.66-3.48C286.88,113.84,288.86,113.87,290.84,113.87Zm3,12.56v-6.14H287.7v6.14Z"/><path d="M290.88,145.55c1.91,0,3.83,0,5.74,0,2.41.06,3.57,1.13,3.61,3.5q.11,6,0,12c0,2.22-1.27,3.4-3.52,3.43-4,.05-8,.06-12,0a3.11,3.11,0,0,1-3.41-3.34q-.12-6.19,0-12.4c.05-2,1.25-3.14,3.33-3.21s4.19,0,6.29,0Zm2.93,6.46h-6.08v6.08h6.08Z"/><path d="M237,91.72c0,2,0,4,0,5.93-.05,2.35-1.22,3.55-3.55,3.57q-5.92,0-11.85,0c-2.37,0-3.52-1.15-3.54-3.52q-.06-5.92,0-11.85c0-2.41,1.14-3.54,3.5-3.56q5.93,0,11.85,0c2.44,0,3.57,1.19,3.6,3.69C237,87.9,237,89.81,237,91.72Zm-6.42,3.11V88.71h-6.08v6.12Z"/><path d="M259.13,101.23c-2,0-4.07,0-6.11,0a3.13,3.13,0,0,1-3.4-3.33c-.06-4.07-.05-8.15,0-12.22A3.09,3.09,0,0,1,253,82.3q6.12-.08,12.23,0a3,3,0,0,1,3.36,3.32q.07,6.11,0,12.22c0,2.23-1.21,3.35-3.48,3.39C263.08,101.25,261.11,101.23,259.13,101.23Zm2.95-6.39V88.7h-6v6.14Z"/><path d="M312.92,91.58c0-2,0-4,0-5.93.05-2.17,1.17-3.33,3.32-3.35q6.12-.08,12.22,0a3.11,3.11,0,0,1,3.39,3.33q.08,6.12,0,12.23a3.11,3.11,0,0,1-3.36,3.36q-6.11.08-12.22,0a3.05,3.05,0,0,1-3.35-3.34C312.88,95.77,312.92,93.68,312.92,91.58Zm6.41,3.23h6.11V88.74h-6.11Z"/><path d="M268.56,155.16c0,1.91,0,3.83,0,5.74,0,2.38-1.15,3.59-3.48,3.63q-6,.09-12,0c-2.22,0-3.41-1.29-3.43-3.52q-.06-6,0-12a3.07,3.07,0,0,1,3.32-3.39q6.21-.11,12.41,0c2.08,0,3.15,1.2,3.2,3.28S268.55,153.06,268.56,155.16ZM256.05,152v6.14h6.06V152Z"/><path d="M322.43,132.85c-2,0-4.07,0-6.11,0-2.28-.07-3.37-1.18-3.39-3.48q-.06-6,0-12c0-2.22,1.21-3.41,3.47-3.43q6-.09,12,0a3.17,3.17,0,0,1,3.42,3.51q.08,6,0,12a3.08,3.08,0,0,1-3.32,3.39C326.51,132.9,324.47,132.84,322.43,132.85Zm3-6.42v-6.14h-6.08v6.14Z"/><path d="M268.56,123.52c0,2,0,4,0,5.92-.05,2.2-1.13,3.36-3.3,3.39q-6.19.09-12.4,0a3,3,0,0,1-3.23-3.28c-.06-4.07-.05-8.15,0-12.22a3.15,3.15,0,0,1,3.33-3.43c4.13-.06,8.27-.07,12.4,0a3.06,3.06,0,0,1,3.2,3.32C268.59,119.32,268.55,121.42,268.56,123.52Zm-6.47,2.94v-6.15h-6v6.15Z"/><path d="M227.52,132.85c-2,0-4.08,0-6.11,0-2.29-.07-3.37-1.18-3.39-3.48q-.06-6,0-12c0-2.22,1.21-3.41,3.47-3.44q6-.07,12,0c2.2,0,3.4,1.29,3.42,3.52,0,4,.05,8,0,12,0,2.15-1.19,3.27-3.32,3.4h-6.11Zm-3.14-6.49h6.15v-6h-6.15Z"/><path d="M218,154.92c0-2,0-4.08,0-6.11s1.11-3.17,3.08-3.21q6.38-.12,12.77,0a3,3,0,0,1,3.07,3.24q.09,6.21,0,12.41a3.1,3.1,0,0,1-3.29,3.27c-4.13.07-8.27.08-12.4,0-2.09,0-3.19-1.32-3.24-3.48S218,157,218,154.92Zm6.45-2.93v6.12h6.06V152Z"/><path d="M312.92,154.9c0-2,0-4.07,0-6.1a2.92,2.92,0,0,1,3.09-3.2q6.38-.12,12.77,0a3,3,0,0,1,3.06,3.26q.08,6.1,0,12.22a3.13,3.13,0,0,1-3.31,3.44q-6.19.1-12.4,0a3.06,3.06,0,0,1-3.21-3.31C312.88,159.1,312.92,157,312.92,154.9Zm6.41,3.2h6.08V152h-6.08Z"/><path class="cls-2" d="M287.73,88.66h6.06v6.15h-6.06Z"/><path class="cls-2" d="M293.79,126.43H287.7v-6.14h6.09Z"/><path class="cls-2" d="M293.81,152v6.08h-6.08V152Z"/><path class="cls-2" d="M230.54,94.83h-6.08V88.71h6.08Z"/><path class="cls-2" d="M262.08,94.84h-6V88.7h6Z"/><path class="cls-2" d="M319.33,94.81V88.74h6.11v6.07Z"/><path class="cls-2" d="M256.05,152h6.06v6.14h-6.06Z"/><path class="cls-2" d="M325.44,126.43h-6.08v-6.14h6.08Z"/><path class="cls-2" d="M262.09,126.46h-6v-6.15h6Z"/><path class="cls-2" d="M224.38,126.36v-6h6.15v6Z"/><path class="cls-2" d="M224.46,152h6.06v6.12h-6.06Z"/><path class="cls-2" d="M319.33,158.1V152h6.08v6.1Z"/><path d="M0,317.56l16.8-31.68a11.52,11.52,0,0,0,1.46-4.15c.12-1.19.18-2.66.18-4.43,0-.79,0-1.63-.09-2.51a7.62,7.62,0,0,0-.5-2.33,4,4,0,0,0-1.33-1.69,4.38,4.38,0,0,0-2.64-.68,4.64,4.64,0,0,0-3.34,1.19,4.61,4.61,0,0,0-1.23,3.47V280H0v-5.11a13.79,13.79,0,0,1,1.1-5.48,14.52,14.52,0,0,1,3-4.47,14.26,14.26,0,0,1,4.43-3.06A13.28,13.28,0,0,1,14,260.78a13.67,13.67,0,0,1,6.25,1.32,12,12,0,0,1,4.29,3.61,15.15,15.15,0,0,1,2.47,5.2,24.46,24.46,0,0,1,.77,6.21c0,1.58,0,2.91-.09,4a24.2,24.2,0,0,1-.36,3.06,13.69,13.69,0,0,1-.92,2.92c-.42,1-1,2.16-1.73,3.56L11,317H27.75v9.31H0Z"/><path d="M61.71,270.09H43.27v17.53a10.49,10.49,0,0,1,3.29-2.15,11.14,11.14,0,0,1,4.47-.86,10.52,10.52,0,0,1,7.72,2.92q3,2.93,3,8.58v16.8a14.19,14.19,0,0,1-1.14,5.84,13.72,13.72,0,0,1-3,4.38,13.21,13.21,0,0,1-4.43,2.79,14.84,14.84,0,0,1-10.5,0,13.11,13.11,0,0,1-4.43-2.79,13.59,13.59,0,0,1-3.06-4.38A14.19,14.19,0,0,1,34,312.91v-2.74h9.31v2.37a5,5,0,0,0,1.33,3.7A4.63,4.63,0,0,0,48,317.56a4.12,4.12,0,0,0,3.24-1.27,5.18,5.18,0,0,0,1.14-3.56V297.48a4.75,4.75,0,0,0-1.23-3.29A4.05,4.05,0,0,0,48,292.82a4.53,4.53,0,0,0-2,.41,5.55,5.55,0,0,0-1.37,1,4.61,4.61,0,0,0-.86,1.19l-.51,1H35.06V261.33H61.71Z"/><path d="M85.63,280h9.31v51.22q0,6.84-4.29,10.31A16.68,16.68,0,0,1,79.79,345v-8.76a9,9,0,0,0,2.78-.37,3.49,3.49,0,0,0,1.83-1.32,6.15,6.15,0,0,0,1-2.6,26.81,26.81,0,0,0,.27-4.2Zm0-18.71h9.31v9.31H85.63Z"/><path d="M120.23,321.58h-.18a17.46,17.46,0,0,1-3.7,3.93,8.79,8.79,0,0,1-5.25,1.37,12,12,0,0,1-3.38-.51,8.49,8.49,0,0,1-3.24-1.82A9.57,9.57,0,0,1,102,320.8a17.13,17.13,0,0,1-1-6.25,32.7,32.7,0,0,1,.64-6.89,10.83,10.83,0,0,1,2.33-4.93,10,10,0,0,1,4.52-2.92,22.78,22.78,0,0,1,7.21-1q1,0,2,.09t2.46.18v-4.84a7.06,7.06,0,0,0-1-3.92c-.67-1-1.89-1.55-3.65-1.55a5.29,5.29,0,0,0-3.34,1.18,5.63,5.63,0,0,0-2,3.47h-9a15.27,15.27,0,0,1,4.2-10,13.25,13.25,0,0,1,4.38-2.88,15,15,0,0,1,5.76-1.05,16.11,16.11,0,0,1,5.47.92,12.14,12.14,0,0,1,4.43,2.73,13,13,0,0,1,3,4.57,17.18,17.18,0,0,1,1.09,6.39v32.23h-9.31Zm0-15.15a14.61,14.61,0,0,0-2.55-.28,9.11,9.11,0,0,0-5.16,1.42q-2.14,1.41-2.15,5.16a6.82,6.82,0,0,0,1.28,4.29,4.27,4.27,0,0,0,3.56,1.64,4.62,4.62,0,0,0,3.7-1.55,6.58,6.58,0,0,0,1.32-4.38Z"/><path d="M136.39,280h9.31v4.47h.19a13.1,13.1,0,0,1,3.51-3.6,9.08,9.08,0,0,1,5.25-1.42,10.56,10.56,0,0,1,3.47.6,8,8,0,0,1,3.1,2,9.73,9.73,0,0,1,2.19,3.51,14.75,14.75,0,0,1,.83,5.25v35.52h-9.32V294.28a6.18,6.18,0,0,0-1.18-4,4.09,4.09,0,0,0-3.38-1.46c-1.77,0-3,.54-3.65,1.64a9.17,9.17,0,0,0-1,4.75v31.13h-9.31Z"/><path d="M188.25,326.33H180L168,280h9.86l6.21,29.58h.18L190.44,280h9.86Z"/><path d="M204,261.33h9.31v9.31H204ZM204,280h9.31v46.29H204Z"/><path d="M229.51,306.7V313a4.48,4.48,0,0,0,1.23,3.38,4.59,4.59,0,0,0,3.33,1.18c1.77,0,2.94-.51,3.52-1.55a8.27,8.27,0,0,0,1-3.1H248a15.48,15.48,0,0,1-1,5.48,12.28,12.28,0,0,1-2.78,4.38,13.12,13.12,0,0,1-4.38,3,14.53,14.53,0,0,1-5.76,1.1,14.29,14.29,0,0,1-7.39-1.83,12.28,12.28,0,0,1-6.12-9,34.8,34.8,0,0,1-.36-5.2V295.56a34.8,34.8,0,0,1,.36-5.2,12.28,12.28,0,0,1,6.12-9,14.29,14.29,0,0,1,7.39-1.83,14.81,14.81,0,0,1,5.8,1.1,12.1,12.1,0,0,1,4.38,3.06,13.67,13.67,0,0,1,2.74,4.61,16.45,16.45,0,0,1,1,5.66V306.7Zm0-7.3h9.13v-5.3a5.65,5.65,0,0,0-1.23-4,4.87,4.87,0,0,0-6.67,0,5.65,5.65,0,0,0-1.23,4Z"/><path d="M254.8,280h9.31V285a28.69,28.69,0,0,1,5.57-4,14.25,14.25,0,0,1,6.75-1.46v9.86a7.61,7.61,0,0,0-2.83-.54,10.94,10.94,0,0,0-3.15.5,8.57,8.57,0,0,0-3.1,1.69,9.07,9.07,0,0,0-2.33,3.1,11,11,0,0,0-.91,4.75v27.48H254.8Z"/><path d="M297.34,296.38h27.48v9.31H297.34Z"/><path d="M360,271.19,350.65,278v-9.86l9.32-6.84h9.31v65H360Z"/><path d="M401.78,287.35h-4.57V280h4.57v-6.3a14.36,14.36,0,0,1,1-5.7,10.73,10.73,0,0,1,2.7-3.84,10.54,10.54,0,0,1,3.83-2.19,14.38,14.38,0,0,1,4.43-.68H418v8.76h-4.2c-1.83,0-2.74,1.07-2.74,3.2V280H418v7.31h-6.94v39h-9.31Z"/><path d="M429.35,306.7V313a4.48,4.48,0,0,0,1.23,3.38,4.59,4.59,0,0,0,3.33,1.18c1.77,0,2.94-.51,3.52-1.55a8.64,8.64,0,0,0,1.05-3.1h9.31a15.48,15.48,0,0,1-1,5.48,12.28,12.28,0,0,1-2.78,4.38,13.06,13.06,0,0,1-4.39,3,14.45,14.45,0,0,1-5.75,1.1,14.29,14.29,0,0,1-7.39-1.83,12.28,12.28,0,0,1-6.12-9,34.8,34.8,0,0,1-.36-5.2V295.56a34.8,34.8,0,0,1,.36-5.2,12.28,12.28,0,0,1,6.12-9,14.29,14.29,0,0,1,7.39-1.83,14.84,14.84,0,0,1,5.8,1.1,12.27,12.27,0,0,1,4.38,3.06,13.67,13.67,0,0,1,2.74,4.61,16.45,16.45,0,0,1,1,5.66V306.7Zm6.84-45.65h9.86L434,273.92h-6Zm-6.84,38.35h9.13v-5.3a5.61,5.61,0,0,0-1.24-4,4.86,4.86,0,0,0-6.66,0,5.65,5.65,0,0,0-1.23,4Z"/><path d="M469.88,326.33h-8.21L449.62,280h9.86l6.2,29.58h.19l6.2-29.58h9.86Z"/><path d="M485.68,280H495V285a28.39,28.39,0,0,1,5.57-4,14.22,14.22,0,0,1,6.75-1.46v9.86a7.61,7.61,0,0,0-2.83-.54,10.94,10.94,0,0,0-3.15.5,8.57,8.57,0,0,0-3.1,1.69,9,9,0,0,0-2.33,3.1,11,11,0,0,0-.91,4.75v27.48h-9.31Z"/><path d="M511.06,261.33h9.31v9.31h-9.31Zm0,18.71h9.31v46.29h-9.31Z"/><path d="M536.53,306.7V313a4.48,4.48,0,0,0,1.23,3.38,4.59,4.59,0,0,0,3.33,1.18c1.76,0,2.94-.51,3.51-1.55a8.27,8.27,0,0,0,1-3.1H555a15.48,15.48,0,0,1-1,5.48,12.17,12.17,0,0,1-2.79,4.38,13,13,0,0,1-4.38,3,14.45,14.45,0,0,1-5.75,1.1,14.26,14.26,0,0,1-7.39-1.83,12.28,12.28,0,0,1-6.12-9,33.47,33.47,0,0,1-.37-5.2V295.56a33.47,33.47,0,0,1,.37-5.2,12.28,12.28,0,0,1,6.12-9,14.26,14.26,0,0,1,7.39-1.83,14.84,14.84,0,0,1,5.8,1.1,12.27,12.27,0,0,1,4.38,3.06,13.67,13.67,0,0,1,2.74,4.61,16.45,16.45,0,0,1,1,5.66V306.7Zm0-7.3h9.12v-5.3a5.65,5.65,0,0,0-1.23-4,4.86,4.86,0,0,0-6.66,0,5.65,5.65,0,0,0-1.23,4Z"/><path d="M561.81,280h9.32V285a28.65,28.65,0,0,1,5.56-4,14.29,14.29,0,0,1,6.76-1.46v9.86a7.65,7.65,0,0,0-2.83-.54,10.94,10.94,0,0,0-3.15.5,8.49,8.49,0,0,0-3.1,1.69,9,9,0,0,0-2.33,3.1,11,11,0,0,0-.91,4.75v27.48h-9.32Z"/></g></g></svg>