<svg xmlns="http://www.w3.org/2000/svg" viewBox="0 0 283.59 31.97"><defs><style>.cls-1{fill:#1a7e96;}</style></defs><title>domaine</title><g id="Calque_2" data-name="Calque 2"><g id="Packs"><path class="cls-1" d="M182.91,6.33h5.82c6.77,0,8.73,4.77,7.07,12.8s-4.33,11.51-10.65,11.51h-7.41Zm1.14,20.24h.75c2.6,0,4.06-.74,5.44-7.68,1.42-7.1.72-8.45-2.23-8.45h-.56Z" transform="translate(-177.74 -5.18)"/><path class="cls-1" d="M212.49,21.52c-1.2,5.75-3.52,9.42-8.86,9.42-5.12,0-7.19-3.23-5.73-10.15,1.32-6.31,4.44-9.37,8.76-9.37C212.14,11.42,213.76,15.39,212.49,21.52Zm-9.32-.19c-.86,4.29-.47,5.53.93,5.53s2.21-1.65,3.06-5.62,1-5.73-.87-5.73C204.76,15.51,203.85,18,203.17,21.33Z" transform="translate(-177.74 -5.18)"/><path class="cls-1" d="M215.87,17.56c.79-3.67,1-5,1.2-5.86h5.2c0,.23-.14,1.2-.25,1.74a5.12,5.12,0,0,1,4.19-2c2.12,0,3,1,3.31,2.21a6,6,0,0,1,4.82-2.21c2.93,0,4.41,1.92,3.56,5.91l-2.82,13.31h-5.25l2.78-13.08c.24-1.15.06-2-1-2s-1.86.91-2.24,2.76l-2.6,12.3h-5.29l2.78-13c.28-1.37,0-2-1-2-1.14,0-1.84.82-2.26,2.8l-2.58,12.24h-5.32Z" transform="translate(-177.74 -5.18)"/><path class="cls-1" d="M252.75,25.66c-.35,1.72-.86,3.95-1,5h-5.17a14.33,14.33,0,0,1,.2-1.57,4.71,4.71,0,0,1-4.07,1.87c-3.56,0-4.57-3-3.88-6.26.79-3.76,3.15-4.93,6.91-5.57,1-.17,2.07-.27,3.2-.38l.33-1.43c.26-1.26.19-2.31-1.22-2.31-1.06,0-1.47.78-1.81,2.08h-5.07c.77-3.44,2.63-5.65,7.3-5.65,4.82,0,6.84,2.21,5.92,6.48Zm-4.52-3.5a10.44,10.44,0,0,0-1.82.27,2.84,2.84,0,0,0-2.28,2.23c-.3,1.35.08,2.18,1.25,2.18,1.41,0,2.15-1.15,2.54-3.16Z" transform="translate(-177.74 -5.18)"/><path class="cls-1" d="M258.85,11.7h5.38l-4,18.94h-5.38Zm1.4-6.52h5.38l-1,4.46h-5.38Z" transform="translate(-177.74 -5.18)"/><path class="cls-1" d="M266.11,17.65c.85-3.9,1.06-5.1,1.22-5.95h5.27c0,.4-.15,1.16-.26,1.72a4.93,4.93,0,0,1,4.28-2c3.09,0,4.54,2.14,3.7,6.12l-2.79,13.1h-5.37L274.82,18c.35-1.61.09-2.4-1.12-2.4s-1.93.7-2.41,3l-2.56,12.07h-5.38Z" transform="translate(-177.74 -5.18)"/><path class="cls-1" d="M287.19,22.44a12.81,12.81,0,0,0-.34,2.4c0,1.36.44,2.13,1.4,2.13,1.17,0,1.71-.73,2.13-2h5.24c-.76,2.61-2.62,6-7.7,6-6.1,0-6.82-4.73-5.7-10.15,1.08-5.12,3.54-9.37,8.87-9.37,5.7,0,6.73,4.44,5.61,9l-.48,2ZM291.67,19a9.19,9.19,0,0,0,.3-1.89c0-1.09-.28-1.8-1.4-1.8-1.33,0-2.09,1.47-2.64,3.69Z" transform="translate(-177.74 -5.18)"/><path class="cls-1" d="M322.58,5.18,318.35,25c-.56,2.58-.94,4.59-1.12,5.64H312c0-.47.14-1.21.26-1.85A4.76,4.76,0,0,1,308,30.94c-3.41,0-5-3-3.38-10.31,1.58-7.17,4.51-9.21,7.47-9.21,1.83,0,3,.69,3.46,1.67l1.7-7.91ZM309.94,21c-1,4.6-.39,5.78.86,5.78,1.64,0,2.3-1.76,3.2-6,.81-3.77.81-5.23-.87-5.23C311.87,15.6,310.78,17.05,309.94,21Z" transform="translate(-177.74 -5.18)"/><path class="cls-1" d="M335.56,24.7c-.65,3.11-1.06,5.12-1.15,5.94h-5.26c0-.58.14-1.26.22-1.77A4.91,4.91,0,0,1,325,30.92c-2.65,0-4.43-1.84-3.58-5.83l2.84-13.39h5.36l-2.69,12.56c-.31,1.49-.19,2.46,1.11,2.46s2-.88,2.42-3.1L333,11.7h5.37Z" transform="translate(-177.74 -5.18)"/><path class="cls-1" d="M348.9,6.33h6.35c5.6,0,7.95,3.42,6.82,8.72-1.08,5.06-4.44,6.61-8.74,6.61H351l-1.89,9h-5.41Zm3,11.12h1.69c1.89,0,2.84-1,3.28-3.29.48-2.47-.19-3.7-2.11-3.7h-1.37Z" transform="translate(-177.74 -5.18)"/><path class="cls-1" d="M363.88,18.14c.68-3.21,1.1-5.18,1.31-6.44h5.14c-.08.74-.23,1.67-.51,3.1a5.45,5.45,0,0,1,5.32-3.38l-1.26,5.8c-3.22-.23-4.62.92-5.4,4.57l-1.87,8.85h-5.38Z" transform="translate(-177.74 -5.18)"/><path class="cls-1" d="M387.35,25.66c-.35,1.72-.85,3.95-1,5h-5.18c0-.34.11-1.06.2-1.57a4.69,4.69,0,0,1-4.07,1.87c-3.55,0-4.57-3-3.88-6.26.8-3.76,3.16-4.93,6.91-5.57,1-.17,2.07-.27,3.21-.38l.32-1.43c.26-1.26.2-2.31-1.22-2.31-1.05,0-1.47.78-1.81,2.08h-5.06c.77-3.44,2.63-5.65,7.29-5.65,4.83,0,6.85,2.21,5.93,6.48Zm-4.52-3.5a10.73,10.73,0,0,0-1.82.27,2.84,2.84,0,0,0-2.27,2.23c-.3,1.35.07,2.18,1.24,2.18,1.41,0,2.16-1.15,2.55-3.16Z" transform="translate(-177.74 -5.18)"/><path class="cls-1" d="M400.79,6.33h5.44L402,26.19h7.61l-1.35,4.45H395.62Z" transform="translate(-177.74 -5.18)"/><path class="cls-1" d="M426.25,21.52c-1.2,5.75-3.51,9.42-8.86,9.42-5.12,0-7.19-3.23-5.73-10.15,1.32-6.31,4.45-9.37,8.76-9.37C425.9,11.42,427.53,15.39,426.25,21.52Zm-9.32-.19c-.86,4.29-.47,5.53.93,5.53s2.21-1.65,3.07-5.62.95-5.73-.87-5.73C418.52,15.51,417.61,18,416.93,21.33Z" transform="translate(-177.74 -5.18)"/><path class="cls-1" d="M442.1,24.7c-.66,3.11-1.06,5.12-1.16,5.94h-5.26c0-.58.14-1.26.22-1.77a4.9,4.9,0,0,1-4.38,2.05c-2.66,0-4.44-1.84-3.59-5.83l2.85-13.39h5.35l-2.69,12.56c-.31,1.49-.19,2.46,1.12,2.46s1.94-.88,2.41-3.1l2.52-11.92h5.36Z" transform="translate(-177.74 -5.18)"/><path class="cls-1" d="M449.78,29l-1.72,8.12h-5.37l4.23-20c.54-2.54.88-4.29,1.08-5.47h5.26a16.87,16.87,0,0,1-.26,1.85,4.83,4.83,0,0,1,4.21-2.13c3.14,0,5.13,2.71,3.58,9.86-1.5,7-4,9.66-7.5,9.66C451.51,30.94,450.18,30.15,449.78,29Zm5.67-7.94c.86-4.3.43-5.44-.94-5.44s-2.29,1.47-3,5c-1,4.81-.81,6.13.81,6.13C453.63,26.8,454.57,25.39,455.45,21.09Z" transform="translate(-177.74 -5.18)"/></g></g></svg>