<svg xmlns="http://www.w3.org/2000/svg" viewBox="0 0 118.7 118.86"><defs><style>.cls-1{fill:#fff;}</style></defs><title>icone_assurance_1</title><g id="Calque_2" data-name="Calque 2"><g id="Packs"><path d="M35.11,83.34H0V35.65c4.58,0,9.22,0,13.86,0,6.32,0,12.65.05,19,.18,2.32,0,2.92-1,2.9-3.14-.11-9.79,0-19.58-.17-29.37C35.51.72,36.34,0,38.84,0,52.61.09,66.39.13,80.16,0c2.59,0,3.06,1,3,3.25-.07,9.69.07,19.38-.09,29.06,0,2.92,1,3.59,3.72,3.53,9.89-.2,19.78-.1,29.68-.22,2.53,0,2.17,1.72,2.17,3.12q0,18.82-.06,37.64c0,6.73,0,6.73-6.8,6.73-8.27,0-16.54.12-24.8-.09-3.17-.08-4.21.86-4.13,4.07.21,9.58.1,19.18.21,28.77,0,2-.52,3-2.72,3-14.08,0-28.16,0-42.24,0a29.47,29.47,0,0,1-3-.34ZM5.59,41a15.63,15.63,0,0,0-.23,1.69c0,10.82,0,21.65-.11,32.47,0,2.24,1,2.71,3,2.7,9.49-.07,19,.11,28.46-.09,3.18-.07,4,1,4,4-.15,9.39,0,18.78-.06,28.17,0,2.4.67,3.4,3.34,3.37,10.1-.12,20.21,0,30.31.11,2.5,0,3.37-.7,3.32-3.28-.17-9.49-.14-19-.15-28.48,0-1.28.16-2.56.25-3.95,11,0,21.74-.05,32.45,0,2.28,0,3-.73,3-3-.12-7.86,0-15.72-.06-23.58V41.28c-1.29-.09-2.29-.22-3.28-.22-9.49,0-19-.09-28.47,0-2.68,0-3.54-.79-3.5-3.48.15-9.57,0-19.14.12-28.7,0-2.61-.67-3.62-3.41-3.58q-15.16.2-30.32,0c-2.66,0-3.23,1-3.2,3.43.12,9.49-.07,19,.1,28.48.06,2.9-.7,3.88-3.71,3.83C26.86,40.94,16.36,41,5.59,41Z"/><path class="cls-1" d="M5.59,41c10.77,0,21.27-.1,31.77.07,3,0,3.77-.93,3.71-3.83-.17-9.49,0-19-.1-28.48,0-2.44.54-3.46,3.2-3.43q15.15.18,30.32,0c2.74,0,3.45,1,3.41,3.58-.13,9.56,0,19.13-.12,28.7,0,2.69.82,3.52,3.5,3.48,9.49-.14,19-.07,28.47,0,1,0,2,.13,3.28.22v9.94c0,7.86-.06,15.72.06,23.58,0,2.27-.69,3-3,3-10.71-.09-21.42,0-32.45,0-.09,1.39-.26,2.67-.25,3.95,0,9.49,0,19,.15,28.48.05,2.58-.82,3.31-3.32,3.28-10.1-.16-20.21-.23-30.31-.11-2.67,0-3.35-1-3.34-3.37.06-9.39-.09-18.78.06-28.17,0-3-.78-4.08-4-4-9.48.2-19,0-28.46.09-2,0-3-.46-3-2.7.09-10.82.08-21.65.11-32.47A15.63,15.63,0,0,1,5.59,41ZM58.2,75.59l1.51.06a23.8,23.8,0,0,0,.39-2.76c.07-2,.11-4.08,0-6.12a2.71,2.71,0,0,1,2.07-3.13A7.45,7.45,0,0,0,67.32,57c.33-3.15-.73-4.26-3.86-4.26q-15.76,0-31.53,0c-.69,0-1.38.11-2.07.17,5.74,2.52,11,5.54,16.37,8.23a25.55,25.55,0,0,0,8.49,2.94c2.89.3,3.71,1.22,3.51,3.91C58.05,70.5,58.2,73.05,58.2,75.59Zm3.57-7.88A12.65,12.65,0,0,0,73.33,57.5c.83-5.07-.64-8-5.49-9.87a55.48,55.48,0,0,0-9.08-2.51c-3.45-.68-6.42-2-8.51-4.89A6.72,6.72,0,0,1,50,32.45a5.42,5.42,0,0,1,6.09-2.52c3.12.58,4.2,2.94,3.22,6a5.91,5.91,0,0,0,.63,3.87c.34.73,1.56,1,2.39,1.55a15.78,15.78,0,0,0,1.31-2.24c1.31-3.36-1.13-5.64-2.68-8-2.13-3.22-5.32-3.87-9.22-2.52-3.17,1.1-4.95,3.63-5.09,7.23-.22,5.83,3.31,10.26,9.43,11.79,2.46.62,5.08.83,7.4,1.78,7,2.85,7.94,9.52,2.2,14.44-.69.6-1.59,1-2.23,1.6A17,17,0,0,0,61.77,67.71ZM56.6,67c-3.86.33-5.49,1.69-6.1,4.46a6.45,6.45,0,0,0,3.27,7.24,13.9,13.9,0,0,0,12.35.15,3.82,3.82,0,0,0,2.15-5.32c-.62-1.23-2.77-1.78-4.33-2.38-.43-.16-1.22.62-1.84,1,.47.59.84,1.52,1.44,1.7,2,.61,1.5,1.59.56,2.65-1.46,1.67-5.57,1.82-8,.36-2.64-1.6-3-4.26-1.09-6.69A17.7,17.7,0,0,0,56.6,67ZM45.34,96.45H73.18c-3.12-.73-5.88-1.41-8.65-2S59.61,92.88,60,89.07a5.94,5.94,0,0,0-2,1.82c-.79,1-1.37,2.64-2.37,3C52.17,95,48.58,95.67,45.34,96.45ZM87.69,52.7H79.75c-4.94,0-4.94,0-4.67,5a.54.54,0,0,0,.09.29ZM52.56,79.87c-1.14,7.18,4.89,8,12.21,7.65-2.35-.76-5-.82-7.06-2S54.52,82.1,52.56,79.87Z"/><path d="M58.2,75.59c0-2.54-.15-5.09,0-7.62.2-2.69-.62-3.61-3.51-3.91a25.55,25.55,0,0,1-8.49-2.94c-5.4-2.69-10.63-5.71-16.37-8.23.69-.06,1.38-.17,2.07-.17q15.76,0,31.53,0c3.13,0,4.19,1.11,3.86,4.26a7.45,7.45,0,0,1-5.13,6.64,2.71,2.71,0,0,0-2.07,3.13c.09,2,.05,4.08,0,6.12a23.8,23.8,0,0,1-.39,2.76Z"/><path d="M61.77,67.71a17,17,0,0,1,1.67-2.31c.64-.64,1.54-1,2.23-1.6,5.74-4.92,4.79-11.59-2.2-14.44-2.32-1-4.94-1.16-7.4-1.78-6.12-1.53-9.65-6-9.43-11.79.14-3.6,1.92-6.13,5.09-7.23,3.9-1.35,7.09-.7,9.22,2.52,1.55,2.34,4,4.62,2.68,8a15.78,15.78,0,0,1-1.31,2.24c-.83-.5-2-.82-2.39-1.55a5.91,5.91,0,0,1-.63-3.87c1-3-.1-5.37-3.22-6A5.42,5.42,0,0,0,50,32.45a6.72,6.72,0,0,0,.26,7.78c2.09,2.88,5.06,4.21,8.51,4.89a55.48,55.48,0,0,1,9.08,2.51c4.85,1.87,6.32,4.8,5.49,9.87A12.65,12.65,0,0,1,61.77,67.71Z"/><path d="M56.6,67A17.7,17.7,0,0,1,55,70.13c-1.93,2.43-1.55,5.09,1.09,6.69,2.42,1.46,6.53,1.31,8-.36.94-1.06,1.44-2-.56-2.65-.6-.18-1-1.11-1.44-1.7.62-.34,1.41-1.12,1.84-1,1.56.6,3.71,1.15,4.33,2.38a3.82,3.82,0,0,1-2.15,5.32,13.9,13.9,0,0,1-12.35-.15,6.45,6.45,0,0,1-3.27-7.24C51.11,68.69,52.74,67.33,56.6,67Z"/><path d="M45.34,96.45c3.24-.78,6.83-1.46,10.27-2.59,1-.33,1.58-2,2.37-3a5.94,5.94,0,0,1,2-1.82c-.41,3.81,1.82,4.76,4.51,5.36s5.53,1.29,8.65,2Z"/><path d="M87.69,52.7,75.17,58a.54.54,0,0,1-.09-.29c-.27-5-.27-5,4.67-5Z"/><path d="M52.56,79.87c2,2.23,3.22,4.52,5.15,5.64s4.71,1.25,7.06,2C57.45,87.89,51.42,87.05,52.56,79.87Z"/></g></g></svg>