<svg xmlns="http://www.w3.org/2000/svg" viewBox="0 0 136.38 129.63"><defs><style>.cls-1{fill:#fff;}</style></defs><title>icone_nourriture_1</title><g id="Calque_2" data-name="Calque 2"><g id="Packs"><path d="M9.09,22.14c-6.24.13-5.51-4-6.23-6.7s1.43-4,3.83-4.7c1.22-.35,2.42-.75,3.63-1.12,6.38-1.94,7.78-1.22,9.21,5.29.27,1.27-.48,2.77-.76,4.17l-1.17.77c1.6.84,3.11,2,4.81,2.46,8,2,13.16,6.66,15.35,14.61.16.61.62,1.39.41,1.82-2.74,5.51.84,10.16,2.17,15,1,3.64,2.18,7.05,5.1,10.34s3.49,9.34,3.82,14.26c.24,3.7-3,6.25-6.64,7.41-5.91,1.87-11.83,3.75-17.79,5.46s-10.42-.89-12.32-6.84a57,57,0,0,1-2.07-6.91c-.27-1.44.22-3,.3-4.54a10.17,10.17,0,0,0-.09-3.22c-1.52-5.23-3.09-10.45-4.84-15.6C5.43,53,4,52.27,3.46,51.16,2.17,48.4.49,45.6.13,42.67-.56,37,1.53,32,5.49,27.82,6.75,26.47,7.52,24.66,9.09,22.14ZM10,21.09C11.23,25,9.3,27.5,6.83,30.16A15.78,15.78,0,0,0,3.22,46.37a8.06,8.06,0,0,0,1.57,2.38c1.09,1.38,2.62,2.55,3.3,4.1a38,38,0,0,1,2.59,8.33c.86,4.82,5.18,9.28,1.71,14.65-.23.37.24,1.2.42,1.81.63,2.06,1.23,4.13,1.92,6.16,1.46,4.33,4.74,6.37,9.15,5.18C30,87.33,36,85.42,42,83.39c3.73-1.26,5.8-4.47,5.07-7.91s-2-6.69-3.11-10.33c-4.77,1.47-9.07,3-13.46,4.1s-8.33,3.55-12.91,3.18l-.41-1.38,23.19-7.14L33.85,42.6C25.74,44.07,18.4,47.91,10.45,49L10,47.35l25.89-8c-1.56-7.56-5.56-12.25-12.36-14.08-3.65-1-7.18-1.65-8.13-5.89Zm7.71-5.46c-1.21-1.86-2.29-4.51-3-4.41a30.22,30.22,0,0,0-8.88,2.84c-.54.27.19,3.08.37,5.1Z"/><path class="cls-1" d="M10,21.09l5.46-1.68c1,4.24,4.48,4.9,8.13,5.89,6.8,1.83,10.8,6.52,12.36,14.08L10,47.35,10.45,49c8-1.05,15.29-4.89,23.4-6.36l6.56,21.31L17.22,71.05l.41,1.38c4.58.37,8.63-2.07,12.91-3.18s8.69-2.63,13.46-4.1c1.12,3.64,2.38,6.93,3.11,10.33S45.77,82.13,42,83.39c-6,2-12,3.94-18.16,5.59-4.41,1.19-7.69-.85-9.15-5.18-.69-2-1.29-4.1-1.92-6.16-.18-.61-.65-1.44-.42-1.81,3.47-5.37-.85-9.83-1.71-14.65a38,38,0,0,0-2.59-8.33c-.68-1.55-2.21-2.72-3.3-4.1a8.06,8.06,0,0,1-1.57-2.38A15.78,15.78,0,0,1,6.83,30.16C9.3,27.5,11.23,25,10,21.09Z"/><path class="cls-1" d="M17.67,15.63,6.2,19.16c-.18-2-.91-4.83-.37-5.1a30.22,30.22,0,0,1,8.88-2.84C15.38,11.12,16.46,13.77,17.67,15.63Z"/><path d="M114.52,11.24A230.54,230.54,0,0,0,95.79,33.86c-7.11,9.71-14,19.63-20.11,30-3.31,5.61-4.78,12.32-7.12,18.52a17,17,0,0,1-1.5,3.23q-.32.48-.57,1a12.19,12.19,0,0,1,.83,1.49,8.55,8.55,0,0,1,1.06-1.23c2.93,7.23,5.89,8.69,13.33,6.62a3.68,3.68,0,0,1,2,0c1.15.38,2.29.8,3.43,1.22.29-.21.56-.42.84-.64a22.93,22.93,0,0,1-3.09-1.93c2.33-3.31,4.92-3.31,7.66-2.69.31-.38.61-.76.91-1.15-.88-.2-1.73-.44-2.55-.71,3-5.23,6.15-10.58,9.27-15.91a13.56,13.56,0,0,1,1.16-1.39,37.19,37.19,0,0,1,11.59-9.52,2.41,2.41,0,0,1-.15-1.73l-1.14.47c1.59-4.92,3.14-9.38,6.91-12.57,4.94-4.2,7.94-9.48,10-15.62,1.66-5.06,4.52-9.73,6.19-14.79a30.46,30.46,0,0,0,1.64-11.17C136,.7,132.55-1.33,128.56.93,123.52,3.78,118.46,7.08,114.52,11.24Zm10.56,20.21a12.43,12.43,0,0,1-10.85-.67c4.82-4.4,10.56-5.76,15.78-8.29C128.08,25.4,129,30,125.08,31.45ZM109.57,56.57a24,24,0,0,1-6.3.47c-1.41-.15-2.72-1.22-4.08-1.89,1-1.07,1.73-2.63,2.94-3.14,4.14-1.74,8.43-3.11,13.19-4.81-1.44,3.09-2.5,5.56-3.76,7.92A3.12,3.12,0,0,1,109.57,56.57Zm-16,22.31c-3.1,1.41-7,2.62-11.22.05,4.85-4,10.4-5.07,15.79-6.87C96.9,74.65,95.75,77.9,93.57,78.88Zm35.82-77c2.08-1,3.92-.17,5,2,2.58,5-.41,14.45-5.47,16.93-3.91,1.92-8,3.48-11.77,5.63-1.62.93-3.82,3.08-3.66,4.44.31,2.7,3.28,2.89,5.62,2.8s4.71-.58,7-.88c.13,3.73-3.75,2.26-5.72,4.16l4-.52c-.74,4.73-4.6,4.14-7.62,5.3l4.66.33a26.61,26.61,0,0,1-4,2.51c-3.58,1.4-7.24,2.59-10.85,3.91-2.08.76-4.36,1.3-6.12,2.55-1.29.9-2.8,3-2.54,4.17s2.46,2.68,4,2.91c2.6.39,5.33-.09,8.14-.21a6.4,6.4,0,0,1-.37,1,6.21,6.21,0,0,1-1,1.53c-4.23,4.28-8,9.08-14.21,10.86a58.53,58.53,0,0,0-7.65,2.93,15.83,15.83,0,0,0-4.1,2.52c-2,1.77-1.57,3.81,1,4.53a12.67,12.67,0,0,0,4.48.13c1.87-.16,3.73-.56,5.59-.87l.45.46c-3.08,3-6,6.29-9.33,9a18.7,18.7,0,0,1-7.1,3.11,6.28,6.28,0,0,1-6.64-2.76C69.49,87.9,69.57,85.12,70,82l3.62,5.35C71.89,83,69.9,79,72.24,74.13l1.34,2.14c0-2.33.09-4.46.15-7.29l1.53,1.43c.53-2.18,1.08-4.48,1.74-7.19l1.27,1.15c1.06-2.68,2.15-5.46,3.24-8.23l.82.19L83,58c.58-1.87.86-3.94,1.82-5.62,1.83-3.18,4.45-5.82,6.28-9.09A105.45,105.45,0,0,1,98.83,32c6.84-9.18,14-18.08,22.86-25.45A36.66,36.66,0,0,1,129.39,1.86Z"/><path class="cls-1" d="M93.89,80.55c-1.86.31-3.72.71-5.59.87a12.67,12.67,0,0,1-4.48-.13c-2.56-.72-3-2.76-1-4.53a15.83,15.83,0,0,1,4.1-2.52,58.53,58.53,0,0,1,7.65-2.93c6.18-1.78,10-6.58,14.21-10.86a6.21,6.21,0,0,0,1-1.53,6.4,6.4,0,0,0,.37-1c-2.81.12-5.54.6-8.14.21-1.52-.23-3.7-1.66-4-2.91s1.25-3.27,2.54-4.17c1.76-1.25,4-1.79,6.12-2.55,3.61-1.32,7.27-2.51,10.85-3.91a26.61,26.61,0,0,0,4-2.51l-4.66-.33c3-1.16,6.88-.57,7.62-5.3l-4,.52c2-1.9,5.85-.43,5.72-4.16-2.29.3-4.64.79-7,.88s-5.31-.1-5.62-2.8c-.16-1.36,2-3.51,3.66-4.44,3.77-2.15,7.86-3.71,11.77-5.63,5.06-2.48,8-11.91,5.47-16.93-1.12-2.17-3-3-5-2a36.66,36.66,0,0,0-7.7,4.7c-8.83,7.37-16,16.27-22.86,25.45a105.45,105.45,0,0,0-7.77,11.23c-1.83,3.27-4.45,5.91-6.28,9.09C83.82,54,83.54,56.08,83,58l-.63-1.62-.82-.19c-1.09,2.77-2.18,5.55-3.24,8.23L77,63.22c-.66,2.71-1.21,5-1.74,7.19L73.73,69l-.15,7.29-1.34-2.14C69.9,79,71.89,83,73.58,87.3L70,82c-.4,3.17-.48,6,1.3,8.38a6.28,6.28,0,0,0,6.64,2.76A18.7,18.7,0,0,0,85,90c3.37-2.68,6.25-6,9.33-9Z"/><path class="cls-1" d="M112.93,60.7a2.53,2.53,0,0,0,.93,1l.1,0c-4.68,2.28-7.82,6.69-10.62,10.92-3.23,4.89-6.16,10.67-9.88,15.56-.88-.2-1.73-.44-2.55-.71,3-5.23,6.15-10.58,9.27-15.91a13.56,13.56,0,0,1,1.16-1.39A37.19,37.19,0,0,1,112.93,60.7Z"/><path class="cls-1" d="M80.83,96.35c-3.67,2.11-7.67,1-10.72-1.72l-.48-.42c-.94-2-1.37-4.17-2.31-6.16a8.55,8.55,0,0,1,1.06-1.23c2.93,7.23,5.89,8.69,13.33,6.62a3.68,3.68,0,0,1,2,0c1.15.38,2.29.8,3.43,1.22l-.23.18c-1.22.52-2.44,1.05-3.63,1.63A2.15,2.15,0,0,0,80.83,96.35Z"/><path class="cls-1" d="M115.32,47.2c-4.76,1.7-9,3.07-13.19,4.81-1.21.51-2,2.07-2.94,3.14,1.36.67,2.67,1.74,4.08,1.89a24,24,0,0,0,6.3-.47,3.12,3.12,0,0,0,2-1.45C112.82,52.76,113.88,50.29,115.32,47.2Z"/><path class="cls-1" d="M130,22.49c-5.22,2.53-11,3.89-15.78,8.29a12.43,12.43,0,0,0,10.85.67C129,30,128.08,25.4,130,22.49Z"/><path class="cls-1" d="M82.35,78.93c4.25,2.57,8.12,1.36,11.22-.05,2.18-1,3.33-4.23,4.57-6.82C92.75,73.86,87.2,74.91,82.35,78.93Z"/><path class="cls-1" d="M88,94a22.93,22.93,0,0,1-3.09-1.93c2.33-3.31,4.92-3.31,7.66-2.69A31.7,31.7,0,0,1,88,94Z"/><path d="M36.21,38.66c2.5-1.11,6.3-1.28,8.26,1.66A5.12,5.12,0,0,0,50,42.76a5,5,0,0,1,4.31,1.42,8.35,8.35,0,0,1,2.4,9,17.62,17.62,0,0,1-9.13,10.89c-4.06,2.09-5.79,1.25-8.1-1.38a3.88,3.88,0,0,0-3.13-1.3c-3.46,0-5.05-1.2-6-4.48a18.75,18.75,0,0,1,.86-12.84A9.84,9.84,0,0,1,36.21,38.66Zm17.63,7.75c.67,6.47-2.16,11.09-7.26,14.81C52.64,59.41,56.64,52.35,53.84,46.41Z"/><path d="M46.51,40c2.42-4.93.39-10.76-4.65-13.7-2.2,2.41-2.26,6.77,0,9.64a29.1,29.1,0,0,0,3.47,3.69c-.28-1.45-.54-2.9-.87-4.33s-.75-2.85-1-4.29C44.87,33.79,45.57,36.86,46.51,40Z"/><path d="M46.49,42c.39,0,.92.12,1.15-.08,2.78-2.49,6.19-3.1,9.72-3.38l.59,0-.52-3.32c-4.38,1.08-8.22,2.86-11,6.48Z"/><path class="cls-1" d="M46.58,61.22c6.06-1.81,10.06-8.87,7.26-14.81C54.51,52.88,51.68,57.5,46.58,61.22Z"/><path d="M4.85,75.74H112.43a7.15,7.15,0,0,1,.12,1.55c-1.7,13.5-3.34,27-5.18,40.48-1.11,8-5.77,11.86-13.88,11.86H23.69c-7.58,0-12.41-3.84-13.46-11.42C8.28,104.13,6.64,90,4.85,75.74Zm24.47,44.78c.62-.5,2.08-1.18,2.76-2.32,5.49-9.13,10.86-18.35,16.21-27.57,1.35-2.33.81-4.61-1.18-5.74s-4.14-.4-5.55,2c-1.81,3-3.57,6.07-5.35,9.11-3.55,6.09-7.15,12.15-10.65,18.27C23.87,117.18,25.45,120.38,29.32,120.52Zm36.77-36.1a14.4,14.4,0,0,0-2.91,2.94C58,96,52.89,104.81,47.78,113.56c-1.71,2.92-1.39,5.15.85,6.42,2.09,1.18,4.15.32,5.79-2.47q4.77-8.08,9.49-16.19c2.14-3.65,4.35-7.26,6.39-11C71.86,87.5,70.19,84.5,66.09,84.42Zm22,0a9.59,9.59,0,0,0-2.63,2.27C80,95.77,74.67,104.91,69.36,114.06c-1.5,2.57-1,4.77,1.14,5.94,2,1.09,4,.36,5.51-2.06,1.73-2.86,3.4-5.76,5.09-8.66,3.65-6.23,7.34-12.45,10.93-18.72C93.74,87.57,92.13,84.47,88.06,84.43Zm13.16,24.36c-.91-1-1.79-2.45-3.08-3.16-1.75-1-3.51-.15-4.58,1.49-1.55,2.36-3,4.79-4.35,7.26a4,4,0,0,0,1.46,5.54,3.9,3.9,0,0,0,5.51-1.44c1.49-2.28,2.83-4.67,4.18-7A17.85,17.85,0,0,0,101.22,108.79ZM29,89.26l.44-.58c-1.15-1.16-2.12-2.7-3.5-3.37-1.75-.84-3.49.08-4.54,1.74-1.45,2.31-2.85,4.66-4.16,7.06a4,4,0,0,0,1.4,5.54,3.88,3.88,0,0,0,5.53-1.35c1.5-2.28,2.83-4.68,4.17-7A10.1,10.1,0,0,0,29,89.26Z"/><path d="M47.62,52c-.8,1.08-1.23,1.62-1.62,2.19a6.81,6.81,0,0,0,1.08,9.52c2.45,2.18,5,4.29,7.46,6.39,3.64,3,7.36,2.8,10.47-.81,4.46-5.16,8.76-10.44,13.27-15.54a5.36,5.36,0,0,1,3.5-1.68C91.25,52,100.72,52,110.19,52c4.37,0,5.14.8,5.14,5.05,0,3.89-.11,7.79,0,11.68.09,2.49-1.17,3.57-3.34,3.93a17.63,17.63,0,0,1-2.91.12H8.5a21.22,21.22,0,0,1-2.65-.07c-2.68-.33-3.71-1.48-3.72-4.17,0-4,0-8,0-11.95,0-3.52,1-4.54,4.59-4.58C13,52,19.29,52,25.57,52Z"/><path d="M85.43,13.34c3.13.06,12.66,8.16,12.66,10.32a6,6,0,0,1-1.32,3.57Q79.88,47.33,62.85,67.29c-2.09,2.46-3.89,2.58-6.41.53-2.33-1.89-4.59-3.88-6.86-5.84-2.57-2.2-2.79-4.19-.58-6.81,6.42-7.64,12.9-15.25,19.35-22.87,4.75-5.59,9.46-11.22,14.26-16.75A15.59,15.59,0,0,1,85.43,13.34ZM62,59.18l0-1.28c-1.09-.7-2.12-1.82-3.3-2-1.76-.3-2.79,1.08-2.77,2.75s1.16,3,2.85,2.69C60,61.13,61,59.94,62,59.18Z"/><rect x="13.39" y="82.93" width="89.21" height="39.83"/><path class="cls-1" d="M64,102.71c0,1-.05,2.09,0,3.13s-.32,1.26-1.21,1.19a6.48,6.48,0,0,1-1.47,0c-.39-.14-1-.58-1-.9-.07-3.51-.08-7,0-10.53a1.49,1.49,0,0,1,1-1.06,44.59,44.59,0,0,1,5.78,0,3.26,3.26,0,0,1,3.23,2.41c.43,2,.48,4-1.75,5.31L71.16,107A27.67,27.67,0,0,1,67.7,107c-.4,0-.83-.59-1.09-1-.66-1.11-1.24-2.27-1.85-3.42Zm-.28-3.87c.45.38.86,1,1.36,1.09.88.14,1.79-.06,1.81-1.33s-.72-1.33-1.63-1.39S63.89,97.54,63.73,98.84Z"/><path class="cls-1" d="M24.09,99.2c0-1.19,0-2.38,0-3.57,0-.91.31-1.28,1.21-1.19a7.39,7.39,0,0,0,1.33,0c.92-.09,1.23.33,1.22,1.21,0,2,0,4.06,0,6.09a3.41,3.41,0,0,0,.44,1.82,1.69,1.69,0,0,0,1.53.51A2.16,2.16,0,0,0,31,102.63c.16-2.06.08-4.15.16-6.23,0-.63.17-1.73.46-1.8a9.9,9.9,0,0,1,2.93,0c.12,0,.31.39.31.6a79.14,79.14,0,0,1-.13,8.3c-.35,3.25-2.75,4.12-6.42,3.75-3-.3-4.17-1.85-4.21-4.9C24.07,101.28,24.09,100.24,24.09,99.2Z"/><path class="cls-1" d="M37.17,100.9c0-1.58,0-3.17,0-4.75,0-1.16.36-1.77,1.61-1.73,1.43,0,2.87,0,4.3,0,2.8.1,4.53,1.73,4.57,4.23s-1.66,4.22-4.37,4.47a3.8,3.8,0,0,1-.89,0c-1.18-.16-1.66.36-1.52,1.51a.93.93,0,0,1,0,.29c-.1.66-.08,1.81-.35,1.88a8.9,8.9,0,0,1-2.92.09c-.16,0-.39-.63-.39-1C37.15,104.26,37.17,102.58,37.17,100.9Zm3.7-2.12c-.14,1,.3,1.38,1.33,1.31s1.72-.38,1.7-1.41-.86-1.4-1.83-1.47C40.89,97.12,40.82,97.87,40.87,98.78Z"/><path class="cls-1" d="M49.34,100.15c0-1.19,0-2.38,0-3.57a1.84,1.84,0,0,1,2-2.11c1.92-.1,3.85,0,5.78,0,1.32,0,.91,1,1,1.72S58,97.54,57,97.49a13.86,13.86,0,0,0-2.81,0c-.42.07-.75.64-1.12,1,.37.29.71.77,1.12.83a16.45,16.45,0,0,0,2.81,0c1,0,1.1.55,1.1,1.34S58,102.11,57,102.09a15.46,15.46,0,0,0-2.81.08c-.42.07-.76.61-1.14,1,.39.35.73.93,1.17,1,.91.16,1.88,0,2.8.11.39.05,1,.56,1,.86,0,.67.57,1.83-.67,1.91a28.76,28.76,0,0,1-5.72-.1A2.69,2.69,0,0,1,49.35,104c0-1.28,0-2.57,0-3.85Z"/><path class="cls-1" d="M21.65,97.6H16.41a12.22,12.22,0,0,0,1.4,1.24c.8.48,1.67.86,2.48,1.33a3.35,3.35,0,0,1,1.78,3.33,3.6,3.6,0,0,1-2.13,3.16,8.34,8.34,0,0,1-6.06.17c-1.18-.32-.8-1.38-.7-2.12,0-.31.78-.68,1.23-.73.72-.08,1.48.18,2.21.13a3.7,3.7,0,0,0,1.22-.56,3.63,3.63,0,0,0-.71-1c-.77-.53-1.62-.95-2.42-1.44a3.9,3.9,0,0,1-1.88-4.44c.34-1.4,1.61-2.23,3.58-2.28,1.19,0,2.38,0,3.56.06s2,.45,1.69,1.9A6.22,6.22,0,0,0,21.65,97.6Z"/><path class="cls-1" d="M83.3,96.79c0,1.78,0,3.45,0,5.11,0,.93.08,1.9,1.32,1.92s1.44-1,1.46-2c0-1.63,0-3.25,0-5h3.5c0,2.2.08,4.36,0,6.52a2.49,2.49,0,0,1-2.23,2.44,22.6,22.6,0,0,1-5.39,0,2.5,2.5,0,0,1-2.18-2.62c0-2.11,0-4.22,0-6.38Z"/><path class="cls-1" d="M94.37,106.38c-4.26,4.34-9.63,4-13.1,1.05A9.09,9.09,0,0,1,79.68,95c2.4-3.38,7.94-5.6,13.4-1.83-3-3.46-9.22-3.53-12.61-.16a10.1,10.1,0,0,0,.6,14.89C84.85,111.32,91.69,110.65,94.37,106.38Z"/><path class="cls-1" d="M90.39,96.9v1.6h2.2v7.36h3.3V98.5h2.47V96.9Z"/></g></g></svg>