<svg xmlns="http://www.w3.org/2000/svg" viewBox="0 0 141.32 141.32"><defs><style>.cls-1{fill:#fff;}</style></defs><title>icone_base</title><g id="Calque_2" data-name="Calque 2"><g id="Packs"><path d="M36.37,117.07c3.63-5.19,8.83-8.31,12.47-13.51C70.66,76,91.44,51.09,115.34,25.63c1.64-1.64,3.5-3.29,5.09-5.13a70.66,70.66,0,1,0-92.8,106.2A77.41,77.41,0,0,0,36.37,117.07Z"/><path class="cls-1" d="M120.43,20.5c-1.59,1.84-3.45,3.49-5.09,5.13C91.44,51.09,70.66,76,48.84,103.56c-3.64,5.2-8.84,8.32-12.47,13.51a77.41,77.41,0,0,1-8.74,9.63,70.66,70.66,0,0,0,92.8-106.2Z"/><path class="cls-1" d="M57.11,93.21l0,0Z"/><path class="cls-1" d="M74.26,46.2a8.26,8.26,0,0,0-5.62,1.09A5,5,0,0,0,66,51.75c0,1.87.14,3.74.25,5.61.14,2.32.32,4.64.47,7,.1,1.44.19,2.87.28,4.3v.32l-6.22.43-6.29.42a3.59,3.59,0,0,0-3.21,3.45c0,1.8.09,3.6.18,5.4.14,2.7.31,5.4.47,8.09q.18,3.12.34,6.22c0,.29.12.37.4.37,1.37,0,2.73,0,4.1,0a.44.44,0,0,0,.32-.08l0,0a.55.55,0,0,0,.09-.32Q57.64,85,58.09,77c0-.09,0-.19,0-.33H70.58q4.9-6.21,9.8-12.48c0-3.77,0-7.53,0-11.3C80.4,48.86,77.6,46.62,74.26,46.2Z"/><path class="cls-1" d="M67.68,78.22H60.21V81.3h.85l5.87,0,2.44-3.06Z"/><path class="cls-1" d="M109.66,27.53,90.85,21.16,63.91,12,46.49,6.14,46.11,6c0,.66,0,1.28,0,1.9,0,.42-.12.94.08,1.21s.74.33,1.13.46l18.5,6.24,16.05,5.39a.56.56,0,0,1,.45.65c0,3.24,0,6.49,0,9.73q0,6.65,0,13.28V61.75c1-1.27,2-2.55,3-3.83l0-20.79,0-14.29c0-.12,0-.24,0-.43l23.15,7.84c.82-.77,1.65-1.52,2.48-2.25Z"/><path class="cls-1" d="M37.7,91.94c-1.56-.27-3.12-.52-4.68-.8a6.74,6.74,0,0,1-2.87-1.29,9.78,9.78,0,0,1-2.55-2.5,2.18,2.18,0,0,0-.52-.53c-.29-.2-.57-.12-.65.22a3.4,3.4,0,0,0-.07,1.19A6.91,6.91,0,0,0,28,92a7.6,7.6,0,0,0,4.49,2.26l12.66,2.24,7.9,1.4c.82-.94,1.64-1.87,2.45-2.81l-.81-.14Z"/><path class="cls-1" d="M73,44.36a6,6,0,0,0,6.14-5.87A6,6,0,1,0,67,38.35,6,6,0,0,0,73,44.36Z"/><path class="cls-1" d="M73.22,9.36a5.53,5.53,0,1,0,11,0,5.53,5.53,0,0,0-11,0Z"/><path class="cls-1" d="M86.62,14.18a5.65,5.65,0,0,0,5.54,5.52,5.55,5.55,0,0,0,5.51-5.63,5.45,5.45,0,0,0-5.58-5.44A5.59,5.59,0,0,0,86.62,14.18Z"/><path d="M122.53,71.17c-.06-4.38-.07-4.38-4.3-4.84-.15,0-.28-.17-.65-.41,0-1.31,0-2.77,0-4.22a10.32,10.32,0,0,0-3.07-7.58c-1.6-1.5-3.51-2.14-7-2.58a60.69,60.69,0,0,0-16.42.28,17.67,17.67,0,0,1-4.42,5.3c.69,0,6.66-.43,10.86-.41a3.64,3.64,0,0,1,2.85,1,2.55,2.55,0,0,1,.48,1.71c0,2.13-1.63,2.59-3.45,2.58-3.19,0-6.38,0-9.57,0H82.31c-1.38,1.82-2.78,3.62-4.2,5.43H85V91.32H64.41c0-2.57.09-5.14.14-7.71-.85,1.17-1.73,2.34-2.65,3.53q-1.77,2.31-3.53,4.42a51.08,51.08,0,0,0,0,7.07c.15,2.27.44,4.17-.31,6.68a7.35,7.35,0,0,1-.84,2.13c-2.91,5.47-.83,10.75,5,12.59.48,6.59.48,6.59,7.31,6.54.26,0,.52,0,.78,0,1.75.12,2.56-.68,2.5-2.45,0-1.43,0-2.87,0-4.28h29.86c.79,6.82.79,6.78,7.65,6.74,5.59,0,1.76-4.54,3.62-6.84,2-.26,4.47-1,4.94-3.45s.81-5.54-.08-7.85a19.15,19.15,0,0,1-1.19-7.26q0-8.18,0-16.36c0-.92.08-1.84.12-2.71,5.17-.55,4.62-.22,4.81-5.23C122.59,75,122.55,73.07,122.53,71.17Zm-50,32.91c-.39.79-2.41.79-3.7,1.15-4.73.07-5-2.06-4.61-6.18a1.61,1.61,0,0,1,.23-.74C66,96,68.35,96.87,70.35,96.94c1,0,2.75,1,2.86,1.81A9.57,9.57,0,0,1,72.54,104.08Zm18.3-36.61h20.48V91.32H90.84ZM107,104.94c-4.26,0-5.27-1.12-4.81-5.2.2-1.82,1.06-2.85,3-2.89.6,0,1.2,0,1.81,0,3.93,0,4.74.68,4.73,4S110.83,104.94,107,104.94Z"/></g></g></svg>