<svg xmlns="http://www.w3.org/2000/svg" viewBox="0 0 527.1 72.22"><defs><style>.cls-1{fill:#1a7e96;}.cls-2{fill:#fff;}</style></defs><title>récapitulatif</title><g id="Calque_2" data-name="Calque 2"><g id="Tombola"><path class="cls-1" d="M24.73,45.26,19.3,71.08H5.52L18.74,9H37.18c14.11,0,18.75,8.46,16.33,19.27-1.83,8.11-6.65,11.11-10.87,12.34,4.12,2.18,6,6.33,4.26,14.94a153.65,153.65,0,0,0-2.65,15.57H30.77c-.09-2.61,1.05-8.9,2.53-16.35,1.43-7.14.34-9.47-5-9.47ZM27,34.85h3.56c4.83,0,7.76-1.16,9-6.88,1.13-5.43-.56-8.64-5.69-8.64H30.27Z"/><path class="cls-1" d="M89.55,44.44H71.2L68,59.84H89.71L85.87,71.08H51.81L65,9h32.9L95.43,20.24H76.29L73.6,33.17H92Z"/><path class="cls-1" d="M134.42,52.54c-2.29,8.71-6.56,19.68-21.47,19.68-15.15,0-20-10.44-15-33.9,4.29-20,11.43-30.5,25.34-30.5,14.43,0,17.31,10,15.9,19.55H125.6c.58-4.59.88-8.79-3.43-8.79S115,24.92,112,39c-3.23,15.15-3.5,22.34,1.75,22.34,3.84,0,5.77-4.65,6.8-8.8Z"/><path class="cls-1" d="M153,57.06l-5.17,14H133.72L158.79,9h19.66l-.8,62.12H163.89l.51-14ZM164.7,45.9c.46-9.64,1.15-20.62,1.56-26.32h-.37c-1.65,5.66-5.12,15.93-8.69,26.32Z"/><path class="cls-1" d="M195.66,9h16.23c14.33,0,20.32,8.75,17.44,22.3C226.56,44.18,218,48.14,207,48.14h-5.92l-4.83,22.94H182.45Zm7.74,28.42h4.31c4.84,0,7.25-2.47,8.39-8.4,1.22-6.32-.49-9.46-5.41-9.46H207.2Z"/><path class="cls-1" d="M254.65,9,241.43,71.08H227.52L240.74,9Z"/><path class="cls-1" d="M269.35,20.24H257.53L260,9h37.35l-2.43,11.28H283.23L272.44,71.08H258.57Z"/><path class="cls-1" d="M316.12,9l-9.21,43.3c-1,4.52-.81,9.08,4.2,9.08s6.23-4.52,7.2-9.08L327.52,9h14l-9.14,43c-2.62,12.41-7.63,20.26-22.53,20.26-14.27,0-19.43-8-16.71-20.75l9-42.47Z"/><path class="cls-1" d="M350.45,9h13.91L353.58,59.71H373l-3.45,11.37H337.24Z"/><path class="cls-1" d="M393.78,57.06l-5.17,14H374.48L399.54,9h19.67l-.8,62.12H404.65l.51-14ZM405.46,45.9c.45-9.64,1.15-20.62,1.56-26.32h-.38C405,25.24,401.52,35.51,398,45.9Z"/><path class="cls-1" d="M436.52,20.24H424.7L427.13,9h37.36l-2.44,11.28H450.39L439.61,71.08H425.74Z"/><path class="cls-1" d="M484.08,9,470.86,71.08H457L470.17,9Z"/><path class="cls-1" d="M493.71,9H527.1L524.6,20.2H505.1l-2.78,13.59h18.24l-2.4,11.27H499.82l-5.48,26H480.49Z"/><path class="cls-2" d="M19.2,37.44,13.78,63.26H0L13.21,1.14H31.65C45.76,1.14,50.4,9.6,48,20.41c-1.83,8.11-6.64,11.11-10.87,12.34,4.12,2.18,6,6.33,4.27,14.94a157.59,157.59,0,0,0-2.66,15.57H25.25c-.1-2.61,1-8.9,2.53-16.35,1.43-7.14.33-9.47-5-9.47ZM21.48,27H25c4.82,0,7.75-1.16,9-6.88,1.13-5.43-.56-8.64-5.69-8.64H24.75Z"/><path class="cls-2" d="M84,36.62H65.68L62.44,52H84.18L80.34,63.26H46.29L59.5,1.14H92.4L89.91,12.41H70.76L68.08,25.34H86.42Z"/><path class="cls-2" d="M128.89,44.72c-2.28,8.7-6.56,19.68-21.46,19.68-15.16,0-20.05-10.44-15-33.9C96.72,10.51,103.87,0,117.77,0c14.43,0,17.32,10,15.91,19.55h-13.6c.58-4.59.88-8.8-3.44-8.8s-7.21,6.34-10.17,20.42c-3.23,15.16-3.5,22.35,1.74,22.35,3.84,0,5.78-4.65,6.8-8.8Z"/><path class="cls-2" d="M147.5,49.24l-5.17,14H128.2L153.26,1.14h19.67l-.8,62.12H158.37l.51-14Zm11.68-11.16c.45-9.64,1.15-20.62,1.55-26.32h-.37c-1.65,5.66-5.12,15.93-8.69,26.32Z"/><path class="cls-2" d="M190.14,1.14h16.23c14.33,0,20.32,8.75,17.43,22.3C221,36.36,212.47,40.32,201.48,40.32h-5.91l-4.84,22.94H176.92Zm7.74,28.42h4.31c4.83,0,7.25-2.48,8.38-8.4,1.23-6.32-.49-9.46-5.4-9.46h-3.5Z"/><path class="cls-2" d="M249.12,1.14,235.91,63.26H222L235.22,1.14Z"/><path class="cls-2" d="M263.83,12.41H252l2.43-11.27H291.8l-2.44,11.27H277.7L266.92,63.26H253Z"/><path class="cls-2" d="M310.6,1.14l-9.22,43.3c-1,4.52-.81,9.08,4.2,9.08s6.23-4.53,7.2-9.08L322,1.14h14l-9.14,43c-2.62,12.4-7.63,20.26-22.53,20.26-14.27,0-19.43-8-16.72-20.75l9.05-42.47Z"/><path class="cls-2" d="M344.93,1.14h13.9L348.05,51.89h19.47l-3.45,11.37H331.71Z"/><path class="cls-2" d="M388.25,49.24l-5.16,14H369L394,1.14h19.66l-.79,62.12H399.12l.52-14Zm11.69-11.16c.45-9.64,1.15-20.62,1.55-26.32h-.37c-1.65,5.66-5.12,15.93-8.69,26.32Z"/><path class="cls-2" d="M431,12.41H419.17l2.44-11.27H459l-2.43,11.27H444.87L434.09,63.26H420.21Z"/><path class="cls-2" d="M478.55,1.14,465.34,63.26H451.43L464.64,1.14Z"/><path class="cls-2" d="M488.18,1.14h33.39l-2.49,11.24H499.57L496.79,26H515l-2.4,11.27H494.29l-5.47,26H475Z"/></g></g></svg>