<svg xmlns="http://www.w3.org/2000/svg" viewBox="0 0 80.77 86.31"><title>la station</title><g id="Calque_2" data-name="Calque 2"><g id="Calque_1-2" data-name="Calque 1"><g id="flocon"><path d="M40.88,0a2,2,0,0,1,.85,1.94c-.06,1.11,0,2.23,0,3.59l1-1.07c.79-.79,1.54-.9,2.14-.29s.53,1.44-.27,2.27S43,8.08,42.21,9a2.07,2.07,0,0,0-.48,1.15c0,1.51,0,3,0,4.53l.27.2c.62-.72,1.23-1.45,1.88-2.16s1.38-1.44,2.08-2.15,1.55-.85,2.14-.24.48,1.43-.28,2.22c-1.87,1.93-3.75,3.84-5.6,5.79a1.52,1.52,0,0,0-.47.9c0,2.58,0,5.17,0,7.9.31-.16.54-.27.75-.4,2.57-1.54,5.14-3.07,7.69-4.64a1.61,1.61,0,0,0,.66-.95c.65-3.15,1.26-6.32,1.84-9.49A2.27,2.27,0,0,1,54,9.78c1.68-.8,3.32-1.68,5-2.52,1.33-.67,2.17-.2,2.29,1.35.15,2,.23,3.92.38,5.88a2.08,2.08,0,0,1-.76,1.84c-2.37,2.11-4.71,4.27-7.08,6.38a1.64,1.64,0,0,0-.61,1.36c0,3.23,0,6.46,0,9.8.22-.11.43-.19.62-.3,2-1.17,3.93-2.31,5.87-3.51a1.81,1.81,0,0,0,.67-.95c.72-2.65,1.4-5.31,2.1-8,.28-1.06.92-1.52,1.76-1.27s1.08,1,.82,2c-.49,1.89-1,3.78-1.55,5.93,1.25-.74,2.27-1.41,3.35-2a2.65,2.65,0,0,0,1.59-2.12,24.67,24.67,0,0,1,.75-2.93c.26-.93.93-1.4,1.68-1.18a1.43,1.43,0,0,1,.91,1.88c-.11.49-.24,1-.41,1.63l3.17-1.88c.94-.55,1.71-.41,2.13.36s.12,1.47-.76,2l-3.18,1.9c.65.19,1.16.32,1.65.48a1.4,1.4,0,0,1,1,1.74,1.3,1.3,0,0,1-1.68.92c-1.27-.31-2.53-.69-3.8-1a1,1,0,0,0-.69,0c-1.4.8-2.78,1.63-4.36,2.57l3.45,1c.76.21,1.53.41,2.29.63,1,.3,1.45.91,1.26,1.72s-.91,1.22-1.94.94c-2.61-.71-5.21-1.44-7.82-2.14a1.27,1.27,0,0,0-.84,0c-2.23,1.29-4.44,2.62-6.73,4,.52.33,1,.58,1.4.87a1.38,1.38,0,0,1,.47,1.9,1.28,1.28,0,0,1-1.78.48c-.77-.41-1.5-.92-2.29-1.3a1.24,1.24,0,0,0-1,0c-1.48.83-3,1.7-4.39,2.61a1.32,1.32,0,0,0-.52.89,24.81,24.81,0,0,0,0,2.86,1.15,1.15,0,0,0,.44.77c1.49.94,3,1.83,4.52,2.7a.94.94,0,0,0,.8,0c2.76-1.59,5.5-3.21,8.24-4.83a1.41,1.41,0,0,0,.14-.2c-.42-.26-.83-.5-1.23-.76a1.39,1.39,0,0,1-.54-2A1.34,1.34,0,0,1,60.67,40l.15.09c1,.51,1.88,1.36,2.87,1.45s2-.6,3-.95c2.19-.76,4.38-1.52,6.57-2.3a1.77,1.77,0,0,1,1.77.22c1.62,1.14,3.27,2.24,4.89,3.37a1.45,1.45,0,0,1,0,2.63c-1.6,1.11-3.23,2.2-4.82,3.32a1.87,1.87,0,0,1-1.85.26c-3-1.06-5.93-2.06-8.88-3.13a1.67,1.67,0,0,0-1.59.16c-2.45,1.47-4.92,2.9-7.38,4.35-.26.15-.5.32-.85.54,1.76,1.05,3.51,2,5.11,3.09a4.1,4.1,0,0,0,4.1.53c2-.69,4.09-1.17,6.14-1.73,1-.29,1.74,0,2,.9s-.22,1.45-1.23,1.73C68.8,55,67,55.53,65,56.09c.28.2.44.35.63.46,1.08.65,2.15,1.33,3.26,1.92a1.85,1.85,0,0,0,1.2.16c1.15-.25,2.27-.62,3.4-.92s1.73,0,2,.83-.2,1.51-1.23,1.83l-1.42.41,1.65,1c.54.33,1.09.64,1.62,1a1.4,1.4,0,0,1,.62,2,1.32,1.32,0,0,1-1.93.39c-.84-.47-1.66-1-2.48-1.46l-.84-.47c.14.59.26,1,.36,1.5.24,1-.08,1.73-.87,2s-1.44-.25-1.7-1.25c-.33-1.21-.63-2.44-1-3.65a1.3,1.3,0,0,0-.44-.74c-1.14-.72-2.3-1.39-3.46-2.08l-.69-.38c0,.32,0,.52.1.71.44,1.71.9,3.41,1.34,5.12a1.53,1.53,0,0,1-.52,1.87c-.83.53-1.75.08-2-1-.72-2.71-1.4-5.42-2.14-8.13a1.53,1.53,0,0,0-.57-.83c-2-1.23-4.05-2.43-6.08-3.63-.13-.08-.28-.14-.53-.27v2.67c0,2.42,0,4.83.07,7.25a1.88,1.88,0,0,0,.52,1.2q3.47,3.23,7,6.35A2.32,2.32,0,0,1,61.65,72c-.16,1.88-.23,3.76-.37,5.64-.12,1.64-1,2.13-2.37,1.4-1.66-.84-3.31-1.71-5-2.52a2.1,2.1,0,0,1-1.24-1.63q-.88-4.8-1.85-9.58a1.59,1.59,0,0,0-.54-1c-2.71-1.67-5.44-3.3-8.17-4.94-.09,0-.2-.07-.41-.15V63.4c0,1.16,0,2.31,0,3.46A2,2,0,0,0,42.2,68c1.9,2,3.85,4,5.77,6a1.39,1.39,0,0,1,.3,1.76,1.18,1.18,0,0,1-1.46.62,2.32,2.32,0,0,1-.87-.59c-1.36-1.38-2.7-2.78-4.23-4.36v1.41c0,1.35-.31,2.84.15,4s1.7,1.92,2.59,2.86l.24.24c.74.79.82,1.61.21,2.21s-1.35.52-2.08-.24c-.3-.31-.55-.69-.83-1l-.28.13v1.86c0,.61,0,1.23,0,1.85,0,1-.51,1.59-1.31,1.6s-1.33-.59-1.34-1.57c0-1.23,0-2.46,0-3.91L37.86,82a1.33,1.33,0,0,1-2,.09,1.4,1.4,0,0,1,.13-2c.89-1,1.82-1.86,2.71-2.82a1.33,1.33,0,0,0,.37-.78c0-1.59,0-3.19,0-4.93-.25.21-.42.32-.56.46-1.24,1.27-2.46,2.55-3.7,3.81-.72.74-1.51.81-2.09.22a1.46,1.46,0,0,1,.19-2.15c1.91-2,3.83-3.93,5.71-5.92A1.57,1.57,0,0,0,39,67c0-2.39,0-4.78,0-7.16,0-.16,0-.32,0-.57-.28.15-.5.24-.7.36-2.54,1.53-5.09,3-7.61,4.61A1.9,1.9,0,0,0,30,65.27c-.65,3.19-1.26,6.38-1.86,9.58a2.07,2.07,0,0,1-1.22,1.64c-1.73.84-3.42,1.74-5.14,2.59-1.24.62-2.1.15-2.21-1.28-.17-2.07-.32-4.14-.36-6.22a2.29,2.29,0,0,1,.68-1.5c2.36-2.21,4.78-4.35,7.16-6.54a1.48,1.48,0,0,0,.53-.95c.06-3.28.06-6.57.07-9.86a1.9,1.9,0,0,0-.07-.32l-2.14,1.26c-1.34.8-2.67,1.63-4,2.38a2.06,2.06,0,0,0-1.07,1.46c-.63,2.56-1.31,5.1-2,7.64-.28,1.08-.9,1.52-1.75,1.28s-1.09-1-.83-2c.49-1.89,1-3.78,1.55-5.93a27.38,27.38,0,0,1-2.7,1.57,3.74,3.74,0,0,0-2.43,3.23,16.52,16.52,0,0,1-.57,2.28A1.36,1.36,0,0,1,9.91,66.7,1.41,1.41,0,0,1,9,64.9c.1-.51.25-1,.42-1.71-1.19.71-2.23,1.31-3.25,1.93a1.37,1.37,0,1,1-1.47-2.3c1.06-.67,2.15-1.29,3.38-2l-1.52-.44a1.42,1.42,0,0,1-1.17-1.79,1.37,1.37,0,0,1,1.86-.87c1.22.31,2.42.67,3.63,1a1.38,1.38,0,0,0,.7,0,2.55,2.55,0,0,0,.64-.36l3.71-2.21-3.37-1-2.37-.66c-1-.29-1.46-.89-1.27-1.7s.91-1.22,1.94-.94L18.65,54a1.29,1.29,0,0,0,.85,0c2.23-1.29,4.44-2.62,6.75-4-.53-.32-1-.6-1.41-.86-2.34-1.37-4.67-2.76-7-4.1a1.59,1.59,0,0,0-1.19-.12c-3,1-6,2.07-9,3.14a1.89,1.89,0,0,1-1.92-.26C4.1,46.67,2.52,45.63,1,44.55c-1.27-.88-1.28-1.9,0-2.76,1.59-1.1,3.19-2.17,4.76-3.29a1.83,1.83,0,0,1,1.84-.23q4.56,1.6,9.13,3.17a1.32,1.32,0,0,0,1,0c2.76-1.58,5.5-3.21,8.24-4.83a4.09,4.09,0,0,0,.33-.25c-1.74-1-3.49-2-5.1-3.08a4,4,0,0,0-3.95-.56c-2.05.71-4.19,1.2-6.3,1.77-1,.28-1.73,0-2-.91s.24-1.44,1.25-1.72c1.57-.45,3.15-.88,4.72-1.32.28-.08.55-.18,1-.33-1.56-.92-3-1.77-4.37-2.57-.18-.1-.47,0-.7,0-1.24.33-2.47.7-3.71,1s-2-.5-1.72-1.52a2.2,2.2,0,0,1,1-1.09,8.3,8.3,0,0,1,1.72-.51c-1.23-.73-2.35-1.31-3.36-2A2,2,0,0,1,4,22.13,1.57,1.57,0,0,1,4.81,21a1.66,1.66,0,0,1,1.29.17c1.07.55,2.08,1.2,3.29,1.9-.16-.62-.27-1.06-.37-1.51-.24-1,.07-1.73.87-2s1.43.24,1.71,1.25c.32,1.21.62,2.44,1,3.65a1.42,1.42,0,0,0,.44.74c1.32.83,2.68,1.61,4.15,2.49a5.85,5.85,0,0,0-.1-.73c-.44-1.71-.89-3.42-1.33-5.12a1.58,1.58,0,0,1,.37-1.78c.8-.67,1.87-.23,2.18.93.61,2.3,1.29,4.59,1.77,6.92a3.66,3.66,0,0,0,2.05,2.75c1.84,1,3.58,2.1,5.51,3.24v-.85c0-3-.05-6,0-9A1.64,1.64,0,0,0,27,22.72c-2.36-2.1-4.66-4.24-7-6.33a2.25,2.25,0,0,1-.84-2.05c.16-1.88.23-3.76.37-5.63.12-1.66.94-2.14,2.37-1.42,1.68.85,3.35,1.74,5.05,2.56a2,2,0,0,1,1.18,1.59c.59,3.17,1.23,6.33,1.81,9.5a1.61,1.61,0,0,0,.84,1.22c2.55,1.51,5.08,3.05,7.62,4.58.19.11.38.2.7.35V24.68c0-1.74,0-3.48,0-5.22a1.88,1.88,0,0,0-.47-1.16c-1.9-2-3.84-4-5.76-6a1.41,1.41,0,0,1-.12-2,1.34,1.34,0,0,1,2,.11l.58.59a48.46,48.46,0,0,0,3.76,3.66,12.9,12.9,0,0,1,0-1.76A5.58,5.58,0,0,0,36.73,7a5.31,5.31,0,0,1-.81-.83,1.4,1.4,0,0,1-.05-2,1.3,1.3,0,0,1,2,.11c.36.34.67.73,1,1.1l.22-.07c0-1.13,0-2.26,0-3.38A2,2,0,0,1,39.9,0ZM30.27,25.06c0,3.45,0,6.76,0,10.07a1,1,0,0,0,.45.68c1.5.92,3,1.82,4.53,2.69a1,1,0,0,0,.86,0,23.64,23.64,0,0,0,2.47-1.47,1.11,1.11,0,0,0,.44-.78c0-1.8,0-3.59,0-5.39a1,1,0,0,0-.36-.74C35.93,28.45,33.15,26.79,30.27,25.06Zm20.23,0c-2.89,1.75-5.69,3.42-8.47,5.12a1,1,0,0,0-.3.69c0,1.79,0,3.59,0,5.39a1.14,1.14,0,0,0,.43.78c.82.55,1.68,1.05,2.54,1.52a.86.86,0,0,0,.72,0c1.57-.9,3.13-1.82,4.67-2.78a1,1,0,0,0,.4-.71C50.51,31.78,50.5,28.5,50.5,25.06ZM30.27,61.26c2.89-1.74,5.66-3.4,8.42-5.09a1,1,0,0,0,.35-.74c0-1.77.05-3.54,0-5.31a1.33,1.33,0,0,0-.52-.9,24,24,0,0,0-2.39-1.44,1,1,0,0,0-.8,0Q33,49.12,30.67,50.55a.9.9,0,0,0-.38.64C30.26,54.5,30.27,57.81,30.27,61.26Zm20.25,0c0-2.55,0-4.94,0-7.32,0-1,.32-2.28-.13-3.06s-1.66-1.17-2.55-1.7S46,47.67,45.06,47.69s-1.92,1-2.83,1.56a1.27,1.27,0,0,0-.49.9c-.07.92,0,1.85,0,2.78s-.26,2.19.16,3S43.4,57,44.22,57.47C46.28,58.72,48.34,60,50.52,61.26ZM20.09,43.16l6.23,3.66c.87.51,1.76,1.39,2.64,1.39s1.76-.89,2.63-1.41,2.19-.92,2.63-1.75.13-2.18.14-3.31c0,0,0-.06,0-.08-.13-.24-.21-.59-.41-.72q-2.31-1.42-4.67-2.78a.74.74,0,0,0-.65,0C25.83,39.77,23,41.42,20.09,43.16Zm17.06-.06c-.53,1.62.33,2.35,1.59,3.11a2.76,2.76,0,0,0,3.29,0,3,3,0,0,0,1.74-3.13,3,3,0,0,0-1.63-3,2.84,2.84,0,0,0-3.5,0C37.48,40.91,36.63,41.56,37.15,43.1Zm-24.25.16v-.2l-5.76-2a.42.42,0,0,0-.31,0c-1,.67-2,1.36-3.08,2.1,1,.72,1.94,1.35,2.86,2a.73.73,0,0,0,.58.11C9.11,44.59,11,43.92,12.9,43.26Zm55-.2,0,.21,5.56,1.93c.15,0,.36.12.46.06,1-.67,2-1.36,3.1-2.1-1-.72-2-1.35-2.86-2a.67.67,0,0,0-.51-.14C71.72,41.71,69.8,42.39,67.88,43.06ZM58.7,10.48c-1.13.58-2.14,1.07-3.13,1.6a.77.77,0,0,0-.33.42c-.41,2.05-.81,4.1-1.26,6.41,1.71-1.56,3.24-2.94,4.75-4.34a.86.86,0,0,0,.17-.6C58.85,12.85,58.78,11.73,58.7,10.48ZM54.18,67.59l-.14.1c.39,2,.77,4,1.17,6a.86.86,0,0,0,.34.52c1,.54,2,1,3.15,1.62.08-1.29.15-2.46.2-3.63a.74.74,0,0,0-.2-.51C57.2,70.32,55.69,69,54.18,67.59ZM26.58,18.7l.16-.05q-.58-3-1.19-6.08a.68.68,0,0,0-.22-.42c-1-.56-2.12-1.09-3.26-1.67-.07,1.26-.16,2.38-.19,3.5a1,1,0,0,0,.3.71C23.63,16,25.11,17.37,26.58,18.7ZM22.07,75.84c1.13-.58,2.18-1.1,3.21-1.65a.6.6,0,0,0,.25-.39c.41-2,.81-4.09,1.26-6.38-1.69,1.53-3.2,2.89-4.7,4.27a.83.83,0,0,0-.22.59C21.92,73.42,22,74.57,22.07,75.84Z"/></g></g></g></svg>