<svg xmlns="http://www.w3.org/2000/svg" viewBox="0 0 1138.42 158.52"><defs><style>.cls-1{opacity:0.6;}.cls-2{fill:#fc6;}</style></defs><title>defi_text</title><g id="Calque_2" data-name="Calque 2"><g id="Voyage"><g class="cls-1"><path class="cls-2" d="M804.6,2.1h27.51c32,0,41.21,22.52,33.38,60.45C857.6,100.9,845,116.9,815.19,116.9h-35ZM810,97.71h3.53c12.3,0,19.18-3.5,25.71-36.3,6.68-33.52,3.41-39.9-10.54-39.9H826Z"/><path class="cls-2" d="M937.7,67.67H903.79l-6,28.45H938l-7.1,20.78H868L892.38,2.1h60.8l-4.61,20.84H913.19l-5,23.89h33.91Z"/><path class="cls-2" d="M967.78,2.1h61.69l-4.61,20.78h-36L983.69,48h33.71L1013,68.82H979.07L969,116.9H943.36Z"/><path class="cls-2" d="M1065.42,2.1,1041,116.9h-25.7L1039.72,2.1Z"/><path class="cls-2" d="M1084.71,83.31c-.79,8.2.66,16.51,9,16.51,6.06,0,9.46-3.9,10.64-10.38,1.47-7.92-.86-13.89-12.15-23-16.19-13.11-22.5-22.76-19.47-39.5,2.73-15,12.92-26.89,33.56-26.89,28.47,0,33.8,20,31.74,33.82h-23.67c.67-6.08.16-14.64-8.16-14.64-5.15,0-8.12,3.14-9.08,9s.8,10,12.58,19.26c18.92,15,23.87,26.25,19.84,44.69-3.36,15.49-14.48,26.85-36.26,26.85-29.08,0-35.57-18.5-32.94-35.69Z"/></g><path d="M14.31,98c-2.19-.57-4.33-1.22-6.2-1.87a3.05,3.05,0,0,0-1-.24C3.29,95.74,0,92.91,0,87.7s3.17-8.52,7.54-8.52,7.25,3.4,7.25,8.18c0,4.15-1.93,6.82-4.61,7.75v.1c1.6.41,3.36.79,4.73,1ZM12.58,87.46c0-3.24-1.68-6.58-5.12-6.58s-5.25,3.26-5.23,6.77,1.87,6.53,5.14,6.53S12.58,91.15,12.58,87.46Z"/><path d="M27.22,92.45c0,1.2,0,2.26.09,3.17H25.44l-.12-1.9h-.05a4.35,4.35,0,0,1-3.84,2.16c-1.82,0-4-1-4-5.09V84h2.12v6.43c0,2.21.67,3.7,2.59,3.7a3.06,3.06,0,0,0,2.78-1.92,3.1,3.1,0,0,0,.19-1.08V84h2.12Z"/><path d="M31.9,90.19a3.71,3.71,0,0,0,4,4,7.63,7.63,0,0,0,3.22-.6l.36,1.52a9.56,9.56,0,0,1-3.87.72c-3.57,0-5.71-2.36-5.71-5.86s2.06-6.26,5.45-6.26c3.79,0,4.8,3.33,4.8,5.47a8.79,8.79,0,0,1-.07,1Zm6.19-1.51c0-1.34-.55-3.43-2.93-3.43-2.14,0-3.07,2-3.24,3.43Z"/><path d="M47.54,93.46a5.55,5.55,0,0,0,2.79.84c1.53,0,2.25-.77,2.25-1.73S52,91,50.42,90.43c-2.08-.74-3.07-1.89-3.07-3.29,0-1.87,1.51-3.4,4-3.4a5.74,5.74,0,0,1,2.86.72L53.69,86a4.53,4.53,0,0,0-2.38-.67c-1.25,0-1.94.72-1.94,1.58s.69,1.4,2.21,2c2,.77,3,1.78,3,3.51,0,2-1.58,3.48-4.34,3.48A6.71,6.71,0,0,1,47,95.07Z"/><path d="M58.51,90.19a3.72,3.72,0,0,0,4,4,7.54,7.54,0,0,0,3.21-.6l.36,1.52a9.46,9.46,0,0,1-3.86.72c-3.58,0-5.71-2.36-5.71-5.86s2.06-6.26,5.44-6.26c3.8,0,4.8,3.33,4.8,5.47a6.87,6.87,0,0,1-.07,1Zm6.19-1.51c0-1.34-.55-3.43-2.92-3.43-2.14,0-3.08,2-3.24,3.43Z"/><path d="M69.36,87.62c0-1.36,0-2.54-.1-3.62h1.85l.07,2.28h.1a3.48,3.48,0,0,1,3.22-2.54,2.25,2.25,0,0,1,.6.07v2a3.14,3.14,0,0,0-.72-.07,3,3,0,0,0-2.84,2.71,7,7,0,0,0-.09,1v6.2H69.36Z"/><path d="M83.52,95.62l-.17-1.47h-.07a4.31,4.31,0,0,1-3.55,1.73,3.32,3.32,0,0,1-3.56-3.34c0-2.8,2.5-4.34,7-4.32V88a2.39,2.39,0,0,0-2.64-2.68,5.74,5.74,0,0,0-3,.86L77,84.77a7.14,7.14,0,0,1,3.81-1c3.55,0,4.42,2.42,4.42,4.75v4.34a16.83,16.83,0,0,0,.19,2.79Zm-.31-5.93c-2.31,0-4.92.36-4.92,2.61a1.87,1.87,0,0,0,2,2,2.9,2.9,0,0,0,2.81-1.94,2.31,2.31,0,0,0,.12-.67Z"/><path d="M91,80.74a1.31,1.31,0,0,1-2.62,0,1.28,1.28,0,0,1,1.32-1.32A1.25,1.25,0,0,1,91,80.74ZM88.65,95.62V84h2.12V95.62Z"/><path d="M96.81,80.66V84h3v1.61h-3v6.26c0,1.44.41,2.26,1.59,2.26A4.78,4.78,0,0,0,99.62,94l.1,1.58a5.14,5.14,0,0,1-1.87.29A2.93,2.93,0,0,1,95.57,95a4.31,4.31,0,0,1-.82-3V85.61H93V84h1.8V81.22Z"/><path d="M117,92.45c0,1.2,0,2.26.1,3.17h-1.87l-.12-1.9h0a4.37,4.37,0,0,1-3.84,2.16c-1.83,0-4-1-4-5.09V84h2.11v6.43c0,2.21.67,3.7,2.6,3.7a3,3,0,0,0,3-3V84H117Z"/><path d="M120.53,87.14c0-1.2,0-2.18-.1-3.14h1.87l.12,1.92h0a4.28,4.28,0,0,1,3.84-2.18c1.61,0,4.11,1,4.11,4.94v6.94H128.3v-6.7c0-1.87-.69-3.43-2.68-3.43a3,3,0,0,0-2.84,2.16,3.17,3.17,0,0,0-.14,1v7h-2.11Z"/><path d="M135,90.19a3.72,3.72,0,0,0,4,4,7.54,7.54,0,0,0,3.21-.6l.36,1.52a9.46,9.46,0,0,1-3.86.72c-3.58,0-5.71-2.36-5.71-5.86s2.06-6.26,5.44-6.26c3.8,0,4.81,3.33,4.81,5.47a6.57,6.57,0,0,1-.08,1Zm6.19-1.51c0-1.34-.55-3.43-2.92-3.43-2.14,0-3.08,2-3.24,3.43Z"/><path d="M150.67,93.46a5.51,5.51,0,0,0,2.78.84c1.54,0,2.26-.77,2.26-1.73s-.6-1.56-2.16-2.14c-2.09-.74-3.07-1.89-3.07-3.29,0-1.87,1.51-3.4,4-3.4a5.73,5.73,0,0,1,2.85.72L156.81,86a4.46,4.46,0,0,0-2.37-.67c-1.25,0-1.95.72-1.95,1.58s.7,1.4,2.21,2c2,.77,3.05,1.78,3.05,3.51,0,2-1.58,3.48-4.34,3.48a6.75,6.75,0,0,1-3.27-.79Z"/><path d="M161.64,90.19a3.72,3.72,0,0,0,4,4,7.6,7.6,0,0,0,3.22-.6l.36,1.52a9.56,9.56,0,0,1-3.87.72c-3.57,0-5.71-2.36-5.71-5.86s2.07-6.26,5.45-6.26c3.79,0,4.8,3.33,4.8,5.47a8.79,8.79,0,0,1-.07,1Zm6.19-1.51c0-1.34-.55-3.43-2.93-3.43-2.13,0-3.07,2-3.24,3.43Z"/><path d="M172.49,87.14c0-1.2,0-2.18-.1-3.14h1.85l.09,1.87h.08a4,4,0,0,1,3.64-2.13,3.43,3.43,0,0,1,3.29,2.32h0a4.88,4.88,0,0,1,1.3-1.51,3.93,3.93,0,0,1,2.57-.81c1.53,0,3.81,1,3.81,5v6.84H187V89c0-2.23-.82-3.58-2.52-3.58a2.74,2.74,0,0,0-2.5,1.92,3.73,3.73,0,0,0-.17,1.06v7.18h-2.06v-7c0-1.85-.82-3.2-2.43-3.2a3.17,3.17,0,0,0-2.78,3.15v7h-2.06Z"/><path d="M198.93,95.62l-.16-1.47h-.08a4.29,4.29,0,0,1-3.55,1.73,3.31,3.31,0,0,1-3.55-3.34c0-2.8,2.5-4.34,7-4.32V88a2.39,2.39,0,0,0-2.64-2.68,5.76,5.76,0,0,0-3,.86l-.48-1.39a7.15,7.15,0,0,1,3.82-1c3.55,0,4.41,2.42,4.41,4.75v4.34a16.83,16.83,0,0,0,.19,2.79Zm-.31-5.93c-2.3,0-4.92.36-4.92,2.61a1.87,1.87,0,0,0,2,2,2.88,2.88,0,0,0,2.81-1.94,2.31,2.31,0,0,0,.12-.67Z"/><path d="M206.42,80.74a1.31,1.31,0,0,1-2.61,0,1.28,1.28,0,0,1,1.32-1.32A1.25,1.25,0,0,1,206.42,80.74Zm-2.35,14.88V84h2.11V95.62Z"/><path d="M209.69,87.14c0-1.2,0-2.18-.1-3.14h1.87l.12,1.92h0a4.28,4.28,0,0,1,3.84-2.18c1.61,0,4.1,1,4.1,4.94v6.94h-2.11v-6.7c0-1.87-.69-3.43-2.69-3.43a3,3,0,0,0-2.83,2.16,3.17,3.17,0,0,0-.14,1v7h-2.11Z"/><path d="M224.18,90.19a3.72,3.72,0,0,0,4,4,7.54,7.54,0,0,0,3.21-.6l.36,1.52a9.46,9.46,0,0,1-3.86.72c-3.58,0-5.71-2.36-5.71-5.86s2.06-6.26,5.44-6.26c3.8,0,4.8,3.33,4.8,5.47a6.87,6.87,0,0,1-.07,1Zm6.19-1.51c0-1.34-.55-3.43-2.92-3.43-2.14,0-3.08,2-3.24,3.43Z"/><path d="M239.9,93.07a7.4,7.4,0,0,0,3.75,1.06c2.13,0,3.38-1.13,3.38-2.76S246.17,89,244,88.15c-2.64-.93-4.27-2.3-4.27-4.58,0-2.52,2.09-4.39,5.23-4.39a7.34,7.34,0,0,1,3.58.79l-.58,1.7a6.43,6.43,0,0,0-3.07-.77c-2.21,0-3.05,1.32-3.05,2.43,0,1.51,1,2.25,3.22,3.12,2.73,1,4.13,2.37,4.13,4.75s-1.85,4.66-5.67,4.66a8.45,8.45,0,0,1-4.13-1Z"/><path d="M254,89.33h.05c.28-.41.69-.91,1-1.32l3.41-4h2.54l-4.49,4.78,5.11,6.84h-2.56l-4-5.57L254,91.25v4.37H252v-17H254Z"/><path d="M266,80.74a1.31,1.31,0,0,1-2.62,0,1.28,1.28,0,0,1,1.32-1.32A1.25,1.25,0,0,1,266,80.74Zm-2.36,14.88V84h2.12V95.62Z"/><path d="M272.06,79.18a27.07,27.07,0,0,1-2.26,5.68l-1.34.17a34.17,34.17,0,0,0,1.42-5.64Z"/><path d="M276.52,79.44V89c0,3.62,1.61,5.16,3.77,5.16,2.4,0,3.94-1.59,3.94-5.16V79.44h2.11v9.43c0,5-2.61,7-6.12,7-3.31,0-5.81-1.89-5.81-6.91V79.44Z"/><path d="M293,81.22h-4.92V79.44h12v1.78h-4.94v14.4H293Z"/><path d="M312.55,95.09a10.45,10.45,0,0,1-4.27.77c-4.56,0-8-2.88-8-8.19a8.05,8.05,0,0,1,8.45-8.49,8.62,8.62,0,0,1,3.84.72l-.5,1.7a7.67,7.67,0,0,0-3.27-.67c-3.79,0-6.31,2.42-6.31,6.67,0,4,2.28,6.51,6.22,6.51a8.34,8.34,0,0,0,3.41-.68Z"/><path d="M319.89,93.46a5.55,5.55,0,0,0,2.79.84c1.53,0,2.25-.77,2.25-1.73s-.6-1.56-2.16-2.14c-2.09-.74-3.07-1.89-3.07-3.29,0-1.87,1.51-3.4,4-3.4a5.7,5.7,0,0,1,2.85.72L326,86a4.53,4.53,0,0,0-2.38-.67c-1.25,0-1.94.72-1.94,1.58s.69,1.4,2.2,2c2,.77,3.05,1.78,3.05,3.51,0,2-1.58,3.48-4.34,3.48a6.78,6.78,0,0,1-3.27-.79Z"/><path d="M336.12,95.62,336,94.15h-.07a4.32,4.32,0,0,1-3.56,1.73,3.31,3.31,0,0,1-3.55-3.34c0-2.8,2.5-4.34,7-4.32V88a2.39,2.39,0,0,0-2.64-2.68,5.8,5.8,0,0,0-3,.86l-.48-1.39a7.15,7.15,0,0,1,3.82-1c3.55,0,4.41,2.42,4.41,4.75v4.34a15.75,15.75,0,0,0,.2,2.79Zm-.32-5.93c-2.3,0-4.92.36-4.92,2.61a1.88,1.88,0,0,0,2,2,2.88,2.88,0,0,0,2.8-1.94,2,2,0,0,0,.12-.67Z"/><path d="M341.25,87.14c0-1.2,0-2.18-.09-3.14H343l.12,1.92h.05A4.27,4.27,0,0,1,347,83.74c1.6,0,4.1,1,4.1,4.94v6.94H349v-6.7c0-1.87-.7-3.43-2.69-3.43a3,3,0,0,0-2.83,2.16,2.88,2.88,0,0,0-.15,1v7h-2.11Z"/><path d="M354.28,93.46a5.55,5.55,0,0,0,2.79.84c1.53,0,2.25-.77,2.25-1.73s-.6-1.56-2.16-2.14c-2.08-.74-3.07-1.89-3.07-3.29,0-1.87,1.51-3.4,4-3.4a5.74,5.74,0,0,1,2.86.72L360.43,86a4.53,4.53,0,0,0-2.38-.67c-1.25,0-1.94.72-1.94,1.58s.69,1.4,2.21,2c2,.77,3,1.78,3,3.51,0,2-1.58,3.48-4.34,3.48a6.71,6.71,0,0,1-3.26-.79Z"/><path d="M379.2,78.58v14c0,1,0,2.21.09,3H377.4l-.1-2h-.05a4.29,4.29,0,0,1-4,2.28c-2.81,0-5-2.38-5-5.9,0-3.87,2.38-6.24,5.21-6.24A3.9,3.9,0,0,1,377,85.51h0V78.58Zm-2.12,10.15a3.79,3.79,0,0,0-.09-.89,3.12,3.12,0,0,0-3.05-2.45c-2.18,0-3.48,1.92-3.48,4.49,0,2.35,1.15,4.3,3.43,4.3a3.18,3.18,0,0,0,3.1-2.52,3.8,3.8,0,0,0,.09-.91Z"/><path d="M383.88,90.19a3.71,3.71,0,0,0,4,4,7.63,7.63,0,0,0,3.22-.6l.36,1.52a9.56,9.56,0,0,1-3.87.72c-3.57,0-5.71-2.36-5.71-5.86s2.06-6.26,5.45-6.26c3.79,0,4.8,3.33,4.8,5.47a8.79,8.79,0,0,1-.07,1Zm6.19-1.51c0-1.34-.55-3.43-2.93-3.43-2.14,0-3.07,2-3.24,3.43Z"/><path d="M394.44,93.46a5.47,5.47,0,0,0,2.78.84c1.54,0,2.26-.77,2.26-1.73s-.6-1.56-2.16-2.14c-2.09-.74-3.08-1.89-3.08-3.29,0-1.87,1.52-3.4,4-3.4a5.74,5.74,0,0,1,2.86.72L400.58,86a4.53,4.53,0,0,0-2.38-.67c-1.24,0-1.94.72-1.94,1.58s.7,1.4,2.21,2c2,.77,3,1.78,3,3.51,0,2-1.59,3.48-4.35,3.48a6.71,6.71,0,0,1-3.26-.79Z"/><path d="M419.35,78.58v14c0,1,0,2.21.09,3h-1.89l-.1-2h-.05a4.28,4.28,0,0,1-4,2.28c-2.8,0-5-2.38-5-5.9,0-3.87,2.37-6.24,5.2-6.24a3.9,3.9,0,0,1,3.51,1.77h.05V78.58Zm-2.11,10.15a3.8,3.8,0,0,0-.1-.89,3.11,3.11,0,0,0-3.05-2.45c-2.18,0-3.48,1.92-3.48,4.49,0,2.35,1.15,4.3,3.43,4.3a3.18,3.18,0,0,0,3.1-2.52,3.79,3.79,0,0,0,.1-.91Z"/><path d="M424,90.19a3.71,3.71,0,0,0,4,4,7.6,7.6,0,0,0,3.22-.6l.36,1.52a9.56,9.56,0,0,1-3.87.72c-3.57,0-5.71-2.36-5.71-5.86s2.06-6.26,5.45-6.26c3.79,0,4.8,3.33,4.8,5.47a8.79,8.79,0,0,1-.07,1Zm6.19-1.51c0-1.34-.55-3.43-2.93-3.43-2.14,0-3.07,2-3.24,3.43Zm.5-9.7-2.92,3.44h-1.52L428.4,79Z"/><path d="M435.09,95.62v-10h-1.63V84h1.63v-.62c0-3.08,1.8-5.07,5.07-5.07a5.82,5.82,0,0,1,2.95.77l-.6,1.61a4.47,4.47,0,0,0-2.45-.67c-2.23,0-2.88,1.56-2.88,3.4V84h6.74V95.62h-2.08v-10h-4.66v10Z"/><path d="M447.14,93.46a5.51,5.51,0,0,0,2.78.84c1.54,0,2.26-.77,2.26-1.73s-.6-1.56-2.16-2.14c-2.09-.74-3.07-1.89-3.07-3.29,0-1.87,1.51-3.4,4-3.4a5.74,5.74,0,0,1,2.86.72L453.28,86a4.46,4.46,0,0,0-2.37-.67c-1.25,0-2,.72-2,1.58s.7,1.4,2.21,2c2,.77,3.05,1.78,3.05,3.51,0,2-1.59,3.48-4.35,3.48a6.74,6.74,0,0,1-3.26-.79Z"/><path d="M464.56,80.66V84h3v1.61h-3v6.26c0,1.44.41,2.26,1.59,2.26a4.78,4.78,0,0,0,1.22-.14l.1,1.58a5.16,5.16,0,0,1-1.88.29,3,3,0,0,1-2.28-.89,4.32,4.32,0,0,1-.81-3V85.61h-1.8V84h1.8V81.22Z"/><path d="M480.33,89.71c0,4.3-3,6.17-5.78,6.17-3.15,0-5.57-2.3-5.57-6,0-3.88,2.54-6.16,5.76-6.16S480.33,86.16,480.33,89.71Zm-9.22.12c0,2.55,1.47,4.47,3.53,4.47s3.53-1.9,3.53-4.51c0-2-1-4.47-3.48-4.47S471.11,87.62,471.11,89.83Z"/><path d="M485.54,80.66V84h3v1.61h-3v6.26c0,1.44.41,2.26,1.58,2.26a4.93,4.93,0,0,0,1.23-.14l.09,1.58a5.1,5.1,0,0,1-1.87.29,3,3,0,0,1-2.28-.89,4.31,4.31,0,0,1-.82-3V85.61h-1.8V84h1.8V81.22Z"/><path d="M497.37,95.62l-.17-1.47h-.07a4.31,4.31,0,0,1-3.55,1.73A3.31,3.31,0,0,1,490,92.54c0-2.8,2.49-4.34,7-4.32V88a2.39,2.39,0,0,0-2.64-2.68,5.74,5.74,0,0,0-3,.86l-.48-1.39a7.14,7.14,0,0,1,3.81-1c3.55,0,4.42,2.42,4.42,4.75v4.34a16.83,16.83,0,0,0,.19,2.79Zm-.31-5.93c-2.31,0-4.92.36-4.92,2.61a1.87,1.87,0,0,0,2,2,2.9,2.9,0,0,0,2.81-1.94,2.31,2.31,0,0,0,.12-.67Z"/><path d="M502.51,78.58h2.11v17h-2.11Z"/><path d="M509.35,90.19a3.71,3.71,0,0,0,4,4,7.63,7.63,0,0,0,3.22-.6l.36,1.52a9.56,9.56,0,0,1-3.87.72c-3.57,0-5.71-2.36-5.71-5.86s2.06-6.26,5.45-6.26c3.79,0,4.8,3.33,4.8,5.47a8.79,8.79,0,0,1-.07,1Zm6.19-1.51c0-1.34-.55-3.43-2.93-3.43-2.14,0-3.07,2-3.24,3.43Z"/><path d="M520.19,87.14c0-1.2,0-2.18-.09-3.14H522l.09,1.87h.07a4,4,0,0,1,3.65-2.13,3.43,3.43,0,0,1,3.29,2.32h.05a4.85,4.85,0,0,1,1.29-1.51,4,4,0,0,1,2.57-.81c1.54,0,3.82,1,3.82,5v6.84h-2.07V89c0-2.23-.81-3.58-2.52-3.58a2.73,2.73,0,0,0-2.49,1.92,3.41,3.41,0,0,0-.17,1.06v7.18h-2.06v-7c0-1.85-.82-3.2-2.43-3.2a3.17,3.17,0,0,0-2.78,3.15v7h-2.07Z"/><path d="M541.39,90.19a3.71,3.71,0,0,0,4,4,7.63,7.63,0,0,0,3.22-.6l.36,1.52a9.56,9.56,0,0,1-3.87.72c-3.57,0-5.71-2.36-5.71-5.86s2.06-6.26,5.45-6.26c3.79,0,4.8,3.33,4.8,5.47a8.79,8.79,0,0,1-.07,1Zm6.19-1.51c0-1.34-.55-3.43-2.93-3.43-2.14,0-3.07,2-3.24,3.43Z"/><path d="M552.23,87.14c0-1.2,0-2.18-.09-3.14H554l.12,1.92h0A4.27,4.27,0,0,1,558,83.74c1.61,0,4.1,1,4.1,4.94v6.94H560v-6.7c0-1.87-.7-3.43-2.69-3.43a3,3,0,0,0-2.83,2.16,2.9,2.9,0,0,0-.14,1v7h-2.12Z"/><path d="M568,80.66V84h3v1.61h-3v6.26c0,1.44.41,2.26,1.59,2.26a4.78,4.78,0,0,0,1.22-.14l.1,1.58a5.16,5.16,0,0,1-1.88.29,3,3,0,0,1-2.28-.89,4.32,4.32,0,0,1-.81-3V85.61h-1.8V84h1.8V81.22Z"/><path d="M573.11,93.46a5.55,5.55,0,0,0,2.79.84c1.53,0,2.25-.77,2.25-1.73s-.6-1.56-2.16-2.14c-2.08-.74-3.07-1.89-3.07-3.29,0-1.87,1.51-3.4,4-3.4a5.74,5.74,0,0,1,2.86.72L579.26,86a4.53,4.53,0,0,0-2.38-.67c-1.25,0-1.94.72-1.94,1.58s.69,1.4,2.21,2c2,.77,3,1.78,3,3.51,0,2-1.58,3.48-4.34,3.48a6.71,6.71,0,0,1-3.26-.79Z"/><path d="M587.9,95.62c.05-.79.09-2,.09-3v-14h2.09v7.29h0a4.33,4.33,0,0,1,4-2.13c2.88,0,4.92,2.4,4.9,5.93,0,4.15-2.62,6.21-5.21,6.21a4.14,4.14,0,0,1-3.89-2.18h-.07l-.1,1.92ZM590.08,91a3.86,3.86,0,0,0,.1.77,3.26,3.26,0,0,0,3.17,2.47c2.2,0,3.52-1.8,3.52-4.46,0-2.33-1.2-4.32-3.45-4.32A3.37,3.37,0,0,0,590.2,88a4,4,0,0,0-.12.86Z"/><path d="M608.08,95.62l-.17-1.47h-.07a4.3,4.3,0,0,1-3.55,1.73,3.31,3.31,0,0,1-3.55-3.34c0-2.8,2.49-4.34,7-4.32V88a2.39,2.39,0,0,0-2.64-2.68,5.74,5.74,0,0,0-3,.86l-.48-1.39a7.14,7.14,0,0,1,3.81-1c3.56,0,4.42,2.42,4.42,4.75v4.34a16.83,16.83,0,0,0,.19,2.79Zm-.31-5.93c-2.3,0-4.92.36-4.92,2.61a1.87,1.87,0,0,0,2,2,2.9,2.9,0,0,0,2.81-1.94,2.31,2.31,0,0,0,.12-.67Z"/><path d="M613.22,87.62c0-1.36,0-2.54-.1-3.62H615l.07,2.28h.1a3.48,3.48,0,0,1,3.21-2.54,2.2,2.2,0,0,1,.6.07v2a3,3,0,0,0-.72-.07,3,3,0,0,0-2.83,2.71,5.74,5.74,0,0,0-.09,1v6.2h-2.09Z"/><path d="M622,90.19a3.72,3.72,0,0,0,4,4,7.54,7.54,0,0,0,3.21-.6l.36,1.52a9.46,9.46,0,0,1-3.86.72c-3.58,0-5.71-2.36-5.71-5.86s2.06-6.26,5.44-6.26c3.8,0,4.8,3.33,4.8,5.47a6.87,6.87,0,0,1-.07,1Zm6.19-1.51c0-1.34-.55-3.43-2.92-3.43-2.14,0-3.08,2-3.24,3.43Zm.51-9.7-2.93,3.44h-1.51L626.37,79Z"/><path d="M632.56,93.46a5.55,5.55,0,0,0,2.79.84c1.53,0,2.25-.77,2.25-1.73s-.6-1.56-2.16-2.14c-2.09-.74-3.07-1.89-3.07-3.29,0-1.87,1.51-3.4,4-3.4a5.7,5.7,0,0,1,2.85.72L638.71,86a4.53,4.53,0,0,0-2.38-.67c-1.25,0-2,.72-2,1.58s.7,1.4,2.21,2c2,.77,3,1.78,3,3.51,0,2-1.58,3.48-4.34,3.48a6.75,6.75,0,0,1-3.27-.79Z"/><path d="M649.07,91l-.05-.62a5.52,5.52,0,0,1,1.49-4.15c1.08-1.28,1.68-2.21,1.68-3.29,0-1.23-.77-2-2.28-2.07a4.24,4.24,0,0,0-2.42.75l-.58-1.51a6.25,6.25,0,0,1,3.43-1c2.76,0,4,1.7,4,3.52,0,1.64-.91,2.81-2.06,4.18a4.73,4.73,0,0,0-1.37,3.53l0,.62Zm-.53,3.36A1.42,1.42,0,0,1,650,92.88a1.5,1.5,0,1,1-1.44,1.51Z"/><path d="M662.34,79.44h2.09V93.87h6.92v1.75h-9Z"/><path d="M680,95.62l-.17-1.47h-.07a4.3,4.3,0,0,1-3.55,1.73,3.31,3.31,0,0,1-3.55-3.34c0-2.8,2.49-4.34,7-4.32V88A2.39,2.39,0,0,0,677,85.3a5.74,5.74,0,0,0-3,.86l-.48-1.39a7.14,7.14,0,0,1,3.81-1c3.56,0,4.42,2.42,4.42,4.75v4.34a16.83,16.83,0,0,0,.19,2.79Zm-.31-5.93c-2.3,0-4.92.36-4.92,2.61a1.87,1.87,0,0,0,2,2,2.9,2.9,0,0,0,2.81-1.94,2.31,2.31,0,0,0,.12-.67Z"/><path d="M690.26,87.62c0-1.36,0-2.54-.1-3.62H692l.07,2.28h.1a3.47,3.47,0,0,1,3.21-2.54,2.2,2.2,0,0,1,.6.07v2a3,3,0,0,0-.72-.07,3,3,0,0,0-2.83,2.71,5.69,5.69,0,0,0-.1,1v6.2h-2.08Z"/><path d="M699,90.19a3.72,3.72,0,0,0,4,4,7.56,7.56,0,0,0,3.22-.6l.36,1.52a9.5,9.5,0,0,1-3.86.72c-3.58,0-5.72-2.36-5.72-5.86s2.07-6.26,5.45-6.26c3.79,0,4.8,3.33,4.8,5.47a8.79,8.79,0,0,1-.07,1Zm6.19-1.51c0-1.34-.55-3.43-2.93-3.43-2.13,0-3.07,2-3.24,3.43Zm.51-9.7-2.93,3.44H701.3L703.41,79Z"/><path d="M709.89,87.79c0-1.49,0-2.69-.1-3.79h1.9l.09,2h.05A4.58,4.58,0,0,1,716,83.74c2.81,0,4.92,2.37,4.92,5.9,0,4.18-2.54,6.24-5.28,6.24A4.08,4.08,0,0,1,712,94.06h0v6.31h-2.09Zm2.09,3.1a4.54,4.54,0,0,0,.09.86,3.26,3.26,0,0,0,3.17,2.47c2.23,0,3.53-1.82,3.53-4.48,0-2.33-1.23-4.32-3.46-4.32A3.37,3.37,0,0,0,712.12,88a3.59,3.59,0,0,0-.14.87Z"/><path d="M734.06,89.71c0,4.3-3,6.17-5.79,6.17-3.14,0-5.57-2.3-5.57-6,0-3.88,2.55-6.16,5.76-6.16S734.06,86.16,734.06,89.71Zm-9.22.12c0,2.55,1.46,4.47,3.53,4.47s3.53-1.9,3.53-4.51c0-2-1-4.47-3.48-4.47S724.84,87.62,724.84,89.83Z"/><path d="M736.72,87.14c0-1.2,0-2.18-.1-3.14h1.88l.12,1.92h0a4.28,4.28,0,0,1,3.84-2.18c1.61,0,4.11,1,4.11,4.94v6.94H744.5v-6.7c0-1.87-.7-3.43-2.69-3.43A3,3,0,0,0,739,87.65a2.88,2.88,0,0,0-.15,1v7h-2.11Z"/><path d="M749.75,93.46a5.55,5.55,0,0,0,2.79.84c1.53,0,2.25-.77,2.25-1.73s-.6-1.56-2.16-2.14c-2.09-.74-3.07-1.89-3.07-3.29,0-1.87,1.51-3.4,4-3.4a5.7,5.7,0,0,1,2.85.72L755.9,86a4.53,4.53,0,0,0-2.38-.67c-1.25,0-1.95.72-1.95,1.58s.7,1.4,2.21,2c2,.77,3.05,1.78,3.05,3.51,0,2-1.58,3.48-4.34,3.48a6.75,6.75,0,0,1-3.27-.79Z"/><path d="M760.72,90.19a3.72,3.72,0,0,0,4,4,7.56,7.56,0,0,0,3.22-.6l.36,1.52a9.5,9.5,0,0,1-3.86.72c-3.58,0-5.72-2.36-5.72-5.86s2.07-6.26,5.45-6.26c3.79,0,4.8,3.33,4.8,5.47a8.79,8.79,0,0,1-.07,1Zm6.19-1.51c0-1.34-.55-3.43-2.93-3.43-2.13,0-3.07,2-3.24,3.43Z"/><path d="M777.83,90.19a3.72,3.72,0,0,0,4,4,7.56,7.56,0,0,0,3.22-.6l.36,1.52a9.46,9.46,0,0,1-3.86.72c-3.58,0-5.72-2.36-5.72-5.86s2.07-6.26,5.45-6.26c3.8,0,4.8,3.33,4.8,5.47a6.87,6.87,0,0,1-.07,1ZM784,88.68c0-1.34-.55-3.43-2.93-3.43-2.13,0-3.07,2-3.24,3.43Z"/><path d="M788.39,93.46a5.51,5.51,0,0,0,2.78.84c1.54,0,2.26-.77,2.26-1.73s-.6-1.56-2.16-2.14c-2.09-.74-3.07-1.89-3.07-3.29,0-1.87,1.51-3.4,4-3.4a5.7,5.7,0,0,1,2.85.72L794.54,86a4.53,4.53,0,0,0-2.38-.67c-1.25,0-1.95.72-1.95,1.58s.7,1.4,2.21,2c2,.77,3.05,1.78,3.05,3.51,0,2-1.58,3.48-4.34,3.48a6.75,6.75,0,0,1-3.27-.79Z"/><path d="M800.73,80.66V84h3v1.61h-3v6.26c0,1.44.4,2.26,1.58,2.26a4.78,4.78,0,0,0,1.22-.14l.1,1.58a5.14,5.14,0,0,1-1.87.29,2.93,2.93,0,0,1-2.28-.89,4.31,4.31,0,0,1-.82-3V85.61h-1.8V84h1.8V81.22Z"/><path d="M810.93,93.46a5.47,5.47,0,0,0,2.78.84c1.54,0,2.26-.77,2.26-1.73s-.6-1.56-2.16-2.14c-2.09-.74-3.08-1.89-3.08-3.29,0-1.87,1.52-3.4,4-3.4a5.74,5.74,0,0,1,2.86.72L817.07,86a4.53,4.53,0,0,0-2.38-.67c-1.24,0-1.94.72-1.94,1.58s.7,1.4,2.21,2c2,.77,3,1.78,3,3.51,0,2-1.59,3.48-4.35,3.48a6.71,6.71,0,0,1-3.26-.79Z"/><path d="M823.07,80.74a1.31,1.31,0,0,1-2.62,0,1.29,1.29,0,0,1,1.32-1.32A1.25,1.25,0,0,1,823.07,80.74Zm-2.35,14.88V84h2.11V95.62Z"/><path d="M826.33,87.14c0-1.2,0-2.18-.09-3.14h1.85l.09,1.87h.07a4,4,0,0,1,3.65-2.13,3.43,3.43,0,0,1,3.29,2.32h0a4.85,4.85,0,0,1,1.29-1.51,4,4,0,0,1,2.57-.81c1.54,0,3.82,1,3.82,5v6.84h-2.07V89c0-2.23-.81-3.58-2.52-3.58a2.73,2.73,0,0,0-2.49,1.92,3.41,3.41,0,0,0-.17,1.06v7.18h-2.06v-7c0-1.85-.82-3.2-2.43-3.2a3.17,3.17,0,0,0-2.78,3.15v7h-2.07Z"/><path d="M846.35,87.79c0-1.49-.05-2.69-.1-3.79h1.9l.1,2h0a4.59,4.59,0,0,1,4.13-2.25c2.81,0,4.92,2.37,4.92,5.9,0,4.18-2.54,6.24-5.28,6.24a4.06,4.06,0,0,1-3.57-1.82h0v6.31h-2.09Zm2.09,3.1a5.54,5.54,0,0,0,.09.86,3.26,3.26,0,0,0,3.17,2.47c2.23,0,3.53-1.82,3.53-4.48,0-2.33-1.22-4.32-3.46-4.32A3.37,3.37,0,0,0,848.58,88a3.59,3.59,0,0,0-.14.87Z"/><path d="M860,78.58h2.11v17H860Z"/><path d="M866.85,90.19a3.71,3.71,0,0,0,4,4,7.63,7.63,0,0,0,3.22-.6l.36,1.52a9.56,9.56,0,0,1-3.87.72c-3.57,0-5.71-2.36-5.71-5.86s2.06-6.26,5.45-6.26c3.79,0,4.8,3.33,4.8,5.47a8.79,8.79,0,0,1-.07,1ZM873,88.68c0-1.34-.55-3.43-2.93-3.43-2.14,0-3.07,2-3.24,3.43Z"/><path d="M882.28,85.92a1.43,1.43,0,1,1,2.85,0,1.43,1.43,0,1,1-2.85,0Zm0,8.47a1.43,1.43,0,1,1,2.85,0,1.43,1.43,0,1,1-2.85,0Z"/><path d="M892.84,87.62c0-1.36,0-2.54-.1-3.62h1.85l.07,2.28h.1A3.47,3.47,0,0,1,898,83.74a2.2,2.2,0,0,1,.6.07v2a3,3,0,0,0-.72-.07A3,3,0,0,0,895,88.44a5.69,5.69,0,0,0-.1,1v6.2h-2.08Z"/><path d="M903.13,80.74a1.31,1.31,0,0,1-2.61,0,1.28,1.28,0,0,1,1.32-1.32A1.25,1.25,0,0,1,903.13,80.74Zm-2.35,14.88V84h2.11V95.62Z"/><path d="M907.57,90.19a3.72,3.72,0,0,0,4,4,7.54,7.54,0,0,0,3.21-.6l.36,1.52a9.46,9.46,0,0,1-3.86.72c-3.58,0-5.71-2.36-5.71-5.86s2.06-6.26,5.44-6.26c3.8,0,4.81,3.33,4.81,5.47a6.57,6.57,0,0,1-.08,1Zm6.2-1.51c0-1.34-.56-3.43-2.93-3.43-2.14,0-3.08,2-3.24,3.43Z"/><path d="M918.42,87.14c0-1.2,0-2.18-.1-3.14h1.88l.12,1.92h0a4.3,4.3,0,0,1,3.85-2.18c1.6,0,4.1,1,4.1,4.94v6.94H926.2v-6.7c0-1.87-.7-3.43-2.69-3.43a3,3,0,0,0-2.83,2.16,2.88,2.88,0,0,0-.15,1v7h-2.11Z"/><path d="M936.42,94.39a1.4,1.4,0,0,1,1.42-1.48,1.37,1.37,0,0,1,1.41,1.48,1.39,1.39,0,0,1-1.41,1.49A1.41,1.41,0,0,1,936.42,94.39ZM937,91l-.34-11.52H939L938.65,91Z"/><path d="M1,108.24H3.05v14.43H10v1.75H1Z"/><path d="M18.65,124.42,18.48,123h-.07a4.31,4.31,0,0,1-3.55,1.73,3.31,3.31,0,0,1-3.56-3.34c0-2.8,2.5-4.34,7-4.32v-.24a2.39,2.39,0,0,0-2.64-2.68,5.8,5.8,0,0,0-3,.86l-.48-1.39a7.18,7.18,0,0,1,3.82-1c3.55,0,4.42,2.42,4.42,4.75v4.34a15.89,15.89,0,0,0,.19,2.79Zm-.31-5.93c-2.31,0-4.92.36-4.92,2.61a1.87,1.87,0,0,0,2,2,2.9,2.9,0,0,0,2.81-1.94,2.32,2.32,0,0,0,.12-.68Z"/><path d="M34,109.46v3.34h3v1.61H34v6.26c0,1.44.41,2.26,1.58,2.26a4.93,4.93,0,0,0,1.23-.14l.09,1.58a5.1,5.1,0,0,1-1.87.29,3,3,0,0,1-2.28-.89,4.31,4.31,0,0,1-.82-3v-6.34h-1.8V112.8h1.8V110Z"/><path d="M40.43,119a3.72,3.72,0,0,0,4,4,7.56,7.56,0,0,0,3.22-.6l.36,1.52a9.5,9.5,0,0,1-3.86.72c-3.58,0-5.72-2.36-5.72-5.86s2.07-6.26,5.45-6.26c3.79,0,4.8,3.33,4.8,5.47a8.79,8.79,0,0,1-.07,1Zm6.19-1.51c0-1.34-.55-3.43-2.93-3.43-2.13,0-3.07,2-3.24,3.43Z"/><path d="M57.71,124.42,57.54,123h-.07a4.31,4.31,0,0,1-3.55,1.73,3.31,3.31,0,0,1-3.56-3.34c0-2.8,2.5-4.34,7-4.32v-.24a2.39,2.39,0,0,0-2.64-2.68,5.74,5.74,0,0,0-3,.86l-.48-1.39a7.14,7.14,0,0,1,3.81-1c3.55,0,4.42,2.42,4.42,4.75v4.34a16.91,16.91,0,0,0,.19,2.79Zm-.31-5.93c-2.31,0-4.92.36-4.92,2.61a1.87,1.87,0,0,0,2,2,2.9,2.9,0,0,0,2.81-1.94,2.32,2.32,0,0,0,.12-.68Z"/><path d="M62.84,115.94c0-1.2,0-2.18-.09-3.14H64.6l.09,1.87h.08a4,4,0,0,1,3.64-2.13,3.43,3.43,0,0,1,3.29,2.32h0a4.88,4.88,0,0,1,1.3-1.51,3.92,3.92,0,0,1,2.56-.81c1.54,0,3.82,1,3.82,5v6.84H77.37v-6.58c0-2.23-.82-3.58-2.52-3.58a2.74,2.74,0,0,0-2.5,1.92,3.41,3.41,0,0,0-.17,1.06v7.18H70.12v-7c0-1.85-.82-3.2-2.43-3.2a3.17,3.17,0,0,0-2.78,3.15v7H62.84Z"/><path d="M93.22,119.33l-1.68,5.09H89.38l5.5-16.18H97.4l5.52,16.18h-2.24L99,119.33Zm5.3-1.63L96.94,113c-.36-1.06-.6-2-.84-3h0c-.24,1-.5,1.94-.82,2.93l-1.58,4.68Z"/><path d="M105.15,115.94c0-1.2,0-2.18-.1-3.14h1.87l.12,1.92h0a4.28,4.28,0,0,1,3.84-2.18c1.61,0,4.11,1,4.11,4.94v6.94h-2.12v-6.7c0-1.87-.69-3.43-2.68-3.43a3,3,0,0,0-2.84,2.16,3.17,3.17,0,0,0-.14,1v7h-2.11Z"/><path d="M120.82,109.54a1.31,1.31,0,0,1-2.62,0,1.28,1.28,0,0,1,1.32-1.32A1.25,1.25,0,0,1,120.82,109.54Zm-2.35,14.88V112.8h2.11v11.62Z"/><path d="M124.08,115.94c0-1.2,0-2.18-.09-3.14h1.84l.1,1.87H126a4,4,0,0,1,3.65-2.13,3.44,3.44,0,0,1,3.29,2.32H133a4.85,4.85,0,0,1,1.29-1.51,4,4,0,0,1,2.57-.81c1.54,0,3.82,1,3.82,5v6.84H138.6v-6.58c0-2.23-.81-3.58-2.52-3.58a2.73,2.73,0,0,0-2.49,1.92,3.41,3.41,0,0,0-.17,1.06v7.18h-2.07v-7c0-1.85-.81-3.2-2.42-3.2a3.13,3.13,0,0,0-2.78,3.15v7h-2.07Z"/><path d="M154.31,109.46v3.34h3v1.61h-3v6.26c0,1.44.41,2.26,1.59,2.26a4.78,4.78,0,0,0,1.22-.14l.1,1.58a5.16,5.16,0,0,1-1.88.29,3,3,0,0,1-2.28-.89,4.32,4.32,0,0,1-.81-3v-6.34h-1.8V112.8h1.8V110Z"/><path d="M160.74,119a3.72,3.72,0,0,0,4,4,7.54,7.54,0,0,0,3.21-.6l.36,1.52a9.46,9.46,0,0,1-3.86.72c-3.58,0-5.71-2.36-5.71-5.86s2.06-6.26,5.45-6.26c3.79,0,4.8,3.33,4.8,5.47a6.57,6.57,0,0,1-.08,1Zm6.2-1.51c0-1.34-.56-3.43-2.93-3.43-2.14,0-3.07,2-3.24,3.43Z"/><path d="M179.26,116.59c0-1.49,0-2.69-.09-3.79h1.89l.1,2h.05a4.56,4.56,0,0,1,4.12-2.25c2.81,0,4.93,2.37,4.93,5.9,0,4.18-2.55,6.24-5.28,6.24a4.07,4.07,0,0,1-3.58-1.82h-.05v6.31h-2.09Zm2.09,3.1a4.51,4.51,0,0,0,.1.86,3.24,3.24,0,0,0,3.16,2.47c2.24,0,3.53-1.82,3.53-4.48,0-2.33-1.22-4.32-3.45-4.32a3.38,3.38,0,0,0-3.2,2.61,3.59,3.59,0,0,0-.14.87Z"/><path d="M192.92,116.42c0-1.36,0-2.54-.1-3.62h1.85l.07,2.28h.1a3.48,3.48,0,0,1,3.21-2.54,2.2,2.2,0,0,1,.6.07v2a3,3,0,0,0-.72-.07,3,3,0,0,0-2.83,2.71,5.74,5.74,0,0,0-.09,1v6.2h-2.09Z"/><path d="M201.7,119a3.72,3.72,0,0,0,4,4,7.54,7.54,0,0,0,3.21-.6l.36,1.52a9.46,9.46,0,0,1-3.86.72c-3.58,0-5.71-2.36-5.71-5.86s2.06-6.26,5.44-6.26c3.8,0,4.81,3.33,4.81,5.47a6.57,6.57,0,0,1-.08,1Zm6.19-1.51c0-1.34-.55-3.43-2.92-3.43-2.14,0-3.08,2-3.24,3.43Zm.51-9.7-2.93,3.44H204l2.11-3.44Z"/><path d="M212.55,116.59c0-1.49-.05-2.69-.1-3.79h1.9l.1,2h0a4.59,4.59,0,0,1,4.13-2.25c2.81,0,4.92,2.37,4.92,5.9,0,4.18-2.54,6.24-5.28,6.24a4.06,4.06,0,0,1-3.57-1.82h-.05v6.31h-2.09Zm2.09,3.1a5.54,5.54,0,0,0,.09.86A3.26,3.26,0,0,0,217.9,123c2.23,0,3.53-1.82,3.53-4.48,0-2.33-1.22-4.32-3.46-4.32a3.37,3.37,0,0,0-3.19,2.61,3.59,3.59,0,0,0-.14.87Z"/><path d="M232.64,124.42l-.17-1.47h-.07a4.31,4.31,0,0,1-3.55,1.73,3.31,3.31,0,0,1-3.56-3.34c0-2.8,2.5-4.34,7-4.32v-.24a2.39,2.39,0,0,0-2.64-2.68,5.8,5.8,0,0,0-3,.86l-.48-1.39a7.18,7.18,0,0,1,3.82-1c3.55,0,4.42,2.42,4.42,4.75v4.34a15.89,15.89,0,0,0,.19,2.79Zm-.31-5.93c-2.31,0-4.92.36-4.92,2.61a1.87,1.87,0,0,0,2,2,2.9,2.9,0,0,0,2.81-1.94,2.32,2.32,0,0,0,.12-.68Z"/><path d="M237.77,116.42c0-1.36,0-2.54-.09-3.62h1.85l.07,2.28h.09a3.48,3.48,0,0,1,3.22-2.54,2.2,2.2,0,0,1,.6.07v2a3.08,3.08,0,0,0-.72-.07,3,3,0,0,0-2.83,2.71,5.69,5.69,0,0,0-.1,1v6.2h-2.09Z"/><path d="M246.56,119a3.72,3.72,0,0,0,4,4,7.6,7.6,0,0,0,3.22-.6l.36,1.52a9.56,9.56,0,0,1-3.87.72c-3.57,0-5.71-2.36-5.71-5.86s2.07-6.26,5.45-6.26c3.79,0,4.8,3.33,4.8,5.47a8.79,8.79,0,0,1-.07,1Zm6.19-1.51c0-1.34-.55-3.43-2.93-3.43-2.13,0-3.07,2-3.24,3.43Z"/><path d="M274.8,121.25c0,1.2,0,2.25.09,3.17H273l-.12-1.9h0a4.35,4.35,0,0,1-3.84,2.16c-1.82,0-4-1-4-5.09V112.8h2.12v6.43c0,2.21.67,3.7,2.59,3.7a3.06,3.06,0,0,0,2.78-1.92,3.1,3.1,0,0,0,.19-1.08V112.8h2.12Z"/><path d="M278.3,115.94c0-1.2,0-2.18-.1-3.14h1.88l.12,1.92h0a4.28,4.28,0,0,1,3.84-2.18c1.61,0,4.11,1,4.11,4.94v6.94h-2.11v-6.7c0-1.87-.7-3.43-2.69-3.43a3,3,0,0,0-2.83,2.16,2.88,2.88,0,0,0-.15,1v7H278.3Z"/><path d="M292.8,119a3.71,3.71,0,0,0,4,4,7.63,7.63,0,0,0,3.22-.6l.36,1.52a9.56,9.56,0,0,1-3.87.72c-3.57,0-5.71-2.36-5.71-5.86s2.06-6.26,5.45-6.26c3.79,0,4.8,3.33,4.8,5.47a8.79,8.79,0,0,1-.07,1Zm6.19-1.51c0-1.34-.55-3.43-2.93-3.43-2.14,0-3.07,2-3.24,3.43Z"/><path d="M321.35,107.38v14c0,1,0,2.2.09,3h-1.89l-.1-2h-.05a4.29,4.29,0,0,1-4,2.28c-2.81,0-5-2.38-5-5.9,0-3.87,2.38-6.24,5.21-6.24a3.9,3.9,0,0,1,3.51,1.77h0v-6.93Zm-2.12,10.15a3.79,3.79,0,0,0-.09-.89,3.12,3.12,0,0,0-3.05-2.45c-2.18,0-3.48,1.92-3.48,4.49,0,2.35,1.15,4.3,3.43,4.3a3.18,3.18,0,0,0,3.1-2.52,3.83,3.83,0,0,0,.09-.92Z"/><path d="M326,119a3.71,3.71,0,0,0,4,4,7.63,7.63,0,0,0,3.22-.6l.36,1.52a9.56,9.56,0,0,1-3.87.72c-3.57,0-5.71-2.36-5.71-5.86s2.06-6.26,5.45-6.26c3.79,0,4.8,3.33,4.8,5.47a8.79,8.79,0,0,1-.07,1Zm6.19-1.51c0-1.34-.55-3.43-2.93-3.43-2.14,0-3.07,2-3.24,3.43Z"/><path d="M336.59,122.26a5.47,5.47,0,0,0,2.78.84c1.54,0,2.26-.77,2.26-1.73s-.6-1.56-2.16-2.14c-2.09-.74-3.08-1.89-3.08-3.29,0-1.87,1.52-3.4,4-3.4a5.74,5.74,0,0,1,2.86.72l-.53,1.53a4.53,4.53,0,0,0-2.38-.67c-1.24,0-1.94.72-1.94,1.58s.7,1.4,2.21,2c2,.77,3.05,1.78,3.05,3.51,0,2-1.59,3.48-4.35,3.48a6.71,6.71,0,0,1-3.26-.79Z"/><path d="M354.66,124a7.92,7.92,0,0,1-3.34.67c-3.5,0-5.78-2.38-5.78-5.93a5.9,5.9,0,0,1,6.24-6.17,7,7,0,0,1,2.93.6l-.48,1.63a4.91,4.91,0,0,0-2.45-.55c-2.67,0-4.11,2-4.11,4.39,0,2.69,1.73,4.35,4,4.35a5.9,5.9,0,0,0,2.59-.58Z"/><path d="M358.16,119a3.72,3.72,0,0,0,4,4,7.54,7.54,0,0,0,3.21-.6l.36,1.52a9.46,9.46,0,0,1-3.86.72c-3.58,0-5.71-2.36-5.71-5.86s2.06-6.26,5.44-6.26c3.8,0,4.8,3.33,4.8,5.47a6.87,6.87,0,0,1-.07,1Zm6.19-1.51c0-1.34-.55-3.43-2.92-3.43-2.14,0-3.08,2-3.24,3.43Z"/><path d="M369,115.94c0-1.2,0-2.18-.1-3.14h1.88l.12,1.92h0a4.28,4.28,0,0,1,3.84-2.18c1.61,0,4.11,1,4.11,4.94v6.94h-2.11v-6.7c0-1.87-.7-3.43-2.69-3.43a3,3,0,0,0-2.83,2.16,2.88,2.88,0,0,0-.15,1v7H369Z"/><path d="M384.78,109.46v3.34h3v1.61h-3v6.26c0,1.44.41,2.26,1.58,2.26a4.93,4.93,0,0,0,1.23-.14l.09,1.58a5.1,5.1,0,0,1-1.87.29,3,3,0,0,1-2.28-.89,4.31,4.31,0,0,1-.82-3v-6.34h-1.8V112.8h1.8V110Z"/><path d="M391.21,119a3.72,3.72,0,0,0,4,4,7.56,7.56,0,0,0,3.22-.6l.36,1.52a9.5,9.5,0,0,1-3.86.72c-3.58,0-5.72-2.36-5.72-5.86s2.07-6.26,5.45-6.26c3.79,0,4.8,3.33,4.8,5.47a8.79,8.79,0,0,1-.07,1Zm6.19-1.51c0-1.34-.55-3.43-2.93-3.43-2.13,0-3.07,2-3.24,3.43Z"/><path d="M419.76,107.38v14c0,1,0,2.2.09,3H418l-.1-2h-.05a4.28,4.28,0,0,1-4,2.28c-2.8,0-5-2.38-5-5.9,0-3.87,2.37-6.24,5.2-6.24a3.9,3.9,0,0,1,3.51,1.77h0v-6.93Zm-2.11,10.15a3.8,3.8,0,0,0-.1-.89,3.11,3.11,0,0,0-3.05-2.45c-2.18,0-3.48,1.92-3.48,4.49,0,2.35,1.15,4.3,3.43,4.3a3.18,3.18,0,0,0,3.1-2.52,3.82,3.82,0,0,0,.1-.92Z"/><path d="M424.44,119a3.72,3.72,0,0,0,4,4,7.6,7.6,0,0,0,3.22-.6l.36,1.52a9.56,9.56,0,0,1-3.87.72c-3.57,0-5.71-2.36-5.71-5.86s2.07-6.26,5.45-6.26c3.79,0,4.8,3.33,4.8,5.47a8.79,8.79,0,0,1-.07,1Zm6.19-1.51c0-1.34-.55-3.43-2.93-3.43-2.13,0-3.07,2-3.24,3.43Z"/><path d="M451.24,124a8,8,0,0,1-3.34.67c-3.5,0-5.78-2.38-5.78-5.93a5.9,5.9,0,0,1,6.24-6.17,7,7,0,0,1,2.92.6l-.48,1.63a4.84,4.84,0,0,0-2.44-.55c-2.67,0-4.11,2-4.11,4.39,0,2.69,1.73,4.35,4,4.35a6,6,0,0,0,2.6-.58Z"/><path d="M453.71,107.38h2.11v7.24h.05a3.84,3.84,0,0,1,1.51-1.48,4.34,4.34,0,0,1,2.16-.6c1.56,0,4.06,1,4.06,5v6.92h-2.12v-6.68c0-1.87-.69-3.45-2.68-3.45A3,3,0,0,0,456,116.4a2.57,2.57,0,0,0-.14,1v7h-2.11Z"/><path d="M473.46,124.42l-.17-1.47h-.07a4.31,4.31,0,0,1-3.55,1.73,3.31,3.31,0,0,1-3.55-3.34c0-2.8,2.49-4.34,7-4.32v-.24a2.39,2.39,0,0,0-2.64-2.68,5.74,5.74,0,0,0-3,.86l-.48-1.39a7.14,7.14,0,0,1,3.81-1c3.55,0,4.42,2.42,4.42,4.75v4.34a16.91,16.91,0,0,0,.19,2.79Zm-.31-5.93c-2.31,0-4.92.36-4.92,2.61a1.87,1.87,0,0,0,2,2,2.9,2.9,0,0,0,2.81-1.94,2.32,2.32,0,0,0,.12-.68Z"/><path d="M478.6,107.38h2.11v17H478.6Z"/><path d="M484.26,107.38h2.11v17h-2.11Z"/><path d="M491.1,119a3.72,3.72,0,0,0,4,4,7.56,7.56,0,0,0,3.22-.6l.36,1.52a9.5,9.5,0,0,1-3.86.72c-3.58,0-5.72-2.36-5.72-5.86s2.07-6.26,5.45-6.26c3.79,0,4.8,3.33,4.8,5.47a8.79,8.79,0,0,1-.07,1Zm6.19-1.51c0-1.34-.55-3.43-2.93-3.43-2.13,0-3.07,2-3.24,3.43Z"/><path d="M502,115.94c0-1.2,0-2.18-.1-3.14h1.87l.12,1.92h.05a4.28,4.28,0,0,1,3.84-2.18c1.61,0,4.11,1,4.11,4.94v6.94h-2.12v-6.7c0-1.87-.69-3.43-2.68-3.43a3,3,0,0,0-2.84,2.16,3.17,3.17,0,0,0-.14,1v7H502Z"/><path d="M525.28,112.8c0,.84-.1,1.78-.1,3.19v6.75c0,2.66-.53,4.29-1.66,5.3a6.12,6.12,0,0,1-4.22,1.39,7.48,7.48,0,0,1-3.87-1l.53-1.6a6.56,6.56,0,0,0,3.41.91c2.16,0,3.75-1.13,3.75-4.06v-1.3h0a4.16,4.16,0,0,1-3.7,2c-2.88,0-4.94-2.45-4.94-5.67,0-3.93,2.57-6.16,5.23-6.16a3.84,3.84,0,0,1,3.62,2h.05l.1-1.75Zm-2.19,4.58a2.91,2.91,0,0,0-.12-1,3,3,0,0,0-3-2.23c-2,0-3.46,1.71-3.46,4.39,0,2.28,1.15,4.18,3.44,4.18a3.08,3.08,0,0,0,2.92-2.16,3.69,3.69,0,0,0,.17-1.13Z"/><path d="M529.86,119a3.72,3.72,0,0,0,4,4,7.56,7.56,0,0,0,3.22-.6l.36,1.52a9.5,9.5,0,0,1-3.86.72c-3.58,0-5.72-2.36-5.72-5.86s2.07-6.26,5.45-6.26c3.79,0,4.8,3.33,4.8,5.47a8.79,8.79,0,0,1-.07,1Zm6.19-1.51c0-1.34-.55-3.43-2.93-3.43-2.13,0-3.07,2-3.24,3.43Z"/><path d="M540.42,122.26a5.51,5.51,0,0,0,2.78.84c1.54,0,2.26-.77,2.26-1.73s-.6-1.56-2.16-2.14c-2.09-.74-3.07-1.89-3.07-3.29,0-1.87,1.51-3.4,4-3.4a5.74,5.74,0,0,1,2.86.72l-.53,1.53a4.46,4.46,0,0,0-2.37-.67c-1.25,0-2,.72-2,1.58s.7,1.4,2.21,2c2,.77,3,1.78,3,3.51,0,2-1.58,3.48-4.35,3.48a6.74,6.74,0,0,1-3.26-.79Z"/><path d="M567.91,107.38v14c0,1,0,2.2.1,3h-1.9l-.09-2h0a4.29,4.29,0,0,1-4,2.28c-2.81,0-5-2.38-5-5.9,0-3.87,2.38-6.24,5.21-6.24a3.88,3.88,0,0,1,3.5,1.77h0v-6.93Zm-2.11,10.15a3.79,3.79,0,0,0-.09-.89,3.12,3.12,0,0,0-3.05-2.45c-2.19,0-3.48,1.92-3.48,4.49,0,2.35,1.15,4.3,3.43,4.3a3.19,3.19,0,0,0,3.1-2.52,3.83,3.83,0,0,0,.09-.92Z"/><path d="M581.93,118.51c0,4.3-3,6.17-5.79,6.17-3.14,0-5.56-2.3-5.56-6,0-3.88,2.54-6.16,5.76-6.16S581.93,115,581.93,118.51Zm-9.22.12c0,2.55,1.47,4.47,3.53,4.47s3.53-1.9,3.53-4.52c0-2-1-4.46-3.48-4.46S572.71,116.42,572.71,118.63Z"/><path d="M584.59,115.94c0-1.2,0-2.18-.09-3.14h1.87l.12,1.92h0a4.27,4.27,0,0,1,3.84-2.18c1.6,0,4.1,1,4.1,4.94v6.94h-2.11v-6.7c0-1.87-.7-3.43-2.69-3.43a3,3,0,0,0-2.83,2.16,2.88,2.88,0,0,0-.15,1v7h-2.11Z"/><path d="M600.36,109.46v3.34h3v1.61h-3v6.26c0,1.44.41,2.26,1.58,2.26a4.87,4.87,0,0,0,1.23-.14l.09,1.58a5.06,5.06,0,0,1-1.87.29,3,3,0,0,1-2.28-.89,4.32,4.32,0,0,1-.81-3v-6.34h-1.8V112.8h1.8V110Z"/><path d="M616,109.46v3.34h3v1.61h-3v6.26c0,1.44.41,2.26,1.59,2.26a4.78,4.78,0,0,0,1.22-.14l.1,1.58a5.14,5.14,0,0,1-1.87.29,2.93,2.93,0,0,1-2.28-.89,4.26,4.26,0,0,1-.82-3v-6.34h-1.8V112.8h1.8V110Z"/><path d="M631.09,121.25c0,1.2,0,2.25.1,3.17h-1.87l-.12-1.9h-.05a4.37,4.37,0,0,1-3.84,2.16c-1.82,0-4-1-4-5.09V112.8h2.11v6.43c0,2.21.68,3.7,2.6,3.7a3.06,3.06,0,0,0,2.78-1.92,3.1,3.1,0,0,0,.19-1.08V112.8h2.11Z"/><path d="M643.08,112.8l2.28,6.53a27.92,27.92,0,0,1,.94,3h.07c.27-1,.6-1.92,1-3l2.25-6.53h2.21l-4.56,11.62h-2l-4.41-11.62Z"/><path d="M660.15,124.42,660,123h-.07a4.31,4.31,0,0,1-3.55,1.73,3.31,3.31,0,0,1-3.56-3.34c0-2.8,2.5-4.34,7-4.32v-.24a2.39,2.39,0,0,0-2.64-2.68,5.8,5.8,0,0,0-3,.86l-.48-1.39a7.18,7.18,0,0,1,3.82-1c3.55,0,4.42,2.42,4.42,4.75v4.34a15.89,15.89,0,0,0,.19,2.79Zm-.31-5.93c-2.31,0-4.92.36-4.92,2.61a1.87,1.87,0,0,0,2,2,2.9,2.9,0,0,0,2.81-1.94,2.32,2.32,0,0,0,.12-.68Z"/><path d="M665,122.26a5.47,5.47,0,0,0,2.78.84c1.54,0,2.26-.77,2.26-1.73s-.6-1.56-2.16-2.14c-2.09-.74-3.08-1.89-3.08-3.29,0-1.87,1.51-3.4,4-3.4a5.74,5.74,0,0,1,2.86.72l-.53,1.53a4.53,4.53,0,0,0-2.38-.67c-1.24,0-1.94.72-1.94,1.58s.7,1.4,2.21,2c2,.77,3.05,1.78,3.05,3.51,0,2-1.59,3.48-4.35,3.48a6.71,6.71,0,0,1-3.26-.79Z"/><path d="M692.49,107.38v14c0,1,0,2.2.1,3h-1.9l-.1-2h0a4.3,4.3,0,0,1-4,2.28c-2.8,0-5-2.38-5-5.9,0-3.87,2.37-6.24,5.21-6.24a3.9,3.9,0,0,1,3.5,1.77h0v-6.93Zm-2.11,10.15a3.8,3.8,0,0,0-.1-.89,3.11,3.11,0,0,0-3-2.45c-2.18,0-3.48,1.92-3.48,4.49,0,2.35,1.15,4.3,3.44,4.3a3.17,3.17,0,0,0,3.09-2.52,3.82,3.82,0,0,0,.1-.92Z"/><path d="M697.17,119a3.72,3.72,0,0,0,4,4,7.56,7.56,0,0,0,3.22-.6l.36,1.52a9.56,9.56,0,0,1-3.87.72c-3.57,0-5.71-2.36-5.71-5.86s2.07-6.26,5.45-6.26c3.79,0,4.8,3.33,4.8,5.47a8.79,8.79,0,0,1-.07,1Zm6.19-1.51c0-1.34-.55-3.43-2.93-3.43-2.13,0-3.07,2-3.24,3.43Z"/><path d="M708.83,112.8l2.28,6.53a27.92,27.92,0,0,1,.94,3h.07c.26-1,.6-1.92,1-3l2.26-6.53h2.21L713,124.42h-2l-4.41-11.62Z"/><path d="M729.83,118.51c0,4.3-3,6.17-5.78,6.17-3.15,0-5.57-2.3-5.57-6,0-3.88,2.54-6.16,5.76-6.16S729.83,115,729.83,118.51Zm-9.21.12c0,2.55,1.46,4.47,3.52,4.47s3.53-1.9,3.53-4.52c0-2-1-4.46-3.48-4.46S720.62,116.42,720.62,118.63Z"/><path d="M734.85,109.54a1.31,1.31,0,0,1-2.62,0,1.28,1.28,0,0,1,1.32-1.32A1.25,1.25,0,0,1,734.85,109.54Zm-2.35,14.88V112.8h2.11v11.62Z"/><path d="M738.11,116.42c0-1.36,0-2.54-.09-3.62h1.84l.08,2.28H740a3.48,3.48,0,0,1,3.22-2.54,2.2,2.2,0,0,1,.6.07v2a3.08,3.08,0,0,0-.72-.07,3,3,0,0,0-2.83,2.71,5.69,5.69,0,0,0-.1,1v6.2h-2.09Z"/><path d="M756.17,109.46v3.34h3v1.61h-3v6.26c0,1.44.41,2.26,1.59,2.26a4.78,4.78,0,0,0,1.22-.14l.1,1.58a5.14,5.14,0,0,1-1.87.29,2.93,2.93,0,0,1-2.28-.89,4.31,4.31,0,0,1-.82-3v-6.34h-1.8V112.8h1.8V110Z"/><path d="M761.57,116.42c0-1.36,0-2.54-.09-3.62h1.85l.07,2.28h.09a3.48,3.48,0,0,1,3.22-2.54,2.2,2.2,0,0,1,.6.07v2a3.08,3.08,0,0,0-.72-.07,3,3,0,0,0-2.83,2.71,5.69,5.69,0,0,0-.1,1v6.2h-2.09Z"/><path d="M771.87,109.54a1.31,1.31,0,0,1-2.62,0,1.28,1.28,0,0,1,1.32-1.32A1.25,1.25,0,0,1,771.87,109.54Zm-2.35,14.88V112.8h2.11v11.62Z"/><path d="M785.65,118.51c0,4.3-3,6.17-5.79,6.17-3.14,0-5.57-2.3-5.57-6,0-3.88,2.55-6.16,5.76-6.16S785.65,115,785.65,118.51Zm-9.22.12c0,2.55,1.46,4.47,3.53,4.47s3.53-1.9,3.53-4.52c0-2-1-4.46-3.49-4.46S776.43,116.42,776.43,118.63Z"/><path d="M788.31,115.94c0-1.2,0-2.18-.1-3.14h1.85l.1,1.87h.07a4,4,0,0,1,3.65-2.13,3.45,3.45,0,0,1,3.29,2.32h0a4.88,4.88,0,0,1,1.3-1.51,4,4,0,0,1,2.57-.81c1.53,0,3.81,1,3.81,5v6.84h-2.06v-6.58c0-2.23-.82-3.58-2.52-3.58a2.74,2.74,0,0,0-2.5,1.92,3.75,3.75,0,0,0-.16,1.06v7.18h-2.07v-7c0-1.85-.82-3.2-2.42-3.2a3.17,3.17,0,0,0-2.79,3.15v7h-2.06Z"/><path d="M808.32,116.59c0-1.49,0-2.69-.09-3.79h1.89l.1,2h0a4.57,4.57,0,0,1,4.13-2.25c2.81,0,4.92,2.37,4.92,5.9,0,4.18-2.55,6.24-5.28,6.24a4.08,4.08,0,0,1-3.58-1.82h-.05v6.31h-2.09Zm2.09,3.1a4.51,4.51,0,0,0,.1.86,3.24,3.24,0,0,0,3.17,2.47c2.23,0,3.53-1.82,3.53-4.48,0-2.33-1.23-4.32-3.46-4.32a3.36,3.36,0,0,0-3.19,2.61,3.17,3.17,0,0,0-.15.87Z"/><path d="M822,107.38h2.11v7.24h0a3.91,3.91,0,0,1,1.51-1.48,4.37,4.37,0,0,1,2.16-.6c1.56,0,4.06,1,4.06,5v6.92h-2.11v-6.68c0-1.87-.7-3.45-2.69-3.45a3,3,0,0,0-2.83,2.11,2.56,2.56,0,0,0-.15,1v7H822Z"/><path d="M836.48,119a3.71,3.71,0,0,0,4,4,7.63,7.63,0,0,0,3.22-.6l.36,1.52a9.56,9.56,0,0,1-3.87.72c-3.57,0-5.71-2.36-5.71-5.86s2.06-6.26,5.45-6.26c3.79,0,4.8,3.33,4.8,5.47a8.79,8.79,0,0,1-.07,1Zm6.19-1.51c0-1.34-.55-3.43-2.93-3.43-2.14,0-3.07,2-3.24,3.43Z"/><path d="M847.32,116.42c0-1.36,0-2.54-.09-3.62h1.85l.07,2.28h.09a3.48,3.48,0,0,1,3.22-2.54,2.2,2.2,0,0,1,.6.07v2a3.08,3.08,0,0,0-.72-.07,3,3,0,0,0-2.83,2.71,5.69,5.69,0,0,0-.1,1v6.2h-2.09Z"/><path d="M862.84,116.59c0-1.49-.05-2.69-.09-3.79h1.89l.1,2h0a4.56,4.56,0,0,1,4.12-2.25c2.81,0,4.92,2.37,4.92,5.9,0,4.18-2.54,6.24-5.28,6.24a4.06,4.06,0,0,1-3.57-1.82h-.05v6.31h-2.09Zm2.09,3.1a4.51,4.51,0,0,0,.1.86,3.24,3.24,0,0,0,3.16,2.47c2.24,0,3.53-1.82,3.53-4.48,0-2.33-1.22-4.32-3.45-4.32a3.38,3.38,0,0,0-3.2,2.61,3.59,3.59,0,0,0-.14.87Z"/><path d="M887,118.51c0,4.3-3,6.17-5.78,6.17-3.15,0-5.57-2.3-5.57-6,0-3.88,2.54-6.16,5.76-6.16S887,115,887,118.51Zm-9.22.12c0,2.55,1.47,4.47,3.53,4.47s3.53-1.9,3.53-4.52c0-2-1-4.46-3.48-4.46S877.79,116.42,877.79,118.63Z"/><path d="M899.39,121.25c0,1.2,0,2.25.1,3.17h-1.87l-.12-1.9h0a4.37,4.37,0,0,1-3.84,2.16c-1.82,0-4-1-4-5.09V112.8h2.11v6.43c0,2.21.68,3.7,2.6,3.7a3.06,3.06,0,0,0,2.78-1.92,3.1,3.1,0,0,0,.19-1.08V112.8h2.11Z"/><path d="M902.9,116.42c0-1.36,0-2.54-.1-3.62h1.85l.07,2.28h.1a3.48,3.48,0,0,1,3.21-2.54,2.2,2.2,0,0,1,.6.07v2a3,3,0,0,0-.72-.07,3,3,0,0,0-2.83,2.71,5.74,5.74,0,0,0-.09,1v6.2H902.9Z"/><path d="M928.42,112.8c0,.84-.09,1.78-.09,3.19v6.75c0,2.66-.53,4.29-1.66,5.3a6.14,6.14,0,0,1-4.22,1.39,7.48,7.48,0,0,1-3.87-1l.53-1.6a6.56,6.56,0,0,0,3.41.91c2.16,0,3.74-1.13,3.74-4.06v-1.3h0a4.16,4.16,0,0,1-3.7,2c-2.88,0-4.95-2.45-4.95-5.67,0-3.93,2.57-6.16,5.24-6.16a3.86,3.86,0,0,1,3.62,2h.05l.1-1.75Zm-2.18,4.58a2.91,2.91,0,0,0-.12-1,3,3,0,0,0-3-2.23c-2,0-3.46,1.71-3.46,4.39,0,2.28,1.15,4.18,3.43,4.18a3.09,3.09,0,0,0,2.93-2.16,3.69,3.69,0,0,0,.17-1.13Z"/><path d="M938.26,124.42,938.1,123H938a4.29,4.29,0,0,1-3.55,1.73,3.31,3.31,0,0,1-3.55-3.34c0-2.8,2.5-4.34,7-4.32v-.24a2.39,2.39,0,0,0-2.64-2.68,5.74,5.74,0,0,0-3,.86l-.48-1.39a7.15,7.15,0,0,1,3.82-1c3.55,0,4.41,2.42,4.41,4.75v4.34a16.91,16.91,0,0,0,.19,2.79Zm-.31-5.93c-2.3,0-4.92.36-4.92,2.61a1.87,1.87,0,0,0,2,2,2.88,2.88,0,0,0,2.81-1.94,2.32,2.32,0,0,0,.12-.68Z"/><path d="M953.41,112.8c0,.84-.1,1.78-.1,3.19v6.75c0,2.66-.53,4.29-1.65,5.3a6.15,6.15,0,0,1-4.23,1.39,7.41,7.41,0,0,1-3.86-1l.52-1.6a6.56,6.56,0,0,0,3.41.91c2.16,0,3.75-1.13,3.75-4.06v-1.3h0a4.16,4.16,0,0,1-3.7,2c-2.88,0-4.94-2.45-4.94-5.67,0-3.93,2.57-6.16,5.23-6.16a3.87,3.87,0,0,1,3.63,2h0l.1-1.75Zm-2.19,4.58a2.91,2.91,0,0,0-.12-1,3,3,0,0,0-3-2.23c-2,0-3.46,1.71-3.46,4.39,0,2.28,1.16,4.18,3.44,4.18a3.1,3.1,0,0,0,2.93-2.16,3.68,3.68,0,0,0,.16-1.13Z"/><path d="M956.67,115.94c0-1.2,0-2.18-.1-3.14h1.88l.12,1.92h0a4.28,4.28,0,0,1,3.84-2.18c1.61,0,4.11,1,4.11,4.94v6.94h-2.11v-6.7c0-1.87-.7-3.43-2.69-3.43a3,3,0,0,0-2.83,2.16,2.88,2.88,0,0,0-.15,1v7h-2.11Z"/><path d="M971.17,119a3.71,3.71,0,0,0,4,4,7.6,7.6,0,0,0,3.22-.6l.36,1.52a9.56,9.56,0,0,1-3.87.72c-3.57,0-5.71-2.36-5.71-5.86s2.06-6.26,5.45-6.26c3.79,0,4.8,3.33,4.8,5.47a8.79,8.79,0,0,1-.07,1Zm6.19-1.51c0-1.34-.55-3.43-2.93-3.43-2.14,0-3.07,2-3.24,3.43Z"/><path d="M982,116.42c0-1.36,0-2.54-.09-3.62h1.85l.07,2.28h.09a3.48,3.48,0,0,1,3.22-2.54,2.2,2.2,0,0,1,.6.07v2a3.08,3.08,0,0,0-.72-.07,3,3,0,0,0-2.83,2.71,5.69,5.69,0,0,0-.1,1v6.2H982Z"/><path d="M1007.56,107.38v14c0,1,0,2.2.1,3h-1.9l-.09-2h0a4.29,4.29,0,0,1-4,2.28c-2.81,0-5-2.38-5-5.9,0-3.87,2.38-6.24,5.21-6.24a3.87,3.87,0,0,1,3.5,1.77h.05v-6.93Zm-2.11,10.15a3.79,3.79,0,0,0-.09-.89,3.12,3.12,0,0,0-3.05-2.45c-2.19,0-3.48,1.92-3.48,4.49,0,2.35,1.15,4.3,3.43,4.3a3.18,3.18,0,0,0,3.1-2.52,3.83,3.83,0,0,0,.09-.92Z"/><path d="M1012.24,119a3.72,3.72,0,0,0,4,4,7.54,7.54,0,0,0,3.21-.6l.36,1.52a9.46,9.46,0,0,1-3.86.72c-3.58,0-5.71-2.36-5.71-5.86s2.06-6.26,5.45-6.26c3.79,0,4.8,3.33,4.8,5.47a6.57,6.57,0,0,1-.08,1Zm6.2-1.51c0-1.34-.56-3.43-2.93-3.43-2.14,0-3.07,2-3.24,3.43Z"/><path d="M1022.8,122.26a5.55,5.55,0,0,0,2.79.84c1.53,0,2.25-.77,2.25-1.73s-.6-1.56-2.16-2.14c-2.08-.74-3.07-1.89-3.07-3.29,0-1.87,1.51-3.4,4-3.4a5.74,5.74,0,0,1,2.86.72l-.53,1.53a4.53,4.53,0,0,0-2.38-.67c-1.25,0-1.94.72-1.94,1.58s.69,1.4,2.21,2c2,.77,3,1.78,3,3.51,0,2-1.58,3.48-4.34,3.48a6.71,6.71,0,0,1-3.26-.79Z"/><path d="M1040.27,107.38h2.11v17h-2.11Z"/><path d="M1056.44,118.51c0,4.3-3,6.17-5.78,6.17-3.15,0-5.57-2.3-5.57-6,0-3.88,2.54-6.16,5.76-6.16S1056.44,115,1056.44,118.51Zm-9.21.12c0,2.55,1.46,4.47,3.52,4.47s3.53-1.9,3.53-4.52c0-2-1-4.46-3.48-4.46S1047.23,116.42,1047.23,118.63Z"/><path d="M1061.65,109.46v3.34h3v1.61h-3v6.26c0,1.44.41,2.26,1.58,2.26a4.87,4.87,0,0,0,1.23-.14l.09,1.58a5.06,5.06,0,0,1-1.87.29,3,3,0,0,1-2.28-.89,4.31,4.31,0,0,1-.82-3v-6.34h-1.8V112.8h1.8V110Z"/><path d="M1066.76,122.26a5.55,5.55,0,0,0,2.79.84c1.53,0,2.25-.77,2.25-1.73s-.6-1.56-2.16-2.14c-2.09-.74-3.07-1.89-3.07-3.29,0-1.87,1.51-3.4,4-3.4a5.7,5.7,0,0,1,2.85.72l-.52,1.53a4.53,4.53,0,0,0-2.38-.67c-1.25,0-2,.72-2,1.58s.7,1.4,2.21,2c2,.77,3,1.78,3,3.51,0,2-1.58,3.48-4.34,3.48a6.78,6.78,0,0,1-3.27-.79Z"/><path d="M3.24,138.34a1.24,1.24,0,0,1-1.34,1.29,1.25,1.25,0,0,1-1.28-1.29A1.29,1.29,0,0,1,1.94,137,1.25,1.25,0,0,1,3.24,138.34ZM.89,153.22V141.6H3v11.62Z"/><path d="M6.5,144.74c0-1.2,0-2.18-.09-3.14H8.28l.12,1.92h0a4.27,4.27,0,0,1,3.84-2.18c1.61,0,4.1,1,4.1,4.94v6.94H14.28v-6.7c0-1.87-.7-3.43-2.69-3.43a3,3,0,0,0-2.83,2.16,2.9,2.9,0,0,0-.14,1v7H6.5Z"/><path d="M28.1,152.79a7.87,7.87,0,0,1-3.33.67c-3.51,0-5.79-2.38-5.79-5.93a5.9,5.9,0,0,1,6.24-6.17,7,7,0,0,1,2.93.6l-.48,1.63a4.85,4.85,0,0,0-2.45-.55c-2.66,0-4.1,2-4.1,4.39,0,2.69,1.73,4.35,4,4.35a6,6,0,0,0,2.59-.58Z"/><path d="M30.58,145.22c0-1.36,0-2.54-.1-3.62h1.85l.07,2.28h.1a3.47,3.47,0,0,1,3.21-2.54,2.2,2.2,0,0,1,.6.07v2a3,3,0,0,0-.72-.07A3,3,0,0,0,32.76,146a5.69,5.69,0,0,0-.1,1v6.2H30.58Z"/><path d="M48.7,147.31c0,4.3-3,6.17-5.79,6.17-3.14,0-5.57-2.3-5.57-6,0-3.88,2.55-6.16,5.76-6.16S48.7,143.76,48.7,147.31Zm-9.22.12c0,2.55,1.46,4.47,3.53,4.47s3.53-1.9,3.53-4.52c0-2-1-4.46-3.48-4.46S39.48,145.22,39.48,147.43Z"/><path d="M52,141.6l2.54,6.86c.27.77.56,1.68.75,2.38h0c.21-.7.45-1.58.74-2.42l2.3-6.82h2.24l-3.17,8.28c-1.51,4-2.55,6-4,7.27a5.67,5.67,0,0,1-2.59,1.37l-.53-1.77a5.57,5.57,0,0,0,1.85-1,6.31,6.31,0,0,0,1.78-2.35,1.71,1.71,0,0,0,.17-.5,1.86,1.86,0,0,0-.15-.56l-4.3-10.7Z"/><path d="M68.83,153.22l-.17-1.47h-.07A4.3,4.3,0,0,1,65,153.48a3.31,3.31,0,0,1-3.55-3.34c0-2.8,2.49-4.34,7-4.32v-.24a2.39,2.39,0,0,0-2.64-2.68,5.74,5.74,0,0,0-3,.86l-.48-1.39a7.14,7.14,0,0,1,3.81-1c3.56,0,4.42,2.42,4.42,4.75v4.34a16.91,16.91,0,0,0,.19,2.79Zm-.31-5.93c-2.3,0-4.92.36-4.92,2.61a1.87,1.87,0,0,0,2,2A2.9,2.9,0,0,0,68.4,150a2.32,2.32,0,0,0,.12-.68Z"/><path d="M73.87,153.22c0-.8.1-2,.1-3v-14h2.09v7.29h0a4.34,4.34,0,0,1,4-2.13c2.88,0,4.92,2.4,4.9,5.92,0,4.16-2.62,6.22-5.21,6.22a4.15,4.15,0,0,1-3.89-2.18h-.07l-.09,1.92Zm2.19-4.66a3.86,3.86,0,0,0,.09.77,3.26,3.26,0,0,0,3.17,2.47c2.21,0,3.53-1.8,3.53-4.46,0-2.33-1.2-4.32-3.46-4.32a3.35,3.35,0,0,0-3.21,2.59,4,4,0,0,0-.12.86Z"/><path d="M87.62,136.18h2.11v17H87.62Z"/><path d="M94.46,147.79a3.72,3.72,0,0,0,4,4,7.54,7.54,0,0,0,3.21-.6l.36,1.52a9.46,9.46,0,0,1-3.86.72c-3.58,0-5.71-2.36-5.71-5.86s2.06-6.26,5.45-6.26c3.79,0,4.8,3.33,4.8,5.47a6.57,6.57,0,0,1-.08,1Zm6.2-1.51c0-1.34-.56-3.43-2.93-3.43-2.14,0-3.08,2-3.24,3.43Z"/><path d="M105,151.06a5.65,5.65,0,0,0,2.79.84c1.53,0,2.25-.77,2.25-1.73s-.6-1.56-2.16-2.14c-2.09-.74-3.07-1.89-3.07-3.29,0-1.87,1.51-3.4,4-3.4a5.74,5.74,0,0,1,2.86.72l-.53,1.53a4.53,4.53,0,0,0-2.38-.67c-1.25,0-1.94.72-1.94,1.58s.69,1.4,2.21,2c2,.77,3,1.78,3,3.51,0,2-1.58,3.48-4.34,3.48a6.78,6.78,0,0,1-3.27-.79Z"/><path d="M114.05,152a1.42,1.42,0,0,1,1.44-1.51,1.51,1.51,0,0,1,0,3A1.41,1.41,0,0,1,114.05,152Z"/><path d="M138.14,145.63h-6.29v5.83h7v1.76h-9.09V137h8.73v1.75h-6.65v5.11h6.29Z"/><path d="M144,138.26v3.34h3v1.61h-3v6.26c0,1.44.41,2.26,1.59,2.26a4.28,4.28,0,0,0,1.22-.15l.1,1.59a5.14,5.14,0,0,1-1.87.29,2.93,2.93,0,0,1-2.28-.89,4.33,4.33,0,0,1-.82-3v-6.33h-1.8V141.6h1.8v-2.78Z"/><path d="M162.74,152.79a7.87,7.87,0,0,1-3.33.67c-3.51,0-5.79-2.38-5.79-5.93a5.9,5.9,0,0,1,6.24-6.17,7,7,0,0,1,2.93.6l-.48,1.63a4.88,4.88,0,0,0-2.45-.55c-2.66,0-4.1,2-4.1,4.39,0,2.69,1.73,4.35,4,4.35a6,6,0,0,0,2.59-.58Z"/><path d="M165.21,145.22c0-1.36,0-2.54-.09-3.62H167l.07,2.28h.09a3.48,3.48,0,0,1,3.22-2.54,2.2,2.2,0,0,1,.6.07v2a3.08,3.08,0,0,0-.72-.07A3,3,0,0,0,167.4,146a5.69,5.69,0,0,0-.1,1v6.2h-2.09Z"/><path d="M183.33,147.31c0,4.3-3,6.17-5.78,6.17-3.14,0-5.57-2.3-5.57-6,0-3.88,2.55-6.16,5.76-6.16S183.33,143.76,183.33,147.31Zm-9.21.12c0,2.55,1.46,4.47,3.53,4.47s3.52-1.9,3.52-4.52c0-2-1-4.46-3.48-4.46S174.12,145.22,174.12,147.43Z"/><path d="M188.35,138.34a1.31,1.31,0,0,1-2.62,0,1.29,1.29,0,0,1,1.32-1.32A1.25,1.25,0,0,1,188.35,138.34ZM186,153.22V141.6h2.11v11.62Z"/><path d="M191.33,151.06a5.57,5.57,0,0,0,2.78.84c1.54,0,2.26-.77,2.26-1.73s-.6-1.56-2.16-2.14c-2.09-.74-3.08-1.89-3.08-3.29,0-1.87,1.52-3.4,4-3.4a5.74,5.74,0,0,1,2.86.72l-.53,1.53a4.53,4.53,0,0,0-2.38-.67c-1.24,0-1.94.72-1.94,1.58s.7,1.4,2.21,2c2,.77,3,1.78,3,3.51,0,2-1.59,3.48-4.35,3.48a6.71,6.71,0,0,1-3.26-.79Z"/><path d="M206.21,144.74c0-1.2,0-2.18-.1-3.14H208l.09,1.87h.08a4,4,0,0,1,3.64-2.13,3.43,3.43,0,0,1,3.29,2.32h.05a4.88,4.88,0,0,1,1.3-1.51,3.92,3.92,0,0,1,2.56-.81c1.54,0,3.82,1,3.82,5v6.84h-2.06v-6.58c0-2.23-.82-3.58-2.52-3.58a2.74,2.74,0,0,0-2.5,1.92,3.41,3.41,0,0,0-.17,1.06v7.18h-2.06v-7c0-1.85-.82-3.2-2.43-3.2a3.17,3.17,0,0,0-2.78,3.15v7h-2.06Z"/><path d="M236.73,147.31c0,4.3-3,6.17-5.78,6.17-3.14,0-5.57-2.3-5.57-6,0-3.88,2.54-6.16,5.76-6.16S236.73,143.76,236.73,147.31Zm-9.21.12c0,2.55,1.46,4.47,3.53,4.47s3.52-1.9,3.52-4.52c0-2-1-4.46-3.48-4.46S227.52,145.22,227.52,147.43Z"/><path d="M241.75,138.34a1.31,1.31,0,0,1-2.62,0,1.28,1.28,0,0,1,1.32-1.32A1.25,1.25,0,0,1,241.75,138.34Zm-2.35,14.88V141.6h2.11v11.62Z"/><path d="M243.64,156.17a34.14,34.14,0,0,0,1.44-5.74l2.36-.24a29.4,29.4,0,0,1-2.28,5.84Z"/><path d="M263.35,152.79a7.66,7.66,0,0,1-3,.67l-.62,1a1.79,1.79,0,0,1,1.68,1.65c0,1.42-1.18,2-2.5,2a3.39,3.39,0,0,1-1.63-.41l.36-1a2.49,2.49,0,0,0,1.29.36c.53,0,1-.19,1-.77s-.74-.91-1.87-1l1-1.75c-3-.39-4.87-2.64-4.87-5.88a5.9,5.9,0,0,1,6.24-6.17,7,7,0,0,1,2.93.6l-.48,1.63a4.91,4.91,0,0,0-2.45-.55c-2.67,0-4.11,2-4.11,4.39,0,2.69,1.73,4.35,4,4.35a6,6,0,0,0,2.59-.58Z"/><path d="M272.25,153.22l-.17-1.47H272a4.29,4.29,0,0,1-3.55,1.73,3.31,3.31,0,0,1-3.55-3.34c0-2.8,2.49-4.34,7-4.32v-.24a2.39,2.39,0,0,0-2.64-2.68,5.74,5.74,0,0,0-3,.86l-.48-1.39a7.14,7.14,0,0,1,3.81-1c3.56,0,4.42,2.42,4.42,4.75v4.34a16.91,16.91,0,0,0,.19,2.79Zm-.31-5.93c-2.3,0-4.92.36-4.92,2.61a1.87,1.87,0,0,0,2,2,2.9,2.9,0,0,0,2.81-1.94,2.32,2.32,0,0,0,.12-.68Z"/><path d="M282.48,144.74c0-1.2,0-2.18-.1-3.14h1.87l.12,1.92h.05a4.28,4.28,0,0,1,3.84-2.18c1.61,0,4.1,1,4.1,4.94v6.94h-2.11v-6.7c0-1.87-.69-3.43-2.69-3.43a3,3,0,0,0-2.83,2.16,3.17,3.17,0,0,0-.14,1v7h-2.11Z"/><path d="M297,147.79a3.72,3.72,0,0,0,4,4,7.54,7.54,0,0,0,3.21-.6l.36,1.52a9.46,9.46,0,0,1-3.86.72c-3.58,0-5.71-2.36-5.71-5.86s2.06-6.26,5.44-6.26c3.8,0,4.81,3.33,4.81,5.47a6.57,6.57,0,0,1-.08,1Zm6.19-1.51c0-1.34-.55-3.43-2.92-3.43-2.14,0-3.08,2-3.24,3.43Z"/><path d="M312.62,151.06a5.61,5.61,0,0,0,2.78.84c1.54,0,2.26-.77,2.26-1.73s-.6-1.56-2.16-2.14c-2.09-.74-3.07-1.89-3.07-3.29,0-1.87,1.51-3.4,4-3.4a5.73,5.73,0,0,1,2.85.72l-.53,1.53a4.46,4.46,0,0,0-2.37-.67c-1.25,0-1.95.72-1.95,1.58s.7,1.4,2.21,2c2,.77,3.05,1.78,3.05,3.51,0,2-1.58,3.48-4.34,3.48a6.75,6.75,0,0,1-3.27-.79Z"/><path d="M323.59,147.79a3.72,3.72,0,0,0,4,4,7.6,7.6,0,0,0,3.22-.6l.36,1.52a9.56,9.56,0,0,1-3.87.72c-3.57,0-5.71-2.36-5.71-5.86s2.07-6.26,5.45-6.26c3.79,0,4.8,3.33,4.8,5.47a8.79,8.79,0,0,1-.07,1Zm6.19-1.51c0-1.34-.55-3.43-2.93-3.43-2.13,0-3.07,2-3.24,3.43Z"/><path d="M334.44,145.22c0-1.36,0-2.54-.1-3.62h1.85l.07,2.28h.1a3.47,3.47,0,0,1,3.21-2.54,2.2,2.2,0,0,1,.6.07v2a3,3,0,0,0-.72-.07,3,3,0,0,0-2.83,2.71,5.69,5.69,0,0,0-.1,1v6.2h-2.08Z"/><path d="M348.6,153.22l-.17-1.47h-.07a4.32,4.32,0,0,1-3.56,1.73,3.31,3.31,0,0,1-3.55-3.34c0-2.8,2.5-4.34,7-4.32v-.24a2.39,2.39,0,0,0-2.64-2.68,5.8,5.8,0,0,0-3,.86l-.48-1.39a7.15,7.15,0,0,1,3.82-1c3.55,0,4.41,2.42,4.41,4.75v4.34a15.83,15.83,0,0,0,.2,2.79Zm-.32-5.93c-2.3,0-4.92.36-4.92,2.61a1.88,1.88,0,0,0,2,2,2.88,2.88,0,0,0,2.8-1.94,2,2,0,0,0,.12-.68Z"/><path d="M358.82,145.39c0-1.49-.05-2.69-.1-3.79h1.9l.1,2h0a4.59,4.59,0,0,1,4.13-2.25c2.81,0,4.92,2.37,4.92,5.9,0,4.18-2.54,6.24-5.28,6.24a4.06,4.06,0,0,1-3.57-1.82h0V158h-2.09Zm2.09,3.1a5.54,5.54,0,0,0,.09.86,3.26,3.26,0,0,0,3.17,2.47c2.23,0,3.53-1.82,3.53-4.48,0-2.33-1.22-4.32-3.46-4.32a3.37,3.37,0,0,0-3.19,2.61,3.59,3.59,0,0,0-.14.87Z"/><path d="M378.91,153.22l-.17-1.47h-.07a4.31,4.31,0,0,1-3.55,1.73,3.31,3.31,0,0,1-3.56-3.34c0-2.8,2.5-4.34,7-4.32v-.24a2.39,2.39,0,0,0-2.64-2.68,5.8,5.8,0,0,0-3,.86l-.48-1.39a7.18,7.18,0,0,1,3.82-1c3.55,0,4.42,2.42,4.42,4.75v4.34a15.89,15.89,0,0,0,.19,2.79Zm-.31-5.93c-2.31,0-4.92.36-4.92,2.61a1.87,1.87,0,0,0,2,2,2.9,2.9,0,0,0,2.81-1.94,2.32,2.32,0,0,0,.12-.68Z"/><path d="M383.76,151.06a5.57,5.57,0,0,0,2.78.84c1.54,0,2.26-.77,2.26-1.73s-.6-1.56-2.16-2.14c-2.09-.74-3.08-1.89-3.08-3.29,0-1.87,1.52-3.4,4-3.4a5.74,5.74,0,0,1,2.86.72l-.53,1.53a4.53,4.53,0,0,0-2.38-.67c-1.24,0-1.94.72-1.94,1.58s.7,1.4,2.21,2c2,.77,3,1.78,3,3.51,0,2-1.59,3.48-4.35,3.48a6.71,6.71,0,0,1-3.26-.79Z"/><path d="M398.85,153.22v-10h-1.63V141.6h1.63v-.55A5.47,5.47,0,0,1,400.2,137a4,4,0,0,1,2.83-1.08,4.87,4.87,0,0,1,1.8.34l-.29,1.63a3.2,3.2,0,0,0-1.34-.26c-1.8,0-2.26,1.58-2.26,3.36v.62h2.81v1.61h-2.81v10Z"/><path d="M412.08,153.22l-.17-1.47h-.07a4.32,4.32,0,0,1-3.56,1.73,3.31,3.31,0,0,1-3.55-3.34c0-2.8,2.5-4.34,7-4.32v-.24a2.39,2.39,0,0,0-2.64-2.68,5.8,5.8,0,0,0-3,.86l-.48-1.39a7.15,7.15,0,0,1,3.82-1c3.55,0,4.41,2.42,4.41,4.75v4.34a15.83,15.83,0,0,0,.2,2.79Zm-.32-5.93c-2.3,0-4.92.36-4.92,2.61a1.87,1.87,0,0,0,2,2,2.88,2.88,0,0,0,2.81-1.94,2,2,0,0,0,.12-.68Z"/><path d="M419.56,138.34a1.31,1.31,0,0,1-2.61,0,1.28,1.28,0,0,1,1.32-1.32A1.25,1.25,0,0,1,419.56,138.34Zm-2.35,14.88V141.6h2.11v11.62Z"/><path d="M422.83,145.22c0-1.36,0-2.54-.1-3.62h1.85l.07,2.28h.1a3.47,3.47,0,0,1,3.21-2.54,2.2,2.2,0,0,1,.6.07v2a3,3,0,0,0-.72-.07A3,3,0,0,0,425,146a5.69,5.69,0,0,0-.1,1v6.2h-2.08Z"/><path d="M431.61,147.79a3.72,3.72,0,0,0,4,4,7.54,7.54,0,0,0,3.21-.6l.36,1.52a9.46,9.46,0,0,1-3.86.72c-3.58,0-5.72-2.36-5.72-5.86s2.07-6.26,5.45-6.26c3.8,0,4.8,3.33,4.8,5.47a6.87,6.87,0,0,1-.07,1Zm6.19-1.51c0-1.34-.55-3.43-2.92-3.43-2.14,0-3.08,2-3.25,3.43Z"/><path d="M451.46,139.58h0l-2.71,1.47-.41-1.61,3.41-1.82h1.8v15.6h-2Z"/><path d="M469.56,145.25c0,5.3-2,8.23-5.43,8.23-3.05,0-5.11-2.86-5.16-8s2.26-8.11,5.42-8.11S469.56,140.28,469.56,145.25Zm-8.48.24c0,4,1.25,6.36,3.17,6.36,2.16,0,3.19-2.52,3.19-6.51,0-3.84-1-6.36-3.17-6.36C462.43,139,461.08,141.24,461.08,145.49Z"/><path d="M479.35,146.93h0c.29-.41.7-.91,1-1.32l3.4-4h2.55l-4.49,4.78,5.11,6.84h-2.57l-4-5.57-1.08,1.2v4.37h-2.09v-17h2.09Z"/><path d="M491.27,138.34a1.24,1.24,0,0,1-1.34,1.29,1.25,1.25,0,0,1-1.27-1.29A1.28,1.28,0,0,1,490,137,1.25,1.25,0,0,1,491.27,138.34Zm-2.35,14.88V141.6H491v11.62Z"/><path d="M494.54,136.18h2.11v17h-2.11Z"/><path d="M500.2,136.18h2.11v17H500.2Z"/><path d="M505.58,151.06a5.61,5.61,0,0,0,2.78.84c1.54,0,2.26-.77,2.26-1.73s-.6-1.56-2.16-2.14c-2.09-.74-3.07-1.89-3.07-3.29,0-1.87,1.51-3.4,4-3.4a5.74,5.74,0,0,1,2.86.72l-.53,1.53a4.46,4.46,0,0,0-2.37-.67c-1.25,0-2,.72-2,1.58s.7,1.4,2.21,2c2,.77,3,1.78,3,3.51,0,2-1.59,3.48-4.35,3.48a6.74,6.74,0,0,1-3.26-.79Z"/><path d="M526.89,153.22l-.17-1.47h-.07a4.31,4.31,0,0,1-3.55,1.73,3.32,3.32,0,0,1-3.56-3.34c0-2.8,2.5-4.34,7-4.32v-.24a2.39,2.39,0,0,0-2.64-2.68,5.74,5.74,0,0,0-3,.86l-.48-1.39a7.14,7.14,0,0,1,3.81-1c3.55,0,4.42,2.42,4.42,4.75v4.34a16.91,16.91,0,0,0,.19,2.79Zm-.31-5.93c-2.31,0-4.92.36-4.92,2.61a1.87,1.87,0,0,0,2,2,2.9,2.9,0,0,0,2.81-1.94,2.32,2.32,0,0,0,.12-.68Z"/><path d="M532.65,141.6l2.28,6.53a30.42,30.42,0,0,1,.94,3h.07c.26-1,.6-1.92,1-3l2.26-6.53h2.21l-4.56,11.62h-2l-4.42-11.62Z"/><path d="M544.31,147.79a3.72,3.72,0,0,0,4,4,7.54,7.54,0,0,0,3.21-.6l.36,1.52a9.46,9.46,0,0,1-3.86.72c-3.58,0-5.71-2.36-5.71-5.86s2.06-6.26,5.44-6.26c3.8,0,4.81,3.33,4.81,5.47a6.57,6.57,0,0,1-.08,1Zm6.19-1.51c0-1.34-.55-3.43-2.92-3.43-2.14,0-3.08,2-3.24,3.43Z"/><path d="M563.44,152.79a7.89,7.89,0,0,1-3.34.67c-3.5,0-5.78-2.38-5.78-5.93a5.9,5.9,0,0,1,6.24-6.17,7,7,0,0,1,2.93.6l-.48,1.63a4.91,4.91,0,0,0-2.45-.55c-2.66,0-4.1,2-4.1,4.39,0,2.69,1.72,4.35,4,4.35a6,6,0,0,0,2.59-.58Z"/><path d="M580.72,150.05c0,1.2,0,2.25.1,3.17h-1.88l-.12-1.9h0a4.38,4.38,0,0,1-3.84,2.16c-1.83,0-4-1-4-5.09V141.6H573V148c0,2.21.67,3.7,2.59,3.7a3,3,0,0,0,3-3V141.6h2.11Z"/><path d="M584.22,144.74c0-1.2,0-2.18-.09-3.14H586l.12,1.92h0a4.27,4.27,0,0,1,3.84-2.18c1.61,0,4.1,1,4.1,4.94v6.94H592v-6.7c0-1.87-.7-3.43-2.69-3.43a3,3,0,0,0-2.83,2.16,2.9,2.9,0,0,0-.14,1v7h-2.12Z"/><path d="M598.72,147.79a3.72,3.72,0,0,0,4,4,7.56,7.56,0,0,0,3.22-.6l.36,1.52a9.5,9.5,0,0,1-3.86.72c-3.58,0-5.72-2.36-5.72-5.86s2.07-6.26,5.45-6.26c3.79,0,4.8,3.33,4.8,5.47a8.79,8.79,0,0,1-.07,1Zm6.19-1.51c0-1.34-.55-3.43-2.93-3.43-2.13,0-3.07,2-3.24,3.43Z"/><path d="M621.09,153.22l-.17-1.47h-.07a4.31,4.31,0,0,1-3.55,1.73,3.31,3.31,0,0,1-3.56-3.34c0-2.8,2.5-4.34,7-4.32v-.24a2.39,2.39,0,0,0-2.64-2.68,5.8,5.8,0,0,0-3,.86l-.48-1.39a7.18,7.18,0,0,1,3.82-1c3.55,0,4.42,2.42,4.42,4.75v4.34a15.89,15.89,0,0,0,.19,2.79Zm-.31-5.93c-2.31,0-4.92.36-4.92,2.61a1.87,1.87,0,0,0,2,2,2.9,2.9,0,0,0,2.81-1.94,2.32,2.32,0,0,0,.12-.68Z"/><path d="M626.22,145.22c0-1.36,0-2.54-.09-3.62H628l.07,2.28h.09a3.48,3.48,0,0,1,3.22-2.54,2.2,2.2,0,0,1,.6.07v2a3.08,3.08,0,0,0-.72-.07,3,3,0,0,0-2.83,2.71,5.69,5.69,0,0,0-.1,1v6.2h-2.09Z"/><path d="M634.17,144.74c0-1.2,0-2.18-.1-3.14h1.85l.1,1.87h.07a4,4,0,0,1,3.65-2.13,3.43,3.43,0,0,1,3.28,2.32h.05a4.88,4.88,0,0,1,1.3-1.51,3.93,3.93,0,0,1,2.57-.81c1.53,0,3.81,1,3.81,5v6.84h-2.06v-6.58c0-2.23-.82-3.58-2.52-3.58a2.74,2.74,0,0,0-2.5,1.92,3.73,3.73,0,0,0-.17,1.06v7.18h-2.06v-7c0-1.85-.82-3.2-2.42-3.2a3.17,3.17,0,0,0-2.79,3.15v7h-2.06Z"/><path d="M655.36,147.79a3.72,3.72,0,0,0,4,4,7.56,7.56,0,0,0,3.22-.6l.36,1.52a9.5,9.5,0,0,1-3.86.72c-3.58,0-5.72-2.36-5.72-5.86s2.07-6.26,5.45-6.26c3.79,0,4.8,3.33,4.8,5.47a8.79,8.79,0,0,1-.07,1Zm6.19-1.51c0-1.34-.55-3.43-2.93-3.43-2.13,0-3.07,2-3.24,3.43Z"/><path d="M672.47,147.79a3.72,3.72,0,0,0,4,4,7.54,7.54,0,0,0,3.21-.6l.36,1.52a9.46,9.46,0,0,1-3.86.72c-3.58,0-5.71-2.36-5.71-5.86s2.06-6.26,5.44-6.26c3.8,0,4.81,3.33,4.81,5.47a6.57,6.57,0,0,1-.08,1Zm6.19-1.51c0-1.34-.55-3.43-2.92-3.43-2.14,0-3.08,2-3.24,3.43Z"/><path d="M683.32,144.74c0-1.2,0-2.18-.1-3.14h1.88l.12,1.92h0a4.28,4.28,0,0,1,3.84-2.18c1.61,0,4.11,1,4.11,4.94v6.94H691.1v-6.7c0-1.87-.7-3.43-2.69-3.43a3,3,0,0,0-2.83,2.16,2.88,2.88,0,0,0-.15,1v7h-2.11Z"/><path d="M712.24,147.31c0,4.3-3,6.17-5.78,6.17-3.15,0-5.57-2.3-5.57-6,0-3.88,2.54-6.16,5.76-6.16S712.24,143.76,712.24,147.31Zm-9.22.12c0,2.55,1.47,4.47,3.53,4.47s3.53-1.9,3.53-4.52c0-2-1-4.46-3.48-4.46S703,145.22,703,147.43Z"/><path d="M714.9,145.22c0-1.36,0-2.54-.09-3.62h1.85l.07,2.28h.09a3.48,3.48,0,0,1,3.22-2.54,2.2,2.2,0,0,1,.6.07v2a3.08,3.08,0,0,0-.72-.07,3,3,0,0,0-2.83,2.71,5.69,5.69,0,0,0-.1,1v6.2H714.9Z"/><path d="M721,152a1.42,1.42,0,0,1,1.44-1.51,1.51,1.51,0,0,1,0,3A1.41,1.41,0,0,1,721,152Z"/></g></g></svg>