<svg xmlns="http://www.w3.org/2000/svg" viewBox="0 0 481.31 50.4"><defs><style>.cls-1{fill:#1a7e96;}</style></defs><title>titre_shoes</title><g id="Calque_2" data-name="Calque 2"><g id="Packs"><path class="cls-1" d="M32.29,46.76c-1.79,6.81-5.13,15.4-16.8,15.4C3.63,62.16-.2,54,3.76,35.63c3.35-15.65,9-23.87,19.83-23.87,11.29,0,13.55,7.8,12.45,15.3H25.4c.45-3.6.68-6.89-2.7-6.89s-5.64,5-8,16C12.21,48,12,53.65,16.11,53.65c3,0,4.52-3.64,5.32-6.89Z" transform="translate(-2.25 -11.76)"/><path class="cls-1" d="M44.11,12.65H55L51,31.5h8.77l4-18.85H74.71L64.36,61.27H53.43l4.43-20.94H49.09L44.66,61.27H33.77Z" transform="translate(-2.25 -11.76)"/><path class="cls-1" d="M107.28,38.51c-4,18.29-10.34,23.65-19.61,23.65-11.5,0-15.92-8.06-11.73-27.28,3.69-17,10.39-23.12,19.34-23.12C106.17,11.76,111.58,18.57,107.28,38.51ZM86.86,35.93C84.23,48.14,84.23,53.6,88.3,53.6c3.22,0,5.13-3,8-16.08,2.65-11.92,3-17.16-1.42-17.16C91.46,20.36,89.34,24.42,86.86,35.93Z" transform="translate(-2.25 -11.76)"/><path class="cls-1" d="M144.24,38.51c-4,18.29-10.34,23.65-19.6,23.65-11.51,0-15.93-8.06-11.74-27.28,3.69-17,10.39-23.12,19.35-23.12C143.13,11.76,148.54,18.57,144.24,38.51Zm-20.42-2.58c-2.63,12.21-2.62,17.67,1.44,17.67,3.23,0,5.14-3,8-16.08,2.65-11.92,3-17.16-1.42-17.16C128.42,20.36,126.3,24.42,123.82,35.93Z" transform="translate(-2.25 -11.76)"/><path class="cls-1" d="M156.37,47c-.33,3.48.28,7,3.81,7,2.57,0,4-1.66,4.51-4.4.62-3.35-.37-5.88-5.15-9.76-6.86-5.55-9.53-9.64-8.25-16.73,1.16-6.37,5.48-11.39,14.22-11.39,12.06,0,14.32,8.48,13.44,14.32h-10c.28-2.57.07-6.2-3.46-6.2-2.18,0-3.44,1.33-3.85,3.82s.34,4.23,5.34,8.16c8,6.35,10.1,11.12,8.4,18.93-1.43,6.56-6.14,11.37-15.36,11.37-12.32,0-15.07-7.83-14-15.12Z" transform="translate(-2.25 -11.76)"/><path class="cls-1" d="M207.75,40.42H193.38l-2.53,12h17l-3,8.8H178.21l10.34-48.62H214.3l-2,8.82h-15l-2.11,10.12h14.37Z" transform="translate(-2.25 -11.76)"/><path class="cls-1" d="M237,21.47H227.7l1.91-8.82h29.23l-1.9,8.82h-9.13l-8.44,39.8H228.51Z" transform="translate(-2.25 -11.76)"/><path class="cls-1" d="M288,38.51C284,56.8,277.62,62.16,268.36,62.16c-11.51,0-15.93-8.06-11.74-27.28,3.69-17,10.39-23.12,19.35-23.12C286.85,11.76,292.26,18.57,288,38.51Zm-20.42-2.58C264.91,48.14,264.91,53.6,269,53.6c3.23,0,5.13-3,8-16.08,2.65-11.92,3-17.16-1.42-17.16C272.14,20.36,270,24.42,267.54,35.93Z" transform="translate(-2.25 -11.76)"/><path class="cls-1" d="M289.19,61.27l10.34-48.62h12c2.25,21.79,3,29,3.11,31.48h.2c.84-6.11,2.54-15.57,4.07-22.65l1.88-8.83h9.85L320.32,61.27H308.47c-1.85-22.61-2.64-30.92-2.83-33.44h-.22c-.89,5.85-2.67,16-4.37,24l-2,9.46Z" transform="translate(-2.25 -11.76)"/><path class="cls-1" d="M349.84,12.65h12.7c11.22,0,15.91,6.85,13.65,17.45-2.16,10.11-8.87,13.21-17.47,13.21h-4.63l-3.78,18H339.5Zm6.06,22.24h3.37c3.79,0,5.68-1.93,6.56-6.57,1-4.95-.38-7.41-4.22-7.41h-2.74Z" transform="translate(-2.25 -11.76)"/><path class="cls-1" d="M384.47,50.29l-4,11H369.37L389,12.65h15.39l-.63,48.62H393l.4-11Zm9.15-8.73c.35-7.54.9-16.13,1.21-20.6h-.29c-1.29,4.43-4,12.47-6.8,20.6Z" transform="translate(-2.25 -11.76)"/><path class="cls-1" d="M439.22,46.76c-1.79,6.81-5.14,15.4-16.8,15.4-11.87,0-15.7-8.17-11.74-26.53C414,20,419.63,11.76,430.51,11.76c11.3,0,13.56,7.8,12.45,15.3H432.32c.45-3.6.68-6.89-2.69-6.89s-5.65,5-8,16C419.14,48,418.92,53.65,423,53.65c3,0,4.52-3.64,5.32-6.89Z" transform="translate(-2.25 -11.76)"/><path class="cls-1" d="M451,12.65h10.61l-4.48,20.82c3.88-6.17,9.8-14.7,13.88-20.82h12.52l-15.29,20,5.29,28.67h-10.9l-3.06-20.51L454.37,47l-3.06,14.31H440.69Z" transform="translate(-2.25 -11.76)"/></g></g></svg>