<svg xmlns="http://www.w3.org/2000/svg" viewBox="0 0 1200.07 94.19"><defs><style>.cls-1{stroke:#000;stroke-miterlimit:10;stroke-width:2px;}</style></defs><title>titre_packs_2</title><g id="Calque_2" data-name="Calque 2"><g id="Packs"><line class="cls-1" y1="93.19" x2="1200.07" y2="93.19"/><path d="M420.73,17.57h15.12L424.13,72.73h21.16L441.54,85.1H406.37Z" transform="translate(0 -16.33)"/><path d="M489.18,56.14H469.24l-3.52,16.74h23.64L485.18,85.1h-37l14.36-67.53h35.77l-2.71,12.26H474.77l-2.92,14.05h19.94Z" transform="translate(0 -16.33)"/><path d="M509,65.34c-.46,4.82.39,9.71,5.29,9.71,3.56,0,5.56-2.29,6.26-6.1.86-4.66-.51-8.18-7.15-13.57-9.53-7.7-13.24-13.38-11.46-23.23,1.61-8.84,7.6-15.82,19.75-15.82,16.75,0,19.88,11.78,18.67,19.9H526.39c.39-3.58.09-8.62-4.81-8.62-3,0-4.77,1.85-5.34,5.31s.47,5.88,7.41,11.33c11.12,8.83,14,15.44,11.67,26.29-2,9.11-8.52,15.79-21.34,15.79-17.11,0-20.92-10.88-19.38-21Z" transform="translate(0 -16.33)"/><path d="M570.3,17.57h17.64c15.58,0,22.1,9.51,19,24.24-3,14-12.32,18.35-24.26,18.35h-6.43L571,85.1h-15Zm8.42,30.89h4.68c5.26,0,7.88-2.69,9.12-9.13C593.85,32.46,592,29,586.64,29h-3.8Z" transform="translate(0 -16.33)"/><path d="M618.4,69.85,612.79,85.1H597.42l27.25-67.53h21.38l-.87,67.53h-15l.56-15.25Zm12.7-12.13c.5-10.47,1.25-22.4,1.69-28.61h-.4c-1.79,6.16-5.56,17.32-9.45,28.61Z" transform="translate(0 -16.33)"/><path d="M694.44,64.94c-2.49,9.47-7.13,21.39-23.34,21.39-16.47,0-21.79-11.34-16.3-36.85,4.66-21.72,12.43-33.15,27.54-33.15,15.69,0,18.83,10.84,17.3,21.25H684.85c.63-5,1-9.56-3.73-9.56s-7.85,6.89-11.06,22.2c-3.51,16.48-3.81,24.29,1.9,24.29,4.17,0,6.27-5.05,7.39-9.57Z" transform="translate(0 -16.33)"/><path d="M710.85,17.57h14.74l-6.22,28.91c5.39-8.56,13.61-20.41,19.28-28.91H756L734.8,45.27l7.35,39.83H727l-4.25-28.48-7.28,8.6L711.23,85.1H696.49Z" transform="translate(0 -16.33)"/><path d="M762.28,65.34c-.46,4.82.39,9.71,5.29,9.71,3.56,0,5.56-2.29,6.26-6.1.86-4.66-.51-8.18-7.15-13.57-9.53-7.7-13.24-13.38-11.46-23.23,1.61-8.84,7.6-15.82,19.75-15.82,16.75,0,19.88,11.78,18.67,19.9H779.72c.39-3.58.09-8.62-4.81-8.62-3,0-4.77,1.85-5.34,5.31S770,38.8,777,44.25c11.12,8.83,14,15.44,11.67,26.29-2,9.11-8.52,15.79-21.34,15.79-17.11,0-20.92-10.88-19.38-21Z" transform="translate(0 -16.33)"/></g></g></svg>