<svg xmlns="http://www.w3.org/2000/svg" viewBox="0 0 87.08 89.65"><title>le voyage_1</title><g id="Calque_2" data-name="Calque 2"><g id="Calque_1-2" data-name="Calque 1"><path d="M13.36,50c0-3.86,0-7.55,0-11.24a5.84,5.84,0,0,1,3.09-5.41,8.72,8.72,0,0,1,3.85-1c12.14-.07,24.28,0,36.43,0a8.55,8.55,0,0,1,1.89.2,5.73,5.73,0,0,1,1.88.69c2.07,1.38,3.47,3.17,3.41,5.88-.07,3.19,0,6.38,0,9.58V50h6.89c.53,0,1.06,0,1.6,0,1.8,0,2.3.63,2.08,2.46-.55,4.6-4.38,7.71-9.09,7.83H63.9V76.6c0,3.82-2,6.27-5.75,7a2.46,2.46,0,0,0-.38.14c-.55,4.13-2.34,6-5.66,5.85-2.59-.1-5.09-1.84-5.1-5.77H30.25A5.74,5.74,0,0,1,28,88.55a4.63,4.63,0,0,1-3.69,1.06c-2.56-.3-5-1.77-5-5.79a14.91,14.91,0,0,1-2.68-.94,6.07,6.07,0,0,1-3.24-5.55c0-5.24,0-10.47,0-15.71V60.46a34.63,34.63,0,0,1-4.24-.6,8.69,8.69,0,0,1-6.59-8C2.48,50.58,3,50,4.28,50c2.6,0,5.19,0,7.78,0ZM60.79,58.1V39.59c0-3-1.25-4.29-4.18-4.29-12.08,0-24.15,0-36.22,0a4,4,0,0,0-4.17,4.19c.1,12.41,0,24.82,0,37.23,0,2.76,1.38,4.13,4.15,4.13q18.12,0,36.22,0c2.87,0,4.15-1.32,4.16-4.21ZM13.31,53H6c.67,3.31,4.49,4.88,7.36,4.12Zm57.76,0H64v4.27C67.87,57.53,70.58,55.89,71.07,53ZM22.58,83.84a2.25,2.25,0,0,0,1,2.55,2.31,2.31,0,0,0,2.51-.08A2.15,2.15,0,0,0,27,83.84Zm31.88,0h-4.4a2.47,2.47,0,0,0,2.28,2.85C53.76,86.71,54.61,85.6,54.46,83.85Z"/><path d="M76,17.51c1.18,1.17,2.13,2.18,3.16,3.09a1.22,1.22,0,0,0,1.15,0c1.89-1,3.28-.31,4.54,1.16.48.57,1.06,1.06,1.57,1.6a1.53,1.53,0,0,1,0,2.51q-2.5,2.47-5.06,4.89a1.68,1.68,0,0,1-2.48-.06q-2.06-1.93-4.08-3.91c-2.37-2.31-4.71-4.64-7.09-6.94q-4.22-4.08-8.46-8.11c-1.93-1.84-3.9-3.62-5.81-5.47-1.19-1.15-1.06-2.13.38-2.89A9.54,9.54,0,0,1,64.88,4.82c.66.61,1.29,1.24,1.89,1.9C67.91,8,69.44,7.85,70.89,8c2,.22,4,.4,5.92.64a2.38,2.38,0,0,1,1.24.52c1.76,1.65,3.5,3.33,5.2,5.05.34.35.75,1.16.6,1.39a2.92,2.92,0,0,1-1.61,1.16c-1.46.29-3,.35-4.44.51C77.31,17.34,76.82,17.41,76,17.51Zm2.66-3.29.15-.29c-.75-.71-1.49-1.43-2.27-2.11a1.38,1.38,0,0,0-.75-.33c-2.71-.31-5.44-.54-8.14-.91a4.42,4.42,0,0,1-2-.92c-1.19-1-2.22-2.1-3.39-3.08a5.74,5.74,0,0,0-5.31-1.15c.34.37.56.64.81.88,1.93,1.82,3.89,3.62,5.82,5.46q4.17,4,8.31,8c2.3,2.23,4.58,4.49,6.88,6.72.47.45,1,.84,1.41,1.19l3.08-3c-1.17-1.48-1.17-1.49-2.88-.92a2.3,2.3,0,0,1-2.65-.39c-2.09-2.09-4.23-4.12-6.34-6.18a1,1,0,0,1,.09-1.69,3.22,3.22,0,0,1,1.32-.6C74.73,14.63,76.7,14.44,78.67,14.22Z"/><path d="M7.2,8.8a10.12,10.12,0,0,1,5-7.23,10.29,10.29,0,0,1,7-1.47,10.43,10.43,0,0,1,9.44,10.17,13.21,13.21,0,0,1,2,.75,5.11,5.11,0,0,1-2,9.5,6.28,6.28,0,0,1-.75,0c-6.92,0-13.85,0-20.77,0a5.74,5.74,0,0,1-5.79-4.46,5.81,5.81,0,0,1,5-7.19Zm10.2,8.87h9.69a4.76,4.76,0,0,0,1.46-.19A2.15,2.15,0,0,0,30,14.64a2.68,2.68,0,0,0-2.56-1.35c-1.49.16-2.24-.59-2.13-2.09a7.1,7.1,0,0,0-4.86-7.77,7.64,7.64,0,0,0-9.92,4.8,10.76,10.76,0,0,0-.33,2.12c-.1,1.3-.74,1.84-2,1.62a8.28,8.28,0,0,0-.84-.16,3.21,3.21,0,0,0-2.92,1.41,2.45,2.45,0,0,0,0,2.93,3.64,3.64,0,0,0,3.21,1.53C10.87,17.66,14.14,17.67,17.4,17.67Z"/><path d="M50.76,23.52c-2.5.14-5.51-2.39-5.39-5.21a5.51,5.51,0,0,1,5.54-5.08,5.36,5.36,0,0,1,5.3,5.17A5.28,5.28,0,0,1,50.76,23.52Zm0-3a2.18,2.18,0,1,0,.08-4.35,2.16,2.16,0,0,0-2.31,2.15A2.12,2.12,0,0,0,50.76,20.55Z"/><path d="M78.28,72.73c.53.46,1,.89,1.48,1.27a1.56,1.56,0,1,1-1.89,2.41c-.52-.48-1-1.06-1.47-1.65-.67.55-1.23,1-1.75,1.44-.88.81-1.68.9-2.33.21s-.5-1.52.33-2.35c.42-.42.9-.8,1.63-1.43a21.26,21.26,0,0,1-1.88-1.57,1.41,1.41,0,0,1,0-2.1,1.38,1.38,0,0,1,2,0l1.86,1.61c.48-.47.95-.93,1.43-1.38a1.69,1.69,0,0,1,2.6,0c.56.74.28,1.64-.67,2.35C79.17,71.84,78.79,72.26,78.28,72.73Z"/><path d="M40.32,3.63a1.61,1.61,0,0,1-1.66,1.69,1.68,1.68,0,0,1-1.82-1.65A1.67,1.67,0,0,1,38.57,2,1.65,1.65,0,0,1,40.32,3.63Z"/><path d="M3.51,34.51A1.7,1.7,0,0,1,1.92,36.2,1.92,1.92,0,0,1,0,34.58a1.85,1.85,0,0,1,1.84-1.69A1.67,1.67,0,0,1,3.51,34.51Z"/><path d="M80.29,37.52a1.8,1.8,0,0,1-1.91,1.6,1.61,1.61,0,0,1-1.56-1.69,1.64,1.64,0,0,1,1.65-1.61A1.74,1.74,0,0,1,80.29,37.52Z"/><path d="M38.64,66.15H23.1c-1.84,0-2.26-.42-2.26-2.26,0-3.59,0-7.17,0-10.76a9,9,0,0,1,8.51-8.95q9.15-.14,18.31,0a8.59,8.59,0,0,1,6.62,3.36,8.34,8.34,0,0,1,1.94,5.71V64.1c0,1.58-.46,2-2,2Zm14.35-3a3.29,3.29,0,0,0,.07-.44c0-3.19,0-6.39,0-9.58a5.75,5.75,0,0,0-6-6.07c-5.68-.08-11.36,0-17,0A6,6,0,0,0,24,53.13c.13,3,0,6.09,0,9.14,0,.28,0,.55.07.87.31,0,.55,0,.79,0q6.18,0,12.36,0c.22,0,.55-.34.66-.6.81-1.81,1.71-3.54,3.58-4.47.48-.24,1-.39,1.57-.61-2.32-1.56-3-3-2.47-5a4.23,4.23,0,0,1,3.93-2.91,3.89,3.89,0,0,1,4.21,2.75,5.38,5.38,0,0,1-.18,3,8.87,8.87,0,0,1-1.81,2.23,7.37,7.37,0,0,1,4.93,5.59Zm-4.72,0c-.08-1.89-2.07-2.87-3.67-2.85a3.44,3.44,0,0,0-3.53,2.85ZM46,53.86l0-.52c-.45-.28-.87-.73-1.35-.79a1,1,0,0,0-1.09,1.14c0,.7.48,1.21,1.17,1.06C45.16,54.65,45.55,54.17,46,53.86Z"/><path d="M53.13,69.13c.71,0,1.42,0,2.13,0,2.05.07,4.85,2.82,3.91,5.41a4.34,4.34,0,0,1-3.5,3.19,23.69,23.69,0,0,1-5.39,0c-1.88-.23-3.29-2.35-3.22-4.37a4.32,4.32,0,0,1,3.53-4.13c.84-.11,1.69-.09,2.54-.13Zm0,6,0-.19a4.7,4.7,0,0,0,1.68,0,2.2,2.2,0,0,0,1.27-1.19,1.64,1.64,0,0,0-.69-1.45,6.49,6.49,0,0,0-4.84.21,1.11,1.11,0,0,0,0,2A14,14,0,0,0,53.12,75.14Z"/><path d="M24.19,78c-.87,0-1.65-.06-2.42-.15a4.35,4.35,0,0,1,.31-8.67c1.31-.06,2.62,0,3.93,0,2.14,0,4.38,2.76,4.21,4.59a5,5,0,0,1-3.69,4.06A21.86,21.86,0,0,1,24.19,78Zm-.14-2.87,0-.14a4.42,4.42,0,0,0,1.67,0c.51-.22,1.14-.74,1.21-1.21s-.47-1.44-.8-1.46a25.76,25.76,0,0,0-4.56.15c-.29,0-.7.73-.7,1.11a1.45,1.45,0,0,0,.71,1.12A14,14,0,0,0,24.05,75.09Z"/><path d="M37.76,41.17c-1.46,0-2.91,0-4.37,0-1.1,0-1.71-.56-1.7-1.48s.62-1.46,1.72-1.47q4.37,0,8.73,0c1.16,0,1.8.6,1.76,1.55s-.65,1.39-1.78,1.41Z"/><path d="M38.43,75c-.71,0-1.42,0-2.13,0a1.42,1.42,0,0,1-1.5-1.47A1.38,1.38,0,0,1,36.22,72c1.52-.06,3.05-.06,4.57,0a1.68,1.68,0,0,1,1.67,1.48A1.74,1.74,0,0,1,40.66,75C39.92,75,39.17,75,38.43,75Z"/></g></g></svg>