<svg xmlns="http://www.w3.org/2000/svg" viewBox="0 0 687.12 50.53"><defs><style>.cls-1{stroke:#000;stroke-miterlimit:10;stroke-width:2px;}</style></defs><title>facts_titre</title><g id="Calque_2" data-name="Calque 2"><g id="_3ème_tableau" data-name="3ème tableau"><path d="M147.26,8.78h18.15l-1.36,6.12h-10.6l-1.51,7.38h9.92l-1.31,6.13h-10l-3,14.14h-7.52Z" transform="translate(0 -8.17)"/><path d="M168.67,34.93l-2.81,7.62h-7.68L171.8,8.78h10.69l-.43,33.77h-7.48l.28-7.62ZM175,28.86c.25-5.24.62-11.2.84-14.3h-.2c-.89,3.07-2.78,8.66-4.72,14.3Z" transform="translate(0 -8.17)"/><path d="M206.69,32.47c-1.25,4.73-3.57,10.7-11.67,10.7s-10.9-5.68-8.15-18.43c2.33-10.86,6.21-16.57,13.77-16.57,7.84,0,9.41,5.42,8.65,10.62H201.9c.31-2.49.47-4.78-1.88-4.78s-3.92,3.45-5.52,11.1c-1.76,8.24-1.91,12.14.95,12.14,2.08,0,3.13-2.52,3.69-4.78Z" transform="translate(0 -8.17)"/><path d="M217.6,14.91h-6.43l1.33-6.13h20.3l-1.32,6.13h-6.34l-5.86,27.64h-7.54Z" transform="translate(0 -8.17)"/><path d="M237.37,32.67c-.23,2.41.2,4.86,2.65,4.86,1.78,0,2.78-1.15,3.13-3.06.43-2.33-.25-4.08-3.58-6.78-4.76-3.85-6.61-6.69-5.72-11.62.8-4.41,3.8-7.9,9.87-7.9,8.37,0,9.94,5.89,9.34,9.94h-7c.2-1.78,0-4.3-2.4-4.3-1.51,0-2.39.92-2.67,2.65s.24,2.94,3.7,5.67c5.57,4.41,7,7.71,5.84,13.14-1,4.56-4.26,7.9-10.67,7.9-8.55,0-10.46-5.44-9.69-10.5Z" transform="translate(0 -8.17)"/><path d="M268.84,32.67c-.23,2.41.2,4.86,2.64,4.86,1.79,0,2.79-1.15,3.13-3.06.44-2.33-.25-4.08-3.57-6.78-4.76-3.85-6.62-6.69-5.73-11.62.81-4.41,3.8-7.9,9.88-7.9,8.37,0,9.94,5.89,9.33,9.94h-7c.2-1.78.05-4.3-2.4-4.3-1.52,0-2.39.92-2.67,2.65s.23,2.94,3.7,5.67c5.56,4.41,7,7.71,5.83,13.14-1,4.56-4.25,7.9-10.66,7.9-8.56,0-10.46-5.44-9.69-10.5Z" transform="translate(0 -8.17)"/><path d="M298.17,8.78l-5,23.54c-.53,2.46-.44,4.93,2.28,4.93s3.39-2.46,3.92-4.93l5-23.54H312l-5,23.35c-1.42,6.75-4.14,11-12.24,11-7.76,0-10.56-4.36-9.09-11.28l4.92-23.09Z" transform="translate(0 -8.17)"/><path d="M320.08,28.51l-2.95,14h-7.49l7.18-33.77h10c7.67,0,10.19,4.6,8.87,10.48-1,4.41-3.61,6-5.91,6.7,2.24,1.19,3.27,3.44,2.32,8.13-.81,4.06-1.32,6.84-1.44,8.46h-7.33a57.4,57.4,0,0,1,1.38-8.89c.78-3.88.18-5.15-2.71-5.15Zm1.24-5.65h1.93c2.62,0,4.22-.63,4.88-3.74.62-2.95-.3-4.7-3.09-4.7h-2Z" transform="translate(0 -8.17)"/><path d="M350.21,8.78h7.56l-5.86,27.59h10.58l-1.87,6.18H343Z" transform="translate(0 -8.17)"/><path d="M373.76,34.93,371,42.55h-7.68L376.89,8.78h10.69l-.43,33.77h-7.48l.28-7.62Zm6.35-6.07c.25-5.24.62-11.2.84-14.3h-.2c-.89,3.07-2.78,8.66-4.72,14.3Z" transform="translate(0 -8.17)"/><path d="M406.15,32.67c-.23,2.41.2,4.86,2.65,4.86,1.78,0,2.78-1.15,3.13-3.06.43-2.33-.26-4.08-3.58-6.78-4.76-3.85-6.61-6.69-5.72-11.62.8-4.41,3.8-7.9,9.87-7.9,8.37,0,9.94,5.89,9.33,9.94h-7c.2-1.78.05-4.3-2.4-4.3-1.51,0-2.39.92-2.67,2.65s.24,2.94,3.7,5.67c5.57,4.41,7,7.71,5.84,13.14-1,4.56-4.26,7.9-10.67,7.9-8.55,0-10.46-5.44-9.69-10.5Z" transform="translate(0 -8.17)"/><path d="M430.15,14.91h-6.42l1.32-6.13h20.31L444,14.91h-6.34l-5.85,27.64h-7.55Z" transform="translate(0 -8.17)"/><path d="M447.34,34.93l-2.81,7.62h-7.67L450.48,8.78h10.69l-.44,33.77h-7.48l.28-7.62Zm6.35-6.07c.25-5.24.63-11.2.85-14.3h-.2c-.9,3.07-2.79,8.66-4.73,14.3Z" transform="translate(0 -8.17)"/><path d="M470.57,14.91h-6.42l1.32-6.13h20.31l-1.33,6.13h-6.34l-5.86,27.64h-7.54Z" transform="translate(0 -8.17)"/><path d="M496.42,8.78l-7.18,33.77h-7.56l7.18-33.77Z" transform="translate(0 -8.17)"/><path d="M519,26.74c-2.75,12.71-7.18,16.43-13.62,16.43-8,0-11.05-5.6-8.14-19,2.56-11.77,7.21-16,13.43-16C518.27,8.17,522,12.9,519,26.74ZM504.86,25c-1.83,8.48-1.83,12.27,1,12.27,2.24,0,3.56-2.11,5.55-11.16,1.84-8.28,2.08-11.92-1-11.92C508.05,14.14,506.58,17,504.86,25Z" transform="translate(0 -8.17)"/><path d="M519.89,42.55l7.18-33.77h8.36C537,23.91,537.51,29,537.58,30.65h.14c.59-4.25,1.77-10.81,2.83-15.73l1.31-6.14h6.83l-7.18,33.77h-8.23c-1.28-15.71-1.83-21.47-2-23.22h-.16c-.61,4.06-1.85,11.12-3,16.65l-1.41,6.57Z" transform="translate(0 -8.17)"/><line class="cls-1" y1="49.53" x2="687.12" y2="49.53"/></g></g></svg>