<svg xmlns="http://www.w3.org/2000/svg" viewBox="0 0 1202.96 336.17"><defs><style>.cls-1{fill:gray;}</style></defs><title>facts_station2</title><g id="Calque_2" data-name="Calque 2"><g id="Station"><path d="M7.09,197.16c1.46-5.58,4.2-11.62,13.58-11.62,9.15,0,12.52,6,11,14.45-.92,5.13-4.18,7.9-7,8.75l0,.14c3.52,1.78,5.73,6.17,4.42,13.36-1.51,8.22-6.14,13.43-15.37,13.43-10.82,0-12.45-7.13-12.09-12.76h9.57c-.09,1.89.17,5.08,3.07,5.08,2.62,0,4-1.91,4.84-7,1-5.87-.22-8.1-4.69-8.1h-2l1.62-8.42h2.26c3.14,0,4.62-1.14,5.45-5.22.74-3.67.63-6.07-1.88-6.07-2.11,0-2.93,1.73-3.62,4Z"/><path d="M63.19,186.32l-1.62,8c-8.22,10.94-15.29,27.13-19,40.77H31.38c4.27-15,12.5-30.74,19.56-39.88H35.73l1.8-8.84Z"/><path d="M31.82.78l-1.63,8C22,19.67,14.9,35.86,11.18,49.5H0c4.28-15,12.5-30.74,19.56-39.88H4.36L6.16.78Z"/><path d="M38.65,38.39c0,1.6.11,4,2.56,4,3.51,0,4.85-6.2,6.5-13.58a7.94,7.94,0,0,1-6.51,2.82c-7.28,0-10.22-6.6-8.32-16.54,1.82-9.49,6.9-15,14.9-15,10.74,0,14,7.66,10.6,25-3.29,16.6-6.5,25.14-18,25.14-10.92,0-11.51-8.47-11.34-11.79Zm4.17-23.13c-1,5.46-.56,8.36,2.36,8.36s3.93-2.5,4.68-6.41C50.85,12.06,51,8,47.61,8,45.46,8,43.9,9.77,42.82,15.26Z"/><path d="M340.66,49.5l7.64-38.17A34,34,0,0,1,344,11l1.53-7.25A11.77,11.77,0,0,0,353.33.51h7.14l-9.68,49Z"/><path d="M359.83,33.7c1.08-5.49,4.25-9.08,8.16-10.65-2.44-1.85-4-5.31-2.86-11.35C366.63,3.85,371.34,0,378.77,0c9.38,0,12.79,6.29,11.18,15-1.13,6.05-4.23,8-6.37,8.93,2.45,1.67,4.8,6,3.57,12.69-1.75,9.54-7,13.56-15.24,13.56C361.18,50.13,358,42.68,359.83,33.7Zm17.45,1.84c1.1-5.7.06-7.85-2.89-7.85-2.57,0-3.93,2.26-4.81,6.73-1,5.2-.27,8.06,2.78,8.06C375.11,42.48,376.4,40.11,377.28,35.54Zm-3-22.46c-.75,3.79-.56,6.61,2.25,6.61,2.08,0,3.3-1.67,4.08-5.48s.65-6.45-2.32-6.45C376.06,7.76,374.94,9.77,374.29,13.08Z"/><path d="M391.76,33.7c1.09-5.49,4.26-9.08,8.17-10.65-2.44-1.85-4-5.31-2.86-11.35C398.57,3.85,403.28,0,410.71,0c9.38,0,12.79,6.29,11.18,15-1.13,6.05-4.23,8-6.37,8.93,2.45,1.67,4.8,6,3.57,12.69-1.75,9.54-7,13.56-15.24,13.56C393.12,50.13,390,42.68,391.76,33.7Zm17.46,1.84c1.1-5.7.06-7.85-2.89-7.85-2.57,0-3.93,2.26-4.81,6.73-1,5.2-.27,8.06,2.78,8.06C407.05,42.48,408.34,40.11,409.22,35.54Zm-3-22.46c-.75,3.79-.56,6.61,2.25,6.61,2.07,0,3.3-1.67,4.08-5.48s.65-6.45-2.32-6.45C408,7.76,406.88,9.77,406.23,13.08Z"/><path d="M453.63,25c-3.8,19.46-8.32,25.15-17.62,25.15-10.76,0-13.57-8.2-9.89-26.74C429.44,6.85,434.63.05,443.24.05,453.56.05,456.92,8.08,453.63,25Zm-17.78-.78c-2.85,15-2,17.94,1,17.94,2.78,0,4.27-3.5,7-17.82,2.67-14,2-16.33-1.11-16.33C440.09,8,438.25,11.58,435.85,24.25Z"/><path d="M350.2,223.93c0,1.6.11,4,2.55,4,3.51,0,4.85-6.2,6.51-13.58a8,8,0,0,1-6.52,2.82c-7.28,0-10.22-6.61-8.32-16.54,1.82-9.49,6.9-15,14.91-15,10.73,0,14,7.66,10.59,25-3.29,16.6-6.5,25.14-18,25.14-10.92,0-11.51-8.47-11.34-11.79Zm4.16-23.13c-1.05,5.46-.56,8.36,2.37,8.36s3.93-2.5,4.67-6.41c1-5.15,1.12-9.2-2.25-9.2C357,193.55,355.44,195.31,354.36,200.8Z"/><path d="M402.74,210.57c-3.79,19.46-8.31,25.15-17.61,25.15-10.77,0-13.57-8.2-9.89-26.74,3.32-16.59,8.51-23.39,17.12-23.39C402.67,185.59,406,193.62,402.74,210.57ZM385,209.79c-2.85,15-2,17.94,1,17.94,2.79,0,4.27-3.5,7-17.82,2.67-14,2-16.33-1.11-16.33C389.21,193.58,387.37,197.12,385,209.79Z"/><path d="M435.55,210.57c-3.8,19.46-8.31,25.15-17.61,25.15-10.77,0-13.57-8.2-9.89-26.74,3.31-16.59,8.5-23.39,17.12-23.39C435.48,185.59,438.84,193.62,435.55,210.57Zm-17.78-.78c-2.84,15-2,17.94,1,17.94,2.79,0,4.27-3.5,7-17.82,2.67-14,2-16.33-1.11-16.33C422,193.58,420.18,197.12,417.77,209.79Z"/><path class="cls-1" d="M18.75,85.71H22.4v1.76a8.86,8.86,0,0,1,1.39-1.41,3.27,3.27,0,0,1,2.07-.57A3.28,3.28,0,0,1,29,87.32a5.48,5.48,0,0,1,.47,1.61,19.05,19.05,0,0,1,.14,2.56v7.39c0,1.4,0,2.44-.11,3.1a4.21,4.21,0,0,1-.46,1.61,4,4,0,0,1-1.2,1.26,3.63,3.63,0,0,1-2.05.5,3.57,3.57,0,0,1-1.91-.52,4.63,4.63,0,0,1-1.45-1.47H22.4V113H18.75ZM26,92a3.78,3.78,0,0,0-.42-1.91,1.46,1.46,0,0,0-1.36-.73,1.55,1.55,0,0,0-1.32.67,2.77,2.77,0,0,0-.5,1.74v7.54a2.2,2.2,0,0,0,.52,1.51,1.63,1.63,0,0,0,1.3.59,1.46,1.46,0,0,0,1.41-.69,3.29,3.29,0,0,0,.37-1.6Z"/><path class="cls-1" d="M32.65,77.87h3.64v3.9H32.65Zm0,7.84h3.64v19.41H32.65Z"/><path class="cls-1" d="M45.9,91.15a2,2,0,0,0-.59-1.49,1.85,1.85,0,0,0-1.27-.5,1.59,1.59,0,0,0-1.32.59,2.15,2.15,0,0,0-.46,1.36,2.32,2.32,0,0,0,.25,1,2.27,2.27,0,0,0,1.28.94l2.15.92a5.31,5.31,0,0,1,2.8,2.29,6.73,6.73,0,0,1,.77,3.18,6.28,6.28,0,0,1-.41,2.28A6.09,6.09,0,0,1,48,103.62a5.13,5.13,0,0,1-1.71,1.27,5.29,5.29,0,0,1-2.18.46,5.4,5.4,0,0,1-2-.39,4.78,4.78,0,0,1-1.69-1.11,5.61,5.61,0,0,1-1.2-1.81,6.85,6.85,0,0,1-.5-2.55h3.43A3.74,3.74,0,0,0,42.6,101a1.53,1.53,0,0,0,1.44.69,2,2,0,0,0,1.41-.55,2,2,0,0,0,.63-1.55,2.38,2.38,0,0,0-.39-1.38,3.15,3.15,0,0,0-1.43-1l-1.75-.69a6,6,0,0,1-2.7-2.05,5.54,5.54,0,0,1-1-3.31,5.9,5.9,0,0,1,.43-2.28,5.42,5.42,0,0,1,1.16-1.8,5.48,5.48,0,0,1,1.69-1.16,5.19,5.19,0,0,1,2.08-.42,4.86,4.86,0,0,1,2.05.43,5.08,5.08,0,0,1,1.62,1.19,5.57,5.57,0,0,1,1.08,1.8,6.39,6.39,0,0,1,.39,2.24Z"/><path class="cls-1" d="M51.86,79.82h3.65v5.89h2.25v3.07H55.51V99.53a3.7,3.7,0,0,0,.12,1.07,1.07,1.07,0,0,0,.4.57,1.29,1.29,0,0,0,.69.23,10.37,10.37,0,0,0,1,0v3.68h-1.5a4.63,4.63,0,0,1-2.09-.42,3.72,3.72,0,0,1-1.34-1.08,4.22,4.22,0,0,1-.73-1.47,5.69,5.69,0,0,1-.24-1.59V88.78H50V85.71h1.82Z"/><path class="cls-1" d="M62.47,96.89v2.64A2,2,0,0,0,63,101a1.72,1.72,0,0,0,1.3.49,1.38,1.38,0,0,0,1.37-.65,3.45,3.45,0,0,0,.41-1.3h3.65a6.94,6.94,0,0,1-.38,2.3,5.43,5.43,0,0,1-2.8,3.1,5.45,5.45,0,0,1-2.25.46,5.28,5.28,0,0,1-2.89-.77,5.12,5.12,0,0,1-1.86-2,5.68,5.68,0,0,1-.54-1.76,16.2,16.2,0,0,1-.14-2.18V92.22A16.2,16.2,0,0,1,59,90a5.76,5.76,0,0,1,.54-1.76,5.12,5.12,0,0,1,1.86-2,5.28,5.28,0,0,1,2.89-.76,5.58,5.58,0,0,1,2.27.45,4.78,4.78,0,0,1,1.71,1.29,5.76,5.76,0,0,1,1.07,1.93,7.36,7.36,0,0,1,.38,2.37v5.36Zm0-3.06H66V91.61a2.5,2.5,0,0,0-.48-1.67,1.81,1.81,0,0,0-2.6,0,2.45,2.45,0,0,0-.49,1.67Z"/><path class="cls-1" d="M79,91.15a2,2,0,0,0-.59-1.49,1.83,1.83,0,0,0-1.26-.5,1.61,1.61,0,0,0-1.33.59,2.21,2.21,0,0,0-.46,1.36,1.94,1.94,0,0,0,1.54,2L79,94a5.27,5.27,0,0,1,2.8,2.29,6.62,6.62,0,0,1,.77,3.18,6.28,6.28,0,0,1-.41,2.28,6.06,6.06,0,0,1-1.12,1.85,5.14,5.14,0,0,1-3.9,1.73,5.35,5.35,0,0,1-2-.39,4.82,4.82,0,0,1-1.7-1.11,5.61,5.61,0,0,1-1.2-1.81,7.05,7.05,0,0,1-.5-2.55h3.43a3.9,3.9,0,0,0,.52,1.49,1.55,1.55,0,0,0,1.45.69,2.07,2.07,0,0,0,1.41-.55,2,2,0,0,0,.62-1.55,2.38,2.38,0,0,0-.39-1.38,3.1,3.1,0,0,0-1.43-1l-1.75-.69a6.1,6.1,0,0,1-2.7-2.05,5.54,5.54,0,0,1-1-3.31,5.9,5.9,0,0,1,.43-2.28,5.58,5.58,0,0,1,1.16-1.8,5.4,5.4,0,0,1,1.7-1.16,5.11,5.11,0,0,1,2.07-.42,4.83,4.83,0,0,1,2,.43,5.12,5.12,0,0,1,1.63,1.19A5.55,5.55,0,0,1,82,88.91a6.39,6.39,0,0,1,.39,2.24Z"/><path class="cls-1" d="M20.48,263h3.65v2.07a10.56,10.56,0,0,1,2.18-1.68,5.21,5.21,0,0,1,2.64-.62v4.14a2.69,2.69,0,0,0-1.11-.23,4.07,4.07,0,0,0-1.23.21,3.34,3.34,0,0,0-1.22.7,4,4,0,0,0-.91,1.31,5,5,0,0,0-.35,2V282.4H20.48Z"/><path class="cls-1" d="M33.74,274.18v2.64a1.94,1.94,0,0,0,.48,1.41,1.69,1.69,0,0,0,1.3.5,1.42,1.42,0,0,0,1.38-.65,3.85,3.85,0,0,0,.41-1.3H41a6.93,6.93,0,0,1-.37,2.3,5.24,5.24,0,0,1-1.09,1.83,5,5,0,0,1-1.72,1.26,5.81,5.81,0,0,1-5.14-.3,5.12,5.12,0,0,1-1.86-2,5.76,5.76,0,0,1-.54-1.76,16.2,16.2,0,0,1-.14-2.18v-6.39a16.2,16.2,0,0,1,.14-2.18,5.68,5.68,0,0,1,.54-1.76,5.05,5.05,0,0,1,1.86-2,5.31,5.31,0,0,1,2.89-.77,5.58,5.58,0,0,1,2.27.46,4.87,4.87,0,0,1,1.71,1.28,5.82,5.82,0,0,1,1.08,1.94,7.35,7.35,0,0,1,.37,2.37v5.36Zm0-3.06h3.57V268.9a2.5,2.5,0,0,0-.48-1.67,1.66,1.66,0,0,0-1.31-.55,1.62,1.62,0,0,0-1.3.55,2.5,2.5,0,0,0-.48,1.67Z"/><path class="cls-1" d="M43.63,263h3.64v1.88h.07a5.28,5.28,0,0,1,1.38-1.51,3.32,3.32,0,0,1,2.05-.6,3.11,3.11,0,0,1,2,.62A5.93,5.93,0,0,1,54,264.72a8.38,8.38,0,0,1,1.5-1.37,3.9,3.9,0,0,1,2.29-.58,4.35,4.35,0,0,1,1.39.25,3.42,3.42,0,0,1,1.29.82,4.46,4.46,0,0,1,.93,1.48,5.94,5.94,0,0,1,.35,2.2V282.4H58.13V269a2.72,2.72,0,0,0-.46-1.68,1.56,1.56,0,0,0-1.33-.61,1.48,1.48,0,0,0-1.42.69,4,4,0,0,0-.4,2v13H50.88V269a2.79,2.79,0,0,0-.46-1.68,1.56,1.56,0,0,0-1.33-.61,1.48,1.48,0,0,0-1.42.69,4,4,0,0,0-.4,2v13H43.63Z"/><path class="cls-1" d="M64.45,269.51a14.64,14.64,0,0,1,.15-2.18,5.42,5.42,0,0,1,.53-1.76,5.05,5.05,0,0,1,1.86-2,5.83,5.83,0,0,1,5.79,0,5.1,5.1,0,0,1,1.85,2,5.68,5.68,0,0,1,.54,1.76,16.2,16.2,0,0,1,.14,2.18v6.39a16.2,16.2,0,0,1-.14,2.18,5.76,5.76,0,0,1-.54,1.76,5.16,5.16,0,0,1-1.85,2,5.89,5.89,0,0,1-5.79,0,5.12,5.12,0,0,1-1.86-2,5.5,5.5,0,0,1-.53-1.76,14.64,14.64,0,0,1-.15-2.18Zm3.65,7a2.5,2.5,0,0,0,.48,1.67,1.62,1.62,0,0,0,1.3.55,1.66,1.66,0,0,0,1.31-.55,2.5,2.5,0,0,0,.48-1.67V268.9a2.5,2.5,0,0,0-.48-1.67,1.66,1.66,0,0,0-1.31-.55,1.62,1.62,0,0,0-1.3.55,2.5,2.5,0,0,0-.48,1.67Z"/><path class="cls-1" d="M78,263h3.64v1.88h.08a5.25,5.25,0,0,1,1.37-1.51,3.34,3.34,0,0,1,2-.6,4,4,0,0,1,1.36.25,3.25,3.25,0,0,1,1.22.82,4.33,4.33,0,0,1,.85,1.48,6.43,6.43,0,0,1,.32,2.2V282.4H85.24V269a2.72,2.72,0,0,0-.46-1.68,1.55,1.55,0,0,0-1.32-.61,1.49,1.49,0,0,0-1.43.69,4,4,0,0,0-.4,2v13H78Z"/><path class="cls-1" d="M91.88,257.11h3.65V263h2.25v3.06H95.53v10.76a3.75,3.75,0,0,0,.12,1.07,1.16,1.16,0,0,0,.4.57,1.29,1.29,0,0,0,.69.23,10.37,10.37,0,0,0,1,0v3.67h-1.5a4.63,4.63,0,0,1-2.09-.42,3.7,3.7,0,0,1-1.34-1.07,4.22,4.22,0,0,1-.73-1.47,5.69,5.69,0,0,1-.24-1.59V266.06H90.06V263h1.82Z"/><path class="cls-1" d="M102.49,274.18v2.64a1.91,1.91,0,0,0,.49,1.41,1.69,1.69,0,0,0,1.3.5,1.39,1.39,0,0,0,1.37-.65,3.45,3.45,0,0,0,.41-1.3h3.65a6.94,6.94,0,0,1-.38,2.3,5.1,5.1,0,0,1-1.09,1.83,4.88,4.88,0,0,1-1.71,1.26,5.81,5.81,0,0,1-5.14-.3,5.12,5.12,0,0,1-1.86-2,5.76,5.76,0,0,1-.54-1.76,16.2,16.2,0,0,1-.14-2.18v-6.39a16.2,16.2,0,0,1,.14-2.18,5.68,5.68,0,0,1,.54-1.76,5.05,5.05,0,0,1,1.86-2,5.31,5.31,0,0,1,2.89-.77,5.58,5.58,0,0,1,2.27.46,4.87,4.87,0,0,1,1.71,1.28,5.8,5.8,0,0,1,1.07,1.94,7.36,7.36,0,0,1,.38,2.37v5.36ZM105.17,255H109l-4.72,5.4H102Zm-2.68,16.08h3.57V268.9a2.5,2.5,0,0,0-.48-1.67,1.81,1.81,0,0,0-2.6,0,2.45,2.45,0,0,0-.49,1.67Z"/><path class="cls-1" d="M115.71,274.18v2.64a1.94,1.94,0,0,0,.48,1.41,1.71,1.71,0,0,0,1.31.5,1.4,1.4,0,0,0,1.37-.65,3.64,3.64,0,0,0,.41-1.3h3.64a6.93,6.93,0,0,1-.37,2.3,5.37,5.37,0,0,1-2.8,3.09,5.83,5.83,0,0,1-5.15-.3,5.12,5.12,0,0,1-1.86-2,5.5,5.5,0,0,1-.53-1.76,14.71,14.71,0,0,1-.14-2.18v-6.39a14.71,14.71,0,0,1,.14-2.18,5.42,5.42,0,0,1,.53-1.76,5.05,5.05,0,0,1,1.86-2,5.34,5.34,0,0,1,2.9-.77,5.53,5.53,0,0,1,2.26.46,5,5,0,0,1,1.72,1.28,6,6,0,0,1,1.07,1.94,7.35,7.35,0,0,1,.37,2.37v5.36Zm0-3.06h3.57V268.9a2.5,2.5,0,0,0-.48-1.67,1.82,1.82,0,0,0-2.61,0,2.5,2.5,0,0,0-.48,1.67Z"/><path class="cls-1" d="M132.21,268.44a2,2,0,0,0-.59-1.5,1.84,1.84,0,0,0-1.27-.49A1.57,1.57,0,0,0,129,267a2.15,2.15,0,0,0-.46,1.36,1.94,1.94,0,0,0,1.53,2l2.15.92a5.26,5.26,0,0,1,2.8,2.29,6.73,6.73,0,0,1,.77,3.18,6.32,6.32,0,0,1-.41,2.28,6.09,6.09,0,0,1-1.13,1.85,5,5,0,0,1-1.71,1.26,5.14,5.14,0,0,1-2.18.46,5.4,5.4,0,0,1-2-.38,4.78,4.78,0,0,1-1.69-1.11,5.55,5.55,0,0,1-1.2-1.82,6.75,6.75,0,0,1-.5-2.54h3.43a3.79,3.79,0,0,0,.52,1.49,1.53,1.53,0,0,0,1.44.69,2,2,0,0,0,1.41-.55,2,2,0,0,0,.63-1.55,2.38,2.38,0,0,0-.39-1.38,3.16,3.16,0,0,0-1.43-1l-1.75-.69a6,6,0,0,1-2.7-2,5.54,5.54,0,0,1-1-3.31,5.9,5.9,0,0,1,.43-2.28,5.42,5.42,0,0,1,1.16-1.8,5.51,5.51,0,0,1,1.69-1.17,5.19,5.19,0,0,1,2.08-.42,4.87,4.87,0,0,1,2.05.44,5.08,5.08,0,0,1,1.62,1.19,5.57,5.57,0,0,1,1.08,1.8,6.39,6.39,0,0,1,.39,2.24Z"/><path class="cls-1" d="M20.48,308.92h3.65v1.88h.07a5.4,5.4,0,0,1,1.37-1.51,3.36,3.36,0,0,1,2.06-.6,3.08,3.08,0,0,1,2,.62,5.82,5.82,0,0,1,1.29,1.34,7.5,7.5,0,0,1,1.5-1.38,4,4,0,0,1,2.28-.58,4.4,4.4,0,0,1,1.4.25,3.36,3.36,0,0,1,1.28.83,4.31,4.31,0,0,1,.93,1.47,5.93,5.93,0,0,1,.36,2.2v14.89H35V314.89a2.73,2.73,0,0,0-.47-1.68,1.55,1.55,0,0,0-1.32-.61,1.5,1.5,0,0,0-1.43.69,4.1,4.1,0,0,0-.39,2v13.05H27.73V314.89a2.72,2.72,0,0,0-.46-1.68A1.55,1.55,0,0,0,26,312.6a1.5,1.5,0,0,0-1.43.69,4.1,4.1,0,0,0-.39,2v13.05H20.48Z"/><path class="cls-1" d="M45,320.1v2.64a1.94,1.94,0,0,0,.48,1.41,1.71,1.71,0,0,0,1.31.5,1.38,1.38,0,0,0,1.37-.65,3.64,3.64,0,0,0,.41-1.3h3.65a6.94,6.94,0,0,1-.38,2.3,5.1,5.1,0,0,1-1.09,1.83A5.23,5.23,0,0,1,49,328.1a5.45,5.45,0,0,1-2.25.45,5.34,5.34,0,0,1-2.9-.76,5.09,5.09,0,0,1-1.85-2,5.19,5.19,0,0,1-.54-1.76,16.2,16.2,0,0,1-.14-2.18v-6.39a16.2,16.2,0,0,1,.14-2.18,5.19,5.19,0,0,1,.54-1.76,5.09,5.09,0,0,1,1.85-2,5.34,5.34,0,0,1,2.9-.77,5.5,5.5,0,0,1,2.26.46,4.9,4.9,0,0,1,1.72,1.29,5.83,5.83,0,0,1,1.07,1.93,7.36,7.36,0,0,1,.38,2.37v5.36ZM47.63,301h3.86l-4.72,5.4H44.42ZM45,317h3.57v-2.22a2.5,2.5,0,0,0-.48-1.67,1.82,1.82,0,0,0-2.61,0,2.5,2.5,0,0,0-.48,1.67Z"/><path class="cls-1" d="M58.7,322.74a1.94,1.94,0,0,0,.48,1.41,1.73,1.73,0,0,0,1.31.5,1.38,1.38,0,0,0,1.37-.65,3.45,3.45,0,0,0,.41-1.3h3.65a6.94,6.94,0,0,1-.38,2.3,5.1,5.1,0,0,1-1.09,1.83,5,5,0,0,1-1.71,1.27,5.45,5.45,0,0,1-2.25.45,5.28,5.28,0,0,1-2.89-.76,5.12,5.12,0,0,1-1.86-2A5.68,5.68,0,0,1,55.2,324a16.2,16.2,0,0,1-.14-2.18v-6.39a16.2,16.2,0,0,1,.14-2.18,5.68,5.68,0,0,1,.54-1.76,5.12,5.12,0,0,1,1.86-2,5.28,5.28,0,0,1,2.89-.77,5.58,5.58,0,0,1,2.27.46,4.78,4.78,0,0,1,1.71,1.29,5.58,5.58,0,0,1,1.07,2,7.91,7.91,0,0,1,.38,2.48H62.27a2.62,2.62,0,0,0-.48-1.74,1.62,1.62,0,0,0-1.3-.55,1.66,1.66,0,0,0-1.31.55,2.5,2.5,0,0,0-.48,1.67Z"/><path class="cls-1" d="M75,326.33h-.07A6.91,6.91,0,0,1,73.44,328a3.3,3.3,0,0,1-2.06.57,4.43,4.43,0,0,1-1.32-.21,3.31,3.31,0,0,1-1.27-.76,4,4,0,0,1-1-1.57,7.68,7.68,0,0,1-.38-2.62,15.32,15.32,0,0,1,.25-2.89,4.79,4.79,0,0,1,.91-2.07,3.92,3.92,0,0,1,1.77-1.22,8.35,8.35,0,0,1,2.82-.4c.27,0,.53,0,.79,0s.58.06,1,.08v-2a3.14,3.14,0,0,0-.39-1.64,1.52,1.52,0,0,0-1.43-.65,2,2,0,0,0-1.3.49,2.46,2.46,0,0,0-.77,1.46H67.53a6.55,6.55,0,0,1,1.64-4.21,5.25,5.25,0,0,1,1.71-1.21,5.61,5.61,0,0,1,2.25-.44,5.9,5.9,0,0,1,2.15.39A4.66,4.66,0,0,1,77,310.22a5.63,5.63,0,0,1,1.16,1.92,7.53,7.53,0,0,1,.43,2.68v13.51H75ZM75,320a6,6,0,0,0-1-.11,3.43,3.43,0,0,0-2,.59,2.48,2.48,0,0,0-.84,2.16,3,3,0,0,0,.5,1.8,1.61,1.61,0,0,0,1.39.69,1.77,1.77,0,0,0,1.45-.65,2.92,2.92,0,0,0,.51-1.84Z"/><path class="cls-1" d="M81.28,308.92h3.64v1.88H85a5.28,5.28,0,0,1,1.38-1.51,3.32,3.32,0,0,1,2-.6,4.08,4.08,0,0,1,1.36.25,3.13,3.13,0,0,1,1.21.83,4.2,4.2,0,0,1,.86,1.47,6.68,6.68,0,0,1,.32,2.2v14.89H88.53V314.89a2.73,2.73,0,0,0-.47-1.68,1.55,1.55,0,0,0-1.32-.61,1.5,1.5,0,0,0-1.43.69,4.1,4.1,0,0,0-.39,2v13.05H81.28Z"/><path class="cls-1" d="M95.17,301.08h3.64V305H95.17Zm0,7.84h3.64v19.41H95.17Z"/><path class="cls-1" d="M109.07,326.56H109a4.54,4.54,0,0,1-1.44,1.48,4.18,4.18,0,0,1-4,0,4,4,0,0,1-1.19-1.27,3.93,3.93,0,0,1-.47-1.6c-.07-.67-.11-1.7-.11-3.1V314.7a17.29,17.29,0,0,1,.15-2.56,5.4,5.4,0,0,1,.46-1.61,3.28,3.28,0,0,1,3.18-1.84,4.11,4.11,0,0,1,1.18.16,3.18,3.18,0,0,1,.89.42,4.28,4.28,0,0,1,.72.63l.68.78v-1.76h3.64v27.25h-3.64Zm-3.61-4.2a3.29,3.29,0,0,0,.37,1.6,1.46,1.46,0,0,0,1.41.69,1.68,1.68,0,0,0,1.31-.59,2.25,2.25,0,0,0,.52-1.51V315a2.83,2.83,0,0,0-.5-1.74,1.58,1.58,0,0,0-1.33-.67,1.45,1.45,0,0,0-1.35.72,3.74,3.74,0,0,0-.43,1.92Z"/><path class="cls-1" d="M126.6,328.33H123v-1.88h-.07a5.28,5.28,0,0,1-1.38,1.51,3.32,3.32,0,0,1-2.05.59,4.06,4.06,0,0,1-1.36-.24,3.13,3.13,0,0,1-1.21-.83A4.2,4.2,0,0,1,116,326a6.68,6.68,0,0,1-.32-2.2V308.92h3.64v13.44a2.73,2.73,0,0,0,.47,1.68,1.55,1.55,0,0,0,1.32.61,1.51,1.51,0,0,0,1.43-.69,4.1,4.1,0,0,0,.39-2V308.92h3.64Z"/><path class="cls-1" d="M132.93,320.1v2.64a1.94,1.94,0,0,0,.48,1.41,1.69,1.69,0,0,0,1.3.5,1.4,1.4,0,0,0,1.38-.65,3.85,3.85,0,0,0,.41-1.3h3.64a6.93,6.93,0,0,1-.37,2.3,5.24,5.24,0,0,1-1.09,1.83A5.17,5.17,0,0,1,137,328.1a5.45,5.45,0,0,1-2.25.45,5.3,5.3,0,0,1-2.89-.76,5.12,5.12,0,0,1-1.86-2,5.68,5.68,0,0,1-.54-1.76,16.2,16.2,0,0,1-.14-2.18v-6.39a16.2,16.2,0,0,1,.14-2.18,5.68,5.68,0,0,1,.54-1.76,5.12,5.12,0,0,1,1.86-2,5.31,5.31,0,0,1,2.89-.77,5.58,5.58,0,0,1,2.27.46,4.78,4.78,0,0,1,1.71,1.29,5.68,5.68,0,0,1,1.08,1.93,7.35,7.35,0,0,1,.37,2.37v5.36Zm0-3.06h3.57v-2.22a2.5,2.5,0,0,0-.48-1.67,1.66,1.66,0,0,0-1.31-.55,1.62,1.62,0,0,0-1.3.55,2.5,2.5,0,0,0-.48,1.67Z"/><path class="cls-1" d="M149.43,314.36a2,2,0,0,0-.59-1.49,1.81,1.81,0,0,0-1.27-.5,1.59,1.59,0,0,0-1.32.59,2.16,2.16,0,0,0-.47,1.36,2.45,2.45,0,0,0,.25,1.05,2.34,2.34,0,0,0,1.29.94l2.14.92a5.29,5.29,0,0,1,2.81,2.29,6.73,6.73,0,0,1,.77,3.18,6.08,6.08,0,0,1-.42,2.28,5.87,5.87,0,0,1-1.12,1.85,5,5,0,0,1-3.89,1.72,5.36,5.36,0,0,1-2-.38,4.91,4.91,0,0,1-1.7-1.11,5.59,5.59,0,0,1-1.19-1.81,6.85,6.85,0,0,1-.5-2.55h3.43a3.88,3.88,0,0,0,.51,1.49,1.56,1.56,0,0,0,1.45.69,2.07,2.07,0,0,0,1.41-.55,2,2,0,0,0,.63-1.55,2.39,2.39,0,0,0-.4-1.38,3.1,3.1,0,0,0-1.43-1l-1.75-.69a5.92,5.92,0,0,1-2.69-2,5.47,5.47,0,0,1-1-3.31,6.08,6.08,0,0,1,.42-2.28,5.75,5.75,0,0,1,1.16-1.8,5.35,5.35,0,0,1,1.7-1.16,5,5,0,0,1,2.07-.43,4.88,4.88,0,0,1,2.06.44,5.08,5.08,0,0,1,1.62,1.19,5.55,5.55,0,0,1,1.07,1.8,6.18,6.18,0,0,1,.4,2.24Z"/><path class="cls-1" d="M372.14,85.71h3.64v1.88h.07a5.28,5.28,0,0,1,1.38-1.51,3.32,3.32,0,0,1,2-.59,3.11,3.11,0,0,1,2,.61,6,6,0,0,1,1.28,1.34,7.5,7.5,0,0,1,1.5-1.38,4,4,0,0,1,2.29-.57,4.37,4.37,0,0,1,1.39.24,3.32,3.32,0,0,1,1.29.83,4.31,4.31,0,0,1,.93,1.47,6.15,6.15,0,0,1,.35,2.2v14.89h-3.64V91.68a2.79,2.79,0,0,0-.46-1.68,1.57,1.57,0,0,0-1.33-.61,1.51,1.51,0,0,0-1.43.69,4.1,4.1,0,0,0-.39,2v13.05h-3.64V91.68a2.73,2.73,0,0,0-.47-1.68,1.55,1.55,0,0,0-1.32-.61,1.51,1.51,0,0,0-1.43.69,4.1,4.1,0,0,0-.39,2v13.05h-3.64Z"/><path class="cls-1" d="M407.18,103.36l-.68.78a3.86,3.86,0,0,1-.71.63,3.38,3.38,0,0,1-.9.42,4.06,4.06,0,0,1-1.18.16,3.28,3.28,0,0,1-3.18-1.84,5.71,5.71,0,0,1-.46-1.61,17.52,17.52,0,0,1-.14-2.56V92c0-1.4,0-2.43.1-3.1a4.1,4.1,0,0,1,.47-1.6A4,4,0,0,1,401.7,86a4.16,4.16,0,0,1,4,0,4.74,4.74,0,0,1,1.45,1.47h.07v-9.6h3.64v27.25h-3.64Zm-3.61-4.56a3.74,3.74,0,0,0,.43,1.92,1.46,1.46,0,0,0,1.36.72,1.58,1.58,0,0,0,1.32-.67,2.83,2.83,0,0,0,.5-1.74V91.49a2.25,2.25,0,0,0-.52-1.51,1.68,1.68,0,0,0-1.3-.59,1.46,1.46,0,0,0-1.41.69,3.29,3.29,0,0,0-.38,1.6Z"/><path class="cls-1" d="M413.82,77.87h3.64v3.9l-3.64,2.83Z"/><path class="cls-1" d="M427.36,103.13h-.07a7.06,7.06,0,0,1-1.45,1.64,3.27,3.27,0,0,1-2,.58,4.54,4.54,0,0,1-1.33-.21,3.23,3.23,0,0,1-1.26-.77,3.94,3.94,0,0,1-1-1.57,7.71,7.71,0,0,1-.37-2.62,14.53,14.53,0,0,1,.25-2.89,4.68,4.68,0,0,1,.91-2.07A4,4,0,0,1,422.79,94a8.31,8.31,0,0,1,2.82-.4,6.79,6.79,0,0,1,.78,0l1,.07v-2A3.14,3.14,0,0,0,427,90a1.55,1.55,0,0,0-1.43-.65,2,2,0,0,0-1.31.5,2.34,2.34,0,0,0-.76,1.45h-3.54a6.66,6.66,0,0,1,1.64-4.21,5.3,5.3,0,0,1,1.72-1.21,5.54,5.54,0,0,1,2.25-.43,5.84,5.84,0,0,1,2.14.38A4.61,4.61,0,0,1,429.41,87a5.34,5.34,0,0,1,1.16,1.91,7.53,7.53,0,0,1,.43,2.68v13.51h-3.64Zm0-6.36a6.27,6.27,0,0,0-1-.11,3.44,3.44,0,0,0-2,.59,2.48,2.48,0,0,0-.84,2.16,3,3,0,0,0,.5,1.8,1.62,1.62,0,0,0,1.39.69,1.73,1.73,0,0,0,1.45-.65,2.84,2.84,0,0,0,.52-1.84Z"/><path class="cls-1" d="M433.47,77.87h3.64V99.64a1.63,1.63,0,0,0,1.79,2v3.68a11.24,11.24,0,0,1-2.27-.21,3.52,3.52,0,0,1-2.79-2.47,8.52,8.52,0,0,1-.37-2.76Z"/><path class="cls-1" d="M440.32,79.82H444v5.89h2.25v3.07H444V99.53a3.7,3.7,0,0,0,.12,1.07,1.07,1.07,0,0,0,.4.57,1.29,1.29,0,0,0,.69.23,10.37,10.37,0,0,0,1,0v3.68h-1.5a4.63,4.63,0,0,1-2.09-.42,3.72,3.72,0,0,1-1.34-1.08,4.22,4.22,0,0,1-.73-1.47,5.69,5.69,0,0,1-.24-1.59V88.78H438.5V85.71h1.82Z"/><path class="cls-1" d="M447.61,77.87h3.64v3.9h-3.64Zm0,7.84h3.64v19.41h-3.64Z"/><path class="cls-1" d="M454.25,79.82h3.65v5.89h2.25v3.07H457.9V99.53a3.7,3.7,0,0,0,.12,1.07,1.07,1.07,0,0,0,.4.57,1.29,1.29,0,0,0,.69.23,10.37,10.37,0,0,0,1,0v3.68h-1.5a4.63,4.63,0,0,1-2.09-.42,3.72,3.72,0,0,1-1.34-1.08,4.06,4.06,0,0,1-.73-1.47,5.69,5.69,0,0,1-.24-1.59V88.78h-1.82V85.71h1.82Z"/><path class="cls-1" d="M472.43,105.12h-3.64v-1.88h-.07a5.28,5.28,0,0,1-1.38,1.51,3.32,3.32,0,0,1-2,.6,4.12,4.12,0,0,1-1.36-.25,3.13,3.13,0,0,1-1.21-.83,4.2,4.2,0,0,1-.86-1.47,6.68,6.68,0,0,1-.32-2.2V85.71h3.64V99.15a2.73,2.73,0,0,0,.47,1.68,1.55,1.55,0,0,0,1.32.61,1.5,1.5,0,0,0,1.43-.69,4.1,4.1,0,0,0,.39-2V85.71h3.64Z"/><path class="cls-1" d="M482.69,103.36l-.68.78a4.28,4.28,0,0,1-.72.63,3.18,3.18,0,0,1-.89.42,4.11,4.11,0,0,1-1.18.16,3.28,3.28,0,0,1-3.18-1.84,5.4,5.4,0,0,1-.46-1.61,17.29,17.29,0,0,1-.15-2.56V92c0-1.4,0-2.43.11-3.1a3.93,3.93,0,0,1,.47-1.6A4,4,0,0,1,477.2,86a3.67,3.67,0,0,1,2.06-.49,3.62,3.62,0,0,1,1.91.51,4.6,4.6,0,0,1,1.44,1.47h.08v-9.6h3.64v27.25h-3.64Zm-3.61-4.56a3.74,3.74,0,0,0,.43,1.92,1.45,1.45,0,0,0,1.35.72,1.58,1.58,0,0,0,1.33-.67,2.83,2.83,0,0,0,.5-1.74V91.49a2.25,2.25,0,0,0-.52-1.51,1.68,1.68,0,0,0-1.31-.59,1.46,1.46,0,0,0-1.41.69,3.29,3.29,0,0,0-.37,1.6Z"/><path class="cls-1" d="M492.65,96.89v2.64a2,2,0,0,0,.48,1.42,1.76,1.76,0,0,0,1.31.49,1.38,1.38,0,0,0,1.37-.65,3.64,3.64,0,0,0,.41-1.3h3.65a6.94,6.94,0,0,1-.38,2.3,5.1,5.1,0,0,1-1.09,1.83,5.23,5.23,0,0,1-1.71,1.27,5.45,5.45,0,0,1-2.25.46,5.34,5.34,0,0,1-2.9-.77,5.09,5.09,0,0,1-1.85-2,5.42,5.42,0,0,1-.54-1.76,16.2,16.2,0,0,1-.14-2.18V92.22a16.2,16.2,0,0,1,.14-2.18,5.5,5.5,0,0,1,.54-1.76,5.09,5.09,0,0,1,1.85-2,5.34,5.34,0,0,1,2.9-.76,5.58,5.58,0,0,1,2.27.45,4.87,4.87,0,0,1,1.71,1.29,5.93,5.93,0,0,1,1.07,1.93,7.36,7.36,0,0,1,.38,2.37v5.36Zm0-3.06h3.57V91.61a2.5,2.5,0,0,0-.48-1.67,1.64,1.64,0,0,0-1.3-.55,1.66,1.66,0,0,0-1.31.55,2.5,2.5,0,0,0-.48,1.67Z"/><path class="cls-1" d="M509.19,85.71h3.64v1.88h.07a5.28,5.28,0,0,1,1.38-1.51,3.32,3.32,0,0,1,2.05-.59,3.11,3.11,0,0,1,2,.61,6,6,0,0,1,1.28,1.34,8.08,8.08,0,0,1,1.5-1.38,4,4,0,0,1,2.29-.57,4.33,4.33,0,0,1,1.39.24,3.32,3.32,0,0,1,1.29.83A4.31,4.31,0,0,1,527,88a6.15,6.15,0,0,1,.35,2.2v14.89h-3.64V91.68a2.72,2.72,0,0,0-.46-1.68,1.56,1.56,0,0,0-1.33-.61,1.48,1.48,0,0,0-1.42.69,4,4,0,0,0-.4,2v13.05h-3.64V91.68A2.79,2.79,0,0,0,516,90a1.56,1.56,0,0,0-1.33-.61,1.51,1.51,0,0,0-1.43.69,4.1,4.1,0,0,0-.39,2v13.05h-3.64Z"/><path class="cls-1" d="M530,92.22a14.64,14.64,0,0,1,.15-2.18,5.5,5.5,0,0,1,.53-1.76,5.12,5.12,0,0,1,1.86-2,5.87,5.87,0,0,1,5.78,0,5.12,5.12,0,0,1,1.86,2,5.76,5.76,0,0,1,.54,1.76,16.2,16.2,0,0,1,.14,2.18v6.39a16.2,16.2,0,0,1-.14,2.18,5.68,5.68,0,0,1-.54,1.76,5.12,5.12,0,0,1-1.86,2,5.81,5.81,0,0,1-5.78,0,5.12,5.12,0,0,1-1.86-2,5.42,5.42,0,0,1-.53-1.76,14.64,14.64,0,0,1-.15-2.18Zm3.65,7a2.5,2.5,0,0,0,.48,1.67,1.62,1.62,0,0,0,1.3.55,1.66,1.66,0,0,0,1.31-.55,2.5,2.5,0,0,0,.48-1.67V91.61a2.5,2.5,0,0,0-.48-1.67,1.66,1.66,0,0,0-1.31-.55,1.62,1.62,0,0,0-1.3.55,2.5,2.5,0,0,0-.48,1.67Z"/><path class="cls-1" d="M545.44,85.71l2.5,12.1H548l2.47-12.1h3.75L549,108.48a7.13,7.13,0,0,1-.8,2.17A4.61,4.61,0,0,1,547,112a4.09,4.09,0,0,1-1.44.73A6,6,0,0,1,544,113h-1v-3.67h.82a2.38,2.38,0,0,0,.93-.16,1.42,1.42,0,0,0,.69-.67,5.65,5.65,0,0,0,.56-1.53c.17-.67.36-1.57.57-2.69l-5-18.53Z"/><path class="cls-1" d="M558.8,96.89v2.64a2,2,0,0,0,.48,1.42,1.76,1.76,0,0,0,1.31.49,1.38,1.38,0,0,0,1.37-.65,3.45,3.45,0,0,0,.41-1.3H566a6.94,6.94,0,0,1-.38,2.3,5.43,5.43,0,0,1-2.8,3.1,5.45,5.45,0,0,1-2.25.46,5.34,5.34,0,0,1-2.9-.77,5.09,5.09,0,0,1-1.85-2,5.42,5.42,0,0,1-.54-1.76,16.2,16.2,0,0,1-.14-2.18V92.22A16.2,16.2,0,0,1,555.3,90a5.5,5.5,0,0,1,.54-1.76,5.09,5.09,0,0,1,1.85-2,5.34,5.34,0,0,1,2.9-.76,5.58,5.58,0,0,1,2.27.45,4.87,4.87,0,0,1,1.71,1.29,5.93,5.93,0,0,1,1.07,1.93,7.36,7.36,0,0,1,.38,2.37v5.36Zm0-3.06h3.57V91.61a2.5,2.5,0,0,0-.48-1.67,1.64,1.64,0,0,0-1.3-.55,1.66,1.66,0,0,0-1.31.55,2.5,2.5,0,0,0-.48,1.67Z"/><path class="cls-1" d="M568.7,85.71h3.64v1.88h.07a5.28,5.28,0,0,1,1.38-1.51,3.32,3.32,0,0,1,2.05-.59,4.11,4.11,0,0,1,1.36.24,3.13,3.13,0,0,1,1.21.83,4.2,4.2,0,0,1,.86,1.47,6.68,6.68,0,0,1,.32,2.2v14.89H576V91.68a2.73,2.73,0,0,0-.47-1.68,1.55,1.55,0,0,0-1.32-.61,1.5,1.5,0,0,0-1.43.69,4.1,4.1,0,0,0-.39,2v13.05H568.7Z"/><path class="cls-1" d="M582.59,85.71h3.64v1.88h.07a5.43,5.43,0,0,1,1.38-1.51,3.34,3.34,0,0,1,2.05-.59,4,4,0,0,1,1.36.24,3.16,3.16,0,0,1,1.22.83,4.19,4.19,0,0,1,.85,1.47,6.43,6.43,0,0,1,.32,2.2v14.89h-3.64V91.68a2.72,2.72,0,0,0-.46-1.68,1.56,1.56,0,0,0-1.33-.61,1.48,1.48,0,0,0-1.42.69,4,4,0,0,0-.4,2v13.05h-3.64Z"/><path class="cls-1" d="M599.81,96.89v2.64a2,2,0,0,0,.48,1.42,1.72,1.72,0,0,0,1.3.49,1.4,1.4,0,0,0,1.38-.65,3.85,3.85,0,0,0,.41-1.3H607a6.93,6.93,0,0,1-.37,2.3,5.24,5.24,0,0,1-1.09,1.83,5.17,5.17,0,0,1-1.72,1.27,5.38,5.38,0,0,1-2.25.46,5.31,5.31,0,0,1-2.89-.77,5.12,5.12,0,0,1-1.86-2,5.42,5.42,0,0,1-.53-1.76,14.64,14.64,0,0,1-.15-2.18V92.22a14.64,14.64,0,0,1,.15-2.18,5.5,5.5,0,0,1,.53-1.76,5.12,5.12,0,0,1,1.86-2,5.3,5.3,0,0,1,2.89-.76,5.54,5.54,0,0,1,2.27.45,4.9,4.9,0,0,1,1.72,1.29,5.93,5.93,0,0,1,1.07,1.93,7.35,7.35,0,0,1,.37,2.37v5.36Zm0-3.06h3.57V91.61a2.5,2.5,0,0,0-.48-1.67,1.66,1.66,0,0,0-1.31-.55,1.62,1.62,0,0,0-1.3.55,2.5,2.5,0,0,0-.48,1.67Z"/><path class="cls-1" d="M372.14,263h3.64v1.88h.07a5.28,5.28,0,0,1,1.38-1.51,3.32,3.32,0,0,1,2-.6,3.11,3.11,0,0,1,2,.62,5.93,5.93,0,0,1,1.28,1.33,7.75,7.75,0,0,1,1.5-1.37,3.9,3.9,0,0,1,2.29-.58,4.39,4.39,0,0,1,1.39.25,3.42,3.42,0,0,1,1.29.82,4.46,4.46,0,0,1,.93,1.48,6.15,6.15,0,0,1,.35,2.2V282.4h-3.64V269a2.79,2.79,0,0,0-.46-1.68,1.57,1.57,0,0,0-1.33-.61,1.51,1.51,0,0,0-1.43.69,4.07,4.07,0,0,0-.39,2v13h-3.64V269a2.73,2.73,0,0,0-.47-1.68,1.55,1.55,0,0,0-1.32-.61,1.51,1.51,0,0,0-1.43.69,4.07,4.07,0,0,0-.39,2v13h-3.64Z"/><path class="cls-1" d="M407.18,280.64l-.68.79a3.86,3.86,0,0,1-.71.63,3.38,3.38,0,0,1-.9.42,4.08,4.08,0,0,1-1.18.15,3.28,3.28,0,0,1-3.18-1.83,5.81,5.81,0,0,1-.46-1.61,17.52,17.52,0,0,1-.14-2.56v-7.39c0-1.4,0-2.44.1-3.1a4.2,4.2,0,0,1,.47-1.61,4,4,0,0,1,1.2-1.26,4.09,4.09,0,0,1,4,0,4.63,4.63,0,0,1,1.45,1.47h.07v-9.6h3.64V282.4h-3.64Zm-3.61-4.55A3.68,3.68,0,0,0,404,278a1.45,1.45,0,0,0,1.36.73,1.58,1.58,0,0,0,1.32-.67,2.85,2.85,0,0,0,.5-1.74v-7.54a2.25,2.25,0,0,0-.52-1.51,1.64,1.64,0,0,0-1.3-.59,1.46,1.46,0,0,0-1.41.69,3.26,3.26,0,0,0-.38,1.6Z"/><path class="cls-1" d="M417.14,274.18v2.64a1.91,1.91,0,0,0,.49,1.41,1.69,1.69,0,0,0,1.3.5,1.39,1.39,0,0,0,1.37-.65,3.45,3.45,0,0,0,.41-1.3h3.65a6.94,6.94,0,0,1-.38,2.3,5.1,5.1,0,0,1-1.09,1.83,4.88,4.88,0,0,1-1.71,1.26,5.81,5.81,0,0,1-5.14-.3,5.12,5.12,0,0,1-1.86-2,5.76,5.76,0,0,1-.54-1.76,16.2,16.2,0,0,1-.14-2.18v-6.39a16.2,16.2,0,0,1,.14-2.18,5.68,5.68,0,0,1,.54-1.76,5.05,5.05,0,0,1,1.86-2,5.31,5.31,0,0,1,2.89-.77,5.58,5.58,0,0,1,2.27.46,4.87,4.87,0,0,1,1.71,1.28,5.8,5.8,0,0,1,1.07,1.94,7.36,7.36,0,0,1,.38,2.37v5.36Zm0-3.06h3.57V268.9a2.5,2.5,0,0,0-.48-1.67,1.81,1.81,0,0,0-2.6,0,2.45,2.45,0,0,0-.49,1.67Z"/><path class="cls-1" d="M440.93,280.64c-.24.28-.46.55-.68.79a3.86,3.86,0,0,1-.71.63,3.18,3.18,0,0,1-.89.42,4.18,4.18,0,0,1-1.18.15,3.28,3.28,0,0,1-3.18-1.83,5.48,5.48,0,0,1-.47-1.61,19.05,19.05,0,0,1-.14-2.56v-7.39c0-1.4,0-2.44.11-3.1a3.57,3.57,0,0,1,1.66-2.87,4.09,4.09,0,0,1,4,0,4.53,4.53,0,0,1,1.45,1.47h.07v-9.6h3.65V282.4h-3.65Zm-3.61-4.55a3.78,3.78,0,0,0,.43,1.91,1.46,1.46,0,0,0,1.36.73,1.55,1.55,0,0,0,1.32-.67,2.85,2.85,0,0,0,.5-1.74v-7.54a2.2,2.2,0,0,0-.52-1.51,1.63,1.63,0,0,0-1.3-.59,1.46,1.46,0,0,0-1.41.69,3.26,3.26,0,0,0-.38,1.6Z"/><path class="cls-1" d="M450.9,274.18v2.64a1.94,1.94,0,0,0,.48,1.41,1.69,1.69,0,0,0,1.3.5,1.42,1.42,0,0,0,1.38-.65,3.85,3.85,0,0,0,.41-1.3h3.64a6.93,6.93,0,0,1-.37,2.3,5.24,5.24,0,0,1-1.09,1.83,5,5,0,0,1-1.72,1.26,5.23,5.23,0,0,1-2.25.46,5.3,5.3,0,0,1-2.89-.76,5.12,5.12,0,0,1-1.86-2,5.5,5.5,0,0,1-.53-1.76,14.64,14.64,0,0,1-.15-2.18v-6.39a14.64,14.64,0,0,1,.15-2.18,5.42,5.42,0,0,1,.53-1.76,5.05,5.05,0,0,1,1.86-2,5.31,5.31,0,0,1,2.89-.77,5.54,5.54,0,0,1,2.27.46,5,5,0,0,1,1.72,1.28,6,6,0,0,1,1.07,1.94,7.35,7.35,0,0,1,.37,2.37v5.36ZM453.58,255h3.85l-4.71,5.4h-2.36Zm-2.68,16.08h3.57V268.9a2.5,2.5,0,0,0-.48-1.67,1.64,1.64,0,0,0-1.31-.55,1.62,1.62,0,0,0-1.3.55,2.5,2.5,0,0,0-.48,1.67Z"/><path class="cls-1" d="M460.79,263h3.64v1.88h.08a5.4,5.4,0,0,1,1.37-1.51,3.34,3.34,0,0,1,2.05-.6,4,4,0,0,1,1.36.25,3.25,3.25,0,0,1,1.22.82,4.33,4.33,0,0,1,.85,1.48,6.41,6.41,0,0,1,.33,2.2V282.4H468V269a2.72,2.72,0,0,0-.46-1.68,1.55,1.55,0,0,0-1.32-.61,1.5,1.5,0,0,0-1.43.69,4.06,4.06,0,0,0-.4,2v13h-3.64Z"/><path class="cls-1" d="M474.69,255.16h3.64v3.9h-3.64Zm0,7.84h3.64v19.4h-3.64Z"/><path class="cls-1" d="M487.72,282.4h-3.21L479.79,263h3.86l2.43,12.4h.07l2.43-12.4h3.86Z"/><path class="cls-1" d="M497,274.18v2.64a1.94,1.94,0,0,0,.48,1.41,1.71,1.71,0,0,0,1.31.5,1.4,1.4,0,0,0,1.37-.65,3.64,3.64,0,0,0,.41-1.3h3.64a6.93,6.93,0,0,1-.37,2.3,5.37,5.37,0,0,1-2.8,3.09,5.83,5.83,0,0,1-5.15-.3,5.12,5.12,0,0,1-1.86-2,5.5,5.5,0,0,1-.53-1.76,14.71,14.71,0,0,1-.14-2.18v-6.39a14.71,14.71,0,0,1,.14-2.18,5.42,5.42,0,0,1,.53-1.76,5.05,5.05,0,0,1,1.86-2,5.34,5.34,0,0,1,2.9-.77,5.53,5.53,0,0,1,2.26.46,5,5,0,0,1,1.72,1.28,6,6,0,0,1,1.07,1.94,7.35,7.35,0,0,1,.37,2.37v5.36Zm0-3.06h3.57V268.9a2.5,2.5,0,0,0-.48-1.67,1.82,1.82,0,0,0-2.61,0,2.5,2.5,0,0,0-.48,1.67Z"/><path class="cls-1" d="M506.69,255.16h3.64v21.77a2.23,2.23,0,0,0,.38,1.51,2.28,2.28,0,0,0,1.41.52v3.67a11.24,11.24,0,0,1-2.27-.21,3.67,3.67,0,0,1-1.71-.8,3.75,3.75,0,0,1-1.08-1.66,8.56,8.56,0,0,1-.37-2.76Z"/><path class="cls-1" d="M516.87,274.18v2.64a1.94,1.94,0,0,0,.48,1.41,1.71,1.71,0,0,0,1.31.5,1.4,1.4,0,0,0,1.37-.65,3.64,3.64,0,0,0,.41-1.3h3.64a6.93,6.93,0,0,1-.37,2.3,5.37,5.37,0,0,1-2.8,3.09,5.83,5.83,0,0,1-5.15-.3,5.12,5.12,0,0,1-1.86-2,5.5,5.5,0,0,1-.53-1.76,14.71,14.71,0,0,1-.14-2.18v-6.39a14.71,14.71,0,0,1,.14-2.18,5.42,5.42,0,0,1,.53-1.76,5.05,5.05,0,0,1,1.86-2,5.34,5.34,0,0,1,2.9-.77,5.53,5.53,0,0,1,2.26.46,5,5,0,0,1,1.72,1.28,6,6,0,0,1,1.07,1.94,7.35,7.35,0,0,1,.37,2.37v5.36ZM519.55,255h3.86l-4.72,5.4h-2.36Zm-2.68,16.08h3.57V268.9a2.5,2.5,0,0,0-.48-1.67,1.82,1.82,0,0,0-2.61,0,2.5,2.5,0,0,0-.48,1.67Z"/><path d="M787.78,25c-3.8,19.46-8.32,25.15-17.61,25.15-10.77,0-13.58-8.2-9.9-26.74C763.59,6.85,768.78.05,777.39.05,787.71.05,791.07,8.08,787.78,25ZM770,24.25c-2.85,15-2,17.94,1,17.94,2.78,0,4.27-3.5,7-17.82,2.66-14,2-16.33-1.12-16.33C774.24,8,772.4,11.58,770,24.25Z"/><path d="M790.66,33.7c1.08-5.49,4.26-9.08,8.16-10.65-2.43-1.85-4-5.31-2.85-11.35C797.46,3.85,802.18,0,809.61,0,819,0,822.4,6.29,820.78,15c-1.12,6.05-4.22,8-6.36,8.93,2.45,1.67,4.8,6,3.57,12.69-1.76,9.54-7,13.56-15.24,13.56C792,50.13,788.87,42.68,790.66,33.7Zm17.46,1.84c1.1-5.7.06-7.85-2.89-7.85-2.57,0-3.93,2.26-4.81,6.73-1,5.2-.27,8.06,2.78,8.06C805.94,42.48,807.24,40.11,808.12,35.54Zm-3-22.46c-.74,3.79-.55,6.61,2.26,6.61,2.07,0,3.29-1.67,4.08-5.48s.64-6.45-2.32-6.45C806.9,7.76,805.78,9.77,805.12,13.08Z"/><path class="cls-1" d="M804.2,105.12H801l-4.72-19.41h3.86l2.43,12.4h.07l2.43-12.4h3.86Z"/><path class="cls-1" d="M813.49,96.89v2.64A2,2,0,0,0,814,101a1.72,1.72,0,0,0,1.3.49,1.4,1.4,0,0,0,1.38-.65,3.85,3.85,0,0,0,.41-1.3h3.64a6.93,6.93,0,0,1-.37,2.3,5.24,5.24,0,0,1-1.09,1.83,5.17,5.17,0,0,1-1.72,1.27,5.38,5.38,0,0,1-2.25.46,5.31,5.31,0,0,1-2.89-.77,5.12,5.12,0,0,1-1.86-2,5.42,5.42,0,0,1-.53-1.76,14.64,14.64,0,0,1-.15-2.18V92.22A14.64,14.64,0,0,1,810,90a5.5,5.5,0,0,1,.53-1.76,5.12,5.12,0,0,1,1.86-2,5.3,5.3,0,0,1,2.89-.76,5.54,5.54,0,0,1,2.27.45,4.9,4.9,0,0,1,1.72,1.29,5.93,5.93,0,0,1,1.07,1.93,7.35,7.35,0,0,1,.37,2.37v5.36Zm0-3.06h3.57V91.61a2.5,2.5,0,0,0-.48-1.67,1.66,1.66,0,0,0-1.31-.55,1.62,1.62,0,0,0-1.3.55,2.5,2.5,0,0,0-.48,1.67Z"/><path class="cls-1" d="M823.38,85.71H827v2.07a11.52,11.52,0,0,1,2.18-1.68,5.27,5.27,0,0,1,2.65-.61v4.13a2.69,2.69,0,0,0-1.11-.23,4.07,4.07,0,0,0-1.23.21,3.37,3.37,0,0,0-1.22.71,3.73,3.73,0,0,0-.91,1.3,4.85,4.85,0,0,0-.36,2v11.52h-3.64Z"/><path class="cls-1" d="M833.31,79.82H837v5.89h2.25v3.07H837V99.53a3.65,3.65,0,0,0,.13,1.07,1,1,0,0,0,.39.57,1.32,1.32,0,0,0,.7.23,10.16,10.16,0,0,0,1,0v3.68h-1.5a4.66,4.66,0,0,1-2.09-.42,3.68,3.68,0,0,1-1.33-1.08,4.24,4.24,0,0,1-.74-1.47,6,6,0,0,1-.23-1.59V88.78h-1.82V85.71h1.82Z"/><path class="cls-1" d="M843.92,96.89v2.64a2,2,0,0,0,.48,1.42,1.74,1.74,0,0,0,1.31.49,1.39,1.39,0,0,0,1.37-.65,3.64,3.64,0,0,0,.41-1.3h3.64a6.93,6.93,0,0,1-.37,2.3,5.1,5.1,0,0,1-1.09,1.83,5.23,5.23,0,0,1-1.71,1.27,5.45,5.45,0,0,1-2.25.46,5.32,5.32,0,0,1-2.9-.77,5.12,5.12,0,0,1-1.86-2,5.42,5.42,0,0,1-.53-1.76,14.71,14.71,0,0,1-.14-2.18V92.22a14.71,14.71,0,0,1,.14-2.18,5.5,5.5,0,0,1,.53-1.76,5.12,5.12,0,0,1,1.86-2,5.31,5.31,0,0,1,2.9-.76,5.53,5.53,0,0,1,2.26.45,4.9,4.9,0,0,1,1.72,1.29,5.93,5.93,0,0,1,1.07,1.93,7.35,7.35,0,0,1,.37,2.37v5.36Zm0-3.06h3.57V91.61a2.5,2.5,0,0,0-.48-1.67,1.82,1.82,0,0,0-2.61,0,2.5,2.5,0,0,0-.48,1.67Z"/><path class="cls-1" d="M860.42,91.15a2,2,0,0,0-.59-1.49,1.85,1.85,0,0,0-1.27-.5,1.59,1.59,0,0,0-1.32.59,2.15,2.15,0,0,0-.46,1.36,2.32,2.32,0,0,0,.25,1,2.27,2.27,0,0,0,1.28.94l2.15.92a5.31,5.31,0,0,1,2.8,2.29,6.73,6.73,0,0,1,.77,3.18,6.28,6.28,0,0,1-.41,2.28,6.09,6.09,0,0,1-1.13,1.85,5.13,5.13,0,0,1-1.71,1.27,5.29,5.29,0,0,1-2.18.46,5.4,5.4,0,0,1-2-.39,4.78,4.78,0,0,1-1.69-1.11,5.61,5.61,0,0,1-1.2-1.81,6.85,6.85,0,0,1-.5-2.55h3.43a3.74,3.74,0,0,0,.52,1.49,1.53,1.53,0,0,0,1.44.69,2,2,0,0,0,1.41-.55,2,2,0,0,0,.63-1.55,2.38,2.38,0,0,0-.39-1.38,3.15,3.15,0,0,0-1.43-1L857,96.51a6,6,0,0,1-2.7-2.05,5.54,5.54,0,0,1-1-3.31,5.9,5.9,0,0,1,.43-2.28,5.42,5.42,0,0,1,1.16-1.8,5.48,5.48,0,0,1,1.69-1.16,5.19,5.19,0,0,1,2.08-.42,4.86,4.86,0,0,1,2,.43,5.08,5.08,0,0,1,1.62,1.19,5.57,5.57,0,0,1,1.08,1.8,6.39,6.39,0,0,1,.39,2.24Z"/><path d="M756.34,235l.18-.9c1.74-8.82,5.27-14.9,14-23.16,6.21-5.85,7.49-7.32,8.26-11.6.57-3,.29-5.65-2.44-5.65-2.48,0-3.48,2-4.4,5.81h-9.34c1.42-6.79,4.57-13.93,14.58-13.93,9,0,13.29,6.2,11.39,15.67-1.07,5.45-3,8-10.6,15.22-5.5,5.2-7.56,7.47-8.61,9.94H785l-2.48,8.6Z"/><path d="M789.75,219.24c1.08-5.49,4.25-9.08,8.16-10.65-2.43-1.85-4-5.31-2.85-11.35,1.49-7.85,6.21-11.7,13.64-11.7,9.38,0,12.79,6.28,11.17,15-1.12,6-4.22,8-6.37,8.93,2.46,1.67,4.81,6,3.58,12.69-1.76,9.54-7,13.56-15.24,13.56C791.1,235.67,788,228.22,789.75,219.24Zm17.46,1.84c1.1-5.7.06-7.85-2.89-7.85-2.57,0-3.93,2.26-4.81,6.73-1,5.2-.27,8.06,2.78,8.06C805,228,806.33,225.65,807.21,221.08Zm-3-22.46c-.74,3.79-.55,6.61,2.26,6.61,2.07,0,3.29-1.67,4.08-5.48s.64-6.46-2.32-6.46C806,193.29,804.87,195.31,804.21,198.62Z"/><path class="cls-1" d="M797.81,255.16h3.64v9.6h.07a4.63,4.63,0,0,1,1.45-1.47,4.09,4.09,0,0,1,4,0,3.57,3.57,0,0,1,1.66,2.87,29.27,29.27,0,0,1,.11,3.1v7.39a19.05,19.05,0,0,1-.14,2.56,5.48,5.48,0,0,1-.47,1.61,3.8,3.8,0,0,1-5.25,1.26,9,9,0,0,1-1.39-1.42v1.76h-3.64ZM805.06,269a3.26,3.26,0,0,0-.38-1.6,1.46,1.46,0,0,0-1.41-.69,1.63,1.63,0,0,0-1.3.59,2.2,2.2,0,0,0-.52,1.51v7.54a2.85,2.85,0,0,0,.5,1.74,1.55,1.55,0,0,0,1.32.67,1.46,1.46,0,0,0,1.36-.73,3.68,3.68,0,0,0,.43-1.91Z"/><path class="cls-1" d="M811.49,255.16h3.64v21.77a2.23,2.23,0,0,0,.38,1.51,2.28,2.28,0,0,0,1.41.52v3.67a11.24,11.24,0,0,1-2.27-.21,3.76,3.76,0,0,1-1.72-.8,3.83,3.83,0,0,1-1.07-1.66,8.56,8.56,0,0,1-.37-2.76Z"/><path class="cls-1" d="M821.67,274.18v2.64a1.94,1.94,0,0,0,.48,1.41,1.69,1.69,0,0,0,1.3.5,1.42,1.42,0,0,0,1.38-.65,3.85,3.85,0,0,0,.41-1.3h3.64a6.93,6.93,0,0,1-.37,2.3,5.24,5.24,0,0,1-1.09,1.83,5,5,0,0,1-1.72,1.26,5.23,5.23,0,0,1-2.25.46,5.3,5.3,0,0,1-2.89-.76,5.12,5.12,0,0,1-1.86-2,5.5,5.5,0,0,1-.53-1.76,14.64,14.64,0,0,1-.15-2.18v-6.39a14.64,14.64,0,0,1,.15-2.18,5.42,5.42,0,0,1,.53-1.76,5.05,5.05,0,0,1,1.86-2,5.31,5.31,0,0,1,2.89-.77,5.54,5.54,0,0,1,2.27.46,5,5,0,0,1,1.72,1.28,6,6,0,0,1,1.07,1.94,7.35,7.35,0,0,1,.37,2.37v5.36Zm0-3.06h3.57V268.9a2.5,2.5,0,0,0-.48-1.67,1.66,1.66,0,0,0-1.31-.55,1.62,1.62,0,0,0-1.3.55,2.5,2.5,0,0,0-.48,1.67Z"/><path class="cls-1" d="M842.46,282.4h-3.65v-1.87h-.07a5.4,5.4,0,0,1-1.37,1.51,3.37,3.37,0,0,1-2.06.59,3.88,3.88,0,0,1-1.36-.25,3,3,0,0,1-1.21-.82,4.2,4.2,0,0,1-.86-1.47,6.68,6.68,0,0,1-.32-2.2V263h3.64v13.43a2.74,2.74,0,0,0,.47,1.69,1.55,1.55,0,0,0,1.32.61,1.5,1.5,0,0,0,1.43-.69,4.1,4.1,0,0,0,.39-2V263h3.65Z"/><path class="cls-1" d="M848.78,274.18v2.64a1.94,1.94,0,0,0,.48,1.41,1.69,1.69,0,0,0,1.3.5,1.42,1.42,0,0,0,1.38-.65,3.85,3.85,0,0,0,.41-1.3H856a6.93,6.93,0,0,1-.37,2.3,5.24,5.24,0,0,1-1.09,1.83,5,5,0,0,1-1.72,1.26,5.23,5.23,0,0,1-2.25.46,5.3,5.3,0,0,1-2.89-.76,5.12,5.12,0,0,1-1.86-2,5.5,5.5,0,0,1-.53-1.76,14.64,14.64,0,0,1-.15-2.18v-6.39a14.64,14.64,0,0,1,.15-2.18,5.42,5.42,0,0,1,.53-1.76,5.05,5.05,0,0,1,1.86-2,5.31,5.31,0,0,1,2.89-.77,5.54,5.54,0,0,1,2.27.46,5,5,0,0,1,1.72,1.28,6,6,0,0,1,1.07,1.94,7.35,7.35,0,0,1,.37,2.37v5.36Zm0-3.06h3.57V268.9a2.5,2.5,0,0,0-.48-1.67,1.66,1.66,0,0,0-1.31-.55,1.62,1.62,0,0,0-1.3.55,2.5,2.5,0,0,0-.48,1.67Z"/><path class="cls-1" d="M865.28,268.44a2,2,0,0,0-.59-1.5,1.84,1.84,0,0,0-1.27-.49,1.57,1.57,0,0,0-1.32.59,2.15,2.15,0,0,0-.46,1.36,1.94,1.94,0,0,0,1.53,2l2.14.92a5.25,5.25,0,0,1,2.81,2.29,6.73,6.73,0,0,1,.77,3.18,6.32,6.32,0,0,1-.41,2.28,6.09,6.09,0,0,1-1.13,1.85,5.07,5.07,0,0,1-1.71,1.26,5.14,5.14,0,0,1-2.18.46,5.36,5.36,0,0,1-2-.38,4.91,4.91,0,0,1-1.7-1.11,5.69,5.69,0,0,1-1.19-1.82,6.75,6.75,0,0,1-.5-2.54h3.43a3.94,3.94,0,0,0,.51,1.49,1.56,1.56,0,0,0,1.45.69,2,2,0,0,0,1.41-.55,2,2,0,0,0,.63-1.55,2.32,2.32,0,0,0-.4-1.38,3.07,3.07,0,0,0-1.42-1l-1.75-.69a6,6,0,0,1-2.7-2,5.47,5.47,0,0,1-1-3.31,5.9,5.9,0,0,1,.43-2.28,5.38,5.38,0,0,1,2.85-3,5.18,5.18,0,0,1,2.07-.42,4.88,4.88,0,0,1,2.06.44,5.08,5.08,0,0,1,1.62,1.19,5.57,5.57,0,0,1,1.08,1.8,6.39,6.39,0,0,1,.39,2.24Z"/><path d="M1101.89,11.62C1103.35,6,1106.08,0,1115.47,0c9.15,0,12.52,6,11,14.45-.92,5.14-4.18,7.91-7,8.75l0,.14c3.52,1.78,5.73,6.17,4.42,13.36-1.51,8.22-6.14,13.43-15.37,13.43-10.82,0-12.45-7.13-12.09-12.76H1106c-.09,1.89.17,5.08,3.07,5.08,2.62,0,4-1.91,4.84-7,1-5.87-.22-8.09-4.69-8.09h-2l1.62-8.43h2.26c3.14,0,4.62-1.14,5.45-5.22.74-3.67.63-6.07-1.88-6.07-2.11,0-2.93,1.73-3.62,4Z"/><path d="M1131.91,11.62C1133.38,6,1136.11,0,1145.49,0c9.16,0,12.53,6,11,14.45-.93,5.14-4.19,7.91-7,8.75l0,.14c3.53,1.78,5.73,6.17,4.42,13.36-1.51,8.22-6.14,13.43-15.36,13.43-10.83,0-12.46-7.13-12.09-12.76h9.56c-.09,1.89.18,5.08,3.08,5.08,2.61,0,4-1.91,4.84-7,1-5.87-.23-8.09-4.7-8.09h-2l1.63-8.43h2.26c3.14,0,4.61-1.14,5.44-5.22.75-3.67.63-6.07-1.87-6.07-2.11,0-2.94,1.73-3.63,4Z"/><path class="cls-1" d="M1128.81,85.71h3.64v2.07a11.52,11.52,0,0,1,2.18-1.68,5.21,5.21,0,0,1,2.64-.61v4.13a2.62,2.62,0,0,0-1.1-.23,4.08,4.08,0,0,0-1.24.21,3.33,3.33,0,0,0-1.21.71,3.61,3.61,0,0,0-.91,1.3,4.85,4.85,0,0,0-.36,2v11.52h-3.64Z"/><path class="cls-1" d="M1138.2,92.22a16.2,16.2,0,0,1,.14-2.18,5.76,5.76,0,0,1,.54-1.76,5.12,5.12,0,0,1,1.86-2,5.87,5.87,0,0,1,5.78,0,5.12,5.12,0,0,1,1.86,2,5.76,5.76,0,0,1,.54,1.76,16.2,16.2,0,0,1,.14,2.18v6.39a16.2,16.2,0,0,1-.14,2.18,5.68,5.68,0,0,1-.54,1.76,5.12,5.12,0,0,1-1.86,2,5.81,5.81,0,0,1-5.78,0,5.12,5.12,0,0,1-1.86-2,5.68,5.68,0,0,1-.54-1.76,16.2,16.2,0,0,1-.14-2.18Zm3.64,7a2.45,2.45,0,0,0,.49,1.67,1.81,1.81,0,0,0,2.6,0,2.45,2.45,0,0,0,.49-1.67V91.61a2.45,2.45,0,0,0-.49-1.67,1.81,1.81,0,0,0-2.6,0,2.45,2.45,0,0,0-.49,1.67Z"/><path class="cls-1" d="M1162.63,105.12H1159v-1.88h-.07a5.28,5.28,0,0,1-1.38,1.51,3.32,3.32,0,0,1-2,.6,4.08,4.08,0,0,1-1.36-.25,3.06,3.06,0,0,1-1.21-.83,4.05,4.05,0,0,1-.86-1.47,6.68,6.68,0,0,1-.32-2.2V85.71h3.64V99.15a2.73,2.73,0,0,0,.47,1.68,1.55,1.55,0,0,0,1.32.61,1.51,1.51,0,0,0,1.43-.69,4.1,4.1,0,0,0,.39-2V85.71h3.64Z"/><path class="cls-1" d="M1169.28,107.37a2.21,2.21,0,0,0,.51,1.3,1.72,1.72,0,0,0,1.42.62,1.42,1.42,0,0,0,1.28-.6,2.69,2.69,0,0,0,.39-1.51v-3.82h-.07a4.71,4.71,0,0,1-1.44,1.47,3.69,3.69,0,0,1-1.95.52,3.28,3.28,0,0,1-3.18-1.84,5.4,5.4,0,0,1-.46-1.61,17.29,17.29,0,0,1-.15-2.56V92c0-1.4,0-2.43.11-3.1a4.1,4.1,0,0,1,.46-1.6,4,4,0,0,1,1.2-1.27,3.65,3.65,0,0,1,2.06-.49,4,4,0,0,1,1.16.15,3.19,3.19,0,0,1,.87.42,4.28,4.28,0,0,1,.72.63c.21.24.44.5.67.78V85.71h3.65v21.78a6.78,6.78,0,0,1-.31,2,5.15,5.15,0,0,1-1,1.83,5.08,5.08,0,0,1-1.71,1.34,5.42,5.42,0,0,1-2.47.52,5.58,5.58,0,0,1-1.71-.29,4.71,4.71,0,0,1-1.66-1,5.48,5.48,0,0,1-1.32-1.78,8.2,8.2,0,0,1-.74-2.8Zm0-8.22a3.29,3.29,0,0,0,.37,1.6,1.46,1.46,0,0,0,1.41.69,1.65,1.65,0,0,0,1.31-.59,2.24,2.24,0,0,0,.51-1.51V91.8a2.77,2.77,0,0,0-.5-1.74,1.55,1.55,0,0,0-1.32-.67,1.43,1.43,0,0,0-1.35.73,3.68,3.68,0,0,0-.43,1.91Z"/><path class="cls-1" d="M1182.85,96.89v2.64a2,2,0,0,0,.48,1.42,1.74,1.74,0,0,0,1.31.49,1.39,1.39,0,0,0,1.37-.65,3.64,3.64,0,0,0,.41-1.3h3.64a6.93,6.93,0,0,1-.37,2.3,5.1,5.1,0,0,1-1.09,1.83,5.23,5.23,0,0,1-1.71,1.27,5.45,5.45,0,0,1-2.25.46,5.34,5.34,0,0,1-2.9-.77,5.12,5.12,0,0,1-1.86-2,5.42,5.42,0,0,1-.53-1.76,14.71,14.71,0,0,1-.14-2.18V92.22a14.71,14.71,0,0,1,.14-2.18,5.5,5.5,0,0,1,.53-1.76,5.12,5.12,0,0,1,1.86-2,5.34,5.34,0,0,1,2.9-.76,5.53,5.53,0,0,1,2.26.45,4.9,4.9,0,0,1,1.72,1.29,5.93,5.93,0,0,1,1.07,1.93,7.35,7.35,0,0,1,.37,2.37v5.36Zm0-3.06h3.57V91.61a2.5,2.5,0,0,0-.48-1.67,1.82,1.82,0,0,0-2.61,0,2.5,2.5,0,0,0-.48,1.67Z"/><path class="cls-1" d="M1199.35,91.15a2,2,0,0,0-.59-1.49,1.85,1.85,0,0,0-1.27-.5,1.59,1.59,0,0,0-1.32.59,2.15,2.15,0,0,0-.46,1.36,2.32,2.32,0,0,0,.25,1,2.27,2.27,0,0,0,1.28.94l2.15.92a5.31,5.31,0,0,1,2.8,2.29,6.73,6.73,0,0,1,.77,3.18,6.28,6.28,0,0,1-.41,2.28,6.09,6.09,0,0,1-1.13,1.85,5,5,0,0,1-1.71,1.27,5.26,5.26,0,0,1-2.18.46,5.44,5.44,0,0,1-2-.39,4.87,4.87,0,0,1-1.69-1.11,5.61,5.61,0,0,1-1.2-1.81,6.85,6.85,0,0,1-.5-2.55h3.43a3.74,3.74,0,0,0,.52,1.49,1.53,1.53,0,0,0,1.44.69,2.08,2.08,0,0,0,1.42-.55,2,2,0,0,0,.62-1.55,2.38,2.38,0,0,0-.39-1.38,3.1,3.1,0,0,0-1.43-1l-1.75-.69a6.1,6.1,0,0,1-2.7-2.05,5.54,5.54,0,0,1-1-3.31,5.9,5.9,0,0,1,.43-2.28,5.29,5.29,0,0,1,2.86-3,5.11,5.11,0,0,1,2.07-.42,4.83,4.83,0,0,1,2,.43,5.24,5.24,0,0,1,1.63,1.19,5.73,5.73,0,0,1,1.07,1.8,6.39,6.39,0,0,1,.39,2.24Z"/><path d="M1127.17,212.57c-3.79,19.46-8.31,25.15-17.61,25.15-10.77,0-13.57-8.2-9.89-26.74,3.31-16.59,8.51-23.39,17.12-23.39C1127.1,187.59,1130.46,195.62,1127.17,212.57Zm-17.78-.78c-2.84,15-2,17.94,1,17.94,2.79,0,4.27-3.5,7-17.82,2.67-14,2-16.33-1.11-16.33C1113.64,195.58,1111.8,199.12,1109.39,211.79Z"/><path d="M1151.69,200.06c.19-2.73-.3-4.48-2.41-4.48s-4.14,2.78-6.15,12.14a9.24,9.24,0,0,1,7.3-3.17c7.53,0,9.54,7.63,7.47,17.24-2.11,10-6.33,15.93-15.44,15.93-11.75,0-13.4-9.8-10.34-25,3.6-17.9,8.37-25.07,18.06-25.07,10.18,0,11.4,7.84,11,12.45Zm-3.93,21.38c1-4.85,1.11-8.72-2-8.72-2.7,0-4.09,3-4.84,6.91-1.2,6.2-1,10.12,2,10.12C1145.35,229.75,1146.49,227.57,1147.76,221.44Z"/><path class="cls-1" d="M1128.81,263h3.64v1.88h.07a5.28,5.28,0,0,1,1.38-1.51,3.32,3.32,0,0,1,2-.6,4.08,4.08,0,0,1,1.36.25,3.14,3.14,0,0,1,1.21.82,4.19,4.19,0,0,1,.86,1.48,6.68,6.68,0,0,1,.32,2.2V282.4h-3.64V269a2.73,2.73,0,0,0-.47-1.68,1.55,1.55,0,0,0-1.32-.61,1.5,1.5,0,0,0-1.43.69,4.07,4.07,0,0,0-.39,2v13h-3.64Z"/><path class="cls-1" d="M1142.38,269.51a16.2,16.2,0,0,1,.14-2.18,5.68,5.68,0,0,1,.54-1.76,5.05,5.05,0,0,1,1.86-2,5.81,5.81,0,0,1,5.78,0,5.05,5.05,0,0,1,1.86,2,5.68,5.68,0,0,1,.54,1.76,16.2,16.2,0,0,1,.14,2.18v6.39a16.2,16.2,0,0,1-.14,2.18,5.76,5.76,0,0,1-.54,1.76,5.12,5.12,0,0,1-1.86,2,5.87,5.87,0,0,1-5.78,0,5.12,5.12,0,0,1-1.86-2,5.76,5.76,0,0,1-.54-1.76,16.2,16.2,0,0,1-.14-2.18Zm3.64,7a2.45,2.45,0,0,0,.49,1.67,1.81,1.81,0,0,0,2.6,0,2.5,2.5,0,0,0,.48-1.67V268.9a2.5,2.5,0,0,0-.48-1.67,1.81,1.81,0,0,0-2.6,0,2.45,2.45,0,0,0-.49,1.67Z"/><path class="cls-1" d="M1155.92,255.16h3.64v3.9h-3.64Zm0,7.84h3.64v19.4h-3.64Z"/><path class="cls-1" d="M1162.56,263h3.64v2.07a11.12,11.12,0,0,1,2.18-1.68,5.27,5.27,0,0,1,2.65-.62v4.14a2.69,2.69,0,0,0-1.11-.23,4.07,4.07,0,0,0-1.23.21,3.34,3.34,0,0,0-1.22.7,3.87,3.87,0,0,0-.91,1.31,4.85,4.85,0,0,0-.36,2V282.4h-3.64Z"/><path class="cls-1" d="M1175.81,274.18v2.64a1.94,1.94,0,0,0,.48,1.41,1.73,1.73,0,0,0,1.31.5,1.39,1.39,0,0,0,1.37-.65,3.45,3.45,0,0,0,.41-1.3H1183a6.94,6.94,0,0,1-.38,2.3,5.1,5.1,0,0,1-1.09,1.83,5,5,0,0,1-1.71,1.26,5.81,5.81,0,0,1-5.14-.3,5.12,5.12,0,0,1-1.86-2,5.5,5.5,0,0,1-.54-1.76,16.2,16.2,0,0,1-.14-2.18v-6.39a16.2,16.2,0,0,1,.14-2.18,5.42,5.42,0,0,1,.54-1.76,5.05,5.05,0,0,1,1.86-2,5.28,5.28,0,0,1,2.89-.77,5.58,5.58,0,0,1,2.27.46,5,5,0,0,1,1.71,1.28,6,6,0,0,1,1.07,1.94,7.36,7.36,0,0,1,.38,2.37v5.36Zm0-3.06h3.57V268.9a2.5,2.5,0,0,0-.48-1.67,1.62,1.62,0,0,0-1.3-.55,1.66,1.66,0,0,0-1.31.55,2.5,2.5,0,0,0-.48,1.67Z"/><path class="cls-1" d="M1192.31,268.44a2,2,0,0,0-.59-1.5,1.82,1.82,0,0,0-1.26-.49,1.58,1.58,0,0,0-1.33.59,2.21,2.21,0,0,0-.46,1.36,2.32,2.32,0,0,0,.25,1.05,2.39,2.39,0,0,0,1.29.94l2.14.92a5.23,5.23,0,0,1,2.8,2.29,6.62,6.62,0,0,1,.77,3.18,6.32,6.32,0,0,1-.41,2.28,6.06,6.06,0,0,1-1.12,1.85,5,5,0,0,1-1.72,1.26,5.1,5.1,0,0,1-2.18.46,5.35,5.35,0,0,1-2-.38,4.82,4.82,0,0,1-1.7-1.11,5.55,5.55,0,0,1-1.2-1.82,7,7,0,0,1-.5-2.54h3.43a4,4,0,0,0,.52,1.49,1.55,1.55,0,0,0,1.45.69,2.07,2.07,0,0,0,1.41-.55,2,2,0,0,0,.62-1.55,2.38,2.38,0,0,0-.39-1.38,3.1,3.1,0,0,0-1.43-1l-1.75-.69a6.08,6.08,0,0,1-2.7-2,5.54,5.54,0,0,1-1-3.31,5.9,5.9,0,0,1,.43-2.28,5.58,5.58,0,0,1,1.16-1.8,5.43,5.43,0,0,1,1.7-1.17,5.11,5.11,0,0,1,2.07-.42,4.84,4.84,0,0,1,2.05.44,5.12,5.12,0,0,1,1.63,1.19,5.55,5.55,0,0,1,1.07,1.8,6.39,6.39,0,0,1,.39,2.24Z"/></g></g></svg>