<svg xmlns="http://www.w3.org/2000/svg" viewBox="0 0 1090.46 94.2"><defs><style>.cls-1{stroke:#000;stroke-miterlimit:10;stroke-width:2px;}</style></defs><title>titre_station_1</title><g id="Calque_2" data-name="Calque 2"><g id="Station"><path d="M382.58,17.57H397.7L386,72.73h21.16L403.39,85.1H368.22Z" transform="translate(0 -16.33)"/><path d="M429.68,69.85,424.06,85.1H408.7L436,17.57h21.37l-.86,67.53h-15l.55-15.25Zm12.7-12.13c.49-10.47,1.25-22.4,1.69-28.61h-.41c-1.79,6.16-5.56,17.32-9.44,28.61Z" transform="translate(0 -16.33)"/><path d="M494.46,65.34c-.46,4.82.4,9.71,5.29,9.71,3.57,0,5.57-2.29,6.26-6.1.87-4.66-.5-8.18-7.15-13.57-9.52-7.7-13.23-13.38-11.45-23.23,1.61-8.84,7.6-15.82,19.75-15.82,16.74,0,19.88,11.78,18.67,19.9H511.9c.4-3.58.1-8.62-4.8-8.62-3,0-4.78,1.85-5.34,5.31s.47,5.88,7.4,11.33c11.13,8.83,14,15.44,11.67,26.29-2,9.11-8.51,15.79-21.33,15.79-17.11,0-20.92-10.88-19.38-21Z" transform="translate(0 -16.33)"/><path d="M542.47,29.83H529.62l2.65-12.26h40.6l-2.64,12.26H557.55L545.83,85.1H530.75Z" transform="translate(0 -16.33)"/><path d="M576.85,69.85,571.23,85.1H555.87l27.24-67.53h21.38l-.87,67.53h-15l.56-15.25Zm12.7-12.13c.49-10.47,1.25-22.4,1.69-28.61h-.41c-1.79,6.16-5.56,17.32-9.44,28.61Z" transform="translate(0 -16.33)"/><path d="M623.3,29.83H610.46l2.64-12.26h40.61l-2.65,12.26H638.39L626.67,85.1H611.58Z" transform="translate(0 -16.33)"/><path d="M675,17.57,660.63,85.1H645.51l14.37-67.53Z" transform="translate(0 -16.33)"/><path d="M720.23,53.48C714.74,78.89,705.88,86.33,693,86.33c-16,0-22.12-11.2-16.3-37.88,5.12-23.55,14.43-32.12,26.87-32.12C718.69,16.33,726.21,25.79,720.23,53.48Zm-28.36-3.57c-3.65,17-3.64,24.54,2,24.54,4.47,0,7.13-4.22,11.1-22.33,3.67-16.56,4.15-23.83-2-23.83C698.27,28.29,695.32,33.91,691.87,49.91Z" transform="translate(0 -16.33)"/><path d="M721.94,85.1l14.37-67.53H753c3.11,30.26,4.15,40.32,4.31,43.73h.27c1.17-8.5,3.54-21.63,5.66-31.46l2.62-12.27h13.67L765.18,85.1H748.72c-2.57-31.41-3.67-42.95-3.93-46.45h-.31c-1.23,8.13-3.71,22.26-6.06,33.31L735.6,85.1Z" transform="translate(0 -16.33)"/><line class="cls-1" y1="93.2" x2="1090.46" y2="93.2"/></g></g></svg>