<svg xmlns="http://www.w3.org/2000/svg" viewBox="0 0 350 71.71"><defs><style>.cls-1{fill:#fc6;}</style></defs><title>j_achete</title><g id="Calque_2" data-name="Calque 2"><g id="Tombola"><rect class="cls-1" width="350" height="71.71" rx="21.04" ry="21.04"/><path d="M111.51,21.61h3.25V38.49c0,6.71-3.29,8.76-7.63,8.76a10.43,10.43,0,0,1-3.48-.6l.48-2.65a7.88,7.88,0,0,0,2.74.48c2.92,0,4.64-1.31,4.64-6.25Z"/><path d="M124.53,21.2A42.83,42.83,0,0,1,121,30.07l-2.09.26a54,54,0,0,0,2.21-8.79Z"/><path d="M137.48,46.84l-.26-2.28h-.11a6.75,6.75,0,0,1-5.54,2.69,5.16,5.16,0,0,1-5.54-5.2c0-4.38,3.89-6.77,10.89-6.74v-.37c0-1.5-.41-4.19-4.12-4.19a9,9,0,0,0-4.71,1.34l-.75-2.17a11.28,11.28,0,0,1,5.95-1.61c5.54,0,6.89,3.78,6.89,7.42V42.5a24.92,24.92,0,0,0,.3,4.34ZM137,37.6c-3.6-.08-7.68.56-7.68,4.08a2.91,2.91,0,0,0,3.11,3.14,4.52,4.52,0,0,0,4.38-3,3.53,3.53,0,0,0,.19-1Z"/><path d="M158.4,46.17a12.11,12.11,0,0,1-5.2,1c-5.46,0-9-3.71-9-9.25s3.82-9.62,9.73-9.62a11,11,0,0,1,4.57.94l-.75,2.54a7.64,7.64,0,0,0-3.82-.86c-4.15,0-6.4,3.07-6.4,6.85,0,4.19,2.7,6.78,6.29,6.78a9.35,9.35,0,0,0,4-.9Z"/><path d="M162.26,20.27h3.29v11.3h.08A6,6,0,0,1,168,29.25a6.84,6.84,0,0,1,3.37-.94c2.44,0,6.33,1.5,6.33,7.75V46.84h-3.3V36.44c0-2.92-1.08-5.39-4.19-5.39a4.71,4.71,0,0,0-4.41,3.29,3.94,3.94,0,0,0-.23,1.57V46.84h-3.29Z"/><path d="M184.86,38.38c.08,4.46,2.92,6.29,6.22,6.29a12,12,0,0,0,5-.93l.56,2.35a14.52,14.52,0,0,1-6,1.13c-5.58,0-8.91-3.67-8.91-9.14s3.22-9.77,8.49-9.77c5.92,0,7.49,5.21,7.49,8.54a11.89,11.89,0,0,1-.11,1.53ZM194.52,36c0-2.09-.86-5.35-4.57-5.35-3.33,0-4.79,3.07-5,5.35ZM189,20.9l3.29,5.36h-2.35l-4.57-5.36Z"/><path d="M205.75,23.52v5.21h4.71v2.5h-4.71V41c0,2.25.63,3.52,2.47,3.52a7.54,7.54,0,0,0,1.91-.22l.15,2.47a8.13,8.13,0,0,1-2.92.45,4.57,4.57,0,0,1-3.56-1.39c-.94-1-1.27-2.58-1.27-4.72V31.23h-2.81v-2.5h2.81V24.38Z"/><path d="M215.78,38.38c.07,4.46,2.92,6.29,6.21,6.29a12,12,0,0,0,5-.93l.56,2.35a14.58,14.58,0,0,1-6,1.13c-5.58,0-8.91-3.67-8.91-9.14s3.22-9.77,8.5-9.77c5.91,0,7.49,5.21,7.49,8.54a11.51,11.51,0,0,1-.12,1.53ZM225.43,36c0-2.09-.86-5.35-4.56-5.35-3.33,0-4.79,3.07-5.06,5.35Z"/><path d="M240,44.93a2.2,2.2,0,0,1,2.21-2.32,2.32,2.32,0,0,1,0,4.64A2.19,2.19,0,0,1,240,44.93Zm.94-5.35-.53-18H244l-.53,18Z"/></g></g></svg>