<svg xmlns="http://www.w3.org/2000/svg" viewBox="0 0 75.93 85.54"><title>les packs_1</title><g id="Calque_2" data-name="Calque 2"><g id="Calque_1-2" data-name="Calque 1"><g id="medaille"><path d="M54.66,85.54a8.28,8.28,0,0,1-1.08-1.47Q47.25,69.9,41,55.69a1.06,1.06,0,0,0-1.22-.76,30.27,30.27,0,0,1-22.61-8l-.67-.57C12.3,55.72,8.16,65.05,4,74.56l2.45-.64,7.22-2c1.15-.3,1.61-.12,2.19.87l4.29,7.23c.15.26.32.51.58.9l3-6.73,6.9-15.58c.07-.15.14-.31.22-.46a1.49,1.49,0,0,1,1.89-.82,1.32,1.32,0,0,1,.78,1.87c-.61,1.45-1.25,2.89-1.89,4.33-3,6.83-6.06,13.67-9.12,20.5a8.34,8.34,0,0,1-1.09,1.47H20.3a13.06,13.06,0,0,1-1.16-1.44c-1.69-2.82-3.36-5.64-5-8.49-.39-.69-.78-.79-1.53-.58-3.4,1-6.81,1.86-10.21,2.79C1.68,78,1,78.2.35,77.56s-.32-1.29,0-2Q7.13,60.27,14,44.92a1.59,1.59,0,0,0-.2-1.87A26.13,26.13,0,0,1,17.4,7.89,30.46,30.46,0,0,1,39.12,0C52.62.28,65,10.22,67,22.68,68.82,33.89,64.8,43,55.13,49.85A27.9,27.9,0,0,1,44.61,54.3l-1,.23c3.9,8.8,7.77,17.53,11.72,26.42.23-.34.41-.57.55-.81l4.29-7.24c.64-1.09,1-1.25,2.32-.92L72,74.54c-.15-.38-.25-.65-.36-.91q-5.1-11.49-10.21-23a9.19,9.19,0,0,1-.36-.86,1.3,1.3,0,0,1,.81-1.72,1.43,1.43,0,0,1,1.9.77c.72,1.53,1.4,3.07,2.08,4.62q4.91,11.06,9.79,22.14a2.47,2.47,0,0,1,.15,1.66c-.29.75-1.06.86-1.88.63C70.38,76.93,66.8,76,63.23,75c-.64-.18-.95-.07-1.26.48q-2.51,4.34-5.08,8.63a13.06,13.06,0,0,1-1.16,1.44ZM38,2.71C23.41,2.71,11.5,13.83,11.5,27.49S23.38,52.27,38,52.27,64.53,41.17,64.54,27.5,52.64,2.72,38,2.71Z"/><path d="M38.06,5.4c11.67.09,21.58,8.09,23.29,18.86.16,1-.27,1.72-1.15,1.85s-1.56-.42-1.75-1.49A19.94,19.94,0,0,0,42.59,8.67C29.65,5.9,17.17,15.2,17.38,27.59c.14,8.15,4.32,14.16,12.23,17.49s15.31,2.11,21.91-3a18,18,0,0,0,6.93-11.64c.17-1.09.79-1.65,1.7-1.54a1.36,1.36,0,0,1,1.22,1.71,20.82,20.82,0,0,1-8.63,14.06,23.82,23.82,0,0,1-23.67,3.17c-8.34-3.21-13.26-9.24-14.45-17.62C12.94,18.48,21.71,7.63,34.24,5.73,35.5,5.54,36.79,5.51,38.06,5.4Z"/><path d="M27,39.64c.45-2.81.88-5.62,1.38-8.42a1.43,1.43,0,0,0-.54-1.46c-2-1.91-4.07-3.84-6.1-5.77a1.42,1.42,0,0,1-.57-1.63,1.69,1.69,0,0,1,1.53-1c2.91-.44,5.83-.88,8.73-1.38a1.71,1.71,0,0,0,1-.73c1.31-2.25,2.56-4.53,3.83-6.8.4-.71.7-1.56,1.78-1.54s1.36.87,1.75,1.58c1.28,2.27,2.52,4.55,3.83,6.8a1.6,1.6,0,0,0,1,.67c2.91.5,5.82.95,8.73,1.4.72.11,1.34.3,1.58,1s-.13,1.17-.61,1.63c-2,1.92-4,3.86-6.1,5.76a1.37,1.37,0,0,0-.51,1.39c.47,2.69.87,5.39,1.32,8.09.11.66.08,1.33-.58,1.6a2.54,2.54,0,0,1-1.74,0c-2.7-1.18-5.35-2.46-8-3.66a1.74,1.74,0,0,0-1.21,0c-2.71,1.21-5.4,2.49-8.1,3.72C28.07,41.49,26.9,40.84,27,39.64ZM38,15.25c-1.21,2.17-2.33,4.13-3.4,6.12a2.14,2.14,0,0,1-1.78,1.2c-1,.12-1.94.3-2.91.45l-4.32.71c.25.26.4.42.56.57,1.54,1.48,3.07,3,4.63,4.42a1.77,1.77,0,0,1,.63,1.72c-.35,2-.65,4-1,5.94,0,.28-.05.57-.09,1l1-.41c1.89-.87,3.79-1.74,5.67-2.64a2.2,2.2,0,0,1,2,0c1.91.91,3.84,1.79,5.76,2.68.25.12.52.22.91.38-.05-.43-.08-.7-.12-1-.31-1.9-.58-3.8-.94-5.69a2.13,2.13,0,0,1,.78-2.16c1.67-1.53,3.29-3.12,5-4.76-.32-.09-.54-.17-.76-.21-2-.32-4.1-.68-6.17-.95a2.41,2.41,0,0,1-2.18-1.46c-.18-.41-.42-.79-.64-1.19C39.82,18.45,39,16.94,38,15.25Z"/></g></g></g></svg>