<svg xmlns="http://www.w3.org/2000/svg" viewBox="0 0 571.75 642.86"><defs><style>.cls-1{fill:gray;}</style></defs><title>phone_facts</title><g id="Calque_2" data-name="Calque 2"><g id="Station"><path d="M33.52.78l-1.62,8c-8.22,10.94-15.3,27.13-19,40.77H1.7C6,34.51,14.2,18.76,21.27,9.62H6.06L7.86.78Z"/><path d="M40.36,38.39c0,1.6.11,4,2.55,4,3.51,0,4.85-6.2,6.51-13.58a8,8,0,0,1-6.52,2.82c-7.28,0-10.22-6.6-8.31-16.54,1.81-9.49,6.89-15,14.9-15,10.73,0,14,7.66,10.59,25-3.29,16.6-6.49,25.14-17.95,25.14-10.92,0-11.52-8.47-11.34-11.79Zm4.17-23.13c-1.06,5.46-.57,8.36,2.36,8.36s3.93-2.5,4.68-6.41c1-5.15,1.11-9.2-2.25-9.2C47.16,8,45.6,9.77,44.53,15.26Z"/><path class="cls-1" d="M28.57,73h3.65v1.76a9.39,9.39,0,0,1,1.39-1.42,3.25,3.25,0,0,1,2.07-.57,3.27,3.27,0,0,1,3.18,1.84,5.42,5.42,0,0,1,.46,1.6,17.44,17.44,0,0,1,.15,2.57v7.38c0,1.41,0,2.44-.11,3.1a3.57,3.57,0,0,1-1.66,2.87,3.57,3.57,0,0,1-2.06.5,3.62,3.62,0,0,1-1.91-.51,4.54,4.54,0,0,1-1.44-1.48h-.07v9.61H28.57Zm7.25,6.31a3.7,3.7,0,0,0-.43-1.91A1.45,1.45,0,0,0,34,76.63a1.58,1.58,0,0,0-1.32.67,2.8,2.8,0,0,0-.5,1.74v7.54a2.25,2.25,0,0,0,.51,1.52,1.68,1.68,0,0,0,1.31.59A1.46,1.46,0,0,0,35.45,88a3.33,3.33,0,0,0,.37-1.61Z"/><path class="cls-1" d="M42.47,65.12h3.64V69H42.47Zm0,7.84h3.64v19.4H42.47Z"/><path class="cls-1" d="M55.72,78.39a2,2,0,0,0-.59-1.49,1.84,1.84,0,0,0-1.27-.49,1.57,1.57,0,0,0-1.32.59,2.14,2.14,0,0,0-.47,1.36,2.52,2.52,0,0,0,.25,1,2.39,2.39,0,0,0,1.29.94l2.14.91a5.31,5.31,0,0,1,2.81,2.3,6.73,6.73,0,0,1,.77,3.18A6.07,6.07,0,0,1,58.91,89a5.92,5.92,0,0,1-1.12,1.86,5.07,5.07,0,0,1-1.71,1.26,5.14,5.14,0,0,1-2.18.46,5.56,5.56,0,0,1-2-.38,5.21,5.21,0,0,1-1.7-1.11A5.69,5.69,0,0,1,49,89.28a6.8,6.8,0,0,1-.5-2.54H51.9a3.94,3.94,0,0,0,.51,1.49,1.56,1.56,0,0,0,1.45.69,2.07,2.07,0,0,0,1.41-.56,2,2,0,0,0,.63-1.55,2.31,2.31,0,0,0-.4-1.37,3,3,0,0,0-1.43-1l-1.75-.69a6,6,0,0,1-2.69-2,5.48,5.48,0,0,1-1-3.32,6.07,6.07,0,0,1,.42-2.27,5.6,5.6,0,0,1,1.17-1.8,5.23,5.23,0,0,1,1.69-1.17A5.14,5.14,0,0,1,54,72.73a4.88,4.88,0,0,1,2.06.44,4.93,4.93,0,0,1,1.62,1.19,5.55,5.55,0,0,1,1.07,1.8,6.13,6.13,0,0,1,.4,2.23Z"/><path class="cls-1" d="M61.68,67.07h3.65V73h2.25V76H65.33V86.78a3.8,3.8,0,0,0,.12,1.07,1.08,1.08,0,0,0,.39.57,1.42,1.42,0,0,0,.7.23,10.37,10.37,0,0,0,1,0v3.67h-1.5A4.63,4.63,0,0,1,64,91.94a3.8,3.8,0,0,1-1.34-1.07,4.24,4.24,0,0,1-.74-1.47,6,6,0,0,1-.23-1.59V76H59.86V73h1.82Z"/><path class="cls-1" d="M72.29,84.13v2.65a1.94,1.94,0,0,0,.48,1.41,1.75,1.75,0,0,0,1.31.5A1.39,1.39,0,0,0,75.45,88a3.7,3.7,0,0,0,.41-1.3h3.65A6.88,6.88,0,0,1,79.13,89a5.35,5.35,0,0,1-2.8,3.1,5.83,5.83,0,0,1-5.15-.3,5,5,0,0,1-1.85-2A5.26,5.26,0,0,1,68.79,88a14.71,14.71,0,0,1-.14-2.18V79.47a14.71,14.71,0,0,1,.14-2.18,5.32,5.32,0,0,1,.54-1.77,5,5,0,0,1,1.85-2,5.82,5.82,0,0,1,5.16-.31,4.88,4.88,0,0,1,1.72,1.28,6,6,0,0,1,1.07,1.94,7.36,7.36,0,0,1,.38,2.37v5.35Zm0-3.06h3.57V78.85a2.47,2.47,0,0,0-.48-1.66,1.8,1.8,0,0,0-2.61,0,2.47,2.47,0,0,0-.48,1.66Z"/><path class="cls-1" d="M88.79,78.39a2,2,0,0,0-.59-1.49,1.84,1.84,0,0,0-1.26-.49,1.57,1.57,0,0,0-1.33.59,2.13,2.13,0,0,0-.46,1.36,2.38,2.38,0,0,0,.25,1,2.35,2.35,0,0,0,1.29.94l2.14.91a5.28,5.28,0,0,1,2.8,2.3,6.73,6.73,0,0,1,.77,3.18A6.27,6.27,0,0,1,92,89a6,6,0,0,1-1.13,1.86,4.88,4.88,0,0,1-1.71,1.26,5.1,5.1,0,0,1-2.18.46,5.55,5.55,0,0,1-2-.38,5.11,5.11,0,0,1-1.7-1.11A5.55,5.55,0,0,1,82,89.28a7,7,0,0,1-.5-2.54H85a3.79,3.79,0,0,0,.52,1.49,1.54,1.54,0,0,0,1.45.69,2.09,2.09,0,0,0,1.41-.56A2,2,0,0,0,89,86.81a2.37,2.37,0,0,0-.39-1.37,3,3,0,0,0-1.43-1l-1.75-.69a6.08,6.08,0,0,1-2.7-2,5.55,5.55,0,0,1-1-3.32,5.88,5.88,0,0,1,.43-2.27,5.42,5.42,0,0,1,1.16-1.8A5.27,5.27,0,0,1,85,73.15a5.11,5.11,0,0,1,2.07-.42,4.84,4.84,0,0,1,2,.44,5.08,5.08,0,0,1,1.63,1.19,5.55,5.55,0,0,1,1.07,1.8,6.34,6.34,0,0,1,.39,2.23Z"/><path d="M307.61,49.5l7.64-38.17A34.28,34.28,0,0,1,310.9,11l1.53-7.25A11.75,11.75,0,0,0,320.28.51h7.14l-9.67,49Z"/><path d="M326.78,33.7c1.08-5.49,4.25-9.08,8.16-10.65-2.43-1.85-4-5.31-2.86-11.35C333.58,3.85,338.3,0,345.73,0c9.38,0,12.79,6.29,11.17,15-1.12,6.05-4.22,8-6.37,8.93,2.46,1.67,4.81,6,3.58,12.69-1.76,9.54-7,13.56-15.24,13.56C328.13,50.13,325,42.68,326.78,33.7Zm17.46,1.84c1.1-5.7.06-7.85-2.89-7.85-2.58,0-3.93,2.26-4.81,6.73-1,5.2-.27,8.06,2.78,8.06C342.06,42.48,343.36,40.11,344.24,35.54Zm-3-22.46c-.74,3.79-.55,6.61,2.26,6.61,2.07,0,3.29-1.67,4.08-5.48s.64-6.45-2.33-6.45C343,7.76,341.9,9.77,341.24,13.08Z"/><path d="M358.72,33.7c1.08-5.49,4.25-9.08,8.16-10.65-2.43-1.85-4-5.31-2.86-11.35C365.52,3.85,370.24,0,377.67,0c9.38,0,12.78,6.29,11.17,15-1.12,6.05-4.22,8-6.37,8.93,2.46,1.67,4.81,6,3.58,12.69-1.76,9.54-7,13.56-15.24,13.56C360.07,50.13,356.93,42.68,358.72,33.7Zm17.46,1.84c1.1-5.7.06-7.85-2.89-7.85-2.58,0-3.93,2.26-4.81,6.73-1,5.2-.28,8.06,2.78,8.06C374,42.48,375.29,40.11,376.18,35.54Zm-3-22.46c-.74,3.79-.55,6.61,2.26,6.61,2.07,0,3.29-1.67,4.08-5.48s.64-6.45-2.33-6.45C375,7.76,373.84,9.77,373.18,13.08Z"/><path d="M420.58,25c-3.79,19.46-8.31,25.15-17.61,25.15-10.77,0-13.57-8.2-9.89-26.74C396.39,6.85,401.59.05,410.2.05,420.51.05,423.87,8.08,420.58,25Zm-17.78-.78c-2.84,15-2,17.94,1,17.94,2.79,0,4.27-3.5,7-17.82,2.67-14,2-16.33-1.11-16.33C407.05,8,405.21,11.58,402.8,24.25Z"/><path class="cls-1" d="M336.87,74.09h3.64V76h.07A5.15,5.15,0,0,1,342,74.46a3.32,3.32,0,0,1,2.05-.6,3.12,3.12,0,0,1,2,.61,6,6,0,0,1,1.29,1.34,7.75,7.75,0,0,1,1.5-1.37,3.9,3.9,0,0,1,2.29-.58,4.39,4.39,0,0,1,1.39.25,3.49,3.49,0,0,1,1.29.82,4.29,4.29,0,0,1,.92,1.48,5.93,5.93,0,0,1,.36,2.2V93.49h-3.64V80.06a2.73,2.73,0,0,0-.47-1.68,1.55,1.55,0,0,0-1.32-.61,1.52,1.52,0,0,0-1.43.68,4.13,4.13,0,0,0-.39,2v13h-3.64V80.06a2.73,2.73,0,0,0-.47-1.68,1.55,1.55,0,0,0-1.32-.61,1.51,1.51,0,0,0-1.43.68,4.13,4.13,0,0,0-.39,2v13h-3.64Z"/><path class="cls-1" d="M371.91,91.73l-.68.79a3.92,3.92,0,0,1-.72.63,3.18,3.18,0,0,1-.89.42,4.13,4.13,0,0,1-1.18.15,3.28,3.28,0,0,1-3.18-1.83,5.49,5.49,0,0,1-.46-1.61,17.58,17.58,0,0,1-.14-2.57V80.33c0-1.4,0-2.44.1-3.1a4,4,0,0,1,.47-1.61,4.1,4.1,0,0,1,1.19-1.26,3.67,3.67,0,0,1,2.06-.5,3.53,3.53,0,0,1,1.91.52,4.53,4.53,0,0,1,1.45,1.47h.07v-9.6h3.64V93.49h-3.64Zm-3.61-4.55a3.68,3.68,0,0,0,.43,1.91,1.45,1.45,0,0,0,1.36.73,1.58,1.58,0,0,0,1.32-.67,2.87,2.87,0,0,0,.5-1.74V79.87a2.23,2.23,0,0,0-.52-1.51,1.64,1.64,0,0,0-1.3-.59,1.48,1.48,0,0,0-1.42.68,3.33,3.33,0,0,0-.37,1.61Z"/><path class="cls-1" d="M378.55,66.25h3.64v3.9L378.55,73Z"/><path class="cls-1" d="M392.09,91.5H392a6.93,6.93,0,0,1-1.45,1.65,3.27,3.27,0,0,1-2.05.57,4.54,4.54,0,0,1-1.33-.21,3.21,3.21,0,0,1-1.26-.76,4,4,0,0,1-1-1.57,7.71,7.71,0,0,1-.37-2.62,14.53,14.53,0,0,1,.25-2.89,4.68,4.68,0,0,1,.91-2.07,3.84,3.84,0,0,1,1.77-1.22,8.24,8.24,0,0,1,2.82-.41c.26,0,.52,0,.78,0l1,.08v-2a3,3,0,0,0-.4-1.64,1.5,1.5,0,0,0-1.42-.65,2,2,0,0,0-1.31.49,2.43,2.43,0,0,0-.77,1.46h-3.53a6.58,6.58,0,0,1,1.64-4.21A5.3,5.3,0,0,1,388,74.3a5.54,5.54,0,0,1,2.25-.44,5.85,5.85,0,0,1,2.14.39,4.59,4.59,0,0,1,1.73,1.14,5.39,5.39,0,0,1,1.16,1.92,7.48,7.48,0,0,1,.43,2.67V93.49h-3.64Zm0-6.35a5.28,5.28,0,0,0-1-.11,3.37,3.37,0,0,0-2,.59,2.48,2.48,0,0,0-.84,2.16,3,3,0,0,0,.5,1.8,1.62,1.62,0,0,0,1.39.69,1.77,1.77,0,0,0,1.45-.65,2.94,2.94,0,0,0,.52-1.84Z"/><path class="cls-1" d="M398.2,66.25h3.64V88a1.63,1.63,0,0,0,1.78,2v3.67a11.21,11.21,0,0,1-2.26-.21,3.86,3.86,0,0,1-1.72-.8A3.81,3.81,0,0,1,398.57,91a8.46,8.46,0,0,1-.37-2.75Z"/><path class="cls-1" d="M405.05,68.2h3.65v5.89H411v3.06H408.7V87.91a3.75,3.75,0,0,0,.12,1.07,1.14,1.14,0,0,0,.39.57,1.35,1.35,0,0,0,.7.23,10.37,10.37,0,0,0,1,0v3.67h-1.5a4.63,4.63,0,0,1-2.09-.42A3.8,3.8,0,0,1,406,92a4.06,4.06,0,0,1-.73-1.47,5.69,5.69,0,0,1-.24-1.59V77.15h-1.82V74.09h1.82Z"/><path class="cls-1" d="M412.34,66.25H416v3.9h-3.64Zm0,7.84H416v19.4h-3.64Z"/><path class="cls-1" d="M419,68.2h3.65v5.89h2.25v3.06h-2.25V87.91a3.75,3.75,0,0,0,.12,1.07,1.14,1.14,0,0,0,.39.57,1.32,1.32,0,0,0,.7.23,10.37,10.37,0,0,0,1,0v3.67h-1.5a4.63,4.63,0,0,1-2.09-.42A3.8,3.8,0,0,1,420,92a4.06,4.06,0,0,1-.73-1.47,5.69,5.69,0,0,1-.24-1.59V77.15h-1.82V74.09H419Z"/><path class="cls-1" d="M437.16,93.49h-3.64V91.62h-.07a5.42,5.42,0,0,1-1.38,1.51,3.39,3.39,0,0,1-2.05.59,3.84,3.84,0,0,1-1.36-.25,3,3,0,0,1-1.21-.82,4.05,4.05,0,0,1-.86-1.47,6.72,6.72,0,0,1-.32-2.2V74.09h3.64V87.52a2.74,2.74,0,0,0,.47,1.69,1.55,1.55,0,0,0,1.32.61,1.51,1.51,0,0,0,1.43-.69,4.1,4.1,0,0,0,.39-2v-13h3.64Z"/><path class="cls-1" d="M447.41,91.73l-.67.79a4.28,4.28,0,0,1-.72.63,3.18,3.18,0,0,1-.89.42,4.18,4.18,0,0,1-1.18.15,3.28,3.28,0,0,1-3.18-1.83,5.49,5.49,0,0,1-.46-1.61,17.35,17.35,0,0,1-.15-2.57V80.33c0-1.4,0-2.44.11-3.1a4.21,4.21,0,0,1,.46-1.61,4,4,0,0,1,1.2-1.26,3.65,3.65,0,0,1,2.06-.5,3.53,3.53,0,0,1,1.91.52,4.41,4.41,0,0,1,1.44,1.47h.07v-9.6h3.65V93.49h-3.65Zm-3.6-4.55a3.68,3.68,0,0,0,.43,1.91,1.43,1.43,0,0,0,1.35.73,1.55,1.55,0,0,0,1.32-.67,2.8,2.8,0,0,0,.5-1.74V79.87a2.23,2.23,0,0,0-.51-1.51,1.65,1.65,0,0,0-1.31-.59,1.47,1.47,0,0,0-1.41.68,3.33,3.33,0,0,0-.37,1.61Z"/><path class="cls-1" d="M457.38,85.27v2.64a1.94,1.94,0,0,0,.48,1.41,1.75,1.75,0,0,0,1.31.5,1.4,1.4,0,0,0,1.37-.65,3.64,3.64,0,0,0,.41-1.3h3.64a6.87,6.87,0,0,1-.37,2.29,5.35,5.35,0,0,1-2.8,3.1,5.83,5.83,0,0,1-5.15-.3,5,5,0,0,1-1.85-2,5.26,5.26,0,0,1-.54-1.76,14.71,14.71,0,0,1-.14-2.18V80.6a14.71,14.71,0,0,1,.14-2.18,5.19,5.19,0,0,1,.54-1.76,5,5,0,0,1,1.85-2,5.82,5.82,0,0,1,5.16-.31,4.88,4.88,0,0,1,1.72,1.28,6,6,0,0,1,1.07,1.94,7.35,7.35,0,0,1,.37,2.37v5.36Zm0-3.07H461V80a2.49,2.49,0,0,0-.48-1.66,1.82,1.82,0,0,0-2.61,0,2.49,2.49,0,0,0-.48,1.66Z"/><path class="cls-1" d="M473.92,74.09h3.64V76h.07A5.15,5.15,0,0,1,479,74.46a3.32,3.32,0,0,1,2.05-.6,3.17,3.17,0,0,1,2,.61,6.19,6.19,0,0,1,1.28,1.34,7.75,7.75,0,0,1,1.5-1.37,3.9,3.9,0,0,1,2.29-.58,4.39,4.39,0,0,1,1.39.25,3.42,3.42,0,0,1,1.29.82,4.46,4.46,0,0,1,.93,1.48,6.15,6.15,0,0,1,.35,2.2V93.49h-3.64V80.06a2.79,2.79,0,0,0-.46-1.68,1.58,1.58,0,0,0-1.33-.61,1.52,1.52,0,0,0-1.43.68,4.13,4.13,0,0,0-.39,2v13h-3.64V80.06a2.73,2.73,0,0,0-.47-1.68,1.55,1.55,0,0,0-1.32-.61,1.52,1.52,0,0,0-1.43.68,4.13,4.13,0,0,0-.39,2v13h-3.64Z"/><path class="cls-1" d="M494.74,80.6a16.2,16.2,0,0,1,.14-2.18,5.68,5.68,0,0,1,.54-1.76,5.05,5.05,0,0,1,1.86-2,5.81,5.81,0,0,1,5.78,0,5.05,5.05,0,0,1,1.86,2,5.68,5.68,0,0,1,.54,1.76,16.2,16.2,0,0,1,.14,2.18V87a16.2,16.2,0,0,1-.14,2.18,5.76,5.76,0,0,1-.54,1.76,5.12,5.12,0,0,1-1.86,2,5.87,5.87,0,0,1-5.78,0,5.12,5.12,0,0,1-1.86-2,5.76,5.76,0,0,1-.54-1.76,16.2,16.2,0,0,1-.14-2.18Zm3.64,7a2.46,2.46,0,0,0,.49,1.66,1.79,1.79,0,0,0,2.6,0A2.4,2.4,0,0,0,502,87.6V80a2.44,2.44,0,0,0-.49-1.66,1.81,1.81,0,0,0-2.6,0,2.49,2.49,0,0,0-.49,1.66Z"/><path class="cls-1" d="M510.17,74.09l2.5,12.09h.07l2.47-12.09H519l-5.22,22.77a7.23,7.23,0,0,1-.8,2.16,4.67,4.67,0,0,1-1.2,1.38,4.09,4.09,0,0,1-1.44.73,6,6,0,0,1-1.59.21h-1V97.66h.82a2.59,2.59,0,0,0,.93-.15,1.42,1.42,0,0,0,.69-.67,5.65,5.65,0,0,0,.56-1.53c.16-.68.35-1.57.57-2.7l-5-18.52Z"/><path class="cls-1" d="M523.53,85.27v2.64a1.94,1.94,0,0,0,.48,1.41,1.75,1.75,0,0,0,1.31.5,1.39,1.39,0,0,0,1.37-.65,3.64,3.64,0,0,0,.41-1.3h3.65a6.88,6.88,0,0,1-.38,2.29,5.35,5.35,0,0,1-2.8,3.1,5.83,5.83,0,0,1-5.15-.3,5,5,0,0,1-1.85-2,5.26,5.26,0,0,1-.54-1.76,14.71,14.71,0,0,1-.14-2.18V80.6a14.71,14.71,0,0,1,.14-2.18,5.19,5.19,0,0,1,.54-1.76,5,5,0,0,1,1.85-2,5.82,5.82,0,0,1,5.16-.31,4.88,4.88,0,0,1,1.72,1.28,6,6,0,0,1,1.07,1.94,7.36,7.36,0,0,1,.38,2.37v5.36Zm0-3.07h3.57V80a2.49,2.49,0,0,0-.48-1.66,1.82,1.82,0,0,0-2.61,0,2.49,2.49,0,0,0-.48,1.66Z"/><path class="cls-1" d="M533.42,74.09h3.65V76h.07a5.26,5.26,0,0,1,1.37-1.51,3.36,3.36,0,0,1,2.06-.6,4.12,4.12,0,0,1,1.36.25,3.22,3.22,0,0,1,1.21.82,4.34,4.34,0,0,1,.86,1.48,6.68,6.68,0,0,1,.32,2.2V93.49h-3.64V80.06a2.73,2.73,0,0,0-.47-1.68,1.55,1.55,0,0,0-1.32-.61,1.51,1.51,0,0,0-1.43.68,4.13,4.13,0,0,0-.39,2v13h-3.65Z"/><path class="cls-1" d="M547.32,74.09H551V76H551a5.15,5.15,0,0,1,1.38-1.51,3.32,3.32,0,0,1,2.05-.6,4.08,4.08,0,0,1,1.36.25,3.14,3.14,0,0,1,1.21.82,4.19,4.19,0,0,1,.86,1.48,6.43,6.43,0,0,1,.32,2.2V93.49h-3.64V80.06a2.79,2.79,0,0,0-.46-1.68,1.56,1.56,0,0,0-1.33-.61,1.52,1.52,0,0,0-1.43.68,4.13,4.13,0,0,0-.39,2v13h-3.64Z"/><path class="cls-1" d="M564.54,85.27v2.64a1.94,1.94,0,0,0,.48,1.41,1.72,1.72,0,0,0,1.3.5,1.42,1.42,0,0,0,1.38-.65,3.85,3.85,0,0,0,.41-1.3h3.64a6.87,6.87,0,0,1-.37,2.29A5.2,5.2,0,0,1,570.29,92a5,5,0,0,1-1.72,1.26,5.81,5.81,0,0,1-5.14-.3,5.12,5.12,0,0,1-1.86-2,5.76,5.76,0,0,1-.54-1.76,16.2,16.2,0,0,1-.14-2.18V80.6a16.2,16.2,0,0,1,.14-2.18,5.68,5.68,0,0,1,.54-1.76,5.05,5.05,0,0,1,1.86-2,5.31,5.31,0,0,1,2.89-.77,5.42,5.42,0,0,1,2.27.46,4.75,4.75,0,0,1,1.71,1.28,5.82,5.82,0,0,1,1.08,1.94,7.35,7.35,0,0,1,.37,2.37v5.36Zm0-3.07h3.57V80a2.49,2.49,0,0,0-.48-1.66,1.66,1.66,0,0,0-1.31-.55,1.62,1.62,0,0,0-1.3.55,2.49,2.49,0,0,0-.48,1.66Z"/><path d="M7.18,197.16c1.46-5.58,4.19-11.62,13.58-11.62,9.15,0,12.52,6,11,14.45-.93,5.13-4.19,7.9-7,8.75l0,.14c3.52,1.78,5.72,6.17,4.41,13.36-1.51,8.22-6.13,13.43-15.36,13.43-10.82,0-12.45-7.13-12.09-12.76h9.57c-.1,1.89.17,5.08,3.07,5.08,2.62,0,4-1.91,4.84-7,1-5.87-.22-8.1-4.69-8.1h-2l1.62-8.42h2.26c3.14,0,4.62-1.14,5.45-5.22.74-3.67.63-6.07-1.88-6.07-2.11,0-2.93,1.73-3.62,4Z"/><path d="M63.28,186.32l-1.63,8c-8.21,10.94-15.29,27.13-19,40.77H31.46c4.28-15,12.5-30.74,19.57-39.88H35.82l1.8-8.84Z"/><path class="cls-1" d="M28.57,263h3.65v2.07a10.79,10.79,0,0,1,2.17-1.68,5.27,5.27,0,0,1,2.65-.62v4.14a2.69,2.69,0,0,0-1.11-.23,4.07,4.07,0,0,0-1.23.21,3.34,3.34,0,0,0-1.22.7,3.87,3.87,0,0,0-.91,1.31,4.86,4.86,0,0,0-.35,2V282.4H28.57Z"/><path class="cls-1" d="M41.82,274.18v2.64a1.91,1.91,0,0,0,.49,1.41,1.69,1.69,0,0,0,1.3.5,1.42,1.42,0,0,0,1.38-.65,3.85,3.85,0,0,0,.41-1.3H49a6.94,6.94,0,0,1-.38,2.3,5.1,5.1,0,0,1-1.09,1.83,4.88,4.88,0,0,1-1.71,1.26,5.81,5.81,0,0,1-5.14-.3,5.12,5.12,0,0,1-1.86-2,5.76,5.76,0,0,1-.54-1.76,16.2,16.2,0,0,1-.14-2.18v-6.39a16.2,16.2,0,0,1,.14-2.18,5.68,5.68,0,0,1,.54-1.76,5.05,5.05,0,0,1,1.86-2,5.31,5.31,0,0,1,2.89-.77,5.58,5.58,0,0,1,2.27.46,4.87,4.87,0,0,1,1.71,1.28,5.8,5.8,0,0,1,1.07,1.94,7.36,7.36,0,0,1,.38,2.37v5.36Zm0-3.06H45.4V268.9a2.45,2.45,0,0,0-.49-1.67,1.81,1.81,0,0,0-2.6,0,2.45,2.45,0,0,0-.49,1.67Z"/><path class="cls-1" d="M51.72,263h3.64v1.88h.07a5.28,5.28,0,0,1,1.38-1.51,3.32,3.32,0,0,1,2-.6,3.11,3.11,0,0,1,2,.62,5.93,5.93,0,0,1,1.28,1.33,7.75,7.75,0,0,1,1.5-1.37,3.9,3.9,0,0,1,2.29-.58,4.39,4.39,0,0,1,1.39.25,3.42,3.42,0,0,1,1.29.82,4.46,4.46,0,0,1,.93,1.48,6.15,6.15,0,0,1,.35,2.2V282.4H66.22V269a2.79,2.79,0,0,0-.46-1.68,1.58,1.58,0,0,0-1.33-.61,1.51,1.51,0,0,0-1.43.69,4.07,4.07,0,0,0-.39,2v13H59V269a2.73,2.73,0,0,0-.47-1.68,1.55,1.55,0,0,0-1.32-.61,1.51,1.51,0,0,0-1.43.69,4.07,4.07,0,0,0-.39,2v13H51.72Z"/><path class="cls-1" d="M72.54,269.51a16.2,16.2,0,0,1,.14-2.18,5.68,5.68,0,0,1,.54-1.76,5.05,5.05,0,0,1,1.86-2,5.81,5.81,0,0,1,5.78,0,5.05,5.05,0,0,1,1.86,2,5.68,5.68,0,0,1,.54,1.76,16.2,16.2,0,0,1,.14,2.18v6.39a16.2,16.2,0,0,1-.14,2.18,5.76,5.76,0,0,1-.54,1.76,5.12,5.12,0,0,1-1.86,2,5.87,5.87,0,0,1-5.78,0,5.12,5.12,0,0,1-1.86-2,5.76,5.76,0,0,1-.54-1.76,16.2,16.2,0,0,1-.14-2.18Zm3.65,7a2.5,2.5,0,0,0,.48,1.67,1.62,1.62,0,0,0,1.3.55,1.66,1.66,0,0,0,1.31-.55,2.5,2.5,0,0,0,.48-1.67V268.9a2.5,2.5,0,0,0-.48-1.67,1.66,1.66,0,0,0-1.31-.55,1.62,1.62,0,0,0-1.3.55,2.5,2.5,0,0,0-.48,1.67Z"/><path class="cls-1" d="M86.08,263h3.64v1.88h.07a5.28,5.28,0,0,1,1.38-1.51,3.32,3.32,0,0,1,2-.6,4.08,4.08,0,0,1,1.36.25,3.14,3.14,0,0,1,1.21.82,4.19,4.19,0,0,1,.86,1.48,6.43,6.43,0,0,1,.32,2.2V282.4H93.33V269a2.79,2.79,0,0,0-.46-1.68,1.56,1.56,0,0,0-1.33-.61,1.51,1.51,0,0,0-1.43.69,4.07,4.07,0,0,0-.39,2v13H86.08Z"/><path class="cls-1" d="M100,257.11h3.65V263h2.25v3.06h-2.25v10.76a3.75,3.75,0,0,0,.12,1.07,1.14,1.14,0,0,0,.39.57,1.35,1.35,0,0,0,.7.23,10.37,10.37,0,0,0,1,0v3.67h-1.5a4.63,4.63,0,0,1-2.09-.42,3.7,3.7,0,0,1-1.34-1.07,4.06,4.06,0,0,1-.73-1.47,5.69,5.69,0,0,1-.24-1.59V266.06H98.15V263H100Z"/><path class="cls-1" d="M110.58,274.18v2.64a1.94,1.94,0,0,0,.48,1.41,1.73,1.73,0,0,0,1.31.5,1.39,1.39,0,0,0,1.37-.65,3.45,3.45,0,0,0,.41-1.3h3.65a6.94,6.94,0,0,1-.38,2.3,5.1,5.1,0,0,1-1.09,1.83,5,5,0,0,1-1.71,1.26,5.83,5.83,0,0,1-5.15-.3,5.09,5.09,0,0,1-1.85-2,5.5,5.5,0,0,1-.54-1.76,16.2,16.2,0,0,1-.14-2.18v-6.39a16.2,16.2,0,0,1,.14-2.18,5.42,5.42,0,0,1,.54-1.76,5,5,0,0,1,1.85-2,5.34,5.34,0,0,1,2.9-.77,5.58,5.58,0,0,1,2.27.46,5,5,0,0,1,1.71,1.28,6,6,0,0,1,1.07,1.94,7.36,7.36,0,0,1,.38,2.37v5.36ZM113.26,255h3.86l-4.72,5.4h-2.35Zm-2.68,16.08h3.57V268.9a2.5,2.5,0,0,0-.48-1.67,1.64,1.64,0,0,0-1.3-.55,1.66,1.66,0,0,0-1.31.55,2.5,2.5,0,0,0-.48,1.67Z"/><path class="cls-1" d="M123.8,274.18v2.64a1.94,1.94,0,0,0,.48,1.41,1.69,1.69,0,0,0,1.3.5,1.42,1.42,0,0,0,1.38-.65,3.85,3.85,0,0,0,.41-1.3H131a6.93,6.93,0,0,1-.37,2.3,5.24,5.24,0,0,1-1.09,1.83,5,5,0,0,1-1.72,1.26,5.23,5.23,0,0,1-2.25.46,5.3,5.3,0,0,1-2.89-.76,5.12,5.12,0,0,1-1.86-2,5.5,5.5,0,0,1-.53-1.76,14.64,14.64,0,0,1-.15-2.18v-6.39a14.64,14.64,0,0,1,.15-2.18,5.42,5.42,0,0,1,.53-1.76,5.05,5.05,0,0,1,1.86-2,5.31,5.31,0,0,1,2.89-.77,5.54,5.54,0,0,1,2.27.46,5,5,0,0,1,1.72,1.28,6,6,0,0,1,1.07,1.94,7.35,7.35,0,0,1,.37,2.37v5.36Zm0-3.06h3.57V268.9a2.5,2.5,0,0,0-.48-1.67,1.64,1.64,0,0,0-1.31-.55,1.62,1.62,0,0,0-1.3.55,2.5,2.5,0,0,0-.48,1.67Z"/><path class="cls-1" d="M140.3,268.44a2,2,0,0,0-.59-1.5,1.84,1.84,0,0,0-1.27-.49,1.57,1.57,0,0,0-1.32.59,2.15,2.15,0,0,0-.46,1.36,1.94,1.94,0,0,0,1.53,2l2.14.92a5.25,5.25,0,0,1,2.81,2.29,6.73,6.73,0,0,1,.77,3.18,6.32,6.32,0,0,1-.41,2.28,6.09,6.09,0,0,1-1.13,1.85,5.07,5.07,0,0,1-1.71,1.26,5.14,5.14,0,0,1-2.18.46,5.36,5.36,0,0,1-2-.38,4.91,4.91,0,0,1-1.7-1.11,5.69,5.69,0,0,1-1.19-1.82,6.75,6.75,0,0,1-.5-2.54h3.43a3.94,3.94,0,0,0,.51,1.49,1.56,1.56,0,0,0,1.45.69,2,2,0,0,0,1.41-.55,2,2,0,0,0,.63-1.55,2.32,2.32,0,0,0-.4-1.38,3.07,3.07,0,0,0-1.42-1l-1.75-.69a6,6,0,0,1-2.7-2,5.47,5.47,0,0,1-1-3.31,5.9,5.9,0,0,1,.43-2.28,5.38,5.38,0,0,1,2.85-3,5.18,5.18,0,0,1,2.07-.42,4.88,4.88,0,0,1,2.06.44,5.08,5.08,0,0,1,1.62,1.19,5.57,5.57,0,0,1,1.08,1.8,6.39,6.39,0,0,1,.39,2.24Z"/><path class="cls-1" d="M30.7,299.28h3.64v1.88h.07a5.32,5.32,0,0,1,1.38-1.52,3.39,3.39,0,0,1,2.05-.59,3.17,3.17,0,0,1,2,.61A6.19,6.19,0,0,1,41.09,301a8.14,8.14,0,0,1,1.5-1.38,4,4,0,0,1,2.29-.57,4.13,4.13,0,0,1,1.39.25,3.42,3.42,0,0,1,1.29.82,4.46,4.46,0,0,1,.93,1.48,6.15,6.15,0,0,1,.35,2.2v14.88H45.2V305.25a2.79,2.79,0,0,0-.46-1.68,1.59,1.59,0,0,0-1.33-.62,1.51,1.51,0,0,0-1.43.69,4.13,4.13,0,0,0-.39,2v13.05H38V305.25a2.73,2.73,0,0,0-.47-1.68,1.56,1.56,0,0,0-1.32-.62,1.51,1.51,0,0,0-1.43.69,4.13,4.13,0,0,0-.39,2v13.05H30.7Z"/><path class="cls-1" d="M55.17,310.45v2.65a1.94,1.94,0,0,0,.48,1.41,1.72,1.72,0,0,0,1.3.5,1.42,1.42,0,0,0,1.38-.65,3.92,3.92,0,0,0,.41-1.3h3.64a6.87,6.87,0,0,1-.37,2.29,5.2,5.2,0,0,1-1.09,1.84,5,5,0,0,1-1.72,1.26,5.81,5.81,0,0,1-5.14-.3,5.12,5.12,0,0,1-1.86-2,5.76,5.76,0,0,1-.54-1.76,16.31,16.31,0,0,1-.14-2.18v-6.39a16.46,16.46,0,0,1,.14-2.19,5.76,5.76,0,0,1,.54-1.76,5.09,5.09,0,0,1,1.86-2,5.31,5.31,0,0,1,2.89-.77,5.42,5.42,0,0,1,2.27.46,4.75,4.75,0,0,1,1.71,1.28A5.73,5.73,0,0,1,62,302.73a7.35,7.35,0,0,1,.37,2.37v5.35Zm2.67-19.13H61.7L57,296.72H54.63Zm-2.67,16.07h3.57v-2.22a2.47,2.47,0,0,0-.48-1.66A1.66,1.66,0,0,0,57,303a1.63,1.63,0,0,0-1.3.56,2.47,2.47,0,0,0-.48,1.66Z"/><path class="cls-1" d="M68.92,313.1a1.94,1.94,0,0,0,.48,1.41,1.72,1.72,0,0,0,1.3.5,1.42,1.42,0,0,0,1.38-.65,3.92,3.92,0,0,0,.41-1.3h3.64a6.87,6.87,0,0,1-.37,2.29,5.2,5.2,0,0,1-1.09,1.84A5,5,0,0,1,73,318.45a5.23,5.23,0,0,1-2.25.46,5.3,5.3,0,0,1-2.89-.76,5.12,5.12,0,0,1-1.86-2,5.5,5.5,0,0,1-.53-1.76,14.74,14.74,0,0,1-.15-2.18v-6.39a14.88,14.88,0,0,1,.15-2.19,5.5,5.5,0,0,1,.53-1.76,5.09,5.09,0,0,1,1.86-2,5.31,5.31,0,0,1,2.89-.77,5.39,5.39,0,0,1,2.27.46,4.75,4.75,0,0,1,1.71,1.28,5.78,5.78,0,0,1,1.08,2,8,8,0,0,1,.37,2.49H72.49a2.62,2.62,0,0,0-.48-1.74A1.66,1.66,0,0,0,70.7,303a1.63,1.63,0,0,0-1.3.56,2.47,2.47,0,0,0-.48,1.66Z"/><path class="cls-1" d="M85.17,316.69H85.1a7.13,7.13,0,0,1-1.45,1.65,3.27,3.27,0,0,1-2.05.57,4.54,4.54,0,0,1-1.33-.21,3.21,3.21,0,0,1-1.26-.76,4,4,0,0,1-1-1.57,7.71,7.71,0,0,1-.37-2.62,14.53,14.53,0,0,1,.25-2.89,4.68,4.68,0,0,1,.91-2.07,3.84,3.84,0,0,1,1.77-1.22,8.28,8.28,0,0,1,2.82-.41c.26,0,.52,0,.78,0l1,.08v-2a3.2,3.2,0,0,0-.39-1.65,1.55,1.55,0,0,0-1.43-.65,2,2,0,0,0-1.31.5,2.37,2.37,0,0,0-.76,1.46H77.74a6.64,6.64,0,0,1,1.64-4.21,5.15,5.15,0,0,1,1.72-1.21,5.54,5.54,0,0,1,2.25-.44,6.06,6.06,0,0,1,2.14.38,4.73,4.73,0,0,1,1.73,1.15,5.43,5.43,0,0,1,1.16,1.91,7.57,7.57,0,0,1,.43,2.68v13.51H85.17Zm0-6.35a5.28,5.28,0,0,0-1-.11,3.37,3.37,0,0,0-2,.59,2.46,2.46,0,0,0-.84,2.16,3,3,0,0,0,.5,1.8,1.62,1.62,0,0,0,1.39.69,1.77,1.77,0,0,0,1.45-.65,2.88,2.88,0,0,0,.52-1.84Z"/><path class="cls-1" d="M91.49,299.28h3.64v1.88h.08a5.44,5.44,0,0,1,1.37-1.52,3.41,3.41,0,0,1,2-.59,3.8,3.8,0,0,1,1.36.25,3.25,3.25,0,0,1,1.22.82,4.33,4.33,0,0,1,.85,1.48,6.43,6.43,0,0,1,.32,2.2v14.88H98.74V305.25a2.72,2.72,0,0,0-.46-1.68A1.56,1.56,0,0,0,97,303a1.49,1.49,0,0,0-1.43.69,4,4,0,0,0-.4,2v13.05H91.49Z"/><path class="cls-1" d="M105.38,291.44H109v3.9h-3.65Zm0,7.84H109v19.4h-3.65Z"/><path class="cls-1" d="M119.28,316.92h-.07a4.67,4.67,0,0,1-1.45,1.48,3.62,3.62,0,0,1-1.91.51,3.53,3.53,0,0,1-2-.5,3.57,3.57,0,0,1-1.66-2.87,29.14,29.14,0,0,1-.11-3.1v-7.38a19.22,19.22,0,0,1,.14-2.57,5.41,5.41,0,0,1,.47-1.6,3.25,3.25,0,0,1,3.17-1.84,4.08,4.08,0,0,1,1.18.15,3.93,3.93,0,0,1,.9.42,3.58,3.58,0,0,1,.71.64c.22.24.44.5.68.78v-1.76h3.64v27.25h-3.64Zm-3.61-4.21a3.33,3.33,0,0,0,.38,1.61,1.46,1.46,0,0,0,1.41.69,1.66,1.66,0,0,0,1.3-.59,2.21,2.21,0,0,0,.52-1.52v-7.54a2.87,2.87,0,0,0-.5-1.74,1.58,1.58,0,0,0-1.32-.67,1.48,1.48,0,0,0-1.36.73,3.7,3.7,0,0,0-.43,1.91Z"/><path class="cls-1" d="M136.82,318.68h-3.65v-1.87h-.07a5.54,5.54,0,0,1-1.37,1.51,3.42,3.42,0,0,1-2.06.59,3.79,3.79,0,0,1-1.35-.25,3.07,3.07,0,0,1-1.22-.82,4.2,4.2,0,0,1-.86-1.47,6.72,6.72,0,0,1-.32-2.2V299.28h3.65v13.43a2.74,2.74,0,0,0,.46,1.69,1.58,1.58,0,0,0,1.32.61,1.5,1.5,0,0,0,1.43-.69,4.1,4.1,0,0,0,.39-2V299.28h3.65Z"/><path class="cls-1" d="M143.14,310.45v2.65a1.94,1.94,0,0,0,.48,1.41,1.75,1.75,0,0,0,1.31.5,1.4,1.4,0,0,0,1.37-.65,3.7,3.7,0,0,0,.41-1.3h3.64a6.87,6.87,0,0,1-.37,2.29,5.35,5.35,0,0,1-2.8,3.1,5.83,5.83,0,0,1-5.15-.3,5.12,5.12,0,0,1-1.86-2,5.5,5.5,0,0,1-.53-1.76,14.8,14.8,0,0,1-.14-2.18v-6.39a14.94,14.94,0,0,1,.14-2.19,5.5,5.5,0,0,1,.53-1.76,5.09,5.09,0,0,1,1.86-2,5.82,5.82,0,0,1,5.16-.31,4.88,4.88,0,0,1,1.72,1.28,5.88,5.88,0,0,1,1.07,1.94,7.35,7.35,0,0,1,.37,2.37v5.35Zm0-3.06h3.57v-2.22a2.47,2.47,0,0,0-.48-1.66,1.8,1.8,0,0,0-2.61,0,2.47,2.47,0,0,0-.48,1.66Z"/><path class="cls-1" d="M159.64,304.71a2,2,0,0,0-.59-1.49,1.84,1.84,0,0,0-1.27-.49,1.57,1.57,0,0,0-1.32.59,2.13,2.13,0,0,0-.46,1.36,2.38,2.38,0,0,0,.25,1.05,2.31,2.31,0,0,0,1.28.94l2.15.91a5.32,5.32,0,0,1,2.8,2.3,6.73,6.73,0,0,1,.77,3.18,6.27,6.27,0,0,1-.41,2.27,6.14,6.14,0,0,1-1.13,1.86,4.88,4.88,0,0,1-1.71,1.26,5.1,5.1,0,0,1-2.18.46,5.64,5.64,0,0,1-2-.38,5.17,5.17,0,0,1-1.69-1.11,5.55,5.55,0,0,1-1.2-1.82,6.8,6.8,0,0,1-.5-2.54h3.43a3.79,3.79,0,0,0,.52,1.49,1.53,1.53,0,0,0,1.44.69,2.09,2.09,0,0,0,1.42-.56,2,2,0,0,0,.62-1.55,2.37,2.37,0,0,0-.39-1.37,3,3,0,0,0-1.43-1l-1.75-.69a6,6,0,0,1-2.7-2.05,5.5,5.5,0,0,1-1-3.31,5.88,5.88,0,0,1,.43-2.27,5.42,5.42,0,0,1,1.16-1.8,5.27,5.27,0,0,1,1.7-1.17,5.11,5.11,0,0,1,2.07-.42,4.84,4.84,0,0,1,2,.44,5.08,5.08,0,0,1,1.63,1.19,5.45,5.45,0,0,1,1.07,1.8,6.34,6.34,0,0,1,.39,2.23Z"/><path d="M317.21,221.24c0,1.6.1,4,2.55,4,3.51,0,4.85-6.2,6.51-13.59a8,8,0,0,1-6.52,2.82c-7.28,0-10.22-6.6-8.32-16.54,1.82-9.48,6.9-15,14.9-15,10.74,0,14,7.66,10.6,25-3.29,16.6-6.5,25.15-18,25.15-10.92,0-11.51-8.47-11.34-11.8Zm4.16-23.13c-1.05,5.46-.56,8.36,2.36,8.36s3.93-2.5,4.68-6.4c1-5.16,1.12-9.21-2.25-9.21C324,190.86,322.45,192.62,321.37,198.11Z"/><path d="M369.75,207.88C366,227.35,361.44,233,352.14,233c-10.77,0-13.57-8.21-9.89-26.75,3.32-16.59,8.51-23.39,17.12-23.39C369.68,182.9,373,190.93,369.75,207.88ZM352,207.1c-2.84,15-2,17.94,1,17.94,2.79,0,4.27-3.5,7-17.82,2.67-14,2-16.33-1.11-16.33C356.22,190.89,354.38,194.43,352,207.1Z"/><path d="M402.56,207.88C398.76,227.35,394.25,233,385,233c-10.77,0-13.58-8.21-9.89-26.75,3.31-16.59,8.5-23.39,17.11-23.39C402.49,182.9,405.85,190.93,402.56,207.88Zm-17.78-.78c-2.84,15-2,17.94,1,17.94,2.79,0,4.27-3.5,7-17.82,2.66-14,2-16.33-1.12-16.33C389,190.89,387.19,194.43,384.78,207.1Z"/><path class="cls-1" d="M336.87,255h3.64v1.88h.07a5.28,5.28,0,0,1,1.38-1.51,3.32,3.32,0,0,1,2.05-.59,3.06,3.06,0,0,1,2,.61,5.81,5.81,0,0,1,1.29,1.34,7.5,7.5,0,0,1,1.5-1.38,4,4,0,0,1,2.29-.57,4.37,4.37,0,0,1,1.39.24,3.4,3.4,0,0,1,1.29.83,4.15,4.15,0,0,1,.92,1.47,5.93,5.93,0,0,1,.36,2.2v14.89h-3.64V261a2.73,2.73,0,0,0-.47-1.68,1.55,1.55,0,0,0-1.32-.61,1.51,1.51,0,0,0-1.43.69,4.1,4.1,0,0,0-.39,2v13.05h-3.64V261a2.73,2.73,0,0,0-.47-1.68,1.55,1.55,0,0,0-1.32-.61,1.5,1.5,0,0,0-1.43.69,4.1,4.1,0,0,0-.39,2v13.05h-3.64Z"/><path class="cls-1" d="M371.91,272.63l-.68.78a3.92,3.92,0,0,1-.72.63,3.18,3.18,0,0,1-.89.42,4.11,4.11,0,0,1-1.18.16,3.28,3.28,0,0,1-3.18-1.84,5.4,5.4,0,0,1-.46-1.61,17.52,17.52,0,0,1-.14-2.56v-7.39c0-1.4,0-2.43.1-3.1a4,4,0,0,1,.47-1.61,4.21,4.21,0,0,1,1.19-1.26,3.67,3.67,0,0,1,2.06-.49,3.62,3.62,0,0,1,1.91.51,4.74,4.74,0,0,1,1.45,1.47h.07v-9.6h3.64v27.25h-3.64Zm-3.61-4.56a3.74,3.74,0,0,0,.43,1.92,1.46,1.46,0,0,0,1.36.72,1.58,1.58,0,0,0,1.32-.67,2.83,2.83,0,0,0,.5-1.74v-7.54a2.25,2.25,0,0,0-.52-1.51,1.68,1.68,0,0,0-1.3-.59,1.46,1.46,0,0,0-1.42.69,3.29,3.29,0,0,0-.37,1.6Z"/><path class="cls-1" d="M381.87,266.16v2.64a2,2,0,0,0,.48,1.42,1.76,1.76,0,0,0,1.31.49,1.38,1.38,0,0,0,1.37-.65,3.45,3.45,0,0,0,.41-1.3h3.65a6.94,6.94,0,0,1-.38,2.3,5.43,5.43,0,0,1-2.8,3.1,5.45,5.45,0,0,1-2.25.46,5.34,5.34,0,0,1-2.9-.77,5.16,5.16,0,0,1-1.85-2,5.42,5.42,0,0,1-.54-1.76,16.2,16.2,0,0,1-.14-2.18v-6.39a16.2,16.2,0,0,1,.14-2.18,5.5,5.5,0,0,1,.54-1.76,5.16,5.16,0,0,1,1.85-2,5.34,5.34,0,0,1,2.9-.76,5.58,5.58,0,0,1,2.27.45,4.87,4.87,0,0,1,1.71,1.29,5.93,5.93,0,0,1,1.07,1.93,7.36,7.36,0,0,1,.38,2.37v5.36Zm0-3.06h3.57v-2.22a2.5,2.5,0,0,0-.48-1.67,1.62,1.62,0,0,0-1.3-.55,1.66,1.66,0,0,0-1.31.55,2.5,2.5,0,0,0-.48,1.67Z"/><path class="cls-1" d="M405.66,272.63c-.24.28-.46.54-.68.78a3.86,3.86,0,0,1-.71.63,3.11,3.11,0,0,1-.9.42,4,4,0,0,1-1.17.16,3.28,3.28,0,0,1-3.18-1.84,5.39,5.39,0,0,1-.47-1.61,19.05,19.05,0,0,1-.14-2.56v-7.39c0-1.4,0-2.43.11-3.1a4,4,0,0,1,.46-1.61,4.12,4.12,0,0,1,1.2-1.26,3.63,3.63,0,0,1,2.05-.49,3.59,3.59,0,0,1,1.91.51,4.74,4.74,0,0,1,1.45,1.47h.07v-9.6h3.64v27.25h-3.64Zm-3.61-4.56a3.84,3.84,0,0,0,.43,1.92,1.47,1.47,0,0,0,1.36.72,1.55,1.55,0,0,0,1.32-.67,2.83,2.83,0,0,0,.5-1.74v-7.54a2.2,2.2,0,0,0-.52-1.51,1.66,1.66,0,0,0-1.3-.59,1.46,1.46,0,0,0-1.41.69,3.29,3.29,0,0,0-.38,1.6Z"/><path class="cls-1" d="M415.63,266.16v2.64a2,2,0,0,0,.48,1.42,1.72,1.72,0,0,0,1.3.49,1.4,1.4,0,0,0,1.38-.65,3.85,3.85,0,0,0,.41-1.3h3.64a6.93,6.93,0,0,1-.37,2.3,5.24,5.24,0,0,1-1.09,1.83,5.17,5.17,0,0,1-1.72,1.27,5.38,5.38,0,0,1-2.25.46,5.31,5.31,0,0,1-2.89-.77,5.12,5.12,0,0,1-1.86-2,5.42,5.42,0,0,1-.53-1.76,14.64,14.64,0,0,1-.15-2.18v-6.39a14.64,14.64,0,0,1,.15-2.18,5.5,5.5,0,0,1,.53-1.76,5.12,5.12,0,0,1,1.86-2,5.3,5.3,0,0,1,2.89-.76,5.54,5.54,0,0,1,2.27.45,4.78,4.78,0,0,1,1.71,1.29,5.78,5.78,0,0,1,1.08,1.93,7.35,7.35,0,0,1,.37,2.37v5.36ZM418.3,247h3.86l-4.71,5.4h-2.36Zm-2.67,16.08h3.57v-2.22a2.5,2.5,0,0,0-.48-1.67,1.66,1.66,0,0,0-1.31-.55,1.62,1.62,0,0,0-1.3.55,2.5,2.5,0,0,0-.48,1.67Z"/><path class="cls-1" d="M425.52,255h3.64v1.88h.07a5.43,5.43,0,0,1,1.38-1.51,3.34,3.34,0,0,1,2.05-.59A4,4,0,0,1,434,255a3.16,3.16,0,0,1,1.22.83,4.19,4.19,0,0,1,.85,1.47,6.43,6.43,0,0,1,.32,2.2v14.89h-3.64V261a2.72,2.72,0,0,0-.46-1.68,1.56,1.56,0,0,0-1.33-.61,1.48,1.48,0,0,0-1.42.69,4,4,0,0,0-.4,2v13.05h-3.64Z"/><path class="cls-1" d="M439.41,247.14h3.65V251h-3.65Zm0,7.84h3.65v19.41h-3.65Z"/><path class="cls-1" d="M452.45,274.39h-3.21L444.52,255h3.86l2.43,12.4h.07l2.43-12.4h3.86Z"/><path class="cls-1" d="M461.74,266.16v2.64a2,2,0,0,0,.48,1.42,1.73,1.73,0,0,0,1.3.49,1.39,1.39,0,0,0,1.38-.65,3.64,3.64,0,0,0,.41-1.3H469a6.93,6.93,0,0,1-.37,2.3,5.1,5.1,0,0,1-1.09,1.83,5.17,5.17,0,0,1-1.72,1.27,5.38,5.38,0,0,1-2.25.46,5.31,5.31,0,0,1-2.89-.77,5.12,5.12,0,0,1-1.86-2,5.42,5.42,0,0,1-.53-1.76,14.64,14.64,0,0,1-.15-2.18v-6.39a14.64,14.64,0,0,1,.15-2.18,5.5,5.5,0,0,1,.53-1.76,5.12,5.12,0,0,1,1.86-2,5.3,5.3,0,0,1,2.89-.76,5.54,5.54,0,0,1,2.27.45,4.9,4.9,0,0,1,1.72,1.29,5.93,5.93,0,0,1,1.07,1.93,7.35,7.35,0,0,1,.37,2.37v5.36Zm0-3.06h3.57v-2.22a2.5,2.5,0,0,0-.48-1.67,1.82,1.82,0,0,0-2.61,0,2.5,2.5,0,0,0-.48,1.67Z"/><path class="cls-1" d="M471.42,247.14h3.64v21.77a1.63,1.63,0,0,0,1.79,2v3.68a11.24,11.24,0,0,1-2.27-.21,3.87,3.87,0,0,1-1.72-.81,3.77,3.77,0,0,1-1.07-1.66,8.52,8.52,0,0,1-.37-2.76Z"/><path class="cls-1" d="M481.6,266.16v2.64a2,2,0,0,0,.48,1.42,1.73,1.73,0,0,0,1.3.49,1.4,1.4,0,0,0,1.38-.65,3.85,3.85,0,0,0,.41-1.3h3.64a6.93,6.93,0,0,1-.37,2.3,5.24,5.24,0,0,1-1.09,1.83,5.17,5.17,0,0,1-1.72,1.27,5.38,5.38,0,0,1-2.25.46,5.31,5.31,0,0,1-2.89-.77,5.12,5.12,0,0,1-1.86-2,5.42,5.42,0,0,1-.53-1.76,14.64,14.64,0,0,1-.15-2.18v-6.39a14.64,14.64,0,0,1,.15-2.18,5.5,5.5,0,0,1,.53-1.76,5.12,5.12,0,0,1,1.86-2,5.3,5.3,0,0,1,2.89-.76,5.54,5.54,0,0,1,2.27.45,4.9,4.9,0,0,1,1.72,1.29,5.93,5.93,0,0,1,1.07,1.93,7.35,7.35,0,0,1,.37,2.37v5.36ZM484.28,247h3.85l-4.71,5.4h-2.36ZM481.6,263.1h3.57v-2.22a2.5,2.5,0,0,0-.48-1.67,1.82,1.82,0,0,0-2.61,0,2.5,2.5,0,0,0-.48,1.67Z"/><path d="M30.74,390.75c-3.79,19.47-8.31,25.16-17.61,25.16-10.77,0-13.57-8.2-9.89-26.75,3.32-16.59,8.51-23.39,17.12-23.39C30.67,365.77,34,373.8,30.74,390.75ZM13,390c-2.84,15-2,17.93,1,17.93,2.79,0,4.27-3.49,7-17.82,2.67-14,2-16.32-1.11-16.32C17.21,373.77,15.37,377.3,13,390Z"/><path d="M33.63,399.42c1.08-5.49,4.25-9.08,8.16-10.64-2.43-1.85-4-5.32-2.86-11.35,1.5-7.85,6.21-11.71,13.64-11.71,9.38,0,12.79,6.29,11.18,14.95-1.13,6.05-4.22,8.05-6.37,8.94,2.45,1.67,4.81,6,3.57,12.69-1.75,9.54-7,13.56-15.23,13.56C35,415.86,31.84,408.4,33.63,399.42Zm17.45,1.85c1.1-5.71.07-7.86-2.89-7.86-2.57,0-3.93,2.26-4.8,6.73-1,5.2-.28,8.06,2.77,8.06C48.91,408.2,50.2,405.84,51.08,401.27Zm-3-22.47c-.75,3.8-.56,6.62,2.26,6.62,2.07,0,3.29-1.67,4.08-5.48s.64-6.46-2.33-6.46C49.86,373.48,48.74,375.49,48.09,378.8Z"/><path class="cls-1" d="M36.5,455H33.29l-4.72-19.4h3.86L34.86,448h.07l2.43-12.4h3.86Z"/><path class="cls-1" d="M45.79,446.72v2.64a2,2,0,0,0,.48,1.42,1.74,1.74,0,0,0,1.3.5,1.41,1.41,0,0,0,1.38-.65,3.7,3.7,0,0,0,.41-1.3H53a6.87,6.87,0,0,1-.37,2.29,5.05,5.05,0,0,1-1.09,1.84,5.14,5.14,0,0,1-1.72,1.26,5.23,5.23,0,0,1-2.25.46,5.3,5.3,0,0,1-2.89-.76,5.12,5.12,0,0,1-1.86-2,5.5,5.5,0,0,1-.53-1.76,14.8,14.8,0,0,1-.14-2.18v-6.39a14.84,14.84,0,0,1,.14-2.19,5.5,5.5,0,0,1,.53-1.76,5.09,5.09,0,0,1,1.86-2,5.31,5.31,0,0,1,2.89-.77,5.39,5.39,0,0,1,2.27.46,4.88,4.88,0,0,1,1.72,1.28A5.93,5.93,0,0,1,52.63,439a7.37,7.37,0,0,1,.37,2.38v5.35Zm0-3.06h3.57v-2.22a2.47,2.47,0,0,0-.48-1.66,1.8,1.8,0,0,0-2.61,0,2.47,2.47,0,0,0-.48,1.66Z"/><path class="cls-1" d="M55.68,435.55h3.65v2.07a10.87,10.87,0,0,1,2.17-1.69,5.27,5.27,0,0,1,2.65-.61v4.13a2.87,2.87,0,0,0-1.11-.23,4.07,4.07,0,0,0-1.23.21,3.37,3.37,0,0,0-1.22.71,3.83,3.83,0,0,0-.91,1.3,4.89,4.89,0,0,0-.35,2V455H55.68Z"/><path class="cls-1" d="M65.61,429.66h3.65v5.89h2.25v3.06H69.26v10.75a3.83,3.83,0,0,0,.12,1.08,1.08,1.08,0,0,0,.39.57,1.42,1.42,0,0,0,.7.23c.29,0,.63,0,1,0V455H70a4.63,4.63,0,0,1-2.09-.42,3.8,3.8,0,0,1-1.34-1.07,4.33,4.33,0,0,1-.74-1.47,6,6,0,0,1-.23-1.59V438.61H63.79v-3.06h1.82Z"/><path class="cls-1" d="M76.22,446.72v2.64a2,2,0,0,0,.48,1.42,1.75,1.75,0,0,0,1.31.5,1.4,1.4,0,0,0,1.37-.65,3.7,3.7,0,0,0,.41-1.3h3.65a6.88,6.88,0,0,1-.38,2.29A5.05,5.05,0,0,1,82,453.46a5.21,5.21,0,0,1-1.71,1.26,5.83,5.83,0,0,1-5.15-.3,5,5,0,0,1-1.85-2,5.26,5.26,0,0,1-.54-1.76,14.8,14.8,0,0,1-.14-2.18v-6.39a14.84,14.84,0,0,1,.14-2.19,5.26,5.26,0,0,1,.54-1.76,5,5,0,0,1,1.85-2,5.82,5.82,0,0,1,5.16-.31A4.88,4.88,0,0,1,82,437.06,5.93,5.93,0,0,1,83.06,439a7.37,7.37,0,0,1,.38,2.38v5.35Zm0-3.06h3.57v-2.22a2.47,2.47,0,0,0-.48-1.66,1.8,1.8,0,0,0-2.61,0,2.47,2.47,0,0,0-.48,1.66Z"/><path class="cls-1" d="M92.72,441a2,2,0,0,0-.59-1.49,1.85,1.85,0,0,0-1.27-.5,1.57,1.57,0,0,0-1.32.6,2.13,2.13,0,0,0-.46,1.36,2.38,2.38,0,0,0,.25,1.05,2.31,2.31,0,0,0,1.28.94l2.15.91a5.32,5.32,0,0,1,2.8,2.3,6.73,6.73,0,0,1,.77,3.18,6.27,6.27,0,0,1-.41,2.27,6,6,0,0,1-1.13,1.86,5,5,0,0,1-1.71,1.26,5.1,5.1,0,0,1-2.18.46,5.64,5.64,0,0,1-2-.38,5.17,5.17,0,0,1-1.69-1.11,5.66,5.66,0,0,1-1.2-1.82,6.8,6.8,0,0,1-.5-2.54H88.9a3.79,3.79,0,0,0,.52,1.49,1.53,1.53,0,0,0,1.44.69,2.09,2.09,0,0,0,1.42-.56,2,2,0,0,0,.62-1.55,2.43,2.43,0,0,0-.39-1.38,3.1,3.1,0,0,0-1.43-1l-1.75-.69a6,6,0,0,1-2.7-2,5.5,5.5,0,0,1-1-3.31,5.88,5.88,0,0,1,.43-2.27,5.42,5.42,0,0,1,1.16-1.8,5.27,5.27,0,0,1,1.7-1.17,5.11,5.11,0,0,1,2.07-.42,4.84,4.84,0,0,1,2,.44A5.08,5.08,0,0,1,94.69,437a5.35,5.35,0,0,1,1.07,1.8,6.34,6.34,0,0,1,.39,2.23Z"/><path d="M0,598.17l.18-.9c1.74-8.82,5.27-14.9,14-23.16,6.21-5.85,7.49-7.33,8.25-11.6.58-3,.3-5.65-2.43-5.65-2.48,0-3.48,2-4.4,5.81H6.28c1.42-6.79,4.57-13.93,14.58-13.93,9,0,13.29,6.2,11.39,15.66-1.08,5.46-3,8.05-10.6,15.22-5.51,5.21-7.56,7.48-8.62,10H28.65l-2.48,8.6Z"/><path d="M33.41,582.36c1.08-5.48,4.25-9.07,8.16-10.64-2.43-1.85-4-5.32-2.86-11.35,1.5-7.85,6.22-11.7,13.65-11.7,9.38,0,12.78,6.28,11.17,15-1.12,6-4.22,8-6.37,8.93,2.46,1.67,4.81,6,3.58,12.69-1.76,9.54-7,13.56-15.24,13.56C34.76,598.8,31.62,591.35,33.41,582.36Zm17.46,1.85c1.09-5.7.06-7.85-2.89-7.85-2.58,0-3.93,2.26-4.81,6.73-1,5.19-.28,8.06,2.78,8.06C48.69,591.15,50,588.78,50.87,584.21Zm-3-22.46c-.74,3.79-.55,6.61,2.26,6.61,2.07,0,3.29-1.67,4.08-5.48s.64-6.46-2.33-6.46C49.65,556.42,48.53,558.44,47.87,561.75Z"/><path class="cls-1" d="M28.57,615.39h3.65V625h.07a4.41,4.41,0,0,1,1.44-1.47,3.53,3.53,0,0,1,1.91-.52,3.65,3.65,0,0,1,2.06.5,4.13,4.13,0,0,1,1.2,1.26,4.21,4.21,0,0,1,.46,1.61c.07.66.11,1.7.11,3.1v7.38a17.35,17.35,0,0,1-.15,2.57,5.49,5.49,0,0,1-.46,1.61,3.28,3.28,0,0,1-3.18,1.83,3.25,3.25,0,0,1-2.07-.57,9,9,0,0,1-1.39-1.42v1.76H28.57Zm7.25,13.81a3.33,3.33,0,0,0-.37-1.61,1.47,1.47,0,0,0-1.41-.68,1.65,1.65,0,0,0-1.31.59,2.23,2.23,0,0,0-.51,1.51v7.54a2.8,2.8,0,0,0,.5,1.74A1.55,1.55,0,0,0,34,639a1.43,1.43,0,0,0,1.35-.73,3.68,3.68,0,0,0,.43-1.91Z"/><path class="cls-1" d="M42.25,615.39H45.9v21.77a1.63,1.63,0,0,0,1.78,2v3.67a11.31,11.31,0,0,1-2.27-.21,3.48,3.48,0,0,1-2.78-2.47,8.43,8.43,0,0,1-.38-2.75Z"/><path class="cls-1" d="M52.43,634.41v2.64a1.94,1.94,0,0,0,.48,1.41,1.76,1.76,0,0,0,1.31.5,1.39,1.39,0,0,0,1.37-.65A3.45,3.45,0,0,0,56,637h3.65a6.88,6.88,0,0,1-.38,2.29,5.05,5.05,0,0,1-1.09,1.84,5,5,0,0,1-1.71,1.26,5.83,5.83,0,0,1-5.15-.3,5.16,5.16,0,0,1-1.85-2,5.5,5.5,0,0,1-.54-1.76,16.2,16.2,0,0,1-.14-2.18v-6.39a16.2,16.2,0,0,1,.14-2.18,5.42,5.42,0,0,1,.54-1.76,5.1,5.1,0,0,1,1.85-2,5.34,5.34,0,0,1,2.9-.77,5.42,5.42,0,0,1,2.27.46,4.84,4.84,0,0,1,1.71,1.28,6,6,0,0,1,1.07,1.94,7.36,7.36,0,0,1,.38,2.37v5.36Zm0-3.07H56v-2.22a2.49,2.49,0,0,0-.48-1.66,1.62,1.62,0,0,0-1.3-.55,1.66,1.66,0,0,0-1.31.55,2.49,2.49,0,0,0-.48,1.66Z"/><path class="cls-1" d="M73.22,642.63H69.58v-1.87h-.07a5.57,5.57,0,0,1-1.38,1.51,3.41,3.41,0,0,1-2,.59,3.8,3.8,0,0,1-1.36-.25,3.14,3.14,0,0,1-1.22-.82,4.19,4.19,0,0,1-.85-1.47,6.47,6.47,0,0,1-.32-2.2V623.23H66v13.43a2.74,2.74,0,0,0,.46,1.69,1.56,1.56,0,0,0,1.33.61,1.48,1.48,0,0,0,1.42-.69,4,4,0,0,0,.4-2v-13h3.64Z"/><path class="cls-1" d="M79.54,634.41v2.64a1.91,1.91,0,0,0,.49,1.41,1.72,1.72,0,0,0,1.3.5,1.39,1.39,0,0,0,1.37-.65,3.45,3.45,0,0,0,.41-1.3h3.65a6.88,6.88,0,0,1-.38,2.29,5.05,5.05,0,0,1-1.09,1.84,5,5,0,0,1-1.71,1.26,5.81,5.81,0,0,1-5.14-.3,5.12,5.12,0,0,1-1.86-2,5.76,5.76,0,0,1-.54-1.76,16.2,16.2,0,0,1-.14-2.18v-6.39a16.2,16.2,0,0,1,.14-2.18,5.68,5.68,0,0,1,.54-1.76,5.05,5.05,0,0,1,1.86-2,5.28,5.28,0,0,1,2.89-.77,5.42,5.42,0,0,1,2.27.46,4.75,4.75,0,0,1,1.71,1.28,5.8,5.8,0,0,1,1.07,1.94,7.36,7.36,0,0,1,.38,2.37v5.36Zm0-3.07h3.57v-2.22a2.49,2.49,0,0,0-.48-1.66,1.81,1.81,0,0,0-2.6,0,2.44,2.44,0,0,0-.49,1.66Z"/><path class="cls-1" d="M96,628.67a2,2,0,0,0-.59-1.5,1.82,1.82,0,0,0-1.26-.49,1.58,1.58,0,0,0-1.33.59,2.19,2.19,0,0,0-.46,1.36,2.35,2.35,0,0,0,.25,1,2.39,2.39,0,0,0,1.29.94l2.14.92a5.23,5.23,0,0,1,2.8,2.29,6.62,6.62,0,0,1,.77,3.18,6.27,6.27,0,0,1-.41,2.27,6.11,6.11,0,0,1-1.12,1.86,5,5,0,0,1-1.72,1.26,5.07,5.07,0,0,1-2.18.46,5.55,5.55,0,0,1-2-.38,5,5,0,0,1-1.7-1.11,5.55,5.55,0,0,1-1.2-1.82,7,7,0,0,1-.5-2.54h3.43a4,4,0,0,0,.52,1.49,1.55,1.55,0,0,0,1.45.69,2.09,2.09,0,0,0,1.41-.56,2,2,0,0,0,.62-1.55,2.37,2.37,0,0,0-.39-1.37,3,3,0,0,0-1.43-1L92.65,634a6.08,6.08,0,0,1-2.7-2,5.54,5.54,0,0,1-1-3.31,5.9,5.9,0,0,1,.43-2.28,5.58,5.58,0,0,1,1.16-1.8,5.27,5.27,0,0,1,1.7-1.17,5.11,5.11,0,0,1,2.07-.42,4.84,4.84,0,0,1,2,.44A5.12,5.12,0,0,1,98,624.63a5.55,5.55,0,0,1,1.07,1.8,6.39,6.39,0,0,1,.39,2.24Z"/><path d="M313.09,377.37c1.46-5.58,4.19-11.62,13.57-11.62,9.16,0,12.53,6,11,14.45-.93,5.14-4.19,7.91-7,8.75l0,.14c3.53,1.78,5.73,6.17,4.42,13.36-1.51,8.22-6.14,13.43-15.36,13.43-10.83,0-12.46-7.13-12.09-12.76h9.57c-.1,1.89.17,5.08,3.07,5.08,2.62,0,4-1.91,4.84-7,1-5.87-.22-8.09-4.7-8.09h-2l1.63-8.43h2.26c3.14,0,4.61-1.14,5.45-5.22.74-3.67.63-6.07-1.88-6.07-2.11,0-2.94,1.73-3.63,4Z"/><path d="M343.11,377.37c1.46-5.58,4.19-11.62,13.58-11.62,9.15,0,12.52,6,11,14.45-.92,5.14-4.18,7.91-7,8.75l0,.14c3.52,1.78,5.73,6.17,4.42,13.36-1.51,8.22-6.14,13.43-15.37,13.43-10.82,0-12.45-7.13-12.09-12.76h9.57c-.09,1.89.17,5.08,3.07,5.08,2.62,0,4-1.91,4.84-7,1-5.87-.22-8.09-4.69-8.09h-2l1.62-8.43h2.26c3.14,0,4.62-1.14,5.45-5.22.74-3.67.63-6.07-1.88-6.07-2.11,0-2.93,1.73-3.62,4Z"/><path class="cls-1" d="M336.87,432.53h3.64v2.07a10.91,10.91,0,0,1,2.18-1.69,5.31,5.31,0,0,1,2.64-.61v4.14a2.66,2.66,0,0,0-1.11-.23,4.07,4.07,0,0,0-1.23.21,3.3,3.3,0,0,0-1.21.7,3.79,3.79,0,0,0-.91,1.3,4.88,4.88,0,0,0-.36,2v11.52h-3.64Z"/><path class="cls-1" d="M346.26,439a16.2,16.2,0,0,1,.14-2.18,5.68,5.68,0,0,1,.54-1.76,5.05,5.05,0,0,1,1.86-2,5.81,5.81,0,0,1,5.78,0,5.05,5.05,0,0,1,1.86,2,5.68,5.68,0,0,1,.54,1.76,16.2,16.2,0,0,1,.14,2.18v6.39a16.2,16.2,0,0,1-.14,2.18,5.76,5.76,0,0,1-.54,1.76,5.12,5.12,0,0,1-1.86,2,5.87,5.87,0,0,1-5.78,0,5.12,5.12,0,0,1-1.86-2,5.76,5.76,0,0,1-.54-1.76,16.2,16.2,0,0,1-.14-2.18Zm3.64,7a2.4,2.4,0,0,0,.49,1.66,1.79,1.79,0,0,0,2.6,0,2.4,2.4,0,0,0,.49-1.66v-7.62a2.44,2.44,0,0,0-.49-1.66,1.81,1.81,0,0,0-2.6,0,2.44,2.44,0,0,0-.49,1.66Z"/><path class="cls-1" d="M370.69,451.93h-3.64v-1.87H367a5.42,5.42,0,0,1-1.38,1.51,3.39,3.39,0,0,1-2.05.59,3.84,3.84,0,0,1-1.36-.25,3,3,0,0,1-1.21-.82,4.05,4.05,0,0,1-.86-1.47,6.72,6.72,0,0,1-.32-2.2V432.53h3.64V446a2.74,2.74,0,0,0,.47,1.69,1.55,1.55,0,0,0,1.32.61,1.51,1.51,0,0,0,1.43-.69,4.1,4.1,0,0,0,.39-2V432.53h3.64Z"/><path class="cls-1" d="M377.34,454.19a2.24,2.24,0,0,0,.51,1.3,1.7,1.7,0,0,0,1.41.61,1.42,1.42,0,0,0,1.29-.59,2.69,2.69,0,0,0,.39-1.51v-3.83h-.07a4.64,4.64,0,0,1-1.44,1.48,3.68,3.68,0,0,1-1.95.51,3.28,3.28,0,0,1-3.18-1.83,5.49,5.49,0,0,1-.46-1.61,17.35,17.35,0,0,1-.15-2.57v-7.38c0-1.4,0-2.44.11-3.1a4.21,4.21,0,0,1,.46-1.61,4,4,0,0,1,1.2-1.26,3.63,3.63,0,0,1,2.05-.5,4,4,0,0,1,1.17.15,3.53,3.53,0,0,1,.87.43,3.86,3.86,0,0,1,.71.63c.22.24.45.5.68.78v-1.76h3.65v21.78a6.78,6.78,0,0,1-.31,2,5.24,5.24,0,0,1-1,1.83,5.08,5.08,0,0,1-1.71,1.34,5.42,5.42,0,0,1-2.47.52,5.58,5.58,0,0,1-1.71-.29,4.59,4.59,0,0,1-1.66-1,5.43,5.43,0,0,1-1.32-1.77,8.33,8.33,0,0,1-.74-2.8Zm0-8.23a3.3,3.3,0,0,0,.37,1.61,1.46,1.46,0,0,0,1.41.69,1.68,1.68,0,0,0,1.31-.59,2.25,2.25,0,0,0,.51-1.52v-7.53a2.82,2.82,0,0,0-.5-1.75,1.57,1.57,0,0,0-1.32-.66,1.47,1.47,0,0,0-1.36.72,3.85,3.85,0,0,0-.42,1.92Z"/><path class="cls-1" d="M390.91,443.71v2.64a1.94,1.94,0,0,0,.48,1.41,1.75,1.75,0,0,0,1.31.5,1.4,1.4,0,0,0,1.37-.65,3.64,3.64,0,0,0,.41-1.3h3.64a6.87,6.87,0,0,1-.37,2.29,5.35,5.35,0,0,1-2.8,3.1,5.83,5.83,0,0,1-5.15-.3,5.12,5.12,0,0,1-1.86-2,5.5,5.5,0,0,1-.53-1.76,14.71,14.71,0,0,1-.14-2.18V439a14.71,14.71,0,0,1,.14-2.18,5.42,5.42,0,0,1,.53-1.76,5.05,5.05,0,0,1,1.86-2,5.82,5.82,0,0,1,5.16-.31,4.88,4.88,0,0,1,1.72,1.28,6,6,0,0,1,1.07,1.94,7.35,7.35,0,0,1,.37,2.37v5.36Zm0-3.07h3.57v-2.22a2.49,2.49,0,0,0-.48-1.66,1.82,1.82,0,0,0-2.61,0,2.49,2.49,0,0,0-.48,1.66Z"/><path class="cls-1" d="M407.41,438a2,2,0,0,0-.59-1.5,1.84,1.84,0,0,0-1.27-.49,1.57,1.57,0,0,0-1.32.59,2.13,2.13,0,0,0-.46,1.36A2.35,2.35,0,0,0,404,439a2.31,2.31,0,0,0,1.28.94l2.15.92a5.26,5.26,0,0,1,2.8,2.29,6.73,6.73,0,0,1,.77,3.18,6.27,6.27,0,0,1-.41,2.27,6.14,6.14,0,0,1-1.13,1.86,5,5,0,0,1-1.71,1.26,5.1,5.1,0,0,1-2.18.46,5.64,5.64,0,0,1-2-.38,4.92,4.92,0,0,1-1.69-1.11,5.55,5.55,0,0,1-1.2-1.82,6.75,6.75,0,0,1-.5-2.54h3.43a3.79,3.79,0,0,0,.52,1.49,1.53,1.53,0,0,0,1.44.69,2.09,2.09,0,0,0,1.42-.56,2,2,0,0,0,.62-1.55,2.37,2.37,0,0,0-.39-1.37,3.09,3.09,0,0,0-1.43-1l-1.75-.69a6.08,6.08,0,0,1-2.7-2,5.54,5.54,0,0,1-1-3.31,5.9,5.9,0,0,1,.43-2.28,5.42,5.42,0,0,1,1.16-1.8,5.27,5.27,0,0,1,1.7-1.17,5.11,5.11,0,0,1,2.07-.42,4.87,4.87,0,0,1,2.05.44,5.24,5.24,0,0,1,1.63,1.19,5.73,5.73,0,0,1,1.07,1.8,6.39,6.39,0,0,1,.39,2.24Z"/><path d="M336.65,573.58c-3.8,19.46-8.31,25.15-17.61,25.15-10.77,0-13.58-8.2-9.89-26.74,3.31-16.59,8.5-23.39,17.11-23.39C336.58,548.6,339.94,556.63,336.65,573.58Zm-17.78-.78c-2.84,15-2,17.94,1,17.94,2.79,0,4.27-3.5,7-17.82,2.66-14,2-16.33-1.11-16.33C323.12,556.59,321.28,560.13,318.87,572.8Z"/><path d="M363.81,561.07c.18-2.73-.31-4.48-2.42-4.48s-4.13,2.78-6.15,12.14a9.26,9.26,0,0,1,7.31-3.17c7.52,0,9.53,7.63,7.47,17.24-2.12,10-6.33,15.93-15.45,15.93-11.75,0-13.4-9.8-10.33-25,3.59-17.9,8.37-25.07,18.05-25.07,10.19,0,11.4,7.84,11,12.45Zm-3.93,21.38c1-4.84,1.11-8.72-2.06-8.72-2.7,0-4.08,3-4.83,6.91-1.21,6.2-1,10.12,2,10.12C357.46,590.76,358.6,588.58,359.88,582.45Z"/><path class="cls-1" d="M336.87,619.54h3.64v1.87h.07A5.42,5.42,0,0,1,342,619.9a3.39,3.39,0,0,1,2.05-.59,3.84,3.84,0,0,1,1.36.25,3.1,3.1,0,0,1,1.21.82,4.2,4.2,0,0,1,.86,1.47,6.72,6.72,0,0,1,.32,2.2v14.89h-3.64V625.51a2.69,2.69,0,0,0-.47-1.68,1.56,1.56,0,0,0-1.32-.62,1.5,1.5,0,0,0-1.43.69,4.1,4.1,0,0,0-.39,2v13.05h-3.64Z"/><path class="cls-1" d="M350.44,626a16.31,16.31,0,0,1,.14-2.18,5.76,5.76,0,0,1,.54-1.76,5.12,5.12,0,0,1,1.86-2,5.87,5.87,0,0,1,5.78,0,5.12,5.12,0,0,1,1.86,2,5.76,5.76,0,0,1,.54,1.76,16.31,16.31,0,0,1,.14,2.18v6.39a16.35,16.35,0,0,1-.14,2.19,5.76,5.76,0,0,1-.54,1.76,5.09,5.09,0,0,1-1.86,2,5.81,5.81,0,0,1-5.78,0,5.09,5.09,0,0,1-1.86-2,5.76,5.76,0,0,1-.54-1.76,16.35,16.35,0,0,1-.14-2.19Zm3.64,7a2.42,2.42,0,0,0,.49,1.66,1.79,1.79,0,0,0,2.6,0,2.47,2.47,0,0,0,.48-1.66v-7.62a2.47,2.47,0,0,0-.48-1.66,1.79,1.79,0,0,0-2.6,0,2.42,2.42,0,0,0-.49,1.66Z"/><path class="cls-1" d="M364,611.69h3.64v3.91H364Zm0,7.85h3.64v19.4H364Z"/><path class="cls-1" d="M370.62,619.54h3.64v2.07a11.2,11.2,0,0,1,2.18-1.69,5.27,5.27,0,0,1,2.65-.61v4.13a2.87,2.87,0,0,0-1.11-.23,4.07,4.07,0,0,0-1.23.21,3.29,3.29,0,0,0-1.22.71,3.83,3.83,0,0,0-.91,1.3,4.88,4.88,0,0,0-.36,2v11.52h-3.64Z"/><path class="cls-1" d="M383.87,630.71v2.64a2,2,0,0,0,.48,1.42,1.76,1.76,0,0,0,1.31.5,1.39,1.39,0,0,0,1.37-.65,3.5,3.5,0,0,0,.41-1.3h3.65a6.88,6.88,0,0,1-.38,2.29,5.05,5.05,0,0,1-1.09,1.84,5.58,5.58,0,0,1-6.86.95,5.14,5.14,0,0,1-1.85-2,5.5,5.5,0,0,1-.54-1.76,16.35,16.35,0,0,1-.14-2.19V626a16.31,16.31,0,0,1,.14-2.18,5.5,5.5,0,0,1,.54-1.76,5.16,5.16,0,0,1,1.85-2,5.34,5.34,0,0,1,2.9-.76,5.42,5.42,0,0,1,2.27.46,4.73,4.73,0,0,1,1.71,1.28,5.93,5.93,0,0,1,1.07,1.93,7.37,7.37,0,0,1,.38,2.38v5.35Zm0-3.06h3.57v-2.22a2.47,2.47,0,0,0-.48-1.66,1.63,1.63,0,0,0-1.3-.56,1.66,1.66,0,0,0-1.31.56,2.47,2.47,0,0,0-.48,1.66Z"/><path class="cls-1" d="M400.37,625a2,2,0,0,0-.59-1.49,1.83,1.83,0,0,0-1.26-.5,1.59,1.59,0,0,0-1.33.6,2.1,2.1,0,0,0-.46,1.35,1.92,1.92,0,0,0,1.54,2l2.14.92a5.24,5.24,0,0,1,2.8,2.3,6.62,6.62,0,0,1,.77,3.18,6.2,6.2,0,0,1-1.53,4.13,5.28,5.28,0,0,1-1.72,1.26,5.1,5.1,0,0,1-2.18.46,5.55,5.55,0,0,1-2-.38,5.11,5.11,0,0,1-1.7-1.11,5.66,5.66,0,0,1-1.2-1.82,7,7,0,0,1-.5-2.54h3.43a4,4,0,0,0,.52,1.49,1.55,1.55,0,0,0,1.45.69,2.09,2.09,0,0,0,1.41-.56,2,2,0,0,0,.62-1.55,2.43,2.43,0,0,0-.39-1.38,3.1,3.1,0,0,0-1.43-1l-1.75-.69a6,6,0,0,1-2.7-2.05,5.52,5.52,0,0,1-1-3.31,5.88,5.88,0,0,1,.43-2.27,5.37,5.37,0,0,1,1.16-1.8,5.27,5.27,0,0,1,1.7-1.17,5.11,5.11,0,0,1,2.07-.42,4.84,4.84,0,0,1,2,.44,5,5,0,0,1,1.63,1.19,5.4,5.4,0,0,1,1.07,1.79,6.44,6.44,0,0,1,.39,2.24Z"/></g></g></svg>