<?xml version="1.0" encoding="UTF-8" standalone="no"?>
<svg
   xmlns:dc="http://purl.org/dc/elements/1.1/"
   xmlns:cc="http://creativecommons.org/ns#"
   xmlns:rdf="http://www.w3.org/1999/02/22-rdf-syntax-ns#"
   xmlns:svg="http://www.w3.org/2000/svg"
   xmlns="http://www.w3.org/2000/svg"
   xmlns:sodipodi="http://sodipodi.sourceforge.net/DTD/sodipodi-0.dtd"
   xmlns:inkscape="http://www.inkscape.org/namespaces/inkscape"
   viewBox="0 0 666.75436 215.79684"
   version="1.1"
   id="svg22"
   sodipodi:docname="skiutc_title_2.svg"
   inkscape:version="0.92.1 r15371"
   width="666.75439"
   height="215.79684">
  <metadata
     id="metadata26">
    <rdf:RDF>
      <cc:Work
         rdf:about="">
        <dc:format>image/svg+xml</dc:format>
        <dc:type
           rdf:resource="http://purl.org/dc/dcmitype/StillImage" />
        <dc:title>skiutc</dc:title>
      </cc:Work>
    </rdf:RDF>
  </metadata>
  <sodipodi:namedview
     pagecolor="#ffffff"
     bordercolor="#666666"
     borderopacity="1"
     objecttolerance="10"
     gridtolerance="10"
     guidetolerance="10"
     inkscape:pageopacity="0"
     inkscape:pageshadow="2"
     inkscape:window-width="1920"
     inkscape:window-height="1016"
     id="namedview24"
     showgrid="false"
     inkscape:zoom="0.70040782"
     inkscape:cx="114.93303"
     inkscape:cy="-181.93566"
     inkscape:window-x="0"
     inkscape:window-y="27"
     inkscape:window-maximized="1"
     inkscape:current-layer="svg22" />
  <defs
     id="defs4">
    <style
       id="style2">.cls-1{fill:#fff;}</style>
  </defs>
  <title
     id="title6">skiutc</title>
  <g
     id="g4522"
     transform="translate(101.36951,-298.3917)">
    <rect
       y="308.59402"
       x="-101.36951"
       height="205.59451"
       width="666.75439"
       id="rect4503"
       style="opacity:0;fill:#ffff7c;fill-opacity:1;stroke-width:0.65530545" />
    <g
       transform="translate(-19.988355,298.39758)"
       data-name="Calque 2"
       id="Calque_2">
      <g
         data-name="1er tableau"
         id="_1er_tableau">
        <path
           style="fill:#ffffff"
           inkscape:connector-curvature="0"
           id="path8"
           d="m 1.06,135 c 0.77,0 1.15,0.42 1.15,1.24 a 1,1 0 0 1 -1.15,1.15 C 0.35,137.37 0,137 0,136.37 v -0.18 C 0,135.43 0.35,135 1.06,135 Z m 0.71,31 c 0.23,0 0.35,0.15 0.35,0.45 a 0.31,0.31 0 0 1 -0.35,0.35 0.32,0.32 0 0 1 -0.36,-0.35 q 0,-0.39 0.36,-0.39 z m 2.91,8.22 c 0.24,0 0.36,0.15 0.36,0.44 a 0.32,0.32 0 0 1 -0.36,0.36 0.32,0.32 0 0 1 -0.35,-0.36 c 0,-0.23 0.12,-0.38 0.35,-0.38 z M 6.54,144.7 a 0.63,0.63 0 0 1 0.71,0.71 c 0,0.41 -0.24,0.62 -0.71,0.62 -0.47,0 -0.62,-0.26 -0.62,-0.62 0,-0.36 0.21,-0.65 0.62,-0.65 z M 9.9,107.5 a 0.31,0.31 0 0 1 0.35,0.35 0.31,0.31 0 0 1 -0.35,0.35 c -0.24,0 -0.36,-0.11 -0.36,-0.35 a 0.32,0.32 0 0 1 0.36,-0.29 z m 0.1,67.14 a 0.31,0.31 0 0 1 0.35,0.35 0.31,0.31 0 0 1 -0.35,0.35 c -0.3,0 -0.45,-0.12 -0.45,-0.35 0,-0.23 0.14,-0.35 0.45,-0.35 z M 11.14,61.69 c 0,0.35 -0.24,0.53 -0.71,0.53 A 0.55,0.55 0 0 1 9.81,61.6 c 0,-0.41 0.15,-0.62 0.44,-0.62 h 0.18 a 0.63,0.63 0 0 1 0.71,0.71 z m -0.53,68.14 a 0.36,0.36 0 0 1 0,0.71 0.36,0.36 0 1 1 0,-0.71 z m 2.12,-0.88 a 0.88,0.88 0 0 1 -1,0.88 h -0.17 c -0.53,-0.12 -0.8,-0.38 -0.8,-0.8 v -0.26 a 0.69,0.69 0 0 1 0.44,-0.71 0.87,0.87 0 0 1 -0.26,-0.62 c 0.18,-0.53 0.47,-0.79 0.88,-0.79 h 0.27 c 0.59,0.06 0.88,0.35 0.88,0.88 v 0.18 a 1.92,1.92 0 0 1 -0.35,0.7 1.7,1.7 0 0 1 0.11,0.59 z m -0.44,51.7 a 0.86,0.86 0 0 1 0.88,1 c 0,0.59 -0.32,0.88 -1,0.88 a 0.8,0.8 0 0 1 -0.8,-0.88 c 0.03,-0.65 0.33,-1 0.92,-1 z m 0.35,-4.25 c 0.24,0 0.35,0.12 0.35,0.36 a 0.31,0.31 0 0 1 -0.35,0.35 c -0.3,-0.06 -0.44,-0.18 -0.44,-0.35 0,-0.17 0.14,-0.36 0.44,-0.36 z m 2.3,10.17 a 0.86,0.86 0 0 1 1,1 c -0.06,0.53 -0.33,0.8 -0.8,0.8 h -0.17 c -0.59,0 -0.89,-0.27 -0.89,-0.8 0,-0.53 0.27,-1 0.86,-1 z M 15,174.28 a 0.23,0.23 0 0 1 -0.26,-0.26 0.24,0.24 0 0 1 0.26,-0.27 q 0.36,0 0.36,0.27 c 0.02,0.18 -0.1,0.26 -0.36,0.26 z M 19.42,30.58 V 31 q -0.26,1.59 -1.68,1.59 H 17.3 Q 15.71,32.41 15.71,31 v -0.44 q 0.18,-1.68 1.59,-1.68 h 0.44 q 1.7,0.29 1.7,1.7 z M 17,186.57 a 0.24,0.24 0 0 1 -0.27,0.26 c -0.23,0 -0.35,-0.09 -0.35,-0.26 0,-0.17 0.12,-0.27 0.35,-0.27 a 0.24,0.24 0 0 1 0.27,0.27 z m 3.09,-93.95 a 1.64,1.64 0 0 1 1.86,1.86 c -0.06,1.18 -0.62,1.76 -1.68,1.76 h -0.18 c -1.29,0 -1.94,-0.61 -1.94,-1.85 a 1.7,1.7 0 0 1 1.91,-1.77 z M 19.74,59.83 c 0.18,0 0.26,0.12 0.26,0.36 a 0.15,0.15 0 0 1 -0.17,0.17 h -0.09 c -0.18,0 -0.27,-0.06 -0.27,-0.17 V 60.1 a 0.24,0.24 0 0 1 0.24,-0.27 z M 23,66.28 v 0.18 a 1,1 0 0 1 -1.06,1 h -0.18 a 0.93,0.93 0 0 1 -0.88,-1 V 66.2 c 0.06,-0.65 0.35,-1 0.88,-1 h 0.35 A 0.93,0.93 0 0 1 23,66.28 Z m 0.53,-4 v 0.17 c -0.18,0.59 -0.5,0.89 -1,0.89 h -0.18 a 0.93,0.93 0 0 1 -0.88,-1 v -0.18 a 0.85,0.85 0 0 1 1,-0.8 h 0.17 c 0.57,0.12 0.87,0.42 0.87,0.95 z m 2.65,4 c -0.06,0.24 -0.18,0.36 -0.35,0.36 h -0.18 c -0.23,0 -0.35,-0.09 -0.35,-0.27 V 66.2 c 0.06,-0.24 0.17,-0.36 0.35,-0.36 h 0.09 a 0.39,0.39 0 0 1 0.42,0.44 z m 0.18,51.62 c 0.41,0 0.62,0.26 0.62,0.79 0,0.53 -0.27,0.71 -0.8,0.71 a 0.65,0.65 0 0 1 -0.62,-0.71 0.7,0.7 0 0 1 0.78,-0.79 z m 2.12,4.86 a 0.24,0.24 0 0 1 -0.27,-0.27 v -0.09 a 0.32,0.32 0 0 1 0.36,-0.35 0.24,0.24 0 0 1 0.26,0.27 v 0.08 a 0.32,0.32 0 0 1 -0.37,0.36 z m 43.3,-26.43 c -1.47,-0.11 -2.94,-0.17 -4.42,-0.17 a 34.16,34.16 0 0 0 -9.27,1.06 v 0.08 q -6.63,2 -7.34,7.52 v 1.23 a 5.9,5.9 0 0 0 1.59,4.07 q 4.34,4.86 15,4.86 19.36,0 29.35,11.23 a 24.86,24.86 0 0 1 6.36,16.61 26.59,26.59 0 0 1 -0.26,3.8 q -1.25,11.22 -11.23,18.12 c -0.94,0.65 -1.91,1.27 -2.92,1.85 l -0.61,1 17.14,-8 -17.85,9 -0.18,0.35 19.53,13.17 -16,-9 6.63,5.48 -8.22,-6.46 -1.51,-0.88 13.35,18.56 -14.75,-19.33 -1.17,17.77 0.35,-16.53 -6.8,12.73 6.1,-14.59 -16.6,10.87 15.65,-10.87 -4.69,0.62 a 43.21,43.21 0 0 1 -9.37,1.33 l -10.34,1.5 8.22,-1.41 h -0.18 a 62,62 0 0 1 -26.51,-5.57 44.59,44.59 0 0 1 -8.92,-5.39 2.06,2.06 0 0 1 0.17,0.88 1.73,1.73 0 0 1 -1.94,1.86 q -1.86,0 -1.86,-2 c 0.06,-1.17 0.62,-1.76 1.68,-1.76 h 0.18 a 3.77,3.77 0 0 1 0.79,0.08 l -0.09,-0.08 6.63,-6.9 6.37,-7.16 a 18.54,18.54 0 0 0 5.16,3.32 42,42 0 0 0 18.38,3.89 q 15.55,0 16.89,-9 v -0.44 a 6.62,6.62 0 0 0 -0.36,-2.13 1.46,1.46 0 0 1 -1.41,0.62 h -0.27 c -1.18,0 -1.77,-0.62 -1.77,-1.85 0,-1.23 0.56,-1.77 1.68,-1.77 q -4.32,-4.59 -14.76,-4.6 -19.44,0 -29.07,-11.22 a 23.7,23.7 0 0 1 -6.63,-16.62 23.41,23.41 0 0 1 0.27,-3.53 q 1.5,-11.22 11.22,-18.38 a 39.9,39.9 0 0 1 7.16,-3.89 L 32.35,82.81 53.29,79.19 56,78.48 37.65,71.32 57.89,77.51 57.8,77.15 50,63 57.52,75.55 55.5,62 59.39,77.56 74.15,58.15 61.07,77.07 72.47,71.76 a 0.42,0.42 0 0 1 0.44,-0.26 l 5.31,-2.5 -5,2.48 a 0.54,0.54 0 0 1 0.44,0.62 0.55,0.55 0 0 1 -0.62,0.62 0.63,0.63 0 0 1 -0.71,-0.71 V 71.92 L 61.25,77.6 a 49.61,49.61 0 0 1 6.09,-0.36 62,62 0 0 1 26.52,5.57 39,39 0 0 1 10,6.45 l -13,13.79 q 0,-0.52 -5.12,-3.09 A 42,42 0 0 0 71.86,96.33 L 74,99.25 Z M 33.5,44.19 v 0.27 a 1,1 0 0 1 -1,0.88 h -0.26 c -0.65,-0.06 -1,-0.36 -1,-0.88 V 44.1 c 0.05,-0.59 0.41,-0.88 1.06,-0.88 h 0.17 c 0.7,0.12 1.03,0.44 1.03,0.97 z m 0.79,3 c 0.29,0.06 0.44,0.18 0.44,0.36 v 0.17 a 0.32,0.32 0 0 1 -0.35,0.36 H 34.2 a 0.39,0.39 0 0 1 -0.44,-0.44 0.5,0.5 0 0 1 0.53,-0.45 z m 5.48,-9.81 v 0.27 c -0.06,0.53 -0.29,0.8 -0.71,0.8 H 38.8 c -0.59,-0.06 -0.88,-0.33 -0.88,-0.8 v -0.18 c 0,-0.59 0.35,-0.88 0.88,-0.88 H 39 c 0.51,0.06 0.77,0.32 0.77,0.79 z M 40,125.23 c 0.41,0 0.62,0.24 0.62,0.71 0,0.47 -0.21,0.53 -0.62,0.53 a 0.55,0.55 0 0 1 -0.62,-0.62 c 0.01,-0.41 0.21,-0.62 0.62,-0.62 z M 40,78 a 0.64,0.64 0 0 1 0.7,-0.62 h 0.18 a 0.65,0.65 0 0 1 0.62,0.71 v 0.08 c -0.06,0.42 -0.27,0.62 -0.62,0.62 H 40.7 A 0.71,0.71 0 0 1 40,78 Z M 43.8,49.28 V 49.1 c 0,-0.24 0.08,-0.35 0.26,-0.35 h 0.27 a 0.39,0.39 0 0 1 0.44,0.44 c -0.06,0.23 -0.18,0.35 -0.35,0.35 H 44.15 C 44,49.58 43.84,49.49 43.84,49.32 Z m 3.09,7.24 a 3.08,3.08 0 0 1 2.12,1.06 2.7,2.7 0 0 1 -0.01,4.11 2.61,2.61 0 0 1 -4.06,-0.18 2.87,2.87 0 0 1 -1,-2 2.93,2.93 0 0 1 1.06,-1.97 3,3 0 0 1 1.93,-0.98 z M 46.54,18.78 H 46.4 C 45.81,18.67 45.52,18.4 45.52,17.99 v -0.27 c 0,-0.58 0.35,-0.88 0.88,-0.88 h 0.18 a 0.94,0.94 0 0 1 0.88,1 V 18 a 0.79,0.79 0 0 1 -0.88,0.82 z m 1.76,6.9 c -0.06,0.29 -0.2,0.44 -0.44,0.44 -0.24,0 -0.35,-0.27 -0.35,-0.44 v -0.09 c 0,-0.23 0.09,-0.35 0.26,-0.35 H 48 c 0.22,0.04 0.34,0.18 0.34,0.48 z m 1,165 c 0.47,0 0.7,0.27 0.7,0.8 a 0.7,0.7 0 0 1 -0.79,0.79 0.7,0.7 0 0 1 -0.8,-0.79 c 0.02,-0.48 0.32,-0.76 0.91,-0.76 z m 1.14,-154 c 0,0.35 -0.23,0.53 -0.7,0.53 a 0.55,0.55 0 0 1 -0.62,-0.62 c 0.06,-0.35 0.23,-0.53 0.53,-0.53 h 0.18 a 0.54,0.54 0 0 1 0.63,0.62 z M 56.1,24.57 a 1.13,1.13 0 0 1 -0.79,1.06 2.49,2.49 0 0 1 -0.53,0.09 1.09,1.09 0 0 1 -1,-0.71 1.93,1.93 0 0 1 -0.17,-0.71 c 0,-0.35 0.26,-0.61 0.79,-0.79 A 1.41,1.41 0 0 1 55.02,23.33 1,1 0 0 1 56,24 a 1.64,1.64 0 0 1 0.12,0.57 z m 6.63,165.36 a 0.78,0.78 0 0 1 0.88,0.88 c 0,0.47 -0.29,0.71 -0.88,0.71 -0.59,0 -0.71,-0.27 -0.71,-0.8 0,-0.53 0.26,-0.79 0.73,-0.79 z M 63.26,33.41 c 0.65,0.06 1,0.32 1,0.79 v 0.18 a 1,1 0 1 1 -1,-1 z M 65.84,143 a 1.26,1.26 0 0 1 0.89,0.44 1.56,1.56 0 0 1 0.44,0.88 1.46,1.46 0 0 1 -0.53,1 1.34,1.34 0 0 1 -0.8,0.36 1.28,1.28 0 0 1 -1,-0.53 1.31,1.31 0 0 1 -0.35,-0.8 1.55,1.55 0 0 1 0.44,-1 1.21,1.21 0 0 1 0.91,-0.35 z m 4.86,-41.81 a 2.89,2.89 0 0 1 2,1 3.11,3.11 0 0 1 1,2 2.54,2.54 0 0 1 -1.06,1.94 2.53,2.53 0 0 1 -4.07,-0.09 3.13,3.13 0 0 1 -0.88,-1.94 2.86,2.86 0 0 1 1,-2 3.24,3.24 0 0 1 2.01,-0.91 z m -2.21,-58 a 0.29,0.29 0 0 1 0.27,0.17 0.37,0.37 0 0 1 0.09,0.27 c 0,0.06 -0.06,0.15 -0.18,0.26 a 0.26,0.26 0 0 1 -0.18,0.09 0.27,0.27 0 0 1 -0.26,-0.17 0.52,0.52 0 0 1 -0.18,-0.36 c 0,-0.06 0.06,-0.11 0.18,-0.17 a 0.66,0.66 0 0 1 0.26,-0.06 z m 6.37,7.42 a 1.53,1.53 0 0 1 1.32,0.89 2.13,2.13 0 0 1 0.27,1 1.35,1.35 0 0 1 -0.8,1.23 2.71,2.71 0 0 1 -1.06,0.27 1.52,1.52 0 0 1 -1.24,-0.8 2.75,2.75 0 0 1 -0.26,-1 1.67,1.67 0 0 1 0.91,-1.29 2.09,2.09 0 0 1 0.86,-0.27 z m 5.21,-22.27 c 0,0.65 -0.38,1 -1.15,1.15 a 1,1 0 0 1 -0.44,0.09 c -0.65,0 -1,-0.39 -1.15,-1.15 a 1,1 0 0 1 -0.09,-0.44 c 0,-0.65 0.39,-1 1.15,-1.15 a 1,1 0 0 1 0.44,-0.09 c 0.65,0 1,0.38 1.15,1.15 a 1,1 0 0 1 0.09,0.47 z m -1.94,5.3 a 0.35,0.35 0 0 1 0.35,0.27 v 0.17 a 0.54,0.54 0 0 1 -0.26,0.45 h -0.09 c -0.24,0 -0.39,-0.15 -0.44,-0.45 V 34 c 0,-0.18 0.11,-0.3 0.35,-0.36 z M 82.81,37 c -0.06,1.33 -0.68,2 -1.81,2 a 1.76,1.76 0 0 1 -2,-2 1.74,1.74 0 0 1 2,-1.83 1.69,1.69 0 0 1 1.81,1.83 z m -3,-17.32 A 0.52,0.52 0 0 1 79.45,19.5 0.57,0.57 0 0 1 79.1,19 0.74,0.74 0 0 1 79.36,18.56 q 0.18,-0.27 0.36,-0.27 a 0.51,0.51 0 0 1 0.44,0.27 0.5,0.5 0 0 1 0.26,0.44 0.57,0.57 0 0 1 -0.17,0.44 0.53,0.53 0 0 1 -0.44,0.27 z m 3.62,149.45 a 0.26,0.26 0 0 0 -0.18,0.09 l 0.27,-0.09 z M 84.84,19.71 v -0.18 c 0.18,-0.71 0.53,-1.06 1.07,-1.06 h 0.17 c 0.71,0.12 1.06,0.47 1.06,1.06 v 0.18 c -0.12,0.71 -0.47,1.06 -1.06,1.06 H 85.91 C 85.2,20.65 84.84,20.3 84.84,19.71 Z m 1.68,148 -0.17,0.18 V 168 Z M 89.17,33.85 a 0.79,0.79 0 0 1 -0.35,-0.09 0.71,0.71 0 0 1 -0.09,-0.26 0.29,0.29 0 0 1 0.18,-0.27 0.51,0.51 0 0 1 0.35,-0.09 q 0.09,0 0.27,0.18 a 0.26,0.26 0 0 1 0.09,0.18 0.29,0.29 0 0 1 -0.18,0.26 0.37,0.37 0 0 1 -0.27,0.09 z m 2.75,168.54 a 1.68,1.68 0 0 1 1.85,1.85 c -0.06,1.3 -0.68,1.95 -1.85,1.95 a 1.79,1.79 0 0 1 -1.86,-1.95 1.69,1.69 0 0 1 1.86,-1.85 z m 4.68,-135 v -0.26 q 0.18,-1.59 1.59,-1.59 h 0.26 a 1.56,1.56 0 0 1 1.6,1.68 v 0.26 a 1.48,1.48 0 0 1 -1.6,1.51 H 98.1 a 1.48,1.48 0 0 1 -1.5,-1.65 z m 6,-34.38 a 1.11,1.11 0 0 1 1,0.54 1.14,1.14 0 0 1 0.27,0.7 1.05,1.05 0 0 1 -0.53,0.89 1.69,1.69 0 0 1 -0.8,0.26 1.19,1.19 0 0 1 -0.88,-0.53 1.55,1.55 0 0 1 -0.27,-0.79 c 0,-0.3 0.21,-0.56 0.62,-0.8 a 1.06,1.06 0 0 1 0.6,-0.28 z m 2.3,62.49 q -1.77,0 -1.77,-1.68 v -0.18 c 0,-1.17 0.56,-1.76 1.68,-1.76 H 105 c 1.23,0 1.85,0.56 1.85,1.67 v 0.18 c 0,1.13 -0.65,1.72 -1.94,1.72 z m 1.5,-65.75 v -0.18 c 0.12,-0.59 0.41,-0.89 0.88,-0.89 h 0.27 a 0.91,0.91 0 0 1 0.79,1 v 0.17 c -0.12,0.59 -0.44,0.89 -1,0.89 h -0.18 a 0.9,0.9 0 0 1 -0.75,-1.04 z m 5.92,82.19 a 3,3 0 0 1 -2,-1.06 2.8,2.8 0 0 1 -1,-2 3,3 0 0 1 1.14,-2.12 2.8,2.8 0 0 1 2,-1 3,3 0 0 1 2,1.06 3.1,3.1 0 0 1 1,2 3,3 0 0 1 -1.06,2 3.11,3.11 0 0 1 -2.07,1.07 z m 6.45,11.22 a 1.25,1.25 0 0 1 1,0.53 1.28,1.28 0 0 1 0.45,0.89 1.52,1.52 0 0 1 -0.45,0.88 1.47,1.47 0 0 1 -1,0.35 1.24,1.24 0 0 1 -0.88,-0.44 1.5,1.5 0 0 1 -0.44,-0.88 1.46,1.46 0 0 1 0.53,-1 1.35,1.35 0 0 1 0.8,-0.38 z m 7.16,-13.34 a 1,1 0 0 1 0.88,0.53 1.26,1.26 0 0 1 0.27,0.79 1,1 0 0 1 -0.53,0.8 1.54,1.54 0 0 1 -0.71,0.17 1.06,1.06 0 0 1 -0.88,-0.44 1.38,1.38 0 0 1 -0.18,-0.62 1.12,1.12 0 0 1 0.53,-1 1.13,1.13 0 0 1 0.63,-0.28 z m 7.69,-93.86 a 2.76,2.76 0 0 1 2,1.06 2.86,2.86 0 0 1 1,2 2.9,2.9 0 0 1 -1.14,2 3.06,3.06 0 0 1 -2,1 2.8,2.8 0 0 1 -2,-1.06 3.19,3.19 0 0 1 -0.89,-1.95 3.17,3.17 0 0 1 1,-2.12 3.06,3.06 0 0 1 2.04,-0.98 z"
           class="cls-1" />
        <path
           style="fill:#ffffff"
           inkscape:connector-curvature="0"
           id="path10"
           d="M 84.49,2.39 A 0.78,0.78 0 0 1 83.61,1.5 c 0,-0.53 0.29,-0.79 0.88,-0.79 0.59,0 0.71,0.29 0.71,0.88 0,0.59 -0.2,0.8 -0.71,0.8 z m 2.83,12.1 c -0.77,0 -1.15,-0.32 -1.15,-1 v -0.17 c 0,-0.77 0.32,-1.15 1,-1.15 h 0.18 a 1,1 0 0 1 1.15,1.15 1,1 0 0 1 -1.18,1.17 z m 0.62,10.88 A 1.66,1.66 0 0 1 86.17,23.51 1.64,1.64 0 0 1 88,21.65 c 1.23,0.06 1.85,0.62 1.85,1.68 v 0.18 c 0.03,1.24 -0.62,1.86 -1.91,1.86 z m 5,84.84 c -0.47,0 -0.71,-0.21 -0.71,-0.62 a 0.63,0.63 0 0 1 0.71,-0.71 0.65,0.65 0 0 1 0.62,0.71 0.55,0.55 0 0 1 -0.67,0.62 z m 5,-108.62 C 97.47,1.59 97.24,1.3 97.24,0.71 97.24,0.12 97.51,0 98.1,0 a 0.63,0.63 0 0 1 0.71,0.71 0.78,0.78 0 0 1 -0.89,0.88 z m 2.39,42.95 a 3,3 0 0 1 -2,-1.06 3,3 0 0 1 -1,-1.94 2.75,2.75 0 0 1 1.06,-2 3.15,3.15 0 0 1 1.94,-0.89 3.2,3.2 0 0 1 2.12,1 3.26,3.26 0 0 1 0.89,2 2.61,2.61 0 0 1 -1,1.94 3.06,3.06 0 0 1 -2.03,0.95 z m 0.35,42.07 a 0.36,0.36 0 0 1 0,-0.71 0.36,0.36 0 1 1 0,0.71 z m 1,-1.94 c -0.47,0 -0.71,-0.27 -0.71,-0.8 0,-0.53 0.26,-0.62 0.79,-0.62 0.53,0 0.62,0.24 0.62,0.71 a 0.62,0.62 0 0 1 -0.74,0.71 z m 4,-5.84 a 1.71,1.71 0 0 1 -1.94,-1.94 q 0.09,-1.77 1.68,-1.77 h 0.26 a 1.64,1.64 0 0 1 1.79,1.88 1.69,1.69 0 0 1 -1.86,1.83 z m -1.41,-11 a 0.36,0.36 0 1 1 0.71,0 0.24,0.24 0 0 1 -0.27,0.26 h -0.09 c -0.3,-0.04 -0.42,-0.09 -0.42,-0.3 z m 1.41,132.12 a 0.62,0.62 0 0 1 0.71,-0.7 c 0.41,0 0.62,0.23 0.62,0.7 0,0.47 -0.21,0.56 -0.62,0.62 a 0.65,0.65 0 0 1 -0.78,-0.66 z m 1.59,-85.64 c 0,0.36 -0.29,0.53 -0.7,0.53 h -0.18 c -0.41,0 -0.62,-0.26 -0.62,-0.61 v -0.09 c 0.06,-0.47 0.27,-0.71 0.62,-0.71 h 0.18 c 0.43,0.02 0.63,0.31 0.63,0.84 z M 107.29,67 a 0.62,0.62 0 1 1 0,-1.24 c 0.41,0 0.62,0.24 0.62,0.71 A 0.57,0.57 0 0 1 107.29,67 Z m -0.17,17.5 a 0.36,0.36 0 0 1 0,0.71 0.36,0.36 0 1 1 0,-0.71 z M 164.38,125.15 164,103.49 143.88,124.7 189,171.9 H 163.77 L 129.83,136.19 V 171.9 H 110.92 V 77.24 h 18.2 l -16.26,-2.56 47.81,5.83 0.53,-0.62 -20.94,-14.31 21.65,13.7 0.18,-0.27 -22.63,-45.78 23.95,44.46 0.36,-0.45 h 0.79 l 0.18,-25.19 0.79,25.19 H 166 L 186.3,42.33 168,77.24 h 2.21 l 19.26,-16.08 -18,16.08 h 6.71 l 38.18,-10.69 -34,10.69 H 189 l -6.45,6.81 13.39,1.95 -13.79,-1.5 -5,5.3 32.7,24.31 -33.8,-23.26 -10.87,11.49 -0.44,22.72 a 0.35,0.35 0 0 1 0.18,0.35 v 0.09 c -0.06,0.17 -0.12,0.26 -0.18,0.26 l -0.18,6.72 -0.09,-6.81 a 0.33,0.33 0 0 1 -0.09,-0.26 z M 115.16,30.4 a 1.75,1.75 0 0 1 1.94,-1.77 1.64,1.64 0 0 1 1.9,1.86 q -0.09,1.77 -1.68,1.77 h -0.18 c -1.33,0 -1.98,-0.62 -1.98,-1.86 z m 3.62,39.07 c 0.18,0 0.27,0.08 0.27,0.26 v 0.09 c 0,0.3 -0.12,0.44 -0.36,0.44 -0.24,0 -0.26,-0.12 -0.26,-0.35 v -0.09 a 0.31,0.31 0 0 1 0.35,-0.35 z m 2.21,5 c -0.47,0 -0.71,-0.27 -0.71,-0.8 a 0.71,0.71 0 0 1 0.8,-0.8 0.7,0.7 0 0 1 0.62,0.8 c 0,0.48 -0.24,0.75 -0.7,0.75 z m 36.68,9.28 1.59,-1.75 -29.43,-4.69 v 35.88 l 26.78,-28.37 -26.25,5.75 z m -25.54,106.53 a 2.6,2.6 0 0 1 -0.8,-1.68 2.42,2.42 0 0 1 0.67,-1.6 2.3,2.3 0 0 1 1.59,-0.8 2.69,2.69 0 0 1 1.59,0.71 2.48,2.48 0 0 1 0.88,1.68 2.81,2.81 0 0 1 -2.38,2.39 2.42,2.42 0 0 1 -1.55,-0.7 z M 141,164 a 1,1 0 0 1 -1,0.8 1.45,1.45 0 0 1 -0.62,-0.18 c -0.53,-0.18 -0.79,-0.47 -0.79,-0.88 a 1.38,1.38 0 0 1 0.18,-0.62 c 0.23,-0.53 0.55,-0.8 1,-0.8 a 2.49,2.49 0 0 1 0.53,0.09 c 0.53,0.3 0.79,0.65 0.79,1.06 A 1.64,1.64 0 0 1 141,164 Z m 6.28,38.71 a 0.65,0.65 0 0 1 0.62,-0.71 0.63,0.63 0 0 1 0.71,0.71 c 0,0.41 -0.24,0.62 -0.71,0.62 a 0.55,0.55 0 0 1 -0.66,-0.59 z m 14.14,-90.59 a 1.26,1.26 0 0 1 -0.71,-1.06 1.55,1.55 0 0 1 0.27,-0.71 1.07,1.07 0 0 1 1,-0.7 1.66,1.66 0 0 1 0.8,0.26 1.08,1.08 0 0 1 0.7,1 1.63,1.63 0 0 1 -0.26,0.79 1.28,1.28 0 0 1 -1.06,0.71 1.47,1.47 0 0 1 -0.78,-0.26 z m 5.48,12.38 a 1.35,1.35 0 0 1 -1.5,-1.42 q 0,-1.41 1.5,-1.5 1.5,-0.09 1.5,1.5 c -0.04,0.97 -0.54,1.45 -1.54,1.45 z m -0.27,10.07 h 0.18 a 0.91,0.91 0 0 1 1,0.8 v 0.26 a 0.85,0.85 0 0 1 -0.79,0.88 h -0.27 a 0.86,0.86 0 0 1 -0.88,-0.79 v -0.27 a 0.86,0.86 0 0 1 0.72,-0.85 z m 3,-101.1 a 1.69,1.69 0 0 1 1.86,-1.86 c 1.17,0 1.79,0.62 1.85,1.86 a 1.73,1.73 0 0 1 -1.85,1.94 c -1.21,0.03 -1.83,-0.62 -1.89,-1.91 z m 4,92.17 a 0.31,0.31 0 0 1 0.09,0.18 V 126 q -0.18,0.18 -0.27,0.18 a 0.37,0.37 0 0 1 -0.27,-0.09 0.41,0.41 0 0 1 -0.08,-0.27 l 0.08,-0.18 a 0.29,0.29 0 0 1 0.18,-0.08 0.41,0.41 0 0 1 0.22,0.11 z m 9.81,0.45 a 0.79,0.79 0 0 1 -0.44,-0.71 0.74,0.74 0 0 1 0.26,-0.53 0.73,0.73 0 0 1 0.62,-0.44 1.18,1.18 0 0 1 0.62,0.17 1,1 0 0 1 0.44,0.71 0.94,0.94 0 0 1 -0.18,0.53 1,1 0 0 1 -0.79,0.44 1.25,1.25 0 0 1 -0.58,-0.14 z m 10.78,-3.1 v 0.18 c 0,0.47 -0.3,0.8 -0.88,1 h -0.18 c -0.53,0 -0.83,-0.29 -0.89,-0.88 V 123 c 0,-0.47 0.3,-0.76 0.89,-0.88 h 0.18 c 0.48,0.02 0.77,0.32 0.83,0.88 z m 3.53,-13.7 a 2,2 0 0 1 0,3.19 2.28,2.28 0 0 1 -1.59,0.79 2.63,2.63 0 0 1 -1.59,-0.71 2.28,2.28 0 0 1 -0.79,-1.59 2.52,2.52 0 0 1 0.79,-1.59 2.24,2.24 0 0 1 1.59,-0.88 2.28,2.28 0 0 1 1.54,0.82 z m -3,6.46 h -0.18 c -0.17,0 -0.26,-0.15 -0.26,-0.45 v -0.08 c 0,-0.18 0.12,-0.3 0.35,-0.36 a 0.42,0.42 0 0 1 0.44,0.36 c -0.05,0.38 -0.17,0.56 -0.4,0.56 z"
           class="cls-1" />
        <path
           style="fill:#ffffff"
           inkscape:connector-curvature="0"
           id="path12"
           d="m 113.48,96.86 h -0.18 c -0.17,0 -0.26,-0.2 -0.26,-0.44 v -0.26 a 0.39,0.39 0 0 1 0.44,-0.45 h 0.09 a 0.58,0.58 0 0 1 0.35,0.53 v 0.18 c -0.06,0.3 -0.2,0.44 -0.44,0.44 z m 3.89,62.4 h 0.53 a 1.16,1.16 0 0 1 1,1.32 v 0.36 a 1.31,1.31 0 0 1 -1.33,1 H 117 c -0.64,-0.29 -1,-0.68 -1,-1.15 v -0.35 c 0.28,-0.8 0.72,-1.18 1.37,-1.18 z m 1.68,-10.87 h 0.53 a 1.21,1.21 0 0 1 1.15,1.32 v 0.36 a 1.55,1.55 0 0 1 -1.33,1 h -0.53 c -0.65,-0.29 -1,-0.68 -1,-1.15 v -0.35 c 0.26,-0.8 0.65,-1.18 1.18,-1.18 z m 0.17,-55.06 h 0.36 c 0.53,0.17 0.79,0.47 0.79,0.88 v 0.53 a 0.84,0.84 0 0 1 -0.79,0.62 h -0.36 c -0.58,-0.18 -0.88,-0.47 -0.88,-0.88 v -0.36 c 0.24,-0.53 0.53,-0.79 0.88,-0.79 z m 45.08,7.07 a 4.08,4.08 0 0 1 -0.8,-0.09 c -1.35,-0.29 -2,-1 -2,-2.21 a 7.2,7.2 0 0 1 0.09,-1 2.17,2.17 0 0 1 2.3,-2.12 5.44,5.44 0 0 1 0.88,0.09 2.38,2.38 0 0 1 1.94,2.38 4.48,4.48 0 0 1 -0.09,0.89 2.29,2.29 0 0 1 -2.32,2.06 z m 57.18,50.6 a 0.7,0.7 0 0 1 -0.71,0.53 h -0.18 a 0.88,0.88 0 0 1 -0.61,-1 v -0.18 a 0.69,0.69 0 0 1 0.17,-0.26 l -4.24,-2.92 -1,0.44 a 0.26,0.26 0 0 1 -0.18,0.09 v 8.48 a 0.9,0.9 0 0 1 0.71,1 v 0.17 a 1.52,1.52 0 0 1 -0.71,0.53 v 14 h -1 L 213.29,195.03 213,171.9 h -5.48 a 1.17,1.17 0 0 1 0.09,0.53 v 0.17 a 0.68,0.68 0 0 1 -0.7,0.53 h -0.18 c -0.53,-0.11 -0.8,-0.35 -0.8,-0.7 v -0.27 a 0.34,0.34 0 0 1 0.09,-0.26 h -4.86 l -0.53,1.06 0.44,-1.06 h -5.21 v -1 a 1.51,1.51 0 0 1 -0.62,-1.32 V 169 a 2,2 0 0 1 0.62,-1.15 v -6.19 l -10.34,9.64 a 1.25,1.25 0 0 1 0.17,0.71 v 0.61 c -0.41,1 -1,1.51 -1.67,1.51 a 1.74,1.74 0 0 1 -0.8,-0.18 3.29,3.29 0 0 1 -0.44,-0.18 l -11.49,10.7 11.05,-11 a 1.16,1.16 0 0 1 -0.62,-1.06 v -0.8 a 1.65,1.65 0 0 1 1.68,-1.5 1.7,1.7 0 0 1 0.79,0.18 2.8,2.8 0 0 1 1,0.44 l 10.69,-10.61 v -10.67 l -16.7,3.71 16.7,-4.24 v -6.28 l -34.2,-5.39 34.2,4.16 v -8.58 l -6.88,-4.68 6.81,4.33 v -21.3 l -7.6,-15.38 7.6,14.14 v -32.7 h 18.91 v 49.14 a 1.3,1.3 0 0 1 1.06,-0.44 3.78,3.78 0 0 1 0.71,0.09 q 1.5,0.27 1.5,1.59 a 2.57,2.57 0 0 1 -0.09,0.62 1.7,1.7 0 0 1 -1.68,1.41 2.5,2.5 0 0 1 -0.61,-0.09 2.85,2.85 0 0 1 -0.89,-0.44 v 10.61 L 228,117 a 0.34,0.34 0 0 1 -0.18,-0.35 v -0.09 a 0.34,0.34 0 0 1 0.36,-0.26 h 0.08 c 0.06,0 0.09,0 0.09,0.08 l 1.42,-2.47 a 0.56,0.56 0 0 1 -0.36,-0.53 v -0.09 c 0.12,-0.35 0.3,-0.53 0.53,-0.53 h 0.09 a 0.36,0.36 0 0 1 0.36,0.18 l 4.68,-8 -4.51,8.57 v 0.09 l -0.17,0.17 -14.59,27.84 a 6.22,6.22 0 0 0 0.53,0.45 l 21.92,-18.3 -21.12,18.82 48,-13.43 -48.08,15.11 v 0.36 l 27.66,4 -27.84,-3.09 q 0,0.18 -0.09,0.18 l 41.81,31 z m -47.11,-35.71 c 0,-0.64 0.44,-1.23 1.33,-1.76 a 3,3 0 0 1 1.24,-0.27 1.83,1.83 0 0 1 1.59,1.24 2.11,2.11 0 0 1 0.53,1.41 c 0,0.59 -0.47,1.09 -1.42,1.51 a 1.91,1.91 0 0 1 -1.23,0.53 c -0.65,0 -1.24,-0.48 -1.77,-1.42 a 3,3 0 0 1 -0.27,-1.2 z m 8.63,68.36 a 2.83,2.83 0 0 1 -0.08,0.53 1.09,1.09 0 0 1 -1,0.71 1.48,1.48 0 0 1 -0.44,-0.09 1,1 0 0 1 -0.79,-1 1.65,1.65 0 0 1 0.08,-0.44 c 0.18,-0.53 0.48,-0.8 0.89,-0.8 a 1,1 0 0 1 0.53,0.18 c 0.58,0.2 0.81,0.5 0.81,0.91 z M 181.18,86.7 v -0.09 a 0.35,0.35 0 0 1 0.35,-0.18 h 0.18 a 0.24,0.24 0 0 1 0.26,0.27 v 0.09 a 0.34,0.34 0 0 1 -0.35,0.26 h -0.09 C 181.3,87 181.18,86.88 181.18,86.7 Z m 2.47,4.07 V 91 a 0.64,0.64 0 0 1 -0.62,0.53 h -0.35 c -0.29,-0.12 -0.44,-0.29 -0.44,-0.53 v -0.26 c 0.12,-0.42 0.32,-0.62 0.62,-0.62 h 0.26 c 0.36,0.2 0.53,0.41 0.53,0.65 z m 1.24,84.66 c 0.3,0.12 0.44,0.3 0.44,0.53 v 0.18 c 0,0.23 -0.14,0.35 -0.44,0.35 h -0.18 a 0.31,0.31 0 0 1 -0.35,-0.35 V 176 a 0.47,0.47 0 0 1 0.53,-0.57 z m 0.88,-25.63 h -0.35 a 0.49,0.49 0 0 1 -0.44,-0.53 V 149 c 0.12,-0.3 0.29,-0.45 0.53,-0.45 h 0.35 a 0.63,0.63 0 0 1 0.44,0.62 v 0.18 a 0.56,0.56 0 0 1 -0.53,0.45 z m 0.89,19.18 a 0.26,0.26 0 0 1 -0.09,0.18 c -0.06,0.23 -0.18,0.35 -0.35,0.35 a 0.26,0.26 0 0 1 -0.18,-0.09 c -0.24,-0.06 -0.36,-0.17 -0.36,-0.35 a 0.31,0.31 0 0 1 0.09,-0.18 c 0.06,-0.29 0.18,-0.44 0.36,-0.44 a 0.22,0.22 0 0 1 0.17,0.09 0.42,0.42 0 0 1 0.36,0.46 z m 0.17,26.51 H 187 a 0.56,0.56 0 0 1 0.35,0.53 v 0.36 c 0,0.53 -0.17,0.79 -0.53,0.79 h -0.26 c -0.35,-0.12 -0.53,-0.44 -0.53,-1 V 196 a 0.75,0.75 0 0 1 0.8,-0.51 z m 3.63,-147.15 a 2.5,2.5 0 0 1 -0.09,0.62 c -0.18,0.95 -0.68,1.42 -1.5,1.42 a 3.78,3.78 0 0 1 -0.71,-0.09 q -1.41,-0.36 -1.41,-1.5 a 4.49,4.49 0 0 1 0.08,-0.71 1.66,1.66 0 0 1 1.68,-1.5 1.89,1.89 0 0 1 0.53,0.08 1.71,1.71 0 0 1 1.42,1.68 z m -1.68,31.82 A 1.52,1.52 0 0 1 190,81 a 2.55,2.55 0 0 1 0.17,0.89 1.32,1.32 0 0 1 -0.88,1.15 1.56,1.56 0 0 1 -1,0.35 c -0.42,0 -0.77,-0.32 -1.06,-1 a 1.42,1.42 0 0 1 -0.36,-0.89 c 0,-0.47 0.33,-0.88 1,-1.23 a 2.36,2.36 0 0 1 0.91,-0.11 z m 1.32,103.31 a 0.24,0.24 0 0 1 -0.08,0.18 0.6,0.6 0 0 1 -0.53,0.27 h -0.09 q -0.36,-0.09 -0.36,-0.36 a 0.22,0.22 0 0 1 0.09,-0.17 q 0.09,-0.36 0.36,-0.36 a 0.26,0.26 0 0 1 0.17,0.09 c 0.34,0.06 0.44,0.18 0.44,0.35 z m 2.3,0.53 h 0.18 a 0.77,0.77 0 0 1 0.62,0.8 v 0.2 c -0.12,0.35 -0.33,0.53 -0.62,0.53 h -0.18 a 0.7,0.7 0 0 1 -0.53,-0.71 v -0.18 c 0.13,-0.43 0.3,-0.64 0.53,-0.64 z m 1.86,2.39 a 1.37,1.37 0 0 1 -0.09,0.44 c -0.18,0.47 -0.41,0.71 -0.71,0.71 a 1.43,1.43 0 0 1 -0.44,-0.09 c -0.53,-0.12 -0.79,-0.38 -0.79,-0.79 a 0.94,0.94 0 0 1 0.08,-0.36 c 0.24,-0.47 0.53,-0.7 0.89,-0.7 a 0.77,0.77 0 0 1 0.35,0.08 c 0.45,0.18 0.71,0.42 0.71,0.71 z m 11.49,-8.31 a 2.51,2.51 0 0 1 2.12,1.51 3.26,3.26 0 0 1 0.62,1.68 2.51,2.51 0 0 1 -1.51,2.12 3.67,3.67 0 0 1 -1.67,0.53 2.54,2.54 0 0 1 -2.21,-1.51 3.68,3.68 0 0 1 -0.45,-1.68 2.51,2.51 0 0 1 1.51,-2.12 2.88,2.88 0 0 1 1.59,-0.53 z m 0.35,13.61 h 0.18 c 0.53,0.12 0.79,0.39 0.79,0.8 v 0.18 c -0.12,0.35 -0.44,0.53 -1,0.53 h -0.18 a 0.7,0.7 0 0 1 -0.53,-0.71 v -0.18 a 0.73,0.73 0 0 1 0.74,-0.62 z m 2.21,-122.31 v 0.26 c -0.06,0.3 -0.27,0.44 -0.62,0.44 h -0.18 a 0.62,0.62 0 0 1 -0.44,-0.61 V 69.2 c 0.12,-0.29 0.3,-0.44 0.53,-0.44 h 0.18 c 0.35,0.12 0.53,0.32 0.53,0.62 z m 2.65,-0.62 q 1,0 1.77,1.32 a 3.1,3.1 0 0 1 0.26,1.24 1.82,1.82 0 0 1 -1.23,1.59 2.11,2.11 0 0 1 -1.42,0.53 q -0.89,0 -1.5,-1.41 a 1.93,1.93 0 0 1 -0.53,-1.24 q 0,-1 1.41,-1.77 A 3.28,3.28 0 0 1 211,68.76 Z m 0,109.41 h 0.27 c 0.35,0 0.53,0.21 0.53,0.62 a 0.56,0.56 0 0 1 -0.53,0.35 H 211 a 0.31,0.31 0 0 1 -0.35,-0.35 v -0.18 c 0.08,-0.29 0.19,-0.44 0.35,-0.44 z m 6,-65.31 V 113 c -0.06,0.35 -0.21,0.53 -0.44,0.53 h -0.18 a 0.73,0.73 0 0 1 -0.35,-0.71 v -0.09 a 0.47,0.47 0 0 1 0.53,-0.35 h 0.09 a 0.42,0.42 0 0 1 0.39,0.48 z m 5.22,-9.1 v 0.09 a 0.58,0.58 0 0 1 -0.53,0.35 h -0.09 c -0.3,-0.06 -0.45,-0.18 -0.45,-0.35 v -0.09 q 0.18,-0.45 0.54,-0.45 h 0.08 q 0.46,0.18 0.46,0.45 z m 3.88,12.37 v 0.18 c 0,0.23 -0.14,0.35 -0.44,0.35 a 0.35,0.35 0 0 1 -0.17,-0.35 v -0.18 c 0,-0.12 0,-0.18 0.17,-0.18 h 0.18 c 0.2,0.05 0.27,0.12 0.27,0.18 z m 0.71,-8.57 v 0.09 a 0.29,0.29 0 0 1 -0.26,0.17 h -0.18 c -0.24,0 -0.35,-0.09 -0.35,-0.26 v -0.09 c 0,-0.18 0.2,-0.27 0.44,-0.27 h 0.09 a 0.35,0.35 0 0 1 0.27,0.36 z m 1.15,-8.84 a 0.34,0.34 0 0 1 -0.35,0.26 h -0.18 c -0.18,0 -0.27,-0.08 -0.27,-0.26 v -0.18 c 0,-0.12 0.09,-0.17 0.27,-0.17 h 0.18 a 0.31,0.31 0 0 1 0.36,0.35 z m 2.3,0.44 h -0.44 c -0.65,-0.23 -1,-0.59 -1,-1.06 a 1.64,1.64 0 0 1 0.09,-0.53 c 0.18,-0.65 0.53,-1 1.06,-1 h 0.45 c 0.7,0.12 1.06,0.47 1.06,1.06 a 0.94,0.94 0 0 1 -0.18,0.53 1,1 0 0 1 -1.03,1 z m 1.68,60.54 v 0.3 c -0.18,0.41 -0.42,0.61 -0.71,0.61 h -0.27 a 0.7,0.7 0 0 1 -0.61,-0.7 v -0.27 a 0.79,0.79 0 0 1 0.7,-0.53 h 0.27 c 0.42,0.09 0.63,0.3 0.63,0.59 z m -1.24,-52.85 v -0.35 a 1.12,1.12 0 0 1 1.15,-0.89 h 0.35 c 0.71,0.18 1.06,0.56 1.06,1.15 v 0.44 a 1.16,1.16 0 0 1 -1.23,0.89 h -0.45 c -0.54,-0.09 -0.87,-0.53 -0.87,-1.24 z m 2.12,48.87 h -0.18 a 0.75,0.75 0 0 1 -0.61,-0.79 v -0.18 c 0.11,-0.35 0.44,-0.53 1,-0.53 0.35,0.12 0.53,0.3 0.53,0.53 v 0.36 c -0.02,0.41 -0.26,0.61 -0.73,0.61 z m 0.27,-39.68 a 0.5,0.5 0 0 1 0.44,0.53 v 0.09 c -0.12,0.35 -0.3,0.53 -0.53,0.53 h -0.18 a 0.94,0.94 0 0 1 -0.18,-0.53 v -0.27 a 0.43,0.43 0 0 1 0.46,-0.39 z m 5.65,-62.57 v 0.35 c -0.06,0.42 -0.35,0.62 -0.88,0.62 h -0.18 a 0.93,0.93 0 0 1 -0.71,-0.88 V 53.2 a 0.86,0.86 0 0 1 0.8,-0.61 H 238 a 0.91,0.91 0 0 1 0.71,0.88 z m 1.42,65.75 H 240 a 0.84,0.84 0 0 1 -0.44,-0.79 0.55,0.55 0 0 1 0.53,-0.36 h 0.26 a 0.43,0.43 0 0 1 0.36,0.45 v 0.17 a 0.57,0.57 0 0 1 -0.58,0.53 z m 1,11.49 v -0.09 a 0.57,0.57 0 0 1 0.53,-0.35 h 0.09 a 0.55,0.55 0 0 1 0.44,0.62 c -0.12,0.23 -0.27,0.35 -0.44,0.35 h -0.18 c -0.31,0 -0.46,-0.17 -0.46,-0.53 z m 2.12,8.93 v 0.18 a 0.42,0.42 0 0 1 -0.44,0.35 h -0.18 a 0.5,0.5 0 0 1 -0.44,-0.53 v -0.09 a 0.69,0.69 0 0 1 0.44,-0.26 h 0.27 a 0.31,0.31 0 0 1 0.33,0.35 z m 1.68,-17.06 v 0.27 c -0.06,0.23 -0.18,0.35 -0.35,0.35 h -0.18 c -0.3,0 -0.44,-0.18 -0.44,-0.53 v -0.09 c 0,-0.23 0.26,-0.35 0.62,-0.35 h 0.08 a 0.34,0.34 0 0 1 0.25,0.35 z m 1.15,-68 V 55 a 0.88,0.88 0 0 1 -0.89,0.8 h -0.26 c -0.41,-0.3 -0.62,-0.59 -0.62,-0.89 v -0.44 c 0.18,-0.41 0.41,-0.62 0.71,-0.62 h 0.26 c 0.51,0.15 0.78,0.41 0.78,0.77 z m 0.09,97.92 h 0.17 a 0.69,0.69 0 0 1 0.53,0.71 v 0.18 c -0.12,0.53 -0.35,0.79 -0.7,0.79 h -0.27 a 1.29,1.29 0 0 1 -0.35,-0.79 v -0.36 c -0.02,-0.31 0.18,-0.49 0.6,-0.49 z"
           class="cls-1" />
        <path
           style="fill:#ffffff"
           inkscape:connector-curvature="0"
           id="path14"
           d="m 187.81,171.28 q -0.18,-0.09 -0.18,-0.18 a 0.59,0.59 0 0 1 0.18,-0.44 0.27,0.27 0 0 1 0.26,-0.18 0.26,0.26 0 0 1 0.18,0.09 c 0.12,0.12 0.17,0.21 0.17,0.27 a 0.51,0.51 0 0 1 -0.09,0.35 0.27,0.27 0 0 1 -0.26,0.18 0.61,0.61 0 0 1 -0.26,-0.09 z m 5.3,-14.85 v 0.27 q 0,1.68 -1.77,1.68 h -0.26 q -1.68,0 -1.68,-1.77 c 0,-1.3 0.59,-2 1.76,-2 h 0.27 q 1.68,0.05 1.68,1.82 z m -0.44,-13.34 h -0.18 c -0.35,0 -0.53,-0.21 -0.53,-0.62 0,-0.41 0.24,-0.62 0.71,-0.62 0.47,0 0.61,0.18 0.61,0.53 0,0.35 -0.2,0.71 -0.61,0.71 z m 0.88,20.5 a 1.54,1.54 0 0 1 -0.88,-1.33 2,2 0 0 1 0.26,-0.88 1.49,1.49 0 0 1 1.24,-0.88 2.71,2.71 0 0 1 1.06,0.26 1.51,1.51 0 0 1 0.77,1.24 2.71,2.71 0 0 1 -0.26,1.06 1.56,1.56 0 0 1 -1.33,0.79 2,2 0 0 1 -0.86,-0.26 z m 3.71,24.83 v 0.18 c 0,1.18 -0.62,1.77 -1.85,1.77 h -0.18 q -1.68,0 -1.68,-1.86 v -0.17 q 0,-1.68 1.77,-1.68 c 1.29,0 1.94,0.58 1.94,1.76 z m 11.14,-29.78 a 1.24,1.24 0 0 1 -0.53,-1 1.87,1.87 0 0 1 1.32,-1.33 1.38,1.38 0 0 1 1,0.44 1.25,1.25 0 0 1 0.44,0.8 1.36,1.36 0 0 1 -0.44,1 1.34,1.34 0 0 1 -1,0.44 1.29,1.29 0 0 1 -0.79,-0.35 z m 2.65,6.81 v -0.27 c 0.06,-0.35 0.24,-0.53 0.53,-0.53 h 0.18 c 0.35,0.18 0.53,0.38 0.53,0.62 v 0.26 a 0.63,0.63 0 0 1 -0.62,0.45 h -0.18 c -0.29,-0.12 -0.44,-0.3 -0.44,-0.53 z m 4.86,-39.86 a 1.76,1.76 0 0 1 -0.62,-1.15 1.62,1.62 0 0 1 0.53,-1.15 1.72,1.72 0 0 1 1.24,-0.71 1.64,1.64 0 0 1 1.15,0.53 1.8,1.8 0 0 1 0.62,1.24 1.86,1.86 0 0 1 -0.53,1.15 1.82,1.82 0 0 1 -1.24,0.62 1.86,1.86 0 0 1 -1.15,-0.53 z m 1.77,20 H 218 q 1.41,0 1.59,1.59 v 0.27 A 1.55,1.55 0 0 1 218,149.1 h -0.26 c -1,0 -1.48,-0.54 -1.6,-1.6 v -0.26 a 1.59,1.59 0 0 1 1.54,-1.68 z m 61.07,-15.11 V 77.15 h 18.91 v 56.92 a 42.82,42.82 0 0 1 -4.6,18.91 q -9.72,19.1 -33.23,19.09 -23.68,0 -33.14,-19.09 a 41,41 0 0 1 -4.86,-18.91 V 77.15 h 9.72 v -0.44 a 4.92,4.92 0 0 1 0.09,-1 2.3,2.3 0 0 1 2.3,-2 5.44,5.44 0 0 1 0.88,0.09 2.29,2.29 0 0 1 2,2.29 4.48,4.48 0 0 1 -0.09,0.89 0.22,0.22 0 0 1 -0.09,0.17 h 4.06 v 23.16 a 0.6,0.6 0 0 1 0.18,0.44 V 101 a 4,4 0 0 1 -0.18,0.44 v 32.61 a 19.21,19.21 0 0 0 2.57,9.46 q 4.63,9.49 16.56,9.49 11.76,0 16.62,-9.45 a 19.63,19.63 0 0 0 0.8,-1.86 l 1.14,-9 a 0.22,0.22 0 0 1 -0.17,-0.09 l -4.51,6.54 4.24,-6.72 H 278 l -0.09,-0.09 -14.32,7.07 14.14,-7.51 c -0.11,-0.12 -0.17,-0.2 -0.17,-0.26 l -8.13,-0.09 8.13,-0.27 -11.14,-6.45 11.49,6 a 0.26,0.26 0 0 1 0.09,-0.18 l -5.66,-6.89 5.84,6.63 -4.16,-14.94 z m -34,-66.2 a 2.72,2.72 0 0 1 -2.21,-1.5 3.7,3.7 0 0 1 -0.53,-1.68 2.52,2.52 0 0 1 1.5,-2.12 3.7,3.7 0 0 1 1.68,-0.53 2.56,2.56 0 0 1 2.21,1.5 3.7,3.7 0 0 1 0.44,1.68 2.51,2.51 0 0 1 -1.5,2.12 3.21,3.21 0 0 1 -1.62,0.5 z m 0.44,12.64 a 1.12,1.12 0 0 1 -0.08,0.44 c -0.12,0.65 -0.45,1 -1,1 a 1,1 0 0 1 -0.44,-0.09 0.93,0.93 0 0 1 -0.88,-1 1.48,1.48 0 0 1 0.09,-0.44 c 0.17,-0.65 0.5,-1 1,-1 a 0.76,0.76 0 0 1 0.35,0.09 c 0.61,0.08 0.93,0.44 0.93,0.97 z m 1.06,13.7 a 0.76,0.76 0 0 1 -0.35,-0.09 c -0.65,-0.18 -1,-0.5 -1,-1 a 1,1 0 0 1 0.09,-0.44 0.94,0.94 0 0 1 1,-0.89 1.43,1.43 0 0 1 0.44,0.09 c 0.59,0.12 0.88,0.41 0.88,0.88 a 0.94,0.94 0 0 1 -0.17,0.45 c -0.14,0.65 -0.45,0.97 -0.92,0.97 z M 246.14,129 a 0.35,0.35 0 0 1 -0.27,-0.36 v -0.09 c 0.06,-0.23 0.18,-0.35 0.35,-0.35 h 0.09 a 0.52,0.52 0 0 1 0.18,0.35 v 0.18 a 0.35,0.35 0 0 1 -0.35,0.27 z m 1.67,6.45 v 0.26 a 0.81,0.81 0 0 1 -0.88,0.62 h -0.26 a 0.76,0.76 0 0 1 -0.62,-0.8 v -0.35 a 0.76,0.76 0 0 1 0.79,-0.62 h 0.27 a 0.84,0.84 0 0 1 0.7,0.84 z m 0.09,-4.6 v -0.09 a 0.35,0.35 0 0 1 0.36,-0.26 h 0.08 c 0.24,0.06 0.36,0.17 0.36,0.35 v 0.09 c -0.12,0.23 -0.27,0.35 -0.44,0.35 h -0.09 a 0.4,0.4 0 0 1 -0.27,-0.49 z m 3.1,-1.94 v -0.09 c 0,-0.18 0.08,-0.27 0.26,-0.27 0.18,0 0.27,0.15 0.27,0.27 v 0.09 c 0,0.12 -0.09,0.17 -0.27,0.17 h -0.09 C 251.05,129 251,128.92 251,128.86 Z m 2.74,8.75 v -0.09 a 0.34,0.34 0 0 1 0.35,-0.27 h 0.18 c 0.17,0.06 0.26,0.15 0.26,0.27 v 0.09 a 0.42,0.42 0 0 1 -0.44,0.26 H 254 c -0.18,-0.11 -0.26,-0.2 -0.26,-0.31 z m 2.47,-81.67 a 1.48,1.48 0 0 1 0.09,-0.44 c 0.12,-0.47 0.32,-0.71 0.62,-0.71 a 2,2 0 0 1 0.53,0.09 0.8,0.8 0 0 1 0.71,0.8 0.86,0.86 0 0 1 -0.09,0.35 c -0.18,0.47 -0.45,0.71 -0.8,0.71 a 1.43,1.43 0 0 1 -0.44,-0.09 c -0.41,-0.23 -0.62,-0.46 -0.62,-0.76 z m 11.84,-38.71 a 2.53,2.53 0 0 1 -2.12,-1.59 3,3 0 0 1 -0.62,-1.68 2.51,2.51 0 0 1 1.51,-2.12 3.74,3.74 0 0 1 1.76,-0.53 2.5,2.5 0 0 1 2.12,1.5 3.72,3.72 0 0 1 0.54,1.77 2.52,2.52 0 0 1 -1.6,2.12 2.8,2.8 0 0 1 -1.59,0.48 z m -2.21,93.51 a 0.69,0.69 0 0 1 0.09,-0.27 c 0.12,-0.47 0.36,-0.7 0.71,-0.7 H 267 c 0.53,0.12 0.8,0.38 0.8,0.79 a 0.37,0.37 0 0 1 -0.09,0.27 0.78,0.78 0 0 1 -0.8,0.7 h -0.35 a 0.78,0.78 0 0 1 -0.72,-0.84 z m 0.89,-4 v -0.09 a 0.29,0.29 0 0 1 0.17,-0.09 h 0.1 a 0.08,0.08 0 0 1 0.09,0.09 v 0.09 q 0,0.18 -0.09,0.18 h -0.09 c -0.12,-0.09 -0.18,-0.15 -0.18,-0.21 z m 2.12,-10.43 a 1.5,1.5 0 0 1 -1.06,-0.53 1.32,1.32 0 0 1 -0.44,-1 1.44,1.44 0 0 1 0.53,-1 1.42,1.42 0 0 1 1,-0.53 1.5,1.5 0 0 1 1.06,0.53 1.83,1.83 0 0 1 0.35,1 1.63,1.63 0 0 1 -0.44,1.06 1.55,1.55 0 0 1 -1,0.44 z m 0.53,11 h 0.18 c 0.17,0.06 0.26,0.15 0.26,0.27 v 0.17 a 0.35,0.35 0 0 1 -0.35,0.27 h -0.09 q -0.27,-0.09 -0.27,-0.27 v -0.17 q 0.09,-0.25 0.27,-0.25 z m 0.71,-0.44 q -0.09,0 -0.09,-0.18 v -0.09 c 0,0 0.06,-0.09 0.17,-0.09 a 0.16,0.16 0 0 1 0.18,0.18 v 0.09 a 0.36,0.36 0 0 1 -0.26,0.11 z m 2.21,0.44 a 0.88,0.88 0 0 1 -0.89,-1 0.79,0.79 0 0 1 0.89,-0.89 c 0.64,0 1,0.3 1,0.89 a 0.86,0.86 0 0 1 -1,1.02 z m 4.41,-11 v 0.18 c 0,0.12 -0.08,0.18 -0.26,0.18 h -0.09 c -0.18,-0.06 -0.26,-0.15 -0.26,-0.27 v -0.09 c 0,-0.18 0.14,-0.26 0.26,-0.26 h 0.09 c 0.18,0.12 0.26,0.2 0.26,0.32 z m 1,44.19 a 21.3,21.3 0 0 0 1.06,-6.54 v -0.18 z m 20.15,3.27 h 0.26 c 0.3,0.12 0.44,0.3 0.44,0.53 v 0.27 c -0.06,0.41 -0.23,0.61 -0.53,0.61 h -0.26 c -0.35,-0.17 -0.53,-0.38 -0.53,-0.61 v -0.27 a 0.57,0.57 0 0 1 0.6,-0.47 z m -0.27,41.1 a 1.37,1.37 0 0 1 0.8,-1.24 2.13,2.13 0 0 1 1,-0.27 c 0.41,0 0.79,0.3 1.15,0.89 a 2,2 0 0 1 0.26,0.88 1.38,1.38 0 0 1 -1,1.24 2.12,2.12 0 0 1 -0.79,0.18 1.36,1.36 0 0 1 -1.24,-0.89 2.12,2.12 0 0 1 -0.2,-0.71 z m 1.77,-42.07 a 0.35,0.35 0 0 1 -0.27,-0.36 v -0.08 q 0.09,-0.36 0.36,-0.36 a 0.42,0.42 0 0 1 0.26,0.44 v 0.09 a 0.34,0.34 0 0 1 -0.37,0.33 z m 4.33,0.79 a 1.64,1.64 0 0 1 -1.77,-1.85 1.86,1.86 0 1 1 3.71,0 1.72,1.72 0 0 1 -1.96,1.91 z m 3.89,35.71 v -0.27 c 0.06,-0.59 0.32,-0.88 0.79,-0.88 h 0.27 a 0.85,0.85 0 0 1 0.8,1 v 0.18 a 0.73,0.73 0 0 1 -0.8,0.71 h -0.35 c -0.5,-0.03 -0.73,-0.27 -0.73,-0.68 z m 0.62,4.15 a 1.26,1.26 0 0 1 0.7,-1.06 1.63,1.63 0 0 1 0.71,-0.26 1.06,1.06 0 0 1 1,0.62 2,2 0 0 1 0.27,0.88 1.23,1.23 0 0 1 -0.62,1 2.16,2.16 0 0 1 -0.79,0.18 1.45,1.45 0 0 1 -1.07,-0.71 1.49,1.49 0 0 1 -0.22,-0.59 z m 4.42,-61.86 V 122 c -0.06,0.3 -0.21,0.44 -0.45,0.44 h -0.26 c -0.3,-0.11 -0.44,-0.29 -0.44,-0.52 v -0.18 c 0.11,-0.36 0.29,-0.53 0.53,-0.53 h 0.17 a 0.49,0.49 0 0 1 0.43,0.49 z m 2.74,-53.82 a 1.48,1.48 0 0 1 -0.45,-0.09 0.72,0.72 0 0 1 -0.61,-0.71 2.25,2.25 0 0 1 0.08,-0.53 0.73,0.73 0 0 1 0.71,-0.62 1.37,1.37 0 0 1 0.44,0.09 0.93,0.93 0 0 1 0.71,0.88 0.8,0.8 0 0 1 -0.09,0.36 0.86,0.86 0 0 1 -0.81,0.68 z m 0,6.89 v 0.09 c -0.06,0.29 -0.18,0.44 -0.36,0.44 -0.18,0 -0.12,-0.06 -0.17,-0.18 -0.24,-0.06 -0.36,-0.17 -0.36,-0.35 a 0.26,0.26 0 0 1 0.09,-0.18 c 0.06,-0.17 0.15,-0.26 0.27,-0.26 a 0.36,0.36 0 0 1 0.26,0.09 0.34,0.34 0 0 1 0.25,0.41 z m 1.23,78 a 1.3,1.3 0 0 1 0.53,0.18 0.5,0.5 0 0 1 0.27,0.44 0.85,0.85 0 0 1 -0.18,0.44 0.58,0.58 0 0 1 -0.53,0.26 0.82,0.82 0 0 1 -0.44,-0.17 0.6,0.6 0 0 1 -0.27,-0.53 0.82,0.82 0 0 1 0.18,-0.44 0.6,0.6 0 0 1 0.42,-0.17 z m 2.48,-23.33 a 0.93,0.93 0 0 1 0.09,-0.44 c 0.05,-0.3 0.2,-0.45 0.44,-0.45 a 1.43,1.43 0 0 1 0.44,0.09 0.7,0.7 0 0 1 0.44,0.71 v 0.26 a 0.63,0.63 0 0 1 -0.62,0.45 0.76,0.76 0 0 1 -0.35,-0.09 0.49,0.49 0 0 1 -0.46,-0.52 z"
           class="cls-1" />
        <path
           style="fill:#ffffff"
           inkscape:connector-curvature="0"
           id="path16"
           d="m 280.16,161.47 a 2.84,2.84 0 0 1 2,1 3.26,3.26 0 0 1 0.89,2 2.88,2.88 0 0 1 -1,2 3.1,3.1 0 0 1 -2,1 3,3 0 0 1 -2,-1.06 2.6,2.6 0 0 1 -1,-1.95 3,3 0 0 1 1.15,-2.12 3.13,3.13 0 0 1 1.96,-0.87 z m 3.71,-54.62 V 107 a 0.93,0.93 0 0 1 -1,0.88 h -0.17 c -0.59,-0.06 -0.89,-0.35 -0.89,-0.88 v -0.18 a 0.93,0.93 0 0 1 1,-0.88 H 283 c 0.58,0.06 0.87,0.38 0.87,0.91 z m 1.86,-7.78 a 1.86,1.86 0 0 1 0.09,-3.71 1.62,1.62 0 0 1 1.77,1.77 v 0.17 q 0,1.77 -1.86,1.77 z m 2,20.51 v -0.18 c 0.12,-0.29 0.3,-0.44 0.53,-0.44 h 0.18 c 0.3,0.12 0.44,0.29 0.44,0.53 v 0.26 a 0.49,0.49 0 0 1 -0.53,0.45 h -0.18 a 0.64,0.64 0 0 1 -0.41,-0.62 z m 4.78,-8.22 a 1.61,1.61 0 0 1 -1.77,1.76 h -0.18 a 1.63,1.63 0 0 1 -1.85,-1.85 c 0,-1.18 0.56,-1.77 1.67,-1.77 h 0.27 a 1.64,1.64 0 0 1 1.89,1.86 z m 1.14,-48.17 c 0.24,0.06 0.36,0.18 0.36,0.35 v 0.27 c 0,0.18 -0.09,0.26 -0.27,0.26 h -0.17 c -0.3,0 -0.45,-0.17 -0.45,-0.53 a 0.48,0.48 0 0 1 0.56,-0.35 z M 297.31,60 a 3.06,3.06 0 0 1 2.12,1.06 2.7,2.7 0 0 1 0.88,1.94 2.53,2.53 0 0 1 -1.06,2 3.08,3.08 0 0 1 -2,1 2.53,2.53 0 0 1 -2,-1.06 2.82,2.82 0 0 1 -1,-1.94 2.56,2.56 0 0 1 1.06,-2 3,3 0 0 1 2,-1 z M 297,108.62 a 0.25,0.25 0 0 1 -0.08,0.17 q -0.09,0.45 -0.36,0.45 a 0.26,0.26 0 0 1 -0.18,-0.09 c -0.29,-0.12 -0.44,-0.27 -0.44,-0.44 a 0.26,0.26 0 0 1 0.09,-0.18 0.76,0.76 0 0 1 0.53,-0.27 h 0.09 c 0.19,0.06 0.35,0.18 0.35,0.36 z m 3.1,12.37 a 1.37,1.37 0 0 1 -0.09,0.44 c -0.12,0.48 -0.35,0.71 -0.71,0.71 a 2.39,2.39 0 0 1 -0.53,-0.09 0.9,0.9 0 0 1 -0.62,-0.88 0.8,0.8 0 0 1 0.09,-0.36 c 0.18,-0.47 0.44,-0.7 0.8,-0.7 a 1.43,1.43 0 0 1 0.44,0.09 0.85,0.85 0 0 1 0.57,0.8 z m 3.44,-30.22 a 1.15,1.15 0 0 1 -0.08,0.44 0.5,0.5 0 0 1 -0.53,0.44 0.8,0.8 0 0 1 -0.36,-0.09 0.63,0.63 0 0 1 -0.44,-0.62 v -0.35 c 0.12,-0.3 0.29,-0.44 0.53,-0.44 a 0.89,0.89 0 0 1 0.35,0.08 c 0.31,0.06 0.48,0.24 0.48,0.54 z m 52.77,5.3 h -4.07 v 66.11 c 0.3,0 0.44,0.17 0.44,0.35 a 0.26,0.26 0 0 1 -0.09,0.18 0.55,0.55 0 0 1 -0.35,0.26 v 9.1 H 333.1 v -14.4 a 1.58,1.58 0 0 1 -0.44,-1.15 1.74,1.74 0 0 1 0.18,-0.8 1.68,1.68 0 0 1 0.26,-0.61 V 96.33 l -21.39,14.76 20.24,-15 H 304.73 V 77.15 h 12.46 a 1.84,1.84 0 0 1 1.68,-0.7 1.92,1.92 0 0 1 1.5,0.7 h 28 l -17.85,-5.56 h -0.36 a 2.8,2.8 0 0 1 -0.7,-0.09 1.85,1.85 0 0 1 -1.24,-0.71 L 305.06,63.54 328,69.91 a 1.59,1.59 0 0 1 0.08,-0.53 c 0.24,-0.94 0.77,-1.42 1.59,-1.42 a 2.88,2.88 0 0 1 0.71,0.09 c 0.94,0.18 1.42,0.68 1.42,1.5 a 2.5,2.5 0 0 1 -0.09,0.62 3.86,3.86 0 0 1 -0.36,0.71 l 21.73,6.12 -7.25,-6.45 a 0.37,0.37 0 0 1 -0.27,0.09 h -0.35 c -0.3,-0.12 -0.44,-0.3 -0.44,-0.54 v -0.26 a 0.26,0.26 0 0 1 0.09,-0.18 l -10.52,-9.37 a 0.41,0.41 0 0 1 -0.44,0.27 h -0.18 c -0.3,-0.12 -0.44,-0.29 -0.44,-0.53 v -0.18 a 1.25,1.25 0 0 1 0.17,-0.35 l -1.45,-1.35 1.5,1.24 a 0.69,0.69 0 0 1 0.27,-0.09 0.37,0.37 0 0 1 0.27,0.09 c 0.35,0.12 0.52,0.27 0.52,0.44 a 0.83,0.83 0 0 1 -0.08,0.27 v 0.09 l 10.87,9 h 0.35 c 0.35,0.18 0.53,0.38 0.53,0.62 V 70 l 7.77,6.45 a 2.94,2.94 0 0 1 0.53,-0.44 L 335.13,39.33 355.9,75 l 0.8,-25.9 0.18,26.16 a 2.85,2.85 0 0 1 0.88,0.18 l 24.3,-45.16 -22.71,45.81 c 0.18,0.18 0.29,0.27 0.35,0.27 l -0.09,-0.09 21.57,-13.7 -20.95,14.43 0.09,0.17 h 3.1 l 45.16,-5.47 -34.74,5.47 h 6.72 v 7.78 l 10.61,2.65 -10.61,-2.29 v 10.76 h -4.68 l 23.12,22.8 -24.57,-22.8 h -9.9 l 5,11.31 L 364,96.07 h -6.54 l -0.61,33.4 z M 305.88,67.43 a 0.82,0.82 0 0 1 -0.44,-0.17 0.53,0.53 0 0 1 -0.27,-0.45 0.88,0.88 0 0 1 0.18,-0.44 0.54,0.54 0 0 1 0.44,-0.26 1.42,1.42 0 0 1 0.53,0.17 0.6,0.6 0 0 1 0.27,0.53 0.87,0.87 0 0 1 -0.18,0.45 0.71,0.71 0 0 1 -0.53,0.17 z m 1.24,84.85 a 2.39,2.39 0 0 1 0.53,0.09 0.71,0.71 0 0 1 0.62,0.7 2.31,2.31 0 0 1 -0.09,0.53 0.77,0.77 0 0 1 -0.8,0.62 1.43,1.43 0 0 1 -0.44,-0.09 0.9,0.9 0 0 1 -0.62,-0.88 0.73,0.73 0 0 1 0.09,-0.35 c 0.18,-0.42 0.41,-0.62 0.71,-0.62 z m 0,-6.9 v -0.09 c 0.06,-0.29 0.2,-0.44 0.44,-0.44 q 0.09,0 0.18,0.18 c 0.23,0.06 0.35,0.18 0.35,0.35 a 0.26,0.26 0 0 1 -0.09,0.18 c -0.06,0.18 -0.15,0.27 -0.26,0.27 a 0.8,0.8 0 0 1 -0.36,-0.09 0.35,0.35 0 0 1 -0.26,-0.36 z m 2.74,-46.93 v -0.26 a 0.48,0.48 0 0 1 0.53,-0.44 h 0.26 c 0.3,0.12 0.44,0.29 0.44,0.53 v 0.17 c -0.11,0.36 -0.29,0.53 -0.53,0.53 h -0.17 c -0.39,-0.05 -0.53,-0.23 -0.53,-0.53 z m 4.42,-61.86 a 1.29,1.29 0 0 1 -0.62,1.06 1.56,1.56 0 0 1 -0.8,0.26 1,1 0 0 1 -0.88,-0.61 1.72,1.72 0 0 1 -0.36,-0.89 c 0,-0.35 0.24,-0.67 0.71,-1 a 1.56,1.56 0 0 1 0.71,-0.18 1.28,1.28 0 0 1 1.06,0.71 1.41,1.41 0 0 1 0.18,0.65 z m 0.7,4.15 V 41 c -0.06,0.59 -0.35,0.88 -0.88,0.88 h -0.18 a 0.87,0.87 0 0 1 -0.88,-1 V 40.7 a 0.83,0.83 0 0 1 0.88,-0.7 h 0.27 c 0.53,0.09 0.81,0.33 0.81,0.74 z m 10,-5.57 a 1.36,1.36 0 0 1 -0.88,1.24 1.7,1.7 0 0 1 -0.89,0.27 c -0.47,0 -0.85,-0.3 -1.15,-0.89 a 2.12,2.12 0 0 1 -0.26,-0.88 1.36,1.36 0 0 1 0.88,-1.24 2.85,2.85 0 0 1 0.89,-0.17 1.34,1.34 0 0 1 1.23,0.88 2.12,2.12 0 0 1 0.2,0.79 z m -0.26,41.1 h -0.27 c -0.35,-0.12 -0.53,-0.29 -0.53,-0.53 v -0.26 c 0.06,-0.42 0.26,-0.62 0.62,-0.62 h 0.26 a 0.73,0.73 0 0 1 0.45,0.62 v 0.26 c -0.07,0.35 -0.25,0.53 -0.54,0.53 z m 0.88,51.44 a 0.26,0.26 0 0 1 -0.18,-0.09 c -0.23,-0.06 -0.35,-0.18 -0.35,-0.35 a 0.26,0.26 0 0 1 0.09,-0.18 c 0.06,-0.3 0.17,-0.44 0.35,-0.44 0.18,0 0.15,0.06 0.27,0.17 0.12,0.11 0.35,0.18 0.35,0.36 a 0.22,0.22 0 0 1 -0.09,0.17 0.42,0.42 0 0 1 -0.45,0.36 z m 2.12,3 a 2.31,2.31 0 0 1 -0.09,0.53 0.84,0.84 0 0 1 -0.88,0.71 1.37,1.37 0 0 1 -0.44,-0.09 1,1 0 0 1 -0.8,-1 1.37,1.37 0 0 1 0.09,-0.44 1,1 0 0 1 0.88,-0.62 1.6,1.6 0 0 1 0.53,0.09 c 0.46,0.2 0.7,0.47 0.7,0.82 z m 2.12,-86.17 a 0.47,0.47 0 0 1 -0.35,-0.17 1.11,1.11 0 0 1 -0.27,-0.62 0.52,0.52 0 0 1 0.18,-0.36 0.52,0.52 0 0 1 0.44,-0.26 0.94,0.94 0 0 1 0.53,0.18 0.74,0.74 0 0 1 0.27,0.53 0.85,0.85 0 0 1 -0.18,0.44 0.83,0.83 0 0 1 -0.63,0.26 z m 0.71,16.09 v -0.09 a 0.28,0.28 0 0 1 0.26,-0.18 H 331 a 0.16,0.16 0 0 1 0.18,0.18 v 0.18 c -0.06,0.23 -0.15,0.35 -0.27,0.35 h -0.09 a 0.42,0.42 0 0 1 -0.28,-0.44 z m 3,-27.67 c -0.17,0 -0.32,-0.14 -0.44,-0.44 v -0.08 c 0,-0.18 0.12,-0.3 0.35,-0.36 h 0.09 a 0.35,0.35 0 0 1 0.36,0.27 v 0.17 a 0.5,0.5 0 0 1 -0.27,0.44 z m 11.32,171.2 a 2.72,2.72 0 0 1 2.21,1.59 3.25,3.25 0 0 1 0.52,1.68 2.52,2.52 0 0 1 -1.5,2.12 3.32,3.32 0 0 1 -1.68,0.53 2.71,2.71 0 0 1 -2.21,-1.51 4.37,4.37 0 0 1 -0.44,-1.76 2.65,2.65 0 0 1 1.5,-2.12 3.11,3.11 0 0 1 1.59,-0.53 z M 343.71,65.75 v -0.08 a 0.34,0.34 0 0 1 0.35,-0.18 h 0.18 a 0.23,0.23 0 0 1 0.26,0.26 v 0.09 a 0.34,0.34 0 0 1 -0.35,0.27 h -0.09 c -0.24,-0.06 -0.35,-0.18 -0.35,-0.36 z M 353,27.4 a 2.64,2.64 0 0 1 -0.09,0.62 q -0.27,1.41 -1.5,1.41 a 3.69,3.69 0 0 1 -0.71,-0.09 c -0.94,-0.23 -1.42,-0.73 -1.42,-1.5 a 3.78,3.78 0 0 1 0.09,-0.71 1.66,1.66 0 0 1 1.68,-1.5 1.6,1.6 0 0 1 0.53,0.09 1.71,1.71 0 0 1 1.42,1.68 z m -1.68,31.81 a 1.49,1.49 0 0 1 1.23,0.89 2.31,2.31 0 0 1 0.18,0.88 1.31,1.31 0 0 1 -0.88,1.15 1.51,1.51 0 0 1 -1,0.35 c -0.42,0 -0.77,-0.32 -1.07,-1 a 1.43,1.43 0 0 1 -0.35,-0.88 c 0,-0.47 0.32,-0.89 1,-1.24 a 2.36,2.36 0 0 1 0.88,-0.15 z m 5.48,106.24 a 1.48,1.48 0 0 1 -0.09,0.44 c -0.18,0.47 -0.41,0.7 -0.71,0.7 a 1.37,1.37 0 0 1 -0.44,-0.08 c -0.53,-0.12 -0.8,-0.39 -0.8,-0.8 a 0.76,0.76 0 0 1 0.09,-0.35 c 0.24,-0.47 0.53,-0.71 0.89,-0.71 a 0.79,0.79 0 0 1 0.35,0.09 c 0.46,0.18 0.7,0.41 0.7,0.71 z m 11.49,-8.31 a 2.52,2.52 0 0 1 2.12,1.5 3.32,3.32 0 0 1 0.62,1.68 2.52,2.52 0 0 1 -1.51,2.12 3.7,3.7 0 0 1 -1.68,0.53 2.57,2.57 0 0 1 -2.21,-1.5 3.83,3.83 0 0 1 -0.44,-1.68 2.51,2.51 0 0 1 1.5,-2.12 2.85,2.85 0 0 1 1.59,-0.53 z m -1.51,-26.34 a 0.8,0.8 0 0 1 0.36,0.09 c 0.64,0.18 1,0.5 1,1 a 0.93,0.93 0 0 1 -0.09,0.44 c -0.12,0.59 -0.44,0.89 -1,0.89 a 1.37,1.37 0 0 1 -0.44,-0.09 c -0.59,-0.12 -0.89,-0.41 -0.89,-0.89 a 1.48,1.48 0 0 1 0.09,-0.44 c 0.11,-0.68 0.43,-1 0.96,-1 z m 1.06,13.7 a 1,1 0 0 1 0.09,-0.44 c 0.12,-0.65 0.41,-1 0.89,-1 a 2,2 0 0 1 0.53,0.08 0.91,0.91 0 0 1 0.79,1 1.48,1.48 0 0 1 -0.09,0.44 c -0.12,0.65 -0.44,1 -1,1 a 0.73,0.73 0 0 1 -0.35,-0.09 c -0.57,-0.14 -0.87,-0.49 -0.87,-0.99 z m 3,-96.07 v 0.27 a 0.55,0.55 0 0 1 -0.62,0.44 H 370 a 0.63,0.63 0 0 1 -0.44,-0.62 v -0.27 c 0.12,-0.29 0.3,-0.44 0.53,-0.44 h 0.18 c 0.39,0.12 0.57,0.33 0.57,0.62 z m 2.74,72 v 0.27 a 0.71,0.71 0 0 1 -0.71,0.61 h -0.26 a 0.78,0.78 0 0 1 -0.53,-0.7 v -0.27 c 0.11,-0.47 0.32,-0.7 0.61,-0.7 H 373 a 0.85,0.85 0 0 1 0.58,0.82 z m -1.06,-17.67 v -0.09 a 0.34,0.34 0 0 1 0.35,-0.27 H 373 a 0.41,0.41 0 0 1 0.27,0.44 q -0.09,0.27 -0.27,0.27 h -0.18 c -0.21,0.03 -0.3,-0.11 -0.3,-0.32 z m 1.5,6.27 v 0.09 a 0.35,0.35 0 0 1 -0.35,0.26 h -0.09 c -0.24,0 -0.35,-0.17 -0.35,-0.35 V 109 a 0.48,0.48 0 0 1 0.35,-0.18 h 0.17 a 0.24,0.24 0 0 1 0.25,0.24 z m 1.15,-12 v 0.18 c -0.06,0.17 -0.15,0.26 -0.27,0.26 h -0.08 a 0.32,0.32 0 0 1 -0.36,-0.35 V 97 a 0.4,0.4 0 0 1 0.44,-0.26 h 0.1 a 0.27,0.27 0 0 1 0.17,0.26 z m 6.19,47.64 a 4.92,4.92 0 0 1 -0.09,1 c -0.3,1.35 -1,2 -2.21,2 a 4.48,4.48 0 0 1 -0.89,-0.09 c -1.41,-0.35 -2.12,-1.12 -2.12,-2.3 a 2.35,2.35 0 0 1 0.18,-0.88 2.22,2.22 0 0 1 2.21,-1.94 8.84,8.84 0 0 1 1,0.08 q 1.92,0.55 1.92,2.14 z M 376.76,107 a 2.5,2.5 0 0 1 0.09,-0.62 c 0.18,-0.94 0.68,-1.42 1.5,-1.42 a 3.78,3.78 0 0 1 0.71,0.09 q 1.5,0.27 1.5,1.59 a 2.5,2.5 0 0 1 -0.09,0.62 1.7,1.7 0 0 1 -1.68,1.42 2.64,2.64 0 0 1 -0.62,-0.09 1.58,1.58 0 0 1 -1.41,-1.59 z m 12.55,-20.42 v 0.09 a 0.29,0.29 0 0 1 -0.27,0.18 h -0.17 q -0.36,0 -0.36,-0.27 v -0.09 a 0.42,0.42 0 0 1 0.45,-0.26 H 389 a 0.34,0.34 0 0 1 0.31,0.38 z m 1.77,9.1 v 0.09 q -0.09,0.36 -0.36,0.36 h -0.08 a 0.42,0.42 0 0 1 -0.27,-0.45 V 95.6 a 0.35,0.35 0 0 1 0.35,-0.27 h 0.09 a 0.35,0.35 0 0 1 0.27,0.38 z m 3.36,43 V 139 c -0.18,0.41 -0.42,0.62 -0.71,0.62 h -0.27 c -0.41,-0.12 -0.62,-0.35 -0.62,-0.71 v -0.26 a 0.8,0.8 0 0 1 0.71,-0.53 h 0.27 c 0.41,0.13 0.62,0.34 0.62,0.63 z"
           class="cls-1" />
        <path
           style="fill:#ffffff"
           inkscape:connector-curvature="0"
           id="path18"
           d="M 338.76,68.05 V 68 a 0.36,0.36 0 0 1 0.35,-0.17 h 0.18 a 0.23,0.23 0 0 1 0.26,0.26 v 0.09 a 0.34,0.34 0 0 1 -0.35,0.27 h -0.09 c -0.23,-0.1 -0.35,-0.22 -0.35,-0.4 z m 2.47,4.07 v 0.26 c -0.12,0.36 -0.32,0.53 -0.62,0.53 h -0.35 c -0.3,-0.12 -0.44,-0.29 -0.44,-0.53 v -0.26 c 0.12,-0.41 0.32,-0.62 0.62,-0.62 h 0.26 c 0.35,0.18 0.53,0.38 0.53,0.62 z m 2.12,59 H 343 a 0.48,0.48 0 0 1 -0.44,-0.53 v -0.26 c 0.12,-0.3 0.29,-0.44 0.53,-0.44 h 0.35 a 0.62,0.62 0 0 1 0.44,0.62 v 0.17 c -0.12,0.32 -0.29,0.47 -0.53,0.47 z M 345.3,165 a 2.31,2.31 0 0 1 -0.09,0.53 1.07,1.07 0 0 1 -1,0.71 1.48,1.48 0 0 1 -0.45,-0.09 1,1 0 0 1 -0.79,-1 1.43,1.43 0 0 1 0.09,-0.44 c 0.17,-0.53 0.47,-0.8 0.88,-0.8 a 0.94,0.94 0 0 1 0.53,0.18 c 0.53,0.21 0.83,0.5 0.83,0.91 z m 0.08,-70.08 V 95 a 0.34,0.34 0 0 1 -0.35,0.26 h -0.09 C 344.77,95.2 344.68,95.12 344.68,95 v -0.09 a 0.34,0.34 0 0 1 0.35,-0.27 h 0.09 c 0.18,0.07 0.26,0.16 0.26,0.28 z m 2.74,8.75 v 0.09 a 0.23,0.23 0 0 1 -0.26,0.26 0.28,0.28 0 0 1 -0.18,-0.26 v -0.09 a 0.16,0.16 0 0 1 0.18,-0.18 H 348 c 0.07,0.06 0.12,0.12 0.12,0.18 z m 0.8,46.66 a 0.26,0.26 0 0 1 -0.09,0.18 c -0.06,0.24 -0.17,0.35 -0.35,0.35 a 0.26,0.26 0 0 1 -0.18,-0.09 c -0.23,-0.05 -0.35,-0.17 -0.35,-0.35 a 0.26,0.26 0 0 1 0.09,-0.18 c 0.06,-0.29 0.17,-0.44 0.35,-0.44 a 0.26,0.26 0 0 1 0.18,0.09 0.42,0.42 0 0 1 0.35,0.44 z m 0.53,-59 a 0.29,0.29 0 0 1 -0.27,0.18 h -0.08 a 0.16,0.16 0 0 1 -0.18,-0.18 v -0.09 c 0,-0.11 0.06,-0.17 0.18,-0.17 h 0.08 a 0.24,0.24 0 0 1 0.27,0.31 z m 3.27,-61.68 a 2.5,2.5 0 0 1 -0.09,0.61 c -0.17,1 -0.67,1.42 -1.5,1.42 a 3.78,3.78 0 0 1 -0.71,-0.09 c -0.94,-0.23 -1.41,-0.74 -1.41,-1.5 a 3.78,3.78 0 0 1 0.09,-0.71 1.65,1.65 0 0 1 1.68,-1.5 2,2 0 0 1 1.94,1.77 z M 351,61.51 a 1.51,1.51 0 0 1 1.24,0.89 2.31,2.31 0 0 1 0.18,0.88 c 0,0.47 -0.3,0.85 -0.89,1.15 a 1.54,1.54 0 0 1 -1,0.35 c -0.41,0 -0.77,-0.32 -1.06,-1 a 1.39,1.39 0 0 1 -0.36,-0.88 c 0,-0.47 0.33,-0.89 1,-1.24 A 2.31,2.31 0 0 1 351,61.51 Z m 0,30.23 h -0.26 c -0.48,-0.18 -0.71,-0.45 -0.71,-0.8 a 0.76,0.76 0 0 1 0.09,-0.35 c 0.12,-0.47 0.35,-0.71 0.7,-0.71 h 0.36 a 0.79,0.79 0 0 1 0.7,0.8 0.74,0.74 0 0 1 -0.08,0.35 0.8,0.8 0 0 1 -0.8,0.71 z m 0.27,10 v 0.09 a 0.42,0.42 0 0 1 -0.45,0.27 h -0.08 a 0.35,0.35 0 0 1 -0.27,-0.36 v -0.08 c 0.06,-0.24 0.18,-0.36 0.35,-0.36 H 351 a 0.42,0.42 0 0 1 0.31,0.42 z m 1.06,63.11 a 0.22,0.22 0 0 1 -0.09,0.17 0.6,0.6 0 0 1 -0.53,0.27 h -0.09 c -0.24,-0.06 -0.35,-0.18 -0.35,-0.35 a 0.29,0.29 0 0 1 0.08,-0.18 q 0.09,-0.36 0.36,-0.36 a 0.26,0.26 0 0 1 0.17,0.09 q 0.49,0.07 0.49,0.34 z m 4.15,2.91 a 1.48,1.48 0 0 1 -0.09,0.45 c -0.18,0.47 -0.41,0.7 -0.7,0.7 a 1.48,1.48 0 0 1 -0.45,-0.09 c -0.53,-0.11 -0.79,-0.38 -0.79,-0.79 a 0.8,0.8 0 0 1 0.09,-0.36 c 0.23,-0.47 0.53,-0.7 0.88,-0.7 a 0.73,0.73 0 0 1 0.35,0.09 c 0.52,0.15 0.75,0.39 0.75,0.68 z m 3.71,-79.45 V 88 a 0.77,0.77 0 0 1 0.8,-0.62 h 0.26 c 0.48,0.12 0.71,0.38 0.71,0.79 v 0.36 a 0.81,0.81 0 0 1 -0.88,0.61 h -0.27 a 0.81,0.81 0 0 1 -0.58,-0.85 z m 1.59,44.81 a 0.8,0.8 0 0 1 0.36,0.09 c 0.65,0.17 1,0.5 1,1 a 1,1 0 0 1 -0.09,0.44 0.93,0.93 0 0 1 -1,0.88 1.33,1.33 0 0 1 -0.44,-0.08 c -0.59,-0.12 -0.89,-0.41 -0.89,-0.89 a 1.48,1.48 0 0 1 0.09,-0.44 c 0.19,-0.7 0.48,-1.02 1.01,-1.02 z m 0.09,-38.36 a 0.35,0.35 0 0 1 0.27,0.36 v 0.08 q -0.09,0.36 -0.36,0.36 H 361.7 A 0.52,0.52 0 0 1 361.52,95.2 V 95 a 0.35,0.35 0 0 1 0.39,-0.26 z m 1,52.06 a 0.93,0.93 0 0 1 0.09,-0.44 c 0.12,-0.65 0.41,-1 0.89,-1 a 1.69,1.69 0 0 1 0.53,0.09 0.9,0.9 0 0 1 0.79,1 1.48,1.48 0 0 1 -0.09,0.45 c -0.11,0.65 -0.44,1 -1,1 a 0.76,0.76 0 0 1 -0.35,-0.09 c -0.55,-0.18 -0.85,-0.5 -0.85,-1.03 z m 4,-49.85 h -0.09 a 0.6,0.6 0 0 1 -0.26,-0.53 0.33,0.33 0 0 1 0.35,-0.26 H 367 a 0.34,0.34 0 0 1 0.26,0.35 v 0.09 a 0.41,0.41 0 0 1 -0.4,0.38 z m 1.77,25.81 V 123 c -0.12,0.42 -0.36,0.62 -0.71,0.62 h -0.26 a 0.79,0.79 0 0 1 -0.53,-0.7 v -0.27 c 0.12,-0.47 0.32,-0.71 0.62,-0.71 H 368 a 0.86,0.86 0 0 1 0.63,0.82 z M 367.58,105.1 V 105 a 0.35,0.35 0 0 1 0.35,-0.26 H 368 a 0.4,0.4 0 0 1 0.26,0.44 c 0,0.18 -0.14,0.27 -0.26,0.27 h -0.18 c -0.16,-0.01 -0.25,-0.13 -0.25,-0.37 z m 1.5,6.28 v 0.09 a 0.35,0.35 0 0 1 -0.35,0.26 h -0.09 c -0.24,-0.06 -0.36,-0.18 -0.36,-0.35 v -0.09 a 0.52,0.52 0 0 1 0.36,-0.18 h 0.18 a 0.24,0.24 0 0 1 0.25,0.25 z m 1.5,-60.63 V 51 a 0.54,0.54 0 0 1 -0.62,0.45 h -0.17 a 0.63,0.63 0 0 1 -0.45,-0.62 v -0.27 a 0.59,0.59 0 0 1 0.54,-0.44 H 370 c 0.4,0.11 0.57,0.32 0.57,0.61 z m -0.35,48.61 v 0.17 q -0.09,0.27 -0.27,0.27 h -0.08 a 0.32,0.32 0 0 1 -0.36,-0.35 v -0.09 a 0.41,0.41 0 0 1 0.44,-0.27 H 370 a 0.29,0.29 0 0 1 0.22,0.25 z m 1.59,10 a 2.5,2.5 0 0 1 0.09,-0.61 c 0.18,-0.95 0.68,-1.42 1.5,-1.42 a 3.78,3.78 0 0 1 0.71,0.09 q 1.5,0.27 1.5,1.59 a 2.5,2.5 0 0 1 -0.09,0.62 1.7,1.7 0 0 1 -1.68,1.41 3.19,3.19 0 0 1 -0.62,-0.08 1.59,1.59 0 0 1 -1.42,-1.64 z m 5.56,42.64 a 2.52,2.52 0 0 1 2.12,1.5 3.32,3.32 0 0 1 0.62,1.68 2.5,2.5 0 0 1 -1.5,2.12 3.58,3.58 0 0 1 -1.68,0.53 2.56,2.56 0 0 1 -2.21,-1.5 3.72,3.72 0 0 1 -0.45,-1.68 2.53,2.53 0 0 1 1.51,-2.12 2.88,2.88 0 0 1 1.59,-0.53 z m 47.28,-74.68 c 0.77,-0.06 1.53,-0.09 2.3,-0.09 q 23.51,0 37.82,18.92 l -13.52,13.52 Q 442.79,96.15 427,96.16 a 27.5,27.5 0 0 0 -20.15,8.39 26.62,26.62 0 0 0 -8.4,19.89 28.82,28.82 0 0 0 28.55,28.63 q 15.81,0 24.3,-13.78 l 13.52,13.78 q -9.36,12.38 -22.71,16.62 a 1.37,1.37 0 0 1 0.27,0.35 3.29,3.29 0 0 1 0.44,1.59 2.76,2.76 0 0 1 -1.5,2.3 3.83,3.83 0 0 1 -1.68,0.44 2.71,2.71 0 0 1 -2.21,-1.5 4.11,4.11 0 0 1 -0.44,-1.68 v -0.27 a 49.93,49.93 0 0 1 -10,1 47.09,47.09 0 0 1 -47.46,-47.46 45.47,45.47 0 0 1 13.76,-33.46 48.62,48.62 0 0 1 11.13,-8.31 l -1.68,0.44 1.95,-0.53 a 44.46,44.46 0 0 1 15.64,-4.94 l 0.09,-0.09 -22.71,-8.75 23.29,7.18 -7.6,-9.28 7.95,9.19 -2.65,-18 4.15,16.61 3.71,-14.58 -3.31,16.06 v 0.17 l 17.32,-22.89 -16.26,23.6 16.79,-7 z M 389,88.91 V 89 a 0.27,0.27 0 0 1 -0.26,0.17 h -0.18 c -0.23,0 -0.35,-0.08 -0.35,-0.26 v -0.09 c 0.06,-0.18 0.2,-0.26 0.44,-0.26 h 0.09 a 0.33,0.33 0 0 1 0.26,0.35 z m 16.8,45.6 v 0.36 a 0.7,0.7 0 0 1 -0.71,0.53 h -0.27 c -0.35,-0.12 -0.53,-0.33 -0.53,-0.62 v -0.36 c 0.12,-0.35 0.33,-0.53 0.62,-0.53 h 0.27 c 0.45,0.11 0.66,0.33 0.66,0.62 z m -0.45,61.78 a 2.35,2.35 0 0 1 2.66,-2.65 h 0.17 a 2.32,2.32 0 0 1 2.57,2.56 2.49,2.49 0 0 1 -2.66,2.74 2.43,2.43 0 0 1 -2.7,-2.65 z M 411.23,57 v 0.27 a 0.57,0.57 0 0 1 -0.62,0.53 h -0.18 a 0.75,0.75 0 0 1 -0.44,-0.62 v -0.26 c 0.12,-0.3 0.29,-0.45 0.53,-0.45 h 0.18 c 0.35,0.12 0.53,0.3 0.53,0.53 z m 7.86,73.09 a 1.6,1.6 0 0 1 -0.09,0.53 0.86,0.86 0 0 1 -0.88,0.8 2.39,2.39 0 0 1 -0.53,-0.09 c -0.53,-0.12 -0.8,-0.38 -0.8,-0.79 a 1.6,1.6 0 0 1 0.09,-0.53 c 0.12,-0.59 0.41,-0.89 0.89,-0.89 a 1,1 0 0 1 0.44,0.09 c 0.59,0.12 0.88,0.41 0.88,0.88 z m 13.61,14.06 c 0,1.18 -0.65,1.76 -1.94,1.76 a 1.64,1.64 0 0 1 -1.86,-1.85 1.62,1.62 0 0 1 1.77,-1.77 h 0.18 a 1.64,1.64 0 0 1 1.85,1.86 z m -2,-39.33 a 1.11,1.11 0 0 1 1.24,-1.15 c 0.76,0 1.15,0.41 1.15,1.24 0,0.83 -0.42,1.14 -1.24,1.14 a 1.1,1.1 0 0 1 -1.18,-1.23 z m 2.83,23.68 c 0.53,0 0.79,0.24 0.79,0.71 a 0.78,0.78 0 0 1 -0.88,0.88 c -0.47,0 -0.71,-0.29 -0.71,-0.88 0,-0.59 0.27,-0.71 0.77,-0.71 z M 440,76.8 a 0.63,0.63 0 0 1 0.71,-0.71 c 0.41,0 0.62,0.24 0.62,0.71 0,0.47 -0.21,0.56 -0.62,0.62 A 0.65,0.65 0 0 1 440,76.8 Z m 6,30.76 v 0.26 c -0.18,0.47 -0.41,0.71 -0.71,0.71 H 445 a 0.77,0.77 0 0 1 -0.62,-0.8 v -0.26 a 0.8,0.8 0 0 1 0.71,-0.53 h 0.26 c 0.4,0.12 0.65,0.32 0.65,0.62 z m 5.39,-77.86 v 0.17 c 0,0.47 -0.29,0.8 -0.88,1 h -0.18 c -0.53,0 -0.83,-0.29 -0.88,-0.88 V 29.7 c 0,-0.48 0.29,-0.77 0.88,-0.89 h 0.18 c 0.49,0 0.78,0.3 0.84,0.89 z M 451,121.79 a 0.32,0.32 0 0 1 0.35,-0.36 c 0.3,0 0.44,0.12 0.44,0.36 0,0.24 -0.14,0.35 -0.44,0.35 A 0.31,0.31 0 0 1 451,121.79 Z m 0.88,-99.34 h -0.18 c -0.17,0 -0.26,-0.15 -0.26,-0.44 v -0.09 c 0,-0.18 0.12,-0.3 0.35,-0.36 a 0.43,0.43 0 0 1 0.45,0.36 c 0,0.35 -0.12,0.53 -0.36,0.53 z m 3,90.67 V 113 c 0,-0.24 0.08,-0.36 0.26,-0.36 0.18,0 0.35,0.15 0.35,0.44 v 0.09 c 0,0.18 -0.08,0.27 -0.26,0.27 -0.18,0 -0.34,-0.08 -0.34,-0.32 z m 4.33,-3.26 v 0.26 c -0.12,0.35 -0.33,0.53 -0.62,0.53 h -0.35 c -0.42,-0.12 -0.62,-0.32 -0.62,-0.62 v -0.26 a 0.71,0.71 0 0 1 0.7,-0.62 h 0.36 a 0.7,0.7 0 0 1 0.54,0.71 z m 1.68,27.39 h -0.18 a 1.62,1.62 0 0 1 -1.77,-1.77 c 0,-1.29 0.62,-1.94 1.86,-1.94 1.24,0 1.94,0.62 1.94,1.86 a 1.64,1.64 0 0 1 -1.84,1.85 z m 1,36.24 c 0.82,0 1.24,0.38 1.24,1.15 0,0.77 -0.39,1.23 -1.15,1.23 a 1.1908505,1.1908505 0 1 1 -0.09,-2.38 z m 0.88,-23.25 c 0,-0.53 0.24,-0.79 0.71,-0.79 0.47,0 0.88,0.26 0.88,0.79 a 0.7,0.7 0 0 1 -0.79,0.8 0.71,0.71 0 0 1 -0.82,-0.8 z m 2.12,-11.49 a 0.32,0.32 0 0 1 0.36,-0.35 c 0.29,0 0.44,0.12 0.44,0.35 0,0.23 -0.15,0.36 -0.44,0.36 a 0.32,0.32 0 0 1 -0.38,-0.36 z m 1.59,-71.58 a 2.58,2.58 0 0 1 -0.79,-1.68 2.37,2.37 0 0 1 0.71,-1.59 2.3,2.3 0 0 1 1.59,-0.8 2.69,2.69 0 0 1 1.59,0.71 2.48,2.48 0 0 1 0.88,1.68 2.28,2.28 0 0 1 -0.79,1.59 2.32,2.32 0 0 1 -1.6,0.8 2.42,2.42 0 0 1 -1.61,-0.71 z m -0.79,95.8 v -0.18 c 0,-0.58 0.35,-0.94 1.06,-1.06 a 1,1 0 0 1 1.15,1.15 c 0,0.83 -0.39,1.24 -1.15,1.24 -0.76,0 -1.08,-0.38 -1.08,-1.12 z m 0.71,-36.32 c 0,-0.24 0.11,-0.36 0.35,-0.36 0.24,0 0.44,0.12 0.44,0.36 a 0.39,0.39 0 0 1 -0.44,0.44 c -0.26,0 -0.37,-0.15 -0.37,-0.44 z m 0.7,6.1 q 0,-0.45 0.36,-0.45 c 0.23,0 0.35,0.15 0.35,0.45 a 0.36,0.36 0 0 1 -0.71,0 z m 2.92,-8.22 a 0.36,0.36 0 1 1 0.35,0.35 0.32,0.32 0 0 1 -0.37,-0.35 z m 5.3,-83.61 a 1,1 0 0 1 -1,0.79 1.38,1.38 0 0 1 -0.62,-0.17 c -0.53,-0.18 -0.79,-0.47 -0.79,-0.89 a 1.35,1.35 0 0 1 0.17,-0.61 c 0.24,-0.53 0.56,-0.8 1,-0.8 a 2.31,2.31 0 0 1 0.53,0.09 1.26,1.26 0 0 1 0.8,1.06 1.64,1.64 0 0 1 -0.11,0.53 z m -2.38,64.16 a 0.39,0.39 0 0 1 0.44,-0.44 c 0.23,0 0.35,0.15 0.35,0.44 a 0.32,0.32 0 0 1 -0.35,0.36 c -0.32,0 -0.46,-0.12 -0.46,-0.36 z m 1.85,-6.63 a 0.85,0.85 0 0 1 0.8,-1 0.86,0.86 0 0 1 1,1 0.88,0.88 0 0 1 -0.88,1 c -0.64,-0.02 -0.94,-0.35 -0.94,-1 z m 0.8,4.78 c 0,-0.18 0.14,-0.3 0.44,-0.36 a 0.32,0.32 0 0 1 0.35,0.36 c 0,0.29 -0.12,0.44 -0.35,0.44 a 0.39,0.39 0 0 1 -0.46,-0.44 z m 1.85,-10.7 a 0.78,0.78 0 0 1 0.89,-0.88 h 0.17 c 0.47,0 0.74,0.29 0.8,0.88 0.06,0.59 -0.33,0.89 -1,0.89 a 0.79,0.79 0 0 1 -0.88,-0.89 z m 1.31,13.47 a 0.31,0.31 0 0 1 -0.35,0.35 c -0.18,0 -0.27,-0.12 -0.27,-0.35 a 0.24,0.24 0 0 1 0.27,-0.27 c 0.23,-0.03 0.35,0.06 0.35,0.27 z m 1.32,-12.2 a 0.31,0.31 0 0 1 -0.35,-0.35 c 0,-0.18 0.12,-0.27 0.35,-0.27 a 0.24,0.24 0 0 1 0.27,0.27 c 0,0.2 -0.09,0.32 -0.27,0.32 z m 4.69,107.47 a 3.15,3.15 0 0 1 1,2.12 2.92,2.92 0 0 1 -0.88,1.94 3.08,3.08 0 0 1 -2.12,1.07 2.82,2.82 0 0 1 -2,-1 2.51,2.51 0 0 1 -1.06,-1.94 2.8,2.8 0 0 1 1,-1.95 2.73,2.73 0 0 1 2,-1.14 3,3 0 0 1 2.06,0.87 z M 483.87,19.8 a 1.09,1.09 0 0 1 -1.14,1.06 1,1 0 0 1 -0.45,-0.09 c -0.76,-0.12 -1.15,-0.47 -1.15,-1.06 a 1.2,1.2 0 0 1 0.09,-0.53 c 0.12,-0.77 0.5,-1.15 1.15,-1.15 a 0.57,0.57 0 0 1 0.44,0.18 c 0.77,0.12 1.15,0.47 1.15,1.06 a 1.23,1.23 0 0 1 -0.09,0.53 z m -2.29,59.83 a 0.64,0.64 0 0 1 0.62,-0.71 0.62,0.62 0 0 1 0.7,0.71 c 0,0.41 -0.23,0.62 -0.7,0.62 a 0.55,0.55 0 0 1 -0.62,-0.62 z M 482.9,98 c 0,-0.29 0.12,-0.44 0.36,-0.44 0.24,0 0.35,0.15 0.35,0.44 a 0.36,0.36 0 1 1 -0.71,0 z m 1.24,-69.73 a 0.52,0.52 0 0 1 0.18,0.35 0.53,0.53 0 0 1 -0.27,0.45 c -0.12,0.23 -0.26,0.35 -0.44,0.35 -0.18,0 -0.24,-0.12 -0.35,-0.35 a 0.74,0.74 0 0 1 -0.27,-0.45 c 0,-0.17 0.12,-0.32 0.35,-0.44 a 0.55,0.55 0 0 1 0.36,-0.17 0.51,0.51 0 0 1 0.44,0.27 z M 486.08,164 h -0.17 c -0.3,0 -0.44,-0.18 -0.44,-0.53 0,-0.35 0.2,-0.71 0.61,-0.71 0.41,0 0.71,0.21 0.71,0.62 0,0.41 -0.24,0.62 -0.71,0.62 z m 41.37,-27.57 a 2.43,2.43 0 0 1 2.65,2.74 2.32,2.32 0 0 1 -2.57,2.56 h -0.17 a 2.34,2.34 0 0 1 -2.65,-2.65 2.43,2.43 0 0 1 2.74,-2.62 z m 51.79,9.19 a 1.71,1.71 0 0 1 -1.33,-0.8 1.78,1.78 0 0 1 -0.62,-1.23 1.71,1.71 0 0 1 0.71,-1.24 1.78,1.78 0 0 1 1.24,-0.62 2,2 0 0 1 1.32,0.71 1.86,1.86 0 0 1 0.53,1.23 2.09,2.09 0 0 1 -0.62,1.33 1.78,1.78 0 0 1 -1.23,0.65 z"
           class="cls-1" />
      </g>
    </g>
  </g>
</svg>
