<svg xmlns="http://www.w3.org/2000/svg" height="300" width="1000" viewBox="0 0 1221.7 355.5"><defs><style>.cls-1{opacity:0.6;}.cls-2{fill:#fc6;}.cls-3{font-size:24px;font-family:MyriadPro-Regular, Myriad Pro;}.cls-4{letter-spacing:0.01em;}.cls-5{letter-spacing:-0.01em;}.cls-6{letter-spacing:0em;}.cls-7{letter-spacing:-0.04em;}.cls-8{letter-spacing:0em;}.cls-9{letter-spacing:-0.01em;}.cls-10{letter-spacing:0.02em;}.cls-11{letter-spacing:-0.01em;}.cls-12{letter-spacing:-0.04em;}.cls-13{letter-spacing:-0.01em;}.cls-14{letter-spacing:0em;}.cls-15{letter-spacing:0.02em;}.cls-16{letter-spacing:-0.01em;}.cls-17{letter-spacing:0em;}.cls-18{letter-spacing:0.2em;}.cls-19{letter-spacing:0.2em;}.cls-20{letter-spacing:-0.05em;}.cls-21{letter-spacing:0.13em;}.cls-22{letter-spacing:-0.03em;}.cls-23{letter-spacing:0em;}.cls-24{letter-spacing:-0.01em;}.cls-25{letter-spacing:0.13em;}.cls-26{letter-spacing:0.12em;}.cls-27{letter-spacing:-0.01em;}.cls-28{letter-spacing:-0.04em;}.cls-29{letter-spacing:-0.01em;}.cls-30{letter-spacing:-0.01em;}.cls-31{letter-spacing:0.01em;}.cls-32{letter-spacing:-0.02em;}.cls-33{letter-spacing:0.15em;}.cls-34{letter-spacing:0.15em;}.cls-35{letter-spacing:0em;}.cls-36{letter-spacing:0.02em;}.cls-37{letter-spacing:-0.08em;}.cls-38{letter-spacing:-0.01em;}.cls-39{letter-spacing:0.08em;}.cls-40{letter-spacing:0.08em;}.cls-41{letter-spacing:-0.01em;}.cls-42{letter-spacing:-0.01em;}.cls-43{letter-spacing:0em;}.cls-44{letter-spacing:-0.08em;}.cls-45{letter-spacing:0.01em;}.cls-46{letter-spacing:-0.03em;}</style></defs><title>text_sensation</title><g id="Calque_2" data-name="Calque 2"><g id="Voyage"><g class="cls-1"><path class="cls-2" d="M26.25,111.08c-.78,8.2.67,16.51,9,16.51,6.07,0,9.46-3.9,10.64-10.38,1.47-7.92-.86-13.89-12.15-23C17.54,81.05,11.23,71.4,14.26,54.66c2.73-15,12.92-26.89,33.56-26.89,28.47,0,33.81,20,31.74,33.82H55.9c.66-6.08.15-14.64-8.17-14.64-5.14,0-8.12,3.14-9.08,9s.8,10,12.59,19.26c18.91,15,23.86,26.25,19.83,44.69-3.35,15.49-14.47,26.85-36.26,26.85-29.08,0-35.56-18.5-32.94-35.69Z" transform="translate(-1.34 -27.77)"/><path class="cls-2" d="M147.55,95.44H113.64l-6,28.45h40.18l-7.1,20.78H77.81l24.42-114.8H163l-4.61,20.84H123l-5,23.89H152Z" transform="translate(-1.34 -27.77)"/><path class="cls-2" d="M153.2,144.67l24.42-114.8H206c5.29,51.44,7.06,68.55,7.33,74.34h.47c2-14.44,6-36.76,9.61-53.48l4.45-20.86h23.24l-24.42,114.8h-28c-4.37-53.4-6.24-73-6.68-79h-.53c-2.09,13.82-6.31,37.84-10.31,56.62l-4.78,22.34Z" transform="translate(-1.34 -27.77)"/><path class="cls-2" d="M270.42,111.08c-.79,8.2.66,16.51,9,16.51,6.06,0,9.46-3.9,10.64-10.38,1.47-7.92-.86-13.89-12.15-23-16.19-13.11-22.5-22.76-19.47-39.5,2.73-15,12.92-26.89,33.56-26.89,28.47,0,33.8,20,31.74,33.82H300.06c.67-6.08.16-14.64-8.16-14.64-5.15,0-8.12,3.14-9.08,9s.8,10,12.58,19.26c18.92,15,23.87,26.25,19.84,44.69-3.36,15.49-14.48,26.85-36.26,26.85-29.08,0-35.57-18.5-32.94-35.69Z" transform="translate(-1.34 -27.77)"/><path class="cls-2" d="M353.2,118.75l-9.55,25.92H317.54l46.31-114.8h36.34l-1.47,114.8H373.29l.94-25.92Zm21.59-20.62c.84-17.8,2.12-38.09,2.87-48.63H377c-3,10.46-9.46,29.44-16.05,48.63Z" transform="translate(-1.34 -27.77)"/><path class="cls-2" d="M432.18,50.71H410.34l4.49-20.84h69l-4.49,20.84H457.82l-19.93,94H412.25Z" transform="translate(-1.34 -27.77)"/><path class="cls-2" d="M520.06,29.87l-24.42,114.8h-25.7l24.42-114.8Z" transform="translate(-1.34 -27.77)"/><path class="cls-2" d="M597,90.93c-9.34,43.19-24.41,55.84-46.29,55.84-27.15,0-37.59-19-27.7-64.4,8.71-40,24.53-54.6,45.67-54.6C594.33,27.77,607.11,43.85,597,90.93Zm-48.22-6.08c-6.2,28.82-6.19,41.71,3.41,41.71,7.61,0,12.12-7.17,18.87-37.95,6.25-28.15,7.06-40.52-3.37-40.52C559.61,48.09,554.6,57.66,548.74,84.85Z" transform="translate(-1.34 -27.77)"/><path class="cls-2" d="M599.86,144.67l24.42-114.8h28.41c5.29,51.44,7.06,68.55,7.33,74.34h.47c2-14.44,6-36.76,9.61-53.48l4.45-20.86h23.24l-24.42,114.8h-28c-4.37-53.4-6.24-73-6.68-79h-.53c-2.09,13.82-6.31,37.84-10.31,56.62l-4.78,22.34Z" transform="translate(-1.34 -27.77)"/><path class="cls-2" d="M717.08,111.08c-.79,8.2.66,16.51,9,16.51,6.06,0,9.46-3.9,10.64-10.38,1.47-7.92-.86-13.89-12.16-23-16.18-13.11-22.49-22.76-19.46-39.5,2.73-15,12.92-26.89,33.56-26.89,28.47,0,33.8,20,31.74,33.82H746.72c.67-6.08.16-14.64-8.16-14.64-5.15,0-8.12,3.14-9.08,9s.8,10,12.58,19.26c18.92,15,23.87,26.25,19.84,44.69-3.36,15.49-14.48,26.85-36.26,26.85-29.09,0-35.57-18.5-32.95-35.69Z" transform="translate(-1.34 -27.77)"/></g><text class="cls-3" transform="translate(114.16 82.99)"><tspan class="cls-4">I</tspan><tspan x="5.98" y="0">ma</tspan><tspan class="cls-5" x="37.56" y="0">g</tspan><tspan class="cls-6" x="50.83" y="0">inez</tspan><tspan class="cls-7" x="92.06" y="0"> </tspan><tspan class="cls-6" x="96.25" y="0">la</tspan><tspan class="cls-7" x="113.49" y="0"> </tspan><tspan class="cls-6" x="117.68" y="0">n</tspan><tspan class="cls-8" x="131" y="0">a</tspan><tspan x="142.47" y="0">tu</tspan><tspan class="cls-9" x="163.64" y="0">r</tspan><tspan x="171.24" y="0">e</tspan><tspan class="cls-7" x="183.27" y="0"> </tspan><tspan x="187.46" y="0">à</tspan><tspan class="cls-7" x="199.03" y="0"> </tspan><tspan x="203.22" y="0">pe</tspan><tspan class="cls-10" x="228.9" y="0">r</tspan><tspan class="cls-11" x="237.32" y="0">t</tspan><tspan x="245.12" y="0">e</tspan><tspan class="cls-12" x="257.14" y="0"> </tspan><tspan x="261.33" y="0">de</tspan><tspan class="cls-7" x="286.89" y="0"> </tspan><tspan x="291.08" y="0">vu</tspan><tspan class="cls-13" x="315.85" y="0">e</tspan><tspan x="327.59" y="0">,</tspan><tspan class="cls-7" x="332.56" y="0"> </tspan><tspan x="336.75" y="0">pas</tspan><tspan class="cls-7" x="371.47" y="0"> </tspan><tspan x="375.66" y="0">une</tspan><tspan class="cls-7" x="414.23" y="0"> </tspan><tspan x="418.42" y="0">seule</tspan><tspan class="cls-7" x="470.86" y="0"> </tspan><tspan x="475.05" y="0">t</tspan><tspan class="cls-14" x="483" y="0">r</tspan><tspan x="490.72" y="0">a</tspan><tspan class="cls-11" x="502.29" y="0">c</tspan><tspan x="512.9" y="0">e</tspan><tspan class="cls-7" x="524.92" y="0"> </tspan><tspan x="529.11" y="0">de</tspan><tspan class="cls-7" x="554.67" y="0"> </tspan><tspan x="558.86" y="0">s</tspan><tspan class="cls-15" x="568.37" y="0">k</tspan><tspan x="580.03" y="0">i,</tspan><tspan class="cls-7" x="590.62" y="0"> </tspan><tspan x="594.81" y="0">la</tspan><tspan class="cls-7" x="612.04" y="0"> </tspan><tspan x="616.23" y="0">poud</tspan><tspan class="cls-16" x="669.82" y="0">r</tspan><tspan x="677.43" y="0">euse</tspan><tspan class="cls-12" x="724.2" y="0"> </tspan><tspan x="728.39" y="0">des</tspan><tspan class="cls-7" x="763.46" y="0"> </tspan><tspan x="767.65" y="0">Hau</tspan><tspan class="cls-5" x="808.09" y="0">t</tspan><tspan x="815.89" y="0">es</tspan><tspan class="cls-7" x="837.41" y="0"> </tspan><tspan class="cls-17" x="841.6" y="0">A</tspan><tspan x="856.22" y="0">lpes</tspan><tspan class="cls-7" x="897.07" y="0"> </tspan><tspan class="cls-16" x="901.26" y="0">v</tspan><tspan x="912.56" y="0">ous</tspan><tspan class="cls-7" x="948.46" y="0"> </tspan><tspan x="952.66" y="0">appelle</tspan><tspan class="cls-7" x="1026.91" y="0"> </tspan><tspan x="1031.1" y="0">et</tspan><tspan class="cls-7" x="1051.07" y="0"> </tspan><tspan class="cls-9" x="1055.26" y="0">v</tspan><tspan x="1066.56" y="0">ous </tspan><tspan x="0" y="28.8">ne</tspan><tspan class="cls-18" x="25.34" y="28.8"> </tspan><tspan x="35.23" y="28.8">pou</tspan><tspan class="cls-9" x="75.29" y="28.8">v</tspan><tspan x="86.59" y="28.8">ez</tspan><tspan class="cls-19" x="108.89" y="28.8"> </tspan><tspan class="cls-9" x="118.78" y="28.8">r</tspan><tspan x="126.39" y="28.8">ésis</tspan><tspan class="cls-11" x="163.04" y="28.8">t</tspan><tspan x="170.84" y="28.8">e</tspan><tspan class="cls-20" x="182.86" y="28.8">r</tspan><tspan x="189.44" y="28.8">.</tspan><tspan class="cls-21" x="194.4" y="28.8"> </tspan><tspan class="cls-22" x="202.61" y="28.8">V</tspan><tspan x="215.21" y="28.8">ous</tspan><tspan class="cls-18" x="251.12" y="28.8"> </tspan><tspan class="cls-9" x="261.01" y="28.8">v</tspan><tspan x="272.31" y="28.8">oila</tspan><tspan class="cls-19" x="308.34" y="28.8"> </tspan><tspan x="318.23" y="28.8">slaloma</tspan><tspan class="cls-8" x="395.38" y="28.8">n</tspan><tspan x="408.61" y="28.8">t</tspan><tspan class="cls-18" x="416.55" y="28.8"> </tspan><tspan x="426.44" y="28.8">e</tspan><tspan class="cls-23" x="438.47" y="28.8">n</tspan><tspan x="451.69" y="28.8">t</tspan><tspan class="cls-9" x="459.63" y="28.8">r</tspan><tspan x="467.24" y="28.8">e</tspan><tspan class="cls-18" x="479.27" y="28.8"> </tspan><tspan x="489.16" y="28.8">les</tspan><tspan class="cls-19" x="516.35" y="28.8"> </tspan><tspan x="526.24" y="28.8">bosses</tspan><tspan class="cls-18" x="593.61" y="28.8"> </tspan><tspan x="603.5" y="28.8">sur</tspan><tspan class="cls-19" x="634.07" y="28.8"> </tspan><tspan class="cls-11" x="643.96" y="28.8">c</tspan><tspan x="654.57" y="28.8">et</tspan><tspan class="cls-5" x="674.54" y="28.8">t</tspan><tspan x="682.34" y="28.8">e</tspan><tspan class="cls-18" x="694.36" y="28.8"> </tspan><tspan x="704.25" y="28.8">neige</tspan><tspan class="cls-18" x="760.65" y="28.8"> </tspan><tspan x="770.54" y="28.8">si</tspan><tspan class="cls-19" x="785.66" y="28.8"> </tspan><tspan x="795.55" y="28.8">f</tspan><tspan class="cls-24" x="802.56" y="28.8">r</tspan><tspan x="810.29" y="28.8">aich</tspan><tspan class="cls-13" x="851.54" y="28.8">e</tspan><tspan x="863.28" y="28.8">,</tspan><tspan class="cls-18" x="868.25" y="28.8"> </tspan><tspan class="cls-9" x="878.14" y="28.8">v</tspan><tspan x="889.44" y="28.8">ous</tspan><tspan class="cls-18" x="925.35" y="28.8"> </tspan><tspan class="cls-16" x="935.24" y="28.8">v</tspan><tspan x="946.54" y="28.8">ous</tspan><tspan class="cls-19" x="982.44" y="28.8"> </tspan><tspan x="992.33" y="28.8">déhanchez </tspan><tspan x="0" y="57.6">nonchaleme</tspan><tspan class="cls-8" x="125.18" y="57.6">n</tspan><tspan x="138.41" y="57.6">t</tspan><tspan class="cls-25" x="146.35" y="57.6"> </tspan><tspan x="154.51" y="57.6">pour</tspan><tspan class="cls-25" x="202.42" y="57.6"> </tspan><tspan class="cls-23" x="210.58" y="57.6">a</tspan><tspan x="222.05" y="57.6">t</tspan><tspan class="cls-11" x="229.99" y="57.6">t</tspan><tspan x="237.79" y="57.6">end</tspan><tspan class="cls-9" x="276.67" y="57.6">r</tspan><tspan x="284.28" y="57.6">e</tspan><tspan class="cls-25" x="296.3" y="57.6"> </tspan><tspan x="304.46" y="57.6">la</tspan><tspan class="cls-25" x="321.7" y="57.6"> </tspan><tspan x="329.86" y="57.6">vi</tspan><tspan class="cls-11" x="347.02" y="57.6">t</tspan><tspan x="354.82" y="57.6">esse</tspan><tspan class="cls-25" x="397.87" y="57.6"> </tspan><tspan x="406.03" y="57.6">maximal</tspan><tspan class="cls-13" x="491.59" y="57.6">e</tspan><tspan x="503.33" y="57.6">.</tspan><tspan class="cls-25" x="508.3" y="57.6"> </tspan><tspan x="516.46" y="57.6">Une</tspan><tspan class="cls-25" x="557.33" y="57.6"> </tspan><tspan x="565.49" y="57.6">sens</tspan><tspan class="cls-8" x="609.84" y="57.6">a</tspan><tspan x="621.31" y="57.6">tion</tspan><tspan class="cls-25" x="661.37" y="57.6"> </tspan><tspan x="669.53" y="57.6">de</tspan><tspan class="cls-25" x="695.09" y="57.6"> </tspan><tspan x="703.25" y="57.6">libe</tspan><tspan class="cls-10" x="740.21" y="57.6">r</tspan><tspan class="cls-11" x="748.63" y="57.6">t</tspan><tspan x="756.43" y="57.6">é</tspan><tspan class="cls-25" x="768.46" y="57.6"> </tspan><tspan class="cls-9" x="776.62" y="57.6">v</tspan><tspan x="787.92" y="57.6">ous</tspan><tspan class="cls-25" x="823.83" y="57.6"> </tspan><tspan class="cls-16" x="831.99" y="57.6">r</tspan><tspan x="839.59" y="57.6">emplit</tspan><tspan class="cls-25" x="904.51" y="57.6"> </tspan><tspan x="912.67" y="57.6">de</tspan><tspan class="cls-25" x="938.23" y="57.6"> </tspan><tspan x="946.4" y="57.6">joi</tspan><tspan class="cls-13" x="971.02" y="57.6">e</tspan><tspan x="982.76" y="57.6">,</tspan><tspan class="cls-25" x="987.72" y="57.6"> </tspan><tspan x="995.88" y="57.6">enfin</tspan><tspan class="cls-25" x="1047.1" y="57.6"> </tspan><tspan class="cls-9" x="1055.26" y="57.6">v</tspan><tspan x="1066.56" y="57.6">ous </tspan><tspan class="cls-9" x="0" y="86.4">r</tspan><tspan x="7.61" y="86.4">et</tspan><tspan class="cls-9" x="27.58" y="86.4">r</tspan><tspan x="35.18" y="86.4">ou</tspan><tspan class="cls-16" x="61.58" y="86.4">v</tspan><tspan x="72.89" y="86.4">ez</tspan><tspan class="cls-26" x="95.18" y="86.4"> </tspan><tspan class="cls-5" x="103.16" y="86.4">c</tspan><tspan x="113.77" y="86.4">et</tspan><tspan class="cls-11" x="133.74" y="86.4">t</tspan><tspan x="141.54" y="86.4">e</tspan><tspan class="cls-26" x="153.56" y="86.4"> </tspan><tspan x="161.54" y="86.4">ambian</tspan><tspan class="cls-11" x="237.28" y="86.4">c</tspan><tspan class="cls-13" x="247.89" y="86.4">e</tspan><tspan x="259.62" y="86.4">,</tspan><tspan class="cls-26" x="264.59" y="86.4"> </tspan><tspan class="cls-11" x="272.57" y="86.4">c</tspan><tspan x="283.17" y="86.4">et</tspan><tspan class="cls-11" x="303.14" y="86.4">t</tspan><tspan x="310.94" y="86.4">e</tspan><tspan class="cls-26" x="322.97" y="86.4"> </tspan><tspan x="330.94" y="86.4">danse</tspan><tspan class="cls-26" x="390.89" y="86.4"> </tspan><tspan x="398.87" y="86.4">si</tspan><tspan class="cls-26" x="413.99" y="86.4"> </tspan><tspan x="421.97" y="86.4">poétique</tspan><tspan class="cls-26" x="513.14" y="86.4"> </tspan><tspan class="cls-11" x="521.12" y="86.4">t</tspan><tspan x="528.92" y="86.4">ei</tspan><tspan class="cls-8" x="546.56" y="86.4">n</tspan><tspan class="cls-11" x="559.78" y="86.4">t</tspan><tspan x="567.58" y="86.4">ée</tspan><tspan class="cls-26" x="591.63" y="86.4"> </tspan><tspan x="599.61" y="86.4">de</tspan><tspan class="cls-26" x="625.17" y="86.4"> </tspan><tspan x="633.14" y="86.4">blanc</tspan><tspan class="cls-26" x="688.1" y="86.4"> </tspan><tspan x="696.08" y="86.4">sur</tspan><tspan class="cls-26" x="726.65" y="86.4"> </tspan><tspan x="734.63" y="86.4">laquelle</tspan><tspan class="cls-26" x="813.97" y="86.4"> </tspan><tspan class="cls-9" x="821.95" y="86.4">v</tspan><tspan x="833.25" y="86.4">ous</tspan><tspan class="cls-26" x="869.16" y="86.4"> </tspan><tspan class="cls-17" x="877.13" y="86.4">e</tspan><tspan class="cls-27" x="889.09" y="86.4">x</tspan><tspan x="899.84" y="86.4">ellez</tspan><tspan class="cls-26" x="945.48" y="86.4"> </tspan><tspan class="cls-11" x="953.46" y="86.4">t</tspan><tspan x="961.26" y="86.4">el</tspan><tspan class="cls-26" x="978.95" y="86.4"> </tspan><tspan x="986.92" y="86.4">un</tspan><tspan class="cls-26" x="1013.47" y="86.4"> </tspan><tspan x="1021.45" y="86.4">danseur </tspan><tspan x="0" y="115.2">é</tspan><tspan class="cls-11" x="12.02" y="115.2">t</tspan><tspan x="19.82" y="115.2">oil</tspan><tspan class="cls-13" x="44.28" y="115.2">e</tspan><tspan x="56.02" y="115.2">.</tspan><tspan class="cls-28" x="60.98" y="115.2"> </tspan><tspan class="cls-22" x="65.21" y="115.2">V</tspan><tspan x="77.81" y="115.2">ous c</tspan><tspan class="cls-9" x="129.55" y="115.2">r</tspan><tspan class="cls-29" x="137.16" y="115.2">o</tspan><tspan class="cls-9" x="150.17" y="115.2">y</tspan><tspan x="161.23" y="115.2">ez </tspan><tspan class="cls-9" x="188.61" y="115.2">v</tspan><tspan x="199.92" y="115.2">oir un loup dans </tspan><tspan class="cls-11" x="367.1" y="115.2">c</tspan><tspan x="377.71" y="115.2">e </tspan><tspan class="cls-30" x="394.82" y="115.2">a</tspan><tspan x="406.19" y="115.2">v</tspan><tspan class="cls-9" x="417.74" y="115.2">r</tspan><tspan x="425.35" y="115.2">e de paix et </tspan><tspan class="cls-31" x="545.2" y="115.2">d</tspan><tspan x="558.88" y="115.2">’un </tspan><tspan class="cls-11" x="595.48" y="115.2">c</tspan><tspan x="606.09" y="115.2">ou</tspan><tspan class="cls-32" x="632.49" y="115.2">p</tspan><tspan x="645.57" y="115.2">, éc</tspan><tspan class="cls-14" x="678.4" y="115.2">r</tspan><tspan x="686.13" y="115.2">an noi</tspan><tspan class="cls-20" x="748.22" y="115.2">r</tspan><tspan x="754.79" y="115.2">. Eh oui, </tspan><tspan class="cls-9" x="837.13" y="115.2">v</tspan><tspan x="848.44" y="115.2">ous </tspan><tspan class="cls-9" x="889.43" y="115.2">v</tspan><tspan x="900.73" y="115.2">ous ê</tspan><tspan class="cls-11" x="953.75" y="115.2">t</tspan><tspan x="961.55" y="115.2">es mangé une </tspan><tspan x="0" y="144">bosse</tspan><tspan class="cls-33" x="57.86" y="144"> </tspan><tspan x="66.53" y="144">pa</tspan><tspan class="cls-9" x="91.76" y="144">r</tspan><tspan class="cls-11" x="99.37" y="144">c</tspan><tspan x="109.97" y="144">e</tspan><tspan class="cls-34" x="122" y="144"> </tspan><tspan x="130.67" y="144">que</tspan><tspan class="cls-33" x="169.43" y="144"> </tspan><tspan class="cls-9" x="178.1" y="144">v</tspan><tspan x="189.4" y="144">ous</tspan><tspan class="cls-34" x="225.31" y="144"> </tspan><tspan class="cls-30" x="233.98" y="144">a</tspan><tspan class="cls-9" x="245.36" y="144">v</tspan><tspan x="256.66" y="144">ez</tspan><tspan class="cls-33" x="278.96" y="144"> </tspan><tspan x="287.63" y="144">do</tspan><tspan class="cls-35" x="314.34" y="144">r</tspan><tspan x="322.28" y="144">mi</tspan><tspan class="cls-34" x="347.91" y="144"> </tspan><tspan x="356.59" y="144">2h.</tspan><tspan class="cls-33" x="387.19" y="144" xml:space="preserve">  </tspan><tspan class="cls-31" x="404.53" y="144">M</tspan><tspan x="423.97" y="144">ais</tspan><tspan class="cls-33" x="450.66" y="144"> </tspan><tspan class="cls-36" x="459.33" y="144">c</tspan><tspan class="cls-37" x="470.49" y="144">’</tspan><tspan x="473.61" y="144">est</tspan><tspan class="cls-34" x="503.08" y="144"> </tspan><tspan x="511.75" y="144">pas</tspan><tspan class="cls-33" x="546.48" y="144"> </tspan><tspan class="cls-11" x="555.15" y="144">g</tspan><tspan class="cls-14" x="568.42" y="144">r</tspan><tspan class="cls-30" x="576.15" y="144">a</tspan><tspan class="cls-9" x="587.53" y="144">v</tspan><tspan class="cls-38" x="598.83" y="144">e</tspan><tspan x="610.57" y="144">,</tspan><tspan class="cls-34" x="615.53" y="144"> </tspan><tspan class="cls-9" x="624.21" y="144">v</tspan><tspan x="635.51" y="144">ous</tspan><tspan class="cls-33" x="671.41" y="144"> </tspan><tspan class="cls-9" x="680.08" y="144">r</tspan><tspan x="687.69" y="144">emo</tspan><tspan class="cls-8" x="732.91" y="144">n</tspan><tspan class="cls-11" x="746.13" y="144">t</tspan><tspan x="753.93" y="144">ez</tspan><tspan class="cls-34" x="776.23" y="144"> </tspan><tspan x="784.9" y="144">sur</tspan><tspan class="cls-33" x="815.48" y="144"> </tspan><tspan class="cls-9" x="824.15" y="144">v</tspan><tspan x="835.45" y="144">os</tspan><tspan class="cls-34" x="858.13" y="144"> </tspan><tspan x="866.8" y="144">s</tspan><tspan class="cls-36" x="876.31" y="144">k</tspan><tspan x="887.97" y="144">is</tspan><tspan class="cls-33" x="903.09" y="144"> </tspan><tspan x="911.76" y="144">et</tspan><tspan class="cls-34" x="931.73" y="144"> </tspan><tspan class="cls-11" x="940.4" y="144">t</tspan><tspan x="948.2" y="144">el</tspan><tspan class="cls-33" x="965.89" y="144"> </tspan><tspan x="974.56" y="144">un</tspan><tspan class="cls-34" x="1001.1" y="144"> </tspan><tspan x="1009.78" y="144">spa</tspan><tspan class="cls-10" x="1044.5" y="144">r</tspan><tspan x="1052.93" y="144">ti</tspan><tspan class="cls-8" x="1066.49" y="144">a</tspan><tspan class="cls-11" x="1077.96" y="144">t</tspan><tspan class="cls-13" x="1085.76" y="144">e</tspan><tspan x="1097.5" y="144">, </tspan><tspan x="0" y="172.8">des</tspan><tspan class="cls-11" x="35.06" y="172.8">c</tspan><tspan x="45.67" y="172.8">endez</tspan><tspan class="cls-39" x="106.85" y="172.8"> </tspan><tspan x="113.87" y="172.8">la</tspan><tspan class="cls-39" x="131.1" y="172.8"> </tspan><tspan x="138.12" y="172.8">pis</tspan><tspan class="cls-5" x="166.89" y="172.8">t</tspan><tspan x="174.7" y="172.8">e</tspan><tspan class="cls-40" x="186.72" y="172.8"> </tspan><tspan x="193.74" y="172.8">à</tspan><tspan class="cls-39" x="205.31" y="172.8"> </tspan><tspan x="212.33" y="172.8">vi</tspan><tspan class="cls-16" x="229.49" y="172.8">v</tspan><tspan x="240.79" y="172.8">e</tspan><tspan class="cls-39" x="252.82" y="172.8"> </tspan><tspan x="259.84" y="172.8">allu</tspan><tspan class="cls-9" x="295.95" y="172.8">r</tspan><tspan class="cls-13" x="303.56" y="172.8">e</tspan><tspan x="315.3" y="172.8">.</tspan><tspan class="cls-39" x="320.27" y="172.8"> </tspan><tspan class="cls-17" x="327.29" y="172.8">E</tspan><tspan x="339.02" y="172.8">t</tspan><tspan class="cls-40" x="346.97" y="172.8"> </tspan><tspan class="cls-11" x="353.99" y="172.8">c</tspan><tspan x="364.6" y="172.8">e</tspan><tspan class="cls-39" x="376.62" y="172.8"> </tspan><tspan x="383.64" y="172.8">soir</tspan><tspan class="cls-39" x="419.78" y="172.8"> </tspan><tspan class="cls-9" x="426.81" y="172.8">v</tspan><tspan x="438.11" y="172.8">ous</tspan><tspan class="cls-39" x="474.01" y="172.8"> </tspan><tspan class="cls-9" x="481.03" y="172.8">r</tspan><tspan x="488.64" y="172.8">esso</tspan><tspan class="cls-10" x="532.85" y="172.8">r</tspan><tspan x="541.27" y="172.8">ti</tspan><tspan class="cls-9" x="554.83" y="172.8">r</tspan><tspan x="562.44" y="172.8">ez</tspan><tspan class="cls-40" x="584.74" y="172.8"> </tspan><tspan x="591.76" y="172.8">fai</tspan><tspan class="cls-16" x="615.95" y="172.8">r</tspan><tspan x="623.56" y="172.8">e</tspan><tspan class="cls-39" x="635.58" y="172.8"> </tspan><tspan x="642.6" y="172.8">la</tspan><tspan class="cls-39" x="659.83" y="172.8"> </tspan><tspan class="cls-41" x="666.85" y="172.8">f</tspan><tspan x="673.55" y="172.8">ê</tspan><tspan class="cls-11" x="685.57" y="172.8">t</tspan><tspan x="693.37" y="172.8">e</tspan><tspan class="cls-39" x="705.4" y="172.8"> </tspan><tspan class="cls-30" x="712.42" y="172.8">a</tspan><tspan class="cls-9" x="723.79" y="172.8">v</tspan><tspan x="735.1" y="172.8">ec</tspan><tspan class="cls-40" x="757.87" y="172.8"> </tspan><tspan class="cls-9" x="764.89" y="172.8">v</tspan><tspan x="776.2" y="172.8">os</tspan><tspan class="cls-39" x="798.88" y="172.8"> </tspan><tspan x="805.9" y="172.8">po</tspan><tspan class="cls-11" x="832.73" y="172.8">t</tspan><tspan x="840.53" y="172.8">e</tspan><tspan class="cls-42" x="852.55" y="172.8">s</tspan><tspan x="861.79" y="172.8">,</tspan><tspan class="cls-39" x="866.76" y="172.8"> </tspan><tspan x="873.78" y="172.8">et</tspan><tspan class="cls-39" x="893.75" y="172.8"> </tspan><tspan class="cls-9" x="900.77" y="172.8">v</tspan><tspan x="912.07" y="172.8">ous</tspan><tspan class="cls-40" x="947.98" y="172.8"> </tspan><tspan x="955" y="172.8">do</tspan><tspan class="cls-43" x="981.71" y="172.8">r</tspan><tspan x="989.65" y="172.8">mi</tspan><tspan class="cls-16" x="1015.29" y="172.8">r</tspan><tspan x="1022.89" y="172.8">ez</tspan><tspan class="cls-39" x="1045.19" y="172.8"> </tspan><tspan x="1052.21" y="172.8">3h06 </tspan><tspan x="0" y="201.6">pa</tspan><tspan class="cls-9" x="25.22" y="201.6">r</tspan><tspan class="cls-11" x="32.83" y="201.6">c</tspan><tspan x="43.44" y="201.6">e que </tspan><tspan class="cls-15" x="104.4" y="201.6">c</tspan><tspan class="cls-44" x="115.56" y="201.6">’</tspan><tspan x="118.68" y="201.6">est ça S</tspan><tspan class="cls-15" x="192.48" y="201.6">k</tspan><tspan class="cls-45" x="204.14" y="201.6">i</tspan><tspan x="209.93" y="201.6">’U</tspan><tspan class="cls-46" x="230.42" y="201.6">T</tspan><tspan x="241.7" y="201.6">C.</tspan></text></g></g></svg>