<svg xmlns="http://www.w3.org/2000/svg" viewBox="0 0 1342.62 138.57"><title>text_shotgun</title><g id="Calque_2" data-name="Calque 2"><g id="Voyage"><path d="M20,66.43,14.6,80.93H0L25.91,16.71H46.23l-.82,64.22H31.18l.53-14.5ZM32,54.9c.47-10,1.19-21.31,1.61-27.21h-.39c-1.7,5.85-5.29,16.47-9,27.21Z" transform="translate(0 -15.54)"/><path d="M64,16.71H78.4L67.26,69.17H87.37L83.81,80.93H50.36Z" transform="translate(0 -15.54)"/><path d="M134.26,50.87C129,75,120.61,82.1,108.37,82.1c-15.19,0-21-10.65-15.49-36,4.87-22.39,13.71-30.54,25.54-30.54C132.79,15.54,139.94,24.53,134.26,50.87Zm-27-3.4c-3.47,16.12-3.47,23.33,1.91,23.33,4.25,0,6.78-4,10.55-21.23,3.5-15.75,4-22.66-1.88-22.66C113.37,26.91,110.57,32.26,107.29,47.47Z" transform="translate(0 -15.54)"/><path d="M155.74,54.24l-5.61,26.69H135.89l13.66-64.22h19.06c14.58,0,19.38,8.75,16.88,19.92-1.89,8.38-6.87,11.49-11.24,12.76,4.26,2.26,6.21,6.54,4.41,15.44a159.85,159.85,0,0,0-2.74,16.1H162c-.09-2.7,1.09-9.2,2.63-16.9,1.47-7.38.34-9.79-5.17-9.79Zm2.35-10.76h3.68c5,0,8-1.2,9.28-7.12,1.17-5.61-.58-8.92-5.88-8.92h-3.7Z" transform="translate(0 -15.54)"/><path d="M198.7,62.14c-.44,4.59.38,9.23,5,9.23,3.39,0,5.29-2.18,6-5.8.83-4.43-.48-7.77-6.8-12.9-9-7.33-12.58-12.73-10.89-22.09,1.53-8.4,7.23-15,18.78-15,15.92,0,18.91,11.2,17.75,18.92H215.29c.37-3.4.08-8.19-4.57-8.19-2.88,0-4.54,1.75-5.08,5s.45,5.59,7,10.78c10.58,8.39,13.35,14.68,11.09,25-1.87,8.66-8.09,15-20.28,15-16.27,0-19.89-10.34-18.43-20Z" transform="translate(0 -15.54)"/><path d="M257.05,16.71h16.78c14.81,0,21,9.05,18,23C289,53.12,280.14,57.21,268.78,57.21h-6.12l-5,23.72H243.39Zm8,29.38h4.46c5,0,7.49-2.56,8.66-8.68,1.27-6.53-.5-9.78-5.58-9.78H269Z" transform="translate(0 -15.54)"/><path d="M309.84,54.24l-5.61,26.69H290l13.66-64.22H322.7c14.59,0,19.39,8.75,16.89,19.92-1.89,8.38-6.87,11.49-11.24,12.76,4.26,2.26,6.21,6.54,4.41,15.44A159.85,159.85,0,0,0,330,80.93H316.08c-.09-2.7,1.09-9.2,2.62-16.9,1.48-7.38.35-9.79-5.16-9.79Zm2.35-10.76h3.68c5,0,8-1.2,9.28-7.12,1.17-5.61-.58-8.92-5.88-8.92h-3.7Z" transform="translate(0 -15.54)"/><path d="M376.84,53.39h-19L354.53,69.3H377l-4,11.63H337.83l13.66-64.22h34l-2.58,11.66H363.13l-2.77,13.37h19Z" transform="translate(0 -15.54)"/><path d="M393.67,16.71h16.77c14.82,0,21,9.05,18,23-2.86,13.36-11.72,17.45-23.07,17.45h-6.12l-5,23.72H380Zm8,29.38h4.45c5,0,7.5-2.56,8.67-8.68,1.27-6.53-.51-9.78-5.59-9.78h-3.61Z" transform="translate(0 -15.54)"/><path d="M439.41,66.43l-5.34,14.5H419.46l25.91-64.22H465.7l-.83,64.22H450.65l.53-14.5ZM451.49,54.9c.47-10,1.18-21.31,1.6-27.21h-.38c-1.7,5.85-5.29,16.47-9,27.21Z" transform="translate(0 -15.54)"/><path d="M489.68,54.24l-5.61,26.69H469.83l13.66-64.22h19.05c14.59,0,19.39,8.75,16.89,19.92-1.89,8.38-6.87,11.49-11.24,12.76,4.26,2.26,6.21,6.54,4.41,15.44a159.85,159.85,0,0,0-2.74,16.1H495.92c-.09-2.7,1.09-9.2,2.62-16.9,1.48-7.38.35-9.79-5.16-9.79ZM492,43.48h3.68c5,0,8-1.2,9.28-7.12,1.17-5.61-.58-8.92-5.88-8.92h-3.7Z" transform="translate(0 -15.54)"/><path d="M556.68,53.39h-19L534.37,69.3h22.48l-4,11.63H517.67l13.66-64.22h34l-2.58,11.66H543L540.2,41.74h19Z" transform="translate(0 -15.54)"/><path d="M595.26,28.37H583l2.52-11.66h38.61l-2.51,11.66H609.6L598.46,80.93H584.12Z" transform="translate(0 -15.54)"/><path d="M662.63,50.87C657.41,75,649,82.1,636.74,82.1c-15.19,0-21-10.65-15.5-36,4.87-22.39,13.72-30.54,25.55-30.54C661.16,15.54,668.31,24.53,662.63,50.87Zm-27-3.4c-3.47,16.12-3.47,23.33,1.9,23.33,4.26,0,6.78-4,10.56-21.23,3.49-15.75,4-22.66-1.88-22.66C641.74,26.91,638.94,32.26,635.66,47.47Z" transform="translate(0 -15.54)"/><path d="M692.29,16.71,678.63,80.93H664.26l13.66-64.22Z" transform="translate(0 -15.54)"/><path d="M717.62,16.71H734.4c14.81,0,21,9.05,18,23-2.85,13.36-11.71,17.45-23.07,17.45h-6.11l-5,23.72H704Zm8,29.38h4.46c5,0,7.49-2.56,8.67-8.68,1.27-6.53-.51-9.78-5.59-9.78h-3.61Z" transform="translate(0 -15.54)"/><path d="M798.23,50.87C793,75,784.57,82.1,772.34,82.1c-15.19,0-21-10.65-15.5-36,4.87-22.39,13.72-30.54,25.55-30.54C796.76,15.54,803.91,24.53,798.23,50.87Zm-27-3.4c-3.47,16.12-3.47,23.33,1.91,23.33,4.25,0,6.77-4,10.55-21.23,3.49-15.75,3.95-22.66-1.88-22.66C777.34,26.91,774.54,32.26,771.26,47.47Z" transform="translate(0 -15.54)"/><path d="M827.65,16.71l-9.52,44.76c-1,4.68-.84,9.39,4.34,9.39s6.44-4.68,7.44-9.39l9.52-44.76h14.48l-9.45,44.41c-2.71,12.83-7.89,20.95-23.29,20.95-14.75,0-20.09-8.29-17.28-21.45l9.35-43.91Z" transform="translate(0 -15.54)"/><path d="M869.32,54.24l-5.6,26.69H849.48l13.66-64.22h19.05c14.59,0,19.39,8.75,16.89,19.92-1.9,8.38-6.88,11.49-11.24,12.76,4.26,2.26,6.21,6.54,4.4,15.44a159.85,159.85,0,0,0-2.74,16.1H875.57c-.09-2.7,1.08-9.2,2.62-16.9,1.48-7.38.34-9.79-5.16-9.79Zm2.36-10.76h3.67c5,0,8-1.2,9.29-7.12,1.17-5.61-.58-8.92-5.88-8.92h-3.7Z" transform="translate(0 -15.54)"/><path d="M926.64,16.71H941L929.87,69.17H950l-3.56,11.76H913Z" transform="translate(0 -15.54)"/><path d="M991.73,53.39h-19L969.42,69.3H991.9l-4,11.63H952.72l13.66-64.22h34l-2.58,11.66H978l-2.77,13.37h19Z" transform="translate(0 -15.54)"/><path d="M1026.09,62.14c-.44,4.59.38,9.23,5,9.23,3.39,0,5.29-2.18,6-5.8.83-4.43-.48-7.77-6.79-12.9-9.06-7.33-12.59-12.73-10.89-22.09,1.52-8.4,7.22-15,18.77-15,15.92,0,18.91,11.2,17.75,18.92h-13.23c.37-3.4.08-8.19-4.57-8.19-2.88,0-4.54,1.75-5.08,5s.45,5.59,7,10.78c10.58,8.39,13.35,14.68,11.1,25-1.88,8.66-8.1,15-20.29,15-16.27,0-19.89-10.34-18.43-20Z" transform="translate(0 -15.54)"/><path d="M1068.6,16.71H1083l-5.22,24.9h11.58l5.23-24.9H1109l-13.66,64.22H1080.9l5.85-27.66h-11.59l-5.85,27.66h-14.37Z" transform="translate(0 -15.54)"/><path d="M1152,50.87C1146.8,75,1138.37,82.1,1126.13,82.1c-15.19,0-21-10.65-15.49-36,4.87-22.39,13.71-30.54,25.54-30.54C1150.55,15.54,1157.7,24.53,1152,50.87Zm-27-3.4c-3.47,16.12-3.47,23.33,1.91,23.33,4.25,0,6.77-4,10.55-21.23,3.49-15.75,4-22.66-1.88-22.66C1131.13,26.91,1128.33,32.26,1125.05,47.47Z" transform="translate(0 -15.54)"/><path d="M1170.08,28.37h-12.22l2.52-11.66H1199l-2.52,11.66h-12l-11.15,52.56h-14.34Z" transform="translate(0 -15.54)"/><path d="M1230,80.93h-10.71a40.26,40.26,0,0,1,.47-5.2c-3.11,4.66-7.11,6.37-12.68,6.37-11.85,0-16.34-11-11.45-34.52,5-24,14-32,26.48-32,16.09,0,18.19,12.16,17.33,18.87h-14.25c.41-3.11.82-7.66-3.91-7.66s-8,5.77-11.24,21.5-2.78,22.5,2.63,22.5c4.44,0,6.26-3.89,7.64-10.7l.9-4.28H1215l2.48-11.35h20.29Z" transform="translate(0 -15.54)"/><path d="M1266,16.71l-9.52,44.76c-1,4.68-.84,9.39,4.34,9.39s6.44-4.68,7.44-9.39l9.52-44.76h14.48l-9.45,44.41c-2.71,12.83-7.89,20.95-23.29,20.95-14.75,0-20.08-8.29-17.28-21.45l9.35-43.91Z" transform="translate(0 -15.54)"/><path d="M1287.85,80.93l13.66-64.22h15.89c3,28.78,3.94,38.35,4.1,41.59h.26c1.11-8.08,3.36-20.57,5.37-29.92l2.49-11.67h13L1329,80.93h-15.65c-2.44-29.87-3.49-40.84-3.74-44.17h-.29c-1.17,7.73-3.53,21.17-5.77,31.67l-2.67,12.5Z" transform="translate(0 -15.54)"/><path d="M368.27,88.71h14.38l-11.14,52.46h20.11l-3.56,11.76H354.61Z" transform="translate(0 -15.54)"/><path d="M420.16,88.71l-9.53,44.76c-1,4.68-.84,9.39,4.34,9.39s6.44-4.68,7.44-9.39l9.53-44.76h14.47L437,133.12c-2.71,12.83-7.89,20.95-23.29,20.95-14.75,0-20.08-8.29-17.28-21.45l9.36-43.91Z" transform="translate(0 -15.54)"/><path d="M442,152.93l13.66-64.22h15.89c3,28.78,4,38.35,4.1,41.59h.26c1.11-8.08,3.36-20.57,5.38-29.92l2.48-11.67h13L483.1,152.93H467.44c-2.44-29.87-3.49-40.84-3.73-44.17h-.3c-1.17,7.73-3.53,21.17-5.77,31.67L455,152.93Z" transform="translate(0 -15.54)"/><path d="M506.71,88.71H522.1c17.89,0,23.06,12.6,18.68,33.82-4.42,21.45-11.45,30.4-28.14,30.4H493.05Zm3,53.48h2c6.88,0,10.73-1.95,14.38-20.3,3.74-18.75,1.91-22.32-5.89-22.32H518.7Z" transform="translate(0 -15.54)"/><path d="M570.2,88.71l-13.66,64.22H542.16l13.66-64.22Z" transform="translate(0 -15.54)"/><path d="M584.12,152.93l10.8-50.31a52.62,52.62,0,0,1-6.15-.42l2.17-9.55c5.33-.38,8.48-2,11.08-4.28h10.07l-13.66,64.56Z" transform="translate(0 -15.54)"/><path d="M627.58,152.93l3-14.6H609.11l2.36-11,23.3-38.65h19.86l-8.21,38.58h5.15l-3.09,11.1H644l-3,14.6Zm7.27-33.85c1.46-6.9,3.5-15.16,4.67-19.56-2.34,4.72-10.89,20.1-15.24,27.71h8.79Z" transform="translate(0 -15.54)"/><path d="M715.1,122.87c-5.23,24.16-13.66,31.23-25.9,31.23-15.19,0-21-10.65-15.49-36,4.87-22.39,13.72-30.54,25.55-30.54C713.63,87.54,720.78,96.53,715.1,122.87Zm-27-3.4c-3.48,16.12-3.47,23.33,1.9,23.33,4.26,0,6.78-4,10.56-21.23,3.49-15.75,3.95-22.66-1.89-22.66C694.2,98.91,691.4,104.26,688.13,119.47Z" transform="translate(0 -15.54)"/><path d="M759.94,133.76c-2.36,9-6.78,20.34-22.19,20.34-15.66,0-20.72-10.79-15.5-35,4.44-20.66,11.82-31.52,26.19-31.52,14.92,0,17.9,10.31,16.45,20.21H750.83c.6-4.75.9-9.1-3.56-9.1s-7.45,6.56-10.51,21.11c-3.34,15.67-3.62,23.1,1.8,23.1,4,0,6-4.81,7-9.1Z" transform="translate(0 -15.54)"/><path d="M780.7,100.37H768.48L771,88.71h38.61l-2.52,11.66H795L783.9,152.93H769.55Z" transform="translate(0 -15.54)"/><path d="M848.07,122.87c-5.22,24.16-13.66,31.23-25.89,31.23-15.19,0-21-10.65-15.5-36,4.87-22.39,13.72-30.54,25.55-30.54C846.6,87.54,853.75,96.53,848.07,122.87Zm-27-3.4c-3.47,16.12-3.47,23.33,1.9,23.33,4.26,0,6.78-4,10.56-21.23,3.49-15.75,4-22.66-1.88-22.66C827.18,98.91,824.38,104.26,821.1,119.47Z" transform="translate(0 -15.54)"/><path d="M863.36,88.71h18.22c13.68,0,18.63,8.48,16.51,19-1.46,7.25-5.85,10.66-10.44,12.06,4.52,2.28,8.37,7.47,6.82,16.19-2,11.47-9.94,16.94-22.87,16.94H849.7Zm2.52,53.72h4.68c4.4,0,8.53-1.64,9.61-8.79,1-6.28-1.08-9.38-7.49-9.38h-2.95Zm9.6-28.33c5.41,0,7.91-1.66,8.8-6.61s-.34-8.15-5.81-8.15H875l-3.1,14.76Z" transform="translate(0 -15.54)"/><path d="M917.47,126.24l-5.6,26.69H897.63l13.66-64.22h19.05c14.59,0,19.39,8.75,16.89,19.92-1.9,8.38-6.88,11.49-11.24,12.76,4.26,2.26,6.21,6.54,4.41,15.44-1.55,7.74-2.53,13-2.74,16.1H923.72c-.09-2.7,1.09-9.2,2.62-16.9,1.48-7.38.34-9.79-5.16-9.79Zm2.36-10.76h3.67c5,0,8-1.2,9.29-7.12,1.17-5.61-.58-8.92-5.88-8.92h-3.7Z" transform="translate(0 -15.54)"/><path d="M984.48,125.39h-19l-3.34,15.91h22.48l-4,11.63H945.47l13.66-64.22h34l-2.58,11.66H970.77L968,113.74h19Z" transform="translate(0 -15.54)"/></g></g></svg>