<svg xmlns="http://www.w3.org/2000/svg" viewBox="0 0 1139.28 332.22"><defs><style>.cls-1{opacity:0.6;}.cls-2{fill:#fc6;}.cls-3{font-size:24px;font-family:MyriadPro-Regular, Myriad Pro;}.cls-4{letter-spacing:0em;}.cls-5{letter-spacing:0em;}.cls-6{letter-spacing:0.02em;}.cls-7{letter-spacing:0.01em;}.cls-8{letter-spacing:-0.03em;}.cls-9{letter-spacing:-0.01em;}.cls-10{letter-spacing:0em;}.cls-11{letter-spacing:-0.01em;}.cls-12{letter-spacing:0em;}.cls-13{letter-spacing:-0.01em;}.cls-14{letter-spacing:0em;}.cls-15{letter-spacing:0.11em;}.cls-16{letter-spacing:0.11em;}.cls-17{letter-spacing:0em;}.cls-18{letter-spacing:0em;}.cls-19{letter-spacing:0em;}.cls-20{letter-spacing:-0.01em;}.cls-21{letter-spacing:-0.01em;}.cls-22{letter-spacing:-0.01em;}.cls-23{letter-spacing:-0.01em;}.cls-24{letter-spacing:-0.05em;}</style></defs><title>text_defis</title><g id="Calque_2" data-name="Calque 2"><g id="Voyage"><g class="cls-1"><path class="cls-2" d="M805.46,29.87H833c32,0,41.22,22.52,33.39,60.46-7.9,38.34-20.46,54.34-50.31,54.34H781Zm5.38,95.61h3.54c12.29,0,19.18-3.5,25.71-36.3,6.68-33.51,3.41-39.9-10.54-39.9H826.9Z" transform="translate(0 -27.77)"/><path class="cls-2" d="M938.56,95.44h-33.9l-6,28.45h40.18l-7.1,20.78H868.83l24.42-114.8H954l-4.61,20.84H914.06l-5,23.89H943Z" transform="translate(0 -27.77)"/><path class="cls-2" d="M968.64,29.87h61.7l-4.61,20.78H989.68l-5.13,25.1h33.72l-4.44,20.84h-33.9l-10.12,48.08H944.22Z" transform="translate(0 -27.77)"/><path class="cls-2" d="M1066.28,29.87l-24.42,114.8h-25.7l24.42-114.8Z" transform="translate(0 -27.77)"/><path class="cls-2" d="M1085.57,111.08c-.78,8.2.67,16.51,9,16.51,6.07,0,9.46-3.9,10.64-10.38,1.47-7.92-.86-13.89-12.15-23-16.19-13.11-22.5-22.76-19.47-39.5,2.73-15,12.92-26.89,33.56-26.89,28.47,0,33.81,20,31.74,33.82h-23.66c.66-6.08.15-14.64-8.17-14.64-5.14,0-8.12,3.14-9.08,9s.8,10,12.59,19.26c18.91,15,23.86,26.25,19.83,44.69-3.35,15.49-14.47,26.85-36.26,26.85-29.08,0-35.56-18.5-32.94-35.69Z" transform="translate(0 -27.77)"/></g><text class="cls-3" transform="translate(0 95.62)"><tspan class="cls-4">Q</tspan><tspan x="16.61" y="0">ue se</tspan><tspan class="cls-5" x="68.47" y="0">r</tspan><tspan x="76.2" y="0">ait une semaine S</tspan><tspan class="cls-6" x="251.06" y="0">k</tspan><tspan class="cls-7" x="262.73" y="0">i</tspan><tspan x="268.51" y="0">’U</tspan><tspan class="cls-8" x="289" y="0">T</tspan><tspan x="300.28" y="0">C sans des défis </tspan><tspan class="cls-9" x="461.13" y="0">t</tspan><tspan x="468.93" y="0">otaleme</tspan><tspan class="cls-10" x="551.35" y="0">n</tspan><tspan x="564.57" y="0">ts ba</tspan><tspan class="cls-11" x="612.33" y="0">r</tspan><tspan class="cls-12" x="619.94" y="0">és ? La </tspan><tspan class="cls-13" x="689.37" y="0">r</tspan><tspan x="696.98" y="0">éponse est simple : </tspan><tspan class="cls-14" x="891.95" y="0">r</tspan><tspan x="899.89" y="0">ien ! </tspan><tspan x="0" y="28.8">La</tspan><tspan class="cls-15" x="22.9" y="28.8"> </tspan><tspan class="cls-9" x="30.57" y="28.8">t</tspan><tspan x="38.37" y="28.8">eam</tspan><tspan class="cls-16" x="81.97" y="28.8"> </tspan><tspan class="cls-17" x="89.64" y="28.8">A</tspan><tspan x="104.26" y="28.8">nim</tspan><tspan class="cls-15" x="143.21" y="28.8"> </tspan><tspan class="cls-9" x="150.88" y="28.8">t</tspan><tspan class="cls-18" x="158.68" y="28.8">e</tspan><tspan class="cls-15" x="170.7" y="28.8"> </tspan><tspan class="cls-12" x="178.37" y="28.8">p</tspan><tspan class="cls-11" x="192.03" y="28.8">r</tspan><tspan x="199.64" y="28.8">épa</tspan><tspan class="cls-11" x="236.89" y="28.8">r</tspan><tspan x="244.49" y="28.8">e</tspan><tspan class="cls-16" x="256.52" y="28.8"> </tspan><tspan x="264.19" y="28.8">une</tspan><tspan class="cls-15" x="302.76" y="28.8"> </tspan><tspan x="310.43" y="28.8">des</tspan><tspan class="cls-9" x="345.49" y="28.8">c</tspan><tspan x="356.1" y="28.8">e</tspan><tspan class="cls-10" x="368.12" y="28.8">n</tspan><tspan class="cls-9" x="381.35" y="28.8">t</tspan><tspan x="389.15" y="28.8">e</tspan><tspan class="cls-16" x="401.17" y="28.8"> </tspan><tspan x="408.84" y="28.8">de</tspan><tspan class="cls-15" x="434.4" y="28.8"> </tspan><tspan x="442.07" y="28.8">challenges</tspan><tspan class="cls-15" x="549.32" y="28.8"> </tspan><tspan x="556.99" y="28.8">do</tspan><tspan class="cls-10" x="583.7" y="28.8">n</tspan><tspan class="cls-12" x="596.93" y="28.8">t</tspan><tspan class="cls-16" x="604.87" y="28.8"> </tspan><tspan class="cls-18" x="612.54" y="28.8">tu</tspan><tspan class="cls-15" x="633.71" y="28.8"> </tspan><tspan class="cls-10" x="641.38" y="28.8">v</tspan><tspan x="652.83" y="28.8">as</tspan><tspan class="cls-15" x="673.9" y="28.8"> </tspan><tspan x="681.57" y="28.8">de</tspan><tspan class="cls-11" x="707.13" y="28.8">v</tspan><tspan x="718.43" y="28.8">oir</tspan><tspan class="cls-16" x="745.07" y="28.8"> </tspan><tspan x="752.74" y="28.8">t</tspan><tspan class="cls-19" x="760.69" y="28.8">r</tspan><tspan x="768.63" y="28.8">iompher</tspan><tspan class="cls-15" x="854.28" y="28.8"> </tspan><tspan x="861.95" y="28.8">pour</tspan><tspan class="cls-15" x="909.86" y="28.8"> </tspan><tspan x="917.53" y="28.8">ga</tspan><tspan class="cls-9" x="942.51" y="28.8">g</tspan><tspan class="cls-18" x="955.78" y="28.8">ner</tspan><tspan class="cls-16" x="988.97" y="28.8"> </tspan><tspan x="996.64" y="28.8">des</tspan><tspan class="cls-15" x="1031.71" y="28.8"> </tspan><tspan class="cls-12" x="1039.38" y="28.8">lots </tspan><tspan x="0" y="57.6">inc</tspan><tspan class="cls-11" x="29.69" y="57.6">r</tspan><tspan class="cls-20" x="37.3" y="57.6">o</tspan><tspan class="cls-10" x="50.3" y="57.6">y</tspan><tspan x="61.51" y="57.6">able</tspan><tspan class="cls-21" x="104.42" y="57.6">s</tspan><tspan x="113.66" y="57.6" xml:space="preserve">.  </tspan><tspan class="cls-17" x="128.81" y="57.6">E</tspan><tspan x="140.54" y="57.6">t c</tspan><tspan class="cls-13" x="164.33" y="57.6">r</tspan><tspan x="171.93" y="57.6">ois moi, ça ne se</tspan><tspan class="cls-22" x="333.55" y="57.6">r</tspan><tspan x="341.28" y="57.6">a pas fai</tspan><tspan class="cls-11" x="421.94" y="57.6">r</tspan><tspan x="429.55" y="57.6">e 10 </tspan><tspan class="cls-6" x="476.37" y="57.6">k</tspan><tspan class="cls-18" x="488.03" y="57.6">ills </tspan><tspan class="cls-23" x="519.57" y="57.6">a</tspan><tspan class="cls-13" x="530.95" y="57.6">v</tspan><tspan x="542.25" y="57.6">ec une a</tspan><tspan class="cls-14" x="625.34" y="57.6">r</tspan><tspan x="633.28" y="57.6">me en o</tspan><tspan class="cls-24" x="714.02" y="57.6">r</tspan><tspan x="720.59" y="57.6">.</tspan></text></g></g></svg>