<svg xmlns="http://www.w3.org/2000/svg" viewBox="0 0 1222.25 381.77"><defs><style>.cls-1{opacity:0.6;}.cls-2{fill:#fc6;}.cls-3{font-size:24px;font-family:MyriadPro-Regular, Myriad Pro;}.cls-4{letter-spacing:0.24em;}.cls-5{letter-spacing:0.24em;}.cls-6{letter-spacing:0.02em;}.cls-7{letter-spacing:-0.02em;}.cls-8{letter-spacing:0em;}.cls-9{letter-spacing:-0.01em;}.cls-10{letter-spacing:0em;}.cls-11{letter-spacing:0em;}.cls-12{letter-spacing:-0.01em;}.cls-13{letter-spacing:0em;}.cls-14{letter-spacing:-0.01em;}.cls-15{letter-spacing:-0.01em;}.cls-16{letter-spacing:-0.01em;}.cls-17{letter-spacing:0em;}.cls-18{letter-spacing:-0.01em;}.cls-19{letter-spacing:0.15em;}.cls-20{letter-spacing:0.02em;}.cls-21{letter-spacing:-0.01em;}.cls-22{letter-spacing:0.02em;}.cls-23{letter-spacing:-0.08em;}.cls-24{letter-spacing:0.01em;}.cls-25{letter-spacing:0em;}.cls-26{letter-spacing:0.02em;}.cls-27{letter-spacing:-0.01em;}.cls-28{letter-spacing:0.02em;}.cls-29{letter-spacing:0.01em;}.cls-30{letter-spacing:-0.04em;}.cls-31{letter-spacing:-0.01em;}.cls-32{letter-spacing:0.02em;}.cls-33{letter-spacing:-0.08em;}.cls-34{letter-spacing:-0.01em;}.cls-35{letter-spacing:-0.01em;}.cls-36{letter-spacing:0.02em;}.cls-37{letter-spacing:0.02em;}.cls-38{letter-spacing:-0.02em;}.cls-39{letter-spacing:0.02em;}.cls-40{letter-spacing:0em;}.cls-41{letter-spacing:0em;}.cls-42{letter-spacing:-0.01em;}.cls-43{letter-spacing:-0.01em;}.cls-44{letter-spacing:0.02em;}.cls-45{letter-spacing:0em;}</style></defs><title>text_souvernirs</title><g id="Calque_2" data-name="Calque 2"><g id="Voyage"><g class="cls-1"><path class="cls-2" d="M26.25,111.08c-.78,8.2.67,16.51,9,16.51,6.07,0,9.46-3.9,10.64-10.38,1.47-7.92-.86-13.89-12.15-23C17.54,81.05,11.23,71.4,14.26,54.66c2.73-15,12.92-26.89,33.56-26.89,28.47,0,33.81,20,31.74,33.82H55.9c.66-6.08.15-14.64-8.17-14.64-5.14,0-8.12,3.14-9.08,9s.8,10,12.59,19.26c18.91,15,23.86,26.25,19.83,44.69-3.35,15.49-14.47,26.85-36.26,26.85-29.08,0-35.56-18.5-32.94-35.69Z" transform="translate(-1.34 -27.77)"/><path class="cls-2" d="M160.48,90.93c-9.33,43.19-24.41,55.84-46.29,55.84-27.15,0-37.59-19-27.69-64.4,8.7-40,24.52-54.6,45.66-54.6C157.86,27.77,170.64,43.85,160.48,90.93Zm-48.21-6.08c-6.21,28.82-6.2,41.71,3.4,41.71,7.61,0,12.12-7.17,18.87-37.95,6.25-28.15,7.06-40.52-3.36-40.52C123.13,48.09,118.12,57.66,112.27,84.85Z" transform="translate(-1.34 -27.77)"/><path class="cls-2" d="M213.08,29.87l-17,80c-1.79,8.36-1.5,16.78,7.76,16.78s11.51-8.36,13.3-16.78l17-80H260l-16.9,79.38c-4.84,22.94-14.1,37.46-41.63,37.46-26.37,0-35.91-14.81-30.89-38.35l16.72-78.49Z" transform="translate(-1.34 -27.77)"/><path class="cls-2" d="M268.47,144.67l-.29-114.8h25.65l-2.24,45.4c-.77,14.71-1.43,30.48-2.82,43.21h.76c3.86-12.25,9.82-28.72,15.27-43.21l17.4-45.4h26.33l-49.47,114.8Z" transform="translate(-1.34 -27.77)"/><path class="cls-2" d="M402.81,95.44H368.9l-6,28.45h40.18L396,144.67H333.07l24.42-114.8h60.8l-4.61,20.84H378.3l-5,23.89h33.91Z" transform="translate(-1.34 -27.77)"/><path class="cls-2" d="M408.47,144.67l24.42-114.8h28.4c5.29,51.44,7.06,68.55,7.33,74.34h.47c2-14.44,6-36.76,9.61-53.48l4.45-20.86h23.24L482,144.67H454c-4.36-53.4-6.24-73-6.68-79h-.53c-2.09,13.82-6.31,37.84-10.31,56.62l-4.78,22.34Z" transform="translate(-1.34 -27.77)"/><path class="cls-2" d="M549.89,29.87l-24.42,114.8h-25.7l24.42-114.8Z" transform="translate(-1.34 -27.77)"/><path class="cls-2" d="M578.75,97l-10,47.71H543.27l24.42-114.8h34.07c26.07,0,34.65,15.64,30.18,35.61-3.38,15-12.29,20.53-20.09,22.8,7.61,4,11.1,11.7,7.88,27.61-2.77,13.83-4.51,23.28-4.9,28.78H589.92c-.17-4.82,1.94-16.45,4.68-30.22,2.65-13.19.62-17.49-9.22-17.49ZM583,77.72h6.57c8.92,0,14.34-2.14,16.6-12.72,2.09-10-1-16-10.52-16H589Z" transform="translate(-1.34 -27.77)"/><path class="cls-2" d="M655.56,111.08c-.79,8.2.66,16.51,9,16.51,6.07,0,9.47-3.9,10.65-10.38,1.47-7.92-.86-13.89-12.16-23-16.18-13.11-22.49-22.76-19.47-39.5,2.73-15,12.92-26.89,33.57-26.89,28.47,0,33.8,20,31.74,33.82H685.2c.67-6.08.16-14.64-8.16-14.64-5.15,0-8.12,3.14-9.08,9s.8,10,12.58,19.26c18.92,15,23.87,26.25,19.84,44.69-3.36,15.49-14.48,26.85-36.26,26.85-29.09,0-35.57-18.5-33-35.69Z" transform="translate(-1.34 -27.77)"/></g><text class="cls-3" transform="translate(114.16 91.13)">Une<tspan class="cls-4" x="40.87" y="0"> </tspan><tspan x="51.78" y="0">semaine</tspan><tspan class="cls-5" x="135.85" y="0"> </tspan><tspan x="146.76" y="0">inoubliable</tspan><tspan class="cls-4" x="259.94" y="0"> </tspan><tspan class="cls-6" x="270.85" y="0">t</tspan><tspan class="cls-7" x="279.3" y="0">’</tspan><tspan class="cls-8" x="283.83" y="0">a</tspan><tspan x="295.31" y="0">t</tspan><tspan class="cls-9" x="303.25" y="0">t</tspan><tspan class="cls-10" x="311.05" y="0">end</tspan><tspan class="cls-4" x="349.93" y="0"> </tspan><tspan class="cls-11" x="360.84" y="0">a</tspan><tspan class="cls-12" x="372.41" y="0">cc</tspan><tspan x="393.62" y="0">ompa</tspan><tspan class="cls-12" x="452.04" y="0">g</tspan><tspan x="465.31" y="0">née</tspan><tspan class="cls-5" x="502.68" y="0"> </tspan><tspan x="513.59" y="0">de</tspan><tspan class="cls-4" x="539.15" y="0"> </tspan><tspan x="550.06" y="0">son</tspan><tspan class="cls-4" x="586.05" y="0"> </tspan><tspan x="596.96" y="0">lot</tspan><tspan class="cls-4" x="623.75" y="0"> </tspan><tspan x="634.66" y="0">de</tspan><tspan class="cls-5" x="660.22" y="0"> </tspan><tspan x="671.12" y="0">su</tspan><tspan class="cls-13" x="693.85" y="0">r</tspan><tspan class="cls-11" x="701.8" y="0">p</tspan><tspan class="cls-13" x="715.45" y="0">r</tspan><tspan x="723.4" y="0">ise</tspan><tspan class="cls-14" x="750.54" y="0">s</tspan><tspan x="759.78" y="0">,</tspan><tspan class="cls-4" x="764.75" y="0"> </tspan><tspan x="775.66" y="0">de</tspan><tspan class="cls-4" x="801.22" y="0"> </tspan><tspan class="cls-15" x="812.13" y="0">r</tspan><tspan x="819.73" y="0">epas</tspan><tspan class="cls-5" x="866.48" y="0"> </tspan><tspan x="877.39" y="0">nut</tspan><tspan class="cls-13" x="911.88" y="0">r</tspan><tspan x="919.83" y="0">iti</tspan><tspan class="cls-16" x="939" y="0">f</tspan><tspan x="945.79" y="0">s</tspan><tspan class="cls-4" x="955.3" y="0"> </tspan><tspan class="cls-10" x="966.21" y="0">et</tspan><tspan class="cls-4" x="986.17" y="0"> </tspan><tspan class="cls-10" x="997.08" y="0">de</tspan><tspan class="cls-5" x="1022.64" y="0"> </tspan><tspan x="1033.55" y="0">soi</tspan><tspan class="cls-15" x="1061.85" y="0">r</tspan><tspan x="1069.45" y="0">ées </tspan><tspan class="cls-17" x="0" y="28.8">e</tspan><tspan class="cls-18" x="11.95" y="28.8">x</tspan><tspan x="22.7" y="28.8">eptionnelles</tspan><tspan class="cls-19" x="146.64" y="28.8"> </tspan><tspan x="155.39" y="28.8">pour</tspan><tspan class="cls-19" x="203.29" y="28.8"> </tspan><tspan class="cls-12" x="212.04" y="28.8">t</tspan><tspan x="219.84" y="28.8">e</tspan><tspan class="cls-19" x="231.87" y="28.8"> </tspan><tspan x="240.62" y="28.8">fai</tspan><tspan class="cls-15" x="264.81" y="28.8">r</tspan><tspan x="272.42" y="28.8">e</tspan><tspan class="cls-19" x="284.44" y="28.8"> </tspan><tspan class="cls-20" x="293.19" y="28.8">k</tspan><tspan x="304.86" y="28.8">i</tspan><tspan class="cls-21" x="310.47" y="28.8">ff</tspan><tspan x="324.15" y="28.8">er</tspan><tspan class="cls-19" x="344.02" y="28.8"> </tspan><tspan class="cls-12" x="352.77" y="28.8">c</tspan><tspan x="363.38" y="28.8">omme</tspan><tspan class="cls-19" x="428.61" y="28.8"> </tspan><tspan x="437.36" y="28.8">jamai</tspan><tspan class="cls-14" x="491.96" y="28.8">s</tspan><tspan x="501.2" y="28.8">.</tspan><tspan class="cls-19" x="506.17" y="28.8"> </tspan><tspan class="cls-22" x="514.92" y="28.8">C</tspan><tspan class="cls-23" x="529.3" y="28.8">’</tspan><tspan class="cls-10" x="532.42" y="28.8">est</tspan><tspan class="cls-19" x="561.89" y="28.8"> </tspan><tspan class="cls-24" x="570.64" y="28.8">l</tspan><tspan class="cls-23" x="576.45" y="28.8">’</tspan><tspan x="579.57" y="28.8">o</tspan><tspan class="cls-12" x="592.75" y="28.8">c</tspan><tspan x="603.35" y="28.8">casion</tspan><tspan class="cls-19" x="667.29" y="28.8"> </tspan><tspan x="676.04" y="28.8">de</tspan><tspan class="cls-19" x="701.6" y="28.8"> </tspan><tspan x="710.35" y="28.8">mo</tspan><tspan class="cls-25" x="743.54" y="28.8">n</tspan><tspan class="cls-10" x="756.77" y="28.8">t</tspan><tspan class="cls-15" x="764.71" y="28.8">r</tspan><tspan x="772.32" y="28.8">er</tspan><tspan class="cls-19" x="792.19" y="28.8"> </tspan><tspan class="cls-9" x="800.94" y="28.8">t</tspan><tspan class="cls-10" x="808.74" y="28.8">es</tspan><tspan class="cls-19" x="830.27" y="28.8"> </tspan><tspan x="839.02" y="28.8">s</tspan><tspan class="cls-26" x="848.52" y="28.8">k</tspan><tspan x="860.19" y="28.8">ills</tspan><tspan class="cls-19" x="886.63" y="28.8"> </tspan><tspan x="895.38" y="28.8">de</tspan><tspan class="cls-19" x="920.94" y="28.8"> </tspan><tspan class="cls-13" x="929.7" y="28.8">r</tspan><tspan class="cls-11" x="937.64" y="28.8">ider</tspan><tspan class="cls-19" x="976.66" y="28.8"> </tspan><tspan class="cls-9" x="985.41" y="28.8">t</tspan><tspan x="993.21" y="28.8">el</tspan><tspan class="cls-19" x="1010.9" y="28.8"> </tspan><tspan class="cls-27" x="1019.65" y="28.8">C</tspan><tspan x="1033.41" y="28.8">andide </tspan><tspan class="cls-27" x="0" y="57.6">T</tspan><tspan class="cls-11" x="11.76" y="57.6">h</tspan><tspan class="cls-27" x="25.08" y="57.6">o</tspan><tspan class="cls-15" x="38.09" y="57.6">v</tspan><tspan class="cls-17" x="49.39" y="57.6">e</tspan><tspan x="61.34" y="57.6">x</tspan><tspan class="cls-28" x="72.46" y="57.6"> </tspan><tspan x="77.92" y="57.6">à</tspan><tspan class="cls-28" x="89.49" y="57.6"> </tspan><tspan class="cls-12" x="94.95" y="57.6">t</tspan><tspan x="102.75" y="57.6">on</tspan><tspan class="cls-28" x="129.25" y="57.6"> </tspan><tspan x="134.71" y="57.6">crush</tspan><tspan class="cls-28" x="189.36" y="57.6"> </tspan><tspan x="194.82" y="57.6">et</tspan><tspan class="cls-28" x="214.79" y="57.6"> </tspan><tspan class="cls-29" x="220.25" y="57.6">l</tspan><tspan class="cls-30" x="226.06" y="57.6">’</tspan><tspan class="cls-11" x="230.09" y="57.6">i</tspan><tspan class="cls-31" x="235.71" y="57.6">n</tspan><tspan x="248.72" y="57.6">vi</tspan><tspan class="cls-9" x="265.88" y="57.6">t</tspan><tspan class="cls-10" x="273.68" y="57.6">er</tspan><tspan class="cls-28" x="293.55" y="57.6"> </tspan><tspan class="cls-10" x="299.01" y="57.6">pour</tspan><tspan class="cls-28" x="346.92" y="57.6"> </tspan><tspan x="352.38" y="57.6">une</tspan><tspan class="cls-28" x="390.95" y="57.6"> </tspan><tspan class="cls-31" x="396.41" y="57.6">f</tspan><tspan x="403.11" y="57.6">ondue</tspan><tspan class="cls-28" x="468.39" y="57.6"> </tspan><tspan x="473.85" y="57.6">en</tspan><tspan class="cls-28" x="499.19" y="57.6"> </tspan><tspan class="cls-12" x="504.66" y="57.6">t</tspan><tspan x="512.46" y="57.6">ê</tspan><tspan class="cls-9" x="524.48" y="57.6">t</tspan><tspan class="cls-10" x="532.28" y="57.6">e</tspan><tspan class="cls-28" x="544.3" y="57.6"> </tspan><tspan class="cls-11" x="549.77" y="57.6">à</tspan><tspan class="cls-28" x="561.34" y="57.6"> </tspan><tspan class="cls-12" x="566.8" y="57.6">t</tspan><tspan x="574.6" y="57.6">ê</tspan><tspan class="cls-12" x="586.62" y="57.6">t</tspan><tspan x="594.42" y="57.6">e</tspan><tspan class="cls-32" x="606.45" y="57.6"> </tspan><tspan x="611.91" y="57.6">!</tspan><tspan class="cls-28" x="617.43" y="57.6"> </tspan><tspan class="cls-22" x="622.9" y="57.6">C</tspan><tspan class="cls-33" x="637.27" y="57.6">’</tspan><tspan x="640.39" y="57.6">est</tspan><tspan class="cls-28" x="669.86" y="57.6"> </tspan><tspan class="cls-29" x="675.33" y="57.6">l</tspan><tspan class="cls-23" x="681.13" y="57.6">’</tspan><tspan x="684.25" y="57.6">o</tspan><tspan class="cls-12" x="697.43" y="57.6">c</tspan><tspan x="708.04" y="57.6">casion</tspan><tspan class="cls-28" x="771.97" y="57.6"> </tspan><tspan x="777.44" y="57.6">de</tspan><tspan class="cls-28" x="803" y="57.6"> </tspan><tspan x="808.46" y="57.6">viv</tspan><tspan class="cls-15" x="837.16" y="57.6">r</tspan><tspan class="cls-10" x="844.77" y="57.6">e</tspan><tspan class="cls-28" x="856.79" y="57.6"> </tspan><tspan class="cls-11" x="862.26" y="57.6">une</tspan><tspan class="cls-28" x="900.83" y="57.6"> </tspan><tspan x="906.29" y="57.6">super</tspan><tspan class="cls-28" x="962.55" y="57.6"> </tspan><tspan x="968.01" y="57.6">semaine</tspan><tspan class="cls-28" x="1052.08" y="57.6"> </tspan><tspan class="cls-34" x="1057.54" y="57.6">a</tspan><tspan class="cls-35" x="1068.92" y="57.6">v</tspan><tspan x="1080.22" y="57.6">ec </tspan><tspan class="cls-12" x="0" y="86.4">t</tspan><tspan x="7.8" y="86.4">es</tspan><tspan class="cls-36" x="29.33" y="86.4"> </tspan><tspan x="35" y="86.4">po</tspan><tspan class="cls-12" x="61.83" y="86.4">t</tspan><tspan class="cls-11" x="69.63" y="86.4">es</tspan><tspan class="cls-36" x="91.16" y="86.4"> </tspan><tspan class="cls-10" x="96.83" y="86.4">pa</tspan><tspan class="cls-35" x="122.06" y="86.4">r</tspan><tspan class="cls-12" x="129.66" y="86.4">c</tspan><tspan class="cls-11" x="140.27" y="86.4">e</tspan><tspan class="cls-37" x="152.3" y="86.4"> </tspan><tspan x="157.97" y="86.4">q</tspan><tspan class="cls-38" x="171.48" y="86.4">u</tspan><tspan class="cls-33" x="184.18" y="86.4">’</tspan><tspan x="187.3" y="86.4">on</tspan><tspan class="cls-36" x="213.79" y="86.4"> </tspan><tspan x="219.47" y="86.4">sait</tspan><tspan class="cls-36" x="254.1" y="86.4"> </tspan><tspan x="259.77" y="86.4">que</tspan><tspan class="cls-36" x="298.53" y="86.4"> </tspan><tspan class="cls-15" x="304.2" y="86.4">v</tspan><tspan x="315.51" y="86.4">ous</tspan><tspan class="cls-36" x="351.41" y="86.4"> </tspan><tspan x="357.08" y="86.4">a</tspan><tspan class="cls-13" x="368.65" y="86.4">rr</tspan><tspan x="384.54" y="86.4">i</tspan><tspan class="cls-15" x="390.15" y="86.4">v</tspan><tspan x="401.46" y="86.4">e</tspan><tspan class="cls-35" x="413.48" y="86.4">r</tspan><tspan class="cls-11" x="421.09" y="86.4">ez</tspan><tspan class="cls-37" x="443.38" y="86.4"> </tspan><tspan class="cls-11" x="449.06" y="86.4">pas</tspan><tspan class="cls-36" x="483.78" y="86.4"> </tspan><tspan class="cls-11" x="489.46" y="86.4">à</tspan><tspan class="cls-36" x="501.03" y="86.4"> </tspan><tspan class="cls-10" x="506.7" y="86.4">pa</tspan><tspan class="cls-39" x="531.92" y="86.4">r</tspan><tspan class="cls-11" x="540.35" y="86.4">tir</tspan><tspan class="cls-36" x="561.75" y="86.4"> </tspan><tspan class="cls-11" x="567.43" y="86.4">ensemble</tspan><tspan class="cls-36" x="665.66" y="86.4"> </tspan><tspan class="cls-10" x="671.33" y="86.4">du</tspan><tspan class="cls-40" x="698.09" y="86.4">r</tspan><tspan class="cls-11" x="705.82" y="86.4">a</tspan><tspan class="cls-41" x="717.38" y="86.4">n</tspan><tspan class="cls-11" x="730.61" y="86.4">t</tspan><tspan class="cls-36" x="738.55" y="86.4"> </tspan><tspan class="cls-24" x="744.23" y="86.4">l</tspan><tspan class="cls-23" x="750.03" y="86.4">’</tspan><tspan class="cls-11" x="753.15" y="86.4">é</tspan><tspan class="cls-42" x="765.18" y="86.4">t</tspan><tspan class="cls-43" x="772.98" y="86.4">é</tspan><tspan x="784.71" y="86.4">.</tspan><tspan class="cls-37" x="789.68" y="86.4"> </tspan><tspan class="cls-44" x="795.35" y="86.4">C</tspan><tspan class="cls-33" x="809.73" y="86.4">’</tspan><tspan class="cls-11" x="812.85" y="86.4">est</tspan><tspan class="cls-36" x="842.32" y="86.4"> </tspan><tspan class="cls-29" x="847.99" y="86.4">l</tspan><tspan class="cls-23" x="853.8" y="86.4">’</tspan><tspan x="856.92" y="86.4">o</tspan><tspan class="cls-12" x="870.1" y="86.4">c</tspan><tspan x="880.7" y="86.4">casion</tspan><tspan class="cls-36" x="944.64" y="86.4"> </tspan><tspan class="cls-10" x="950.31" y="86.4">de</tspan><tspan class="cls-36" x="975.87" y="86.4"> </tspan><tspan class="cls-45" x="981.54" y="86.4">r</tspan><tspan class="cls-11" x="989.49" y="86.4">ider</tspan><tspan class="cls-36" x="1028.51" y="86.4"> </tspan><tspan x="1034.18" y="86.4">la</tspan><tspan class="cls-37" x="1051.42" y="86.4"> </tspan><tspan class="cls-10" x="1057.09" y="86.4">peuf </tspan><tspan class="cls-12" x="0" y="115.2">c</tspan><tspan x="10.61" y="115.2">omme un dieu !</tspan></text></g></g></svg>