<svg xmlns="http://www.w3.org/2000/svg" viewBox="0 0 220.03 194.43"><defs><style>.cls-1{fill:#dda94e;}.cls-2{fill:#fff;}</style></defs><title>ticket_2</title><g id="Calque_2" data-name="Calque 2"><g id="Packs"><path d="M220,191.78c-1,2-2.68,2.65-4.92,2.65Q110,194.37,5,194.39c-3.84,0-5-1.13-5-5q0-13.32,0-26.64c0-3.71.89-4.68,4.54-5a14.74,14.74,0,0,0,13.78-14A14.65,14.65,0,0,0,7.15,128.87,25.86,25.86,0,0,0,4,128.44C1.17,128.11,0,126.9,0,124.11q0-14,0-27.94c0-3.11,1.34-4.45,4.47-4.45,9.45,0,18.91-.06,28.36,0A5.25,5.25,0,0,0,36.94,90q43.71-43.8,87.49-87.54c3.28-3.28,4.58-3.29,7.83-.05q7.14,7.14,14.27,14.29c2.44,2.45,2.47,4,.19,6.65a14.65,14.65,0,0,0,20.66,20.7c2.74-2.35,4.21-2.29,6.79.29l18.09,18.07c2.85,2.86,2.86,4.42,0,7.24l-22.07,22h2.68c14,0,27.93,0,41.9,0,2.28,0,4.05.55,5.22,2.56V126a5.4,5.4,0,0,1-4.42,2.48c-8.14.69-13.93,6.8-13.93,14.56s5.95,14.08,14.12,14.64a4.65,4.65,0,0,1,4.23,2.7ZM44.08,186.92H176.14V172.56h7.31v14.36h29.19v-22c-12-3.92-18-11-18.3-21.31s5.37-17.44,18.23-22.41v-22H43.89V110H36.58V99.21H7.33v22c12.82,4.81,18.54,11.78,18.38,22.26-.16,10.28-6,17.21-18.24,21.5v22H36.55l.21-3.31h7.13ZM128.64,9.51l-82.2,82.2c2.75,0,5.73-.08,8.71,0a4.38,4.38,0,0,0,3.55-1.49Q84.34,64.54,110,38.89c2.9-2.91,4.42-2.91,7.35,0L155.51,77c3,3,3,4.48,0,7.36-2.32,2.27-4.74,4.44-7.11,6.65l.46.67c3.05,0,6.11.11,9.15-.06a5.19,5.19,0,0,0,3.13-1.31c7.66-7.53,15.23-15.15,22.82-22.75.48-.48.92-1,1.11-1.22L170.25,51.26c-11,6.91-21.55,3.52-27.52-2A21.28,21.28,0,0,1,136,37.05a21.89,21.89,0,0,1,3.63-16.64Zm-60.57,82a3.93,3.93,0,0,0,.71.14q33.93,0,67.85,0a2.9,2.9,0,0,0,1.89-.7c3.44-3.34,6.8-6.75,10-10L113.59,46Z"/><path class="cls-1" d="M44.08,186.92l-.19-3.3H36.76l-.21,3.31H7.47v-22c12.2-4.29,18.08-11.22,18.24-21.5.16-10.48-5.56-17.45-18.38-22.26v-22H36.58V110h7.31V99.21H212.57v22c-12.86,5-18.54,12-18.23,22.41s6.34,17.39,18.3,21.31v22H183.45V172.56h-7.31v14.36Zm65.9-7.17H149.3c3.21,0,4.28-.92,4.72-4,.61-4.29,2.76-6.42,7.09-7,2.86-.41,3.91-1.52,3.91-4.35q0-21.27,0-42.55c0-2.93-1.12-4.12-4-4.43a7.32,7.32,0,0,1-6.89-6.52c-.6-3.79-1.46-4.52-5.36-4.52H71.38c-4,0-4.8.68-5.46,4.65a7.32,7.32,0,0,1-6.57,6.37c-3.42.43-4.33,1.42-4.33,4.81q0,20.83,0,41.68c0,3.46.82,4.39,4.25,4.9,3.9.59,6.12,2.8,6.71,6.7.51,3.44,1.45,4.27,4.9,4.27ZM43.8,132V117.54h-7V132Zm-7,7.52v14.42h7.07V139.49Zm139.49,11.06V165h7V150.55Zm0-44.09v14.46h7V106.46Zm0,22.09v14.36h7V128.55Zm-132.38,33H36.78v14.31h7.06Z"/><path class="cls-1" d="M128.64,9.51l11,10.9A21.89,21.89,0,0,0,136,37.05a21.28,21.28,0,0,0,6.69,12.2c6,5.53,16.5,8.92,27.52,2L185.1,66.37c-.19.21-.63.74-1.11,1.22-7.59,7.6-15.16,15.22-22.82,22.75A5.19,5.19,0,0,1,158,91.65c-3,.17-6.1.06-9.15.06l-.46-.67c2.37-2.21,4.79-4.38,7.11-6.65,3-2.88,2.92-4.41,0-7.36L117.38,38.91c-2.93-2.93-4.45-2.93-7.35,0Q84.35,64.56,58.7,90.25a4.38,4.38,0,0,1-3.55,1.49c-3-.11-6,0-8.71,0Z"/><path class="cls-2" d="M68.07,91.55,113.59,46l34.94,35c-3.21,3.22-6.57,6.63-10,10a2.9,2.9,0,0,1-1.89.7q-33.91,0-67.85,0A3.93,3.93,0,0,1,68.07,91.55Z"/><path d="M110,179.75H70.88c-3.45,0-4.39-.83-4.9-4.27-.59-3.9-2.81-6.11-6.71-6.7-3.43-.51-4.25-1.44-4.25-4.9Q55,143,55,122.2c0-3.39.91-4.38,4.33-4.81A7.32,7.32,0,0,0,65.92,111c.66-4,1.46-4.65,5.46-4.65h77.35c3.9,0,4.76.73,5.36,4.52a7.32,7.32,0,0,0,6.89,6.52c2.92.31,4,1.5,4,4.43q0,21.27,0,42.55c0,2.83-1.05,3.94-3.91,4.35-4.33.61-6.48,2.74-7.09,7-.44,3.06-1.51,4-4.72,4Zm-.18-7.32c11.81,0,23.63,0,35.44,0a2.17,2.17,0,0,0,2.5-1.63,13.91,13.91,0,0,1,8.56-8.47,1.8,1.8,0,0,0,1.43-2q-.06-17.28,0-34.58a1.78,1.78,0,0,0-1.4-2,14,14,0,0,1-8.59-8.45,2.2,2.2,0,0,0-2.49-1.67q-35.23,0-70.45,0a2.21,2.21,0,0,0-2.51,1.66,13.81,13.81,0,0,1-8.37,8.38A2.05,2.05,0,0,0,62.3,126q.09,17.07,0,34.15a2.06,2.06,0,0,0,1.62,2.29,13.69,13.69,0,0,1,8.38,8.37,2.17,2.17,0,0,0,2.49,1.64C86.46,172.41,98.13,172.43,109.8,172.43Z"/><path d="M43.8,132h-7V117.54h7Z"/><path d="M36.76,139.49h7.07v14.42H36.76Z"/><path d="M176.25,150.55h7V165h-7Z"/><path d="M176.22,106.46h7v14.46h-7Z"/><path d="M176.22,128.55h7v14.36h-7Z"/><path d="M43.84,161.57v14.31H36.78V161.57Z"/><path class="cls-2" d="M109.8,172.43c-11.67,0-23.34,0-35,0a2.17,2.17,0,0,1-2.49-1.64,13.69,13.69,0,0,0-8.38-8.37,2.06,2.06,0,0,1-1.62-2.29q.09-17.07,0-34.15a2.05,2.05,0,0,1,1.62-2.28,13.81,13.81,0,0,0,8.37-8.38,2.21,2.21,0,0,1,2.51-1.66q35.22,0,70.45,0a2.2,2.2,0,0,1,2.49,1.67,14,14,0,0,0,8.59,8.45,1.78,1.78,0,0,1,1.4,2q-.06,17.3,0,34.58a1.8,1.8,0,0,1-1.43,2,13.91,13.91,0,0,0-8.56,8.47,2.17,2.17,0,0,1-2.5,1.63C133.43,172.41,121.61,172.43,109.8,172.43Z"/><path d="M99,137.73a38.24,38.24,0,0,1,11.34-1.7c10.59,0,17.9,4.53,17.9,12.92,0,8.07-7.56,13.55-19,13.55-8.29,0-13.47-2.9-15.27-8.82a4.31,4.31,0,0,1,4.1-2.08c2.46,0,3.53.94,4.68,4.22l1.64,4.54-3.28-2a23.71,23.71,0,0,0,7.64,1.26c8.13,0,12.48-4,12.48-10.08,0-6.31-5-9.77-13.06-9.77a46.06,46.06,0,0,0-7.55.69l-2.3-.44,1.72-19.16h26.69v5h-25l2.22-2.84-1.39,15.57H99Z"/></g></g></svg>