<svg xmlns="http://www.w3.org/2000/svg" viewBox="0 0 1306.88 113.34"><defs><style>.cls-1{stroke:#000;stroke-miterlimit:10;stroke-width:2px;}</style></defs><title>titre_voyage_1</title><g id="Calque_2" data-name="Calque 2"><g id="Voyage"><path d="M461.15,1.24h15.12L464.55,56.4H485.7L482,68.77H446.78Z"/><path d="M529.6,39.81h-20l-3.51,16.73h23.64L525.6,68.77h-37L502.94,1.24h35.77L536,13.5H515.18l-2.91,14.05h19.94Z"/><path d="M559.43,68.77l-.17-67.53h15.09L573,27.94c-.45,8.66-.84,17.93-1.66,25.42h.45c2.27-7.2,5.77-16.89,9-25.42L591,1.24h15.49l-29.1,67.53Z"/><path d="M646.76,37.15C641.27,62.56,632.4,70,619.54,70c-16,0-22.12-11.2-16.3-37.88C608.36,8.57,617.67,0,630.11,0,645.22,0,652.74,9.46,646.76,37.15ZM618.4,33.58c-3.65,17-3.64,24.54,2,24.54,4.47,0,7.12-4.22,11.1-22.33,3.67-16.56,4.15-23.83-2-23.83C624.79,12,621.85,17.58,618.4,33.58Z"/><path d="M655.25,68.77l4.84-23a7.33,7.33,0,0,0,.15-3.11L653.73,1.24H669c.77,7.81,1.88,24.15,1.83,29.39,4.92-10.28,9.75-20.19,14.21-29.39h16.11l-25,42.34a8,8,0,0,0-1,2.68l-4.86,22.51Z"/><path d="M702.59,53.52,697,68.77H681.61L708.86,1.24h21.38l-.87,67.53h-15L715,53.52Zm12.7-12.13c.49-10.47,1.25-22.4,1.69-28.61h-.4c-1.79,6.16-5.57,17.32-9.45,28.61Z"/><path d="M775,68.77H763.72a41,41,0,0,1,.49-5.47c-3.27,4.9-7.48,6.7-13.33,6.7-12.47,0-17.19-11.6-12-36.3C744.08,8.45,753.61,0,766.68,0c16.92,0,19.12,12.79,18.23,19.85h-15c.42-3.28.86-8.06-4.11-8.06S757.41,17.86,754,34.4s-2.93,23.67,2.76,23.67c4.68,0,6.58-4.09,8-11.26l.94-4.5h-6.55l2.61-11.94h21.33Z"/><path d="M825.05,39.81H805.1l-3.51,16.73h23.63l-4.17,12.23H784L798.39,1.24h35.76L831.44,13.5H810.63l-2.92,14.05h19.95Z"/><line class="cls-1" y1="112.34" x2="1306.88" y2="112.34"/></g></g></svg>