<svg xmlns="http://www.w3.org/2000/svg" viewBox="0 0 1090.46 94.2"><defs><style>.cls-1{stroke:#000;stroke-miterlimit:10;stroke-width:2px;}</style></defs><title>titre</title><g id="Calque_2" data-name="Calque 2"><g id="Station"><path d="M232.79,64.94c-2.49,9.47-7.13,21.39-23.33,21.39-16.48,0-21.8-11.34-16.3-36.85,4.66-21.72,12.43-33.15,27.54-33.15,15.69,0,18.83,10.84,17.29,21.25H223.21c.63-5,.95-9.56-3.74-9.56s-7.84,6.89-11.06,22.2c-3.51,16.48-3.8,24.29,1.9,24.29,4.17,0,6.28-5.05,7.39-9.57Z" transform="translate(0 -16.33)"/><path d="M249.21,17.57h15.12l-5.5,26.18H271l5.5-26.18H291.7L277.33,85.1H262.14L268.3,56H256.11L250,85.1H234.84Z" transform="translate(0 -16.33)"/><path d="M336.93,53.48c-5.49,25.41-14.36,32.85-27.22,32.85-16,0-22.12-11.2-16.3-37.88,5.12-23.55,14.43-32.12,26.87-32.12C335.39,16.33,342.91,25.79,336.93,53.48Zm-28.36-3.57c-3.65,17-3.64,24.54,2,24.54,4.47,0,7.12-4.22,11.09-22.33,3.68-16.56,4.16-23.83-2-23.83C315,28.29,312,33.91,308.57,49.91Z" transform="translate(0 -16.33)"/><path d="M368.13,17.57,353.76,85.1H338.64L353,17.57Z" transform="translate(0 -16.33)"/><path d="M389.39,85.1,386.13,63h-.27L374.55,85.1h-16.1l21-34.37-6.73-33.16H388l3.09,21.17.35-.06,10.48-21.11h16l-20.44,33L404.7,85.1Z" transform="translate(0 -16.33)"/><path d="M439.45,17.57h16.18c18.81,0,24.25,13.24,19.64,35.56-4.64,22.55-12,32-29.59,32h-20.6Zm3.16,56.24h2.08c7.24,0,11.29-2.06,15.13-21.36,3.93-19.71,2-23.46-6.2-23.46h-1.56Z" transform="translate(0 -16.33)"/><path d="M517.74,56.14H497.8l-3.51,16.74h23.63L513.74,85.1h-37l14.37-67.53h35.76l-2.71,12.26H503.33l-2.92,14.05h19.95Z" transform="translate(0 -16.33)"/><path d="M537.51,65.34c-.46,4.82.39,9.71,5.29,9.71,3.56,0,5.56-2.29,6.26-6.1.86-4.66-.51-8.18-7.15-13.57-9.52-7.7-13.24-13.38-11.46-23.23,1.61-8.84,7.61-15.82,19.75-15.82,16.75,0,19.88,11.78,18.67,19.9H555c.39-3.58.09-8.62-4.8-8.62-3,0-4.78,1.85-5.35,5.31s.47,5.88,7.41,11.33c11.13,8.83,14,15.44,11.67,26.29-2,9.11-8.52,15.79-21.33,15.79-17.11,0-20.93-10.88-19.38-21Z" transform="translate(0 -16.33)"/><path d="M634,53.48c-5.49,25.41-14.36,32.85-27.22,32.85-16,0-22.12-11.2-16.3-37.88,5.12-23.55,14.43-32.12,26.87-32.12C632.49,16.33,640,25.79,634,53.48Zm-28.36-3.57c-3.65,17-3.64,24.54,2,24.54,4.47,0,7.12-4.22,11.09-22.33,3.68-16.56,4.16-23.83-2-23.83C612.06,28.29,609.12,33.91,605.67,49.91Z" transform="translate(0 -16.33)"/><path d="M650.11,17.57h17.64c15.58,0,22.09,9.51,19,24.24-3,14-12.32,18.35-24.26,18.35H656L650.75,85.1h-15Zm8.41,30.89h4.68c5.26,0,7.88-2.69,9.12-9.13,1.33-6.87-.53-10.29-5.87-10.29h-3.81Z" transform="translate(0 -16.33)"/><path d="M704,29.83H691.17l2.64-12.26h40.61l-2.65,12.26H719.1L707.38,85.1H692.29Z" transform="translate(0 -16.33)"/><path d="M755.71,17.57,741.34,85.1H726.22l14.37-67.53Z" transform="translate(0 -16.33)"/><path d="M800.94,53.48c-5.49,25.41-14.36,32.85-27.22,32.85-16,0-22.12-11.2-16.3-37.88,5.12-23.55,14.43-32.12,26.87-32.12C799.4,16.33,806.92,25.79,800.94,53.48Zm-28.36-3.57c-3.65,17-3.64,24.54,2,24.54,4.47,0,7.12-4.22,11.09-22.33,3.68-16.56,4.16-23.83-2-23.83C779,28.29,776,33.91,772.58,49.91Z" transform="translate(0 -16.33)"/><path d="M802.65,85.1,817,17.57h16.71c3.11,30.26,4.15,40.32,4.31,43.73h.27c1.17-8.5,3.54-21.63,5.66-31.46l2.61-12.27h13.68L845.89,85.1H829.43c-2.57-31.41-3.67-42.95-3.93-46.45h-.31C824,46.78,821.48,60.91,819.12,72L816.31,85.1Z" transform="translate(0 -16.33)"/><path d="M871.6,65.34c-.46,4.82.39,9.71,5.29,9.71,3.57,0,5.57-2.29,6.26-6.1.87-4.66-.51-8.18-7.15-13.57-9.52-7.7-13.23-13.38-11.45-23.23,1.6-8.84,7.6-15.82,19.74-15.82,16.75,0,19.89,11.78,18.67,19.9H889c.39-3.58.09-8.62-4.8-8.62-3,0-4.78,1.85-5.34,5.31s.47,5.88,7.4,11.33c11.13,8.83,14,15.44,11.67,26.29-2,9.11-8.52,15.79-21.33,15.79-17.11,0-20.92-10.88-19.38-21Z" transform="translate(0 -16.33)"/><line class="cls-1" y1="93.2" x2="1090.46" y2="93.2"/></g></g></svg>