<svg xmlns="http://www.w3.org/2000/svg" viewBox="0 0 71.47 76.09"><title>le trailer </title><g id="Calque_2" data-name="Calque 2"><g id="Calque_1-2" data-name="Calque 1"><g id="clap"><path d="M11,76.09a10.19,10.19,0,0,1-4.1-1.5,8.13,8.13,0,0,1-3.71-7q0-17.21,0-34.4a5.67,5.67,0,0,0-.23-1.53C2.12,29,1.37,26.42.49,23.83a5.93,5.93,0,0,1-.37-3.39A8.8,8.8,0,0,1,6.6,13.52L20.3,9.79,40.6,4.28C45.47,3,50.34,1.66,55.2.32c4.41-1.2,9.67,1,11,5.81.78,2.72,1.65,5.42,2.47,8.13.45,1.48.09,2.08-1.49,2.51l-24,6.54L21.31,29.25c-1.64.45-3.29.87-4.91,1.47H69c.32,0,.63,0,.94,0A1.47,1.47,0,0,1,71.43,32a4.53,4.53,0,0,1,0,.74V67.38a8.38,8.38,0,0,1-6.11,8.32c-.49.15-1,.26-1.49.39H43.26c-.36-.4-.9-.74-1-1.19-.32-1,.52-1.78,1.77-1.78H62.32c3.71,0,6-2.2,6-5.75q0-9.48,0-19c0-.26,0-.52,0-.77h-62c0,.18,0,.3,0,.42,0,6.62,0,13.23,0,19.84a5,5,0,0,0,.27,1.53,5.5,5.5,0,0,0,5.53,3.68H30c.36,0,.73,0,1.09,0a1.48,1.48,0,0,1,1.42,1.07A1.36,1.36,0,0,1,32,75.78l-.43.31ZM47.66,5.46l-.11.2c.21.15.45.27.64.43,1.35,1.19,2.72,2.36,4.05,3.57,2.15,1.94,4.28,3.91,6.42,5.85a.93.93,0,0,0,.64.27c2-.51,4-1.06,6.1-1.6-.07-.29-.11-.5-.18-.71q-1-3.24-2-6.48A5.84,5.84,0,0,0,56,3.2l-3.6,1Zm-28,21.13a3,3,0,0,0-.22-.3q-5.49-5-11-9.88a.72.72,0,0,0-.53-.15,5.36,5.36,0,0,0-4.47,6.36c.17.77.43,1.53.66,2.28.54,1.8,1.1,3.59,1.67,5.45Zm34.86,18H68.29V33.69c-2.35,0-4.63,0-6.92,0a.9.9,0,0,0-.55.42c-.55.84-1,1.71-1.57,2.57C57.68,39.29,56.11,41.87,54.5,44.54ZM6.31,33.73V44.61c2.22,0,4.4,0,6.58,0a1,1,0,0,0,1-.55c2-3.26,3.94-6.52,5.91-9.77a6.3,6.3,0,0,0,.27-.57ZM55.64,16.82c-1.71-1.49-3.27-2.82-4.8-4.19-2.12-1.91-4.21-3.83-6.3-5.76a1,1,0,0,0-1.1-.25c-1.38.4-2.8.74-4.19,1.12l-3.48,1-.11.22a7.06,7.06,0,0,1,.64.42l5.35,4.75c1.47,1.33,3,2.62,4.36,4a2.24,2.24,0,0,0,2.63.61C50.87,18,53.16,17.49,55.64,16.82ZM43.72,20.05c-1.16-1-2.21-1.83-3.21-2.73-2.47-2.23-4.94-4.46-7.35-6.76A2,2,0,0,0,30.94,10c-2.34.71-4.71,1.3-7.35,2,.37.27.6.39.78.56,3.12,2.8,6.3,5.54,9.31,8.44a3,3,0,0,0,3.56.84C39.28,21.14,41.42,20.68,43.72,20.05ZM31.66,23.31C30.39,22.16,29.18,21.09,28,20c-2.26-2.05-4.49-4.13-6.77-6.16-.39-.35-1-.85-1.42-.76-2.64.62-5.24,1.39-7.85,2.1l-.18.23a5.23,5.23,0,0,1,.73.44c3.16,2.83,6.36,5.61,9.43,8.53a2.75,2.75,0,0,0,3.21.75C27.26,24.42,29.46,23.91,31.66,23.31Zm25.8,10.38c-2.81,0-5.46,0-8.11,0a1,1,0,0,0-1,.58q-2.9,4.83-5.83,9.64c-.12.2-.23.41-.4.7,2.86,0,5.56,0,8.26,0a.68.68,0,0,0,.49-.26c.47-.64.94-1.29,1.35-2,1-1.57,1.93-3.16,2.9-4.75Zm-28,10.91c3,0,5.76,0,8.51,0a.91.91,0,0,0,.58-.39c1-1.59,2.06-3.18,3.06-4.79s2.06-3.39,3.09-5.08c.1-.18.19-.37.33-.64-2.85,0-5.58,0-8.31,0a1.14,1.14,0,0,0-.73.52c-1.55,2.51-3.06,5.06-4.61,7.57C30.81,42.7,30.17,43.56,29.45,44.6Zm-12.4,0c3,0,5.74,0,8.49,0a1,1,0,0,0,.66-.48C27.49,42,28.76,39.91,30,37.81c.26-.43.51-.86.79-1.27.6-.91,1.22-1.8,1.83-2.7-.16-.09-.2-.13-.24-.13-2.7,0-5.4,0-8.1,0a1,1,0,0,0-.68.46c-.91,1.44-1.76,2.92-2.67,4.36C19.71,40.51,18.43,42.47,17.05,44.6Z"/><path d="M36.86,76.09c-.36-.42-.88-.78-1-1.26a1.31,1.31,0,0,1,1-1.62,1.59,1.59,0,0,1,1.87.67,1.41,1.41,0,0,1-.37,1.86l-.48.35Z"/><path d="M31.25,60.19v-7c0-1.92,1.1-2.51,2.87-1.54,1.94,1.06,3.87,2.13,5.81,3.18,2.38,1.29,4.79,2.56,7.17,3.86,1.56.85,1.55,2.13,0,3q-6.63,3.61-13.26,7.2c-1.39.75-2.56.09-2.57-1.44C31.24,65,31.25,62.61,31.25,60.19Zm3.15,4.94,9.13-4.93L34.4,55.27Z"/></g></g></g></svg>