<svg xmlns="http://www.w3.org/2000/svg" viewBox="0 0 1646.32 1793.13"><defs><style>.cls-1{fill:#29abe2;opacity:0.4;}</style></defs><title>waves</title><g id="Calque_2" data-name="Calque 2"><g id="Tombola"><path class="cls-1" d="M1602,1781.55,0,1775.08V0H1335.33c89.71,86,197.76,218,184.43,366.93C1495,644.06,1072.18,728,1084.44,946c9.24,164.3,253.36,186.65,414.76,488.9C1570.36,1568.16,1593.47,1696,1602,1781.55Z"/><path class="cls-1" d="M1646.32,1793.13,0,1786.66V11.58H1372.25c92.19,86,203.22,218,189.53,366.93-25.48,277.13-459.95,361.07-447.35,579.06,9.49,164.3,260.36,186.65,426.22,488.9C1613.78,1579.74,1637.53,1707.56,1646.32,1793.13Z"/></g></g></svg>